<svg width="105" height="100" viewBox="0 0 105 100" fill="none" xmlns="http://www.w3.org/2000/svg">
<path fill-rule="evenodd" clip-rule="evenodd" d="M2.16211 61.0906V72.6315H9.30531V70.866H4.5081V61.0906H2.16211Z" fill="#314E52"/>
<path fill-rule="evenodd" clip-rule="evenodd" d="M13.4396 67.147V65.4505C13.4396 63.6306 14.4306 62.6985 15.7677 62.6985C17.1048 62.6985 18.0961 63.6306 18.0961 65.4505V67.147H13.4396ZM20.4361 72.6314V65.4999C20.4361 62.59 18.3952 60.8933 15.762 60.8933C13.1288 60.8933 11.0879 62.59 11.0879 65.4999V72.6314H13.4335V68.9077H18.0843V72.6314H20.4361Z" fill="#314E52"/>
<path fill-rule="evenodd" clip-rule="evenodd" d="M30.7061 61.0906H29.2636L26.6126 68.8091L23.9327 61.0906H21.5459L25.9089 72.7004H27.3343L29.9849 64.9671L32.6416 72.7004H34.0608L38.4242 61.0906H36.037L33.3628 68.8091L30.7061 61.0906Z" fill="#314E52"/>
<path fill-rule="evenodd" clip-rule="evenodd" d="M52.6629 66.851C52.6629 69.6572 51.1382 71.043 49.6193 71.043C48.0945 71.043 46.5753 69.6572 46.5753 66.851C46.5753 64.0644 48.1003 62.6833 49.6193 62.6833C51.1441 62.6833 52.6629 64.0644 52.6629 66.851ZM44.1885 66.851C44.1885 70.2984 46.5345 72.8235 49.6193 72.8235C52.704 72.8235 55.0497 70.2984 55.0497 66.851C55.0497 63.4085 52.704 60.8979 49.6193 60.8979C46.5286 60.8979 44.1885 63.4085 44.1885 66.851Z" fill="#314E52"/>
<path fill-rule="evenodd" clip-rule="evenodd" d="M64.9506 62.8564V61.0906H57.5615V72.6315H59.9072V67.1818H64.5168V65.416H59.9072V62.8564H64.9506Z" fill="#314E52"/>
<path fill-rule="evenodd" clip-rule="evenodd" d="M74.4979 62.8564V61.0906H67.1084V72.6315H69.454V67.1818H74.0698V65.416H69.454V62.8564H74.4979Z" fill="#314E52"/>
<path fill-rule="evenodd" clip-rule="evenodd" d="M82.4841 62.5457V61.0906H76.332V62.5457H78.2202V71.1814H76.332V72.6315H82.4841V71.1814H80.5662V62.5457H82.4841Z" fill="#314E52"/>
<path fill-rule="evenodd" clip-rule="evenodd" d="M89.8508 62.6984C91.0003 62.6984 91.8214 63.1962 92.5075 63.9804L93.7861 62.9055C92.9416 61.6084 91.4989 60.8979 89.6457 60.8979C86.2736 60.8979 84.0449 63.5809 84.0449 66.8705C84.0449 70.1601 86.2677 72.8235 89.6457 72.8235C91.4989 72.8235 92.8947 72.1134 93.7861 70.8163L92.5075 69.7606C91.8272 70.5202 91.0062 71.0234 89.8508 71.0234C88.0211 71.0234 86.4317 69.519 86.4317 66.8705C86.4317 64.2221 88.0211 62.6984 89.8508 62.6984Z" fill="#314E52"/>
<path fill-rule="evenodd" clip-rule="evenodd" d="M103.205 62.8564V61.0906H95.9443V72.6315H103.41V70.866H98.2903V67.1818H102.63V65.416H98.2903V62.8564H103.205Z" fill="#314E52"/>
<path fill-rule="evenodd" clip-rule="evenodd" d="M104.999 76.6064H-0.000976562V78.8951H104.999V76.6064Z" fill="#314E52"/>
<path fill-rule="evenodd" clip-rule="evenodd" d="M104.999 54.8774H-0.000976562V57.1658H104.999V54.8774Z" fill="#314E52"/>
<path fill-rule="evenodd" clip-rule="evenodd" d="M62.3749 31.2971C62.3749 30.5178 63.1254 29.8865 64.0461 29.8865C64.9727 29.8865 65.7235 30.5178 65.7235 31.2971C65.7235 32.0763 64.9727 32.7026 64.0461 32.7026C63.1254 32.7026 62.3749 32.0714 62.3749 31.2971ZM40.9456 32.7026C40.019 32.7026 39.2683 32.0714 39.2683 31.2971C39.2683 30.5178 40.019 29.8865 40.9456 29.8865C41.8722 29.8865 42.6229 30.5178 42.6229 31.2971C42.6229 32.0714 41.8722 32.7026 40.9456 32.7026ZM68.7145 31.2971C68.7145 29.132 66.6268 27.376 64.0522 27.376H40.9513C38.3768 27.376 36.2891 29.127 36.2891 31.2971C36.2891 33.4622 38.3768 35.2179 40.9513 35.2179C43.5259 35.2179 45.6136 33.4622 45.6136 31.2971H59.3957C59.3957 33.4622 61.4834 35.2179 64.0579 35.2179C66.6266 35.2179 68.7145 33.4573 68.7145 31.2971Z" fill="#314E52"/>
<path fill-rule="evenodd" clip-rule="evenodd" d="M43.6484 35.4159V53.1807H51.8236V32.2744H46.5983C46.0763 33.9266 45.3433 34.9473 43.6484 35.4159Z" fill="#314E52"/>
<path fill-rule="evenodd" clip-rule="evenodd" d="M58.4748 32.2791H53.1729V53.1857H61.3423V35.4208C59.3894 34.8635 59.0026 33.8869 58.4748 32.2791Z" fill="#314E52"/>
<path fill-rule="evenodd" clip-rule="evenodd" d="M43.6484 80.8835V94.0816L52.3691 100L61.3479 94.0816V80.8835H53.1724V90.0421L52.498 90.3679L51.8236 90.0421V80.8835H43.6484Z" fill="#314E52"/>
<path fill-rule="evenodd" clip-rule="evenodd" d="M71.478 22.9879C71.7536 23.0865 72.0058 23.18 72.3636 23.2934C73.0263 23.5055 73.6303 23.6486 74.2578 23.7768C75.4953 24.0284 76.7093 24.1714 77.8763 24.2504C80.2046 24.4131 82.3509 24.339 84.1748 24.2058C85.6409 24.0924 86.8961 23.9298 87.8813 23.7621C88.4443 24.5759 89.4823 25.1233 90.6787 25.1233C92.4615 25.1233 93.9102 23.9099 93.9102 22.4057C93.9102 20.9064 92.4674 19.6884 90.6787 19.6884C88.8958 19.6884 87.4532 20.9065 87.4532 22.4009C86.5442 22.4551 85.4066 22.4847 84.1046 22.4551C82.3687 22.4107 80.3452 22.2727 78.2633 21.9126C77.2252 21.7351 76.1756 21.5031 75.1727 21.1875C74.6801 21.0346 74.1638 20.8521 73.7474 20.6598C73.5597 20.5809 73.2842 20.4477 73.0261 20.3244L72.2637 19.9448C70.1173 18.8993 67.8419 18.0017 65.6016 17.3359C63.3672 16.6602 61.1737 16.2162 59.2383 15.9795C58.558 15.8956 57.9073 15.8363 57.3033 15.7919L56.7928 9.85878C58.2414 8.82307 59.1506 7.33381 59.1506 5.67668C59.1506 2.53996 55.9072 0 51.9076 0C47.9079 0 44.671 2.54489 44.671 5.67668C44.671 7.33381 45.5857 8.82307 47.0284 9.85878L46.524 15.7724C45.832 15.8168 45.0872 15.8808 44.2955 15.9795C42.3601 16.2162 40.1666 16.6602 37.9322 17.3359C35.6919 18.0017 33.4107 18.8993 31.2701 19.9448L30.5138 20.3244C30.2557 20.4477 29.9798 20.5809 29.7921 20.6598C29.3699 20.8472 28.8598 21.0296 28.3672 21.1875C27.3643 21.5031 26.3147 21.7351 25.2766 21.9126C23.1947 22.2727 21.1712 22.4107 19.4353 22.4551C18.2448 22.4847 17.1891 22.46 16.3211 22.4156V22.4057C16.3211 20.9064 14.8728 19.6884 13.0899 19.6884C11.3071 19.6884 9.8584 20.9064 9.8584 22.4057C9.8584 23.905 11.3012 25.1233 13.0899 25.1233C14.2687 25.1233 15.295 24.5906 15.858 23.8015C16.808 23.9544 17.9987 24.1022 19.3651 24.2058C21.189 24.339 23.3353 24.4131 25.6636 24.2504C26.8306 24.1714 28.0446 24.0284 29.2821 23.7768C29.9096 23.6486 30.5078 23.5055 31.1763 23.2934C31.5341 23.18 31.7863 23.0864 32.0619 22.9927L32.8887 22.692C34.9883 21.9522 37.1524 21.3751 39.1933 21.0102C41.2342 20.6403 43.152 20.4725 44.7647 20.4478C45.2515 20.438 45.703 20.4478 46.1253 20.4626L45.6034 26.6128H58.2239L57.6959 20.4527C58.0361 20.4428 58.3941 20.438 58.7694 20.4478C60.3881 20.4676 62.3 20.6353 64.3409 21.0102C66.3818 21.3751 68.5397 21.9522 70.6451 22.692L71.478 22.9879Z" fill="#314E52"/>
<path fill-rule="evenodd" clip-rule="evenodd" d="M33.51 43.6283H23.1589V31.4168L33.51 43.6283ZM22.6077 31.4216V43.6331H12.2565L22.6077 31.4216ZM11.5589 43.653H10.3447V45.8968H11.9634L13.4646 50.0004C13.7813 50.8635 14.6493 51.4453 15.6169 51.4453H30.2316C31.2051 51.4453 32.0672 50.8635 32.3839 50.0004L33.8852 45.8968H35.4805V43.653H34.2019L23.1532 30.6227V29.2515C23.939 29.1381 24.537 28.5711 24.537 27.8806C24.537 27.1902 23.939 26.618 23.1532 26.5095V24.3442H22.6019V26.5095C21.8161 26.618 21.2177 27.1902 21.2177 27.8806C21.2177 28.5711 21.8161 29.1432 22.6019 29.2566V30.6275L11.5589 43.653Z" fill="#314E52"/>
<path fill-rule="evenodd" clip-rule="evenodd" d="M81.0997 31.4216V43.6331H70.7486L81.0997 31.4216ZM91.996 43.6283H81.6452V31.4168L91.996 43.6283ZM71.9567 50.0004C72.2733 50.8635 73.1413 51.4453 74.109 51.4453H88.7179C89.6914 51.4453 90.5536 50.8635 90.8702 50.0004L92.3772 45.8968H93.9726V43.653H92.694L81.6452 30.6227V29.2515C82.4311 29.1381 83.029 28.5711 83.029 27.8806C83.029 27.1902 82.4311 26.618 81.6452 26.5095V24.3442H81.094V26.5095C80.3081 26.618 79.7098 27.1902 79.7098 27.8806C79.7098 28.5711 80.3081 29.1432 81.094 29.2566V30.6275L70.0449 43.6578H68.8311V45.902H70.4497L71.9567 50.0004Z" fill="#314E52"/>
</svg>
