<svg width="105" height="100" viewBox="0 0 105 100" fill="none" xmlns="http://www.w3.org/2000/svg">
<path fill-rule="evenodd" clip-rule="evenodd" d="M9.4541 85.0603L2.95801 86.525L7.36845 92.4765L6.90534 100L22.3389 95.7093C21.7151 95.626 10.8429 91.3007 10.8429 91.3007C10.3799 89.2189 9.91706 87.1421 9.4541 85.0603Z" fill="#314E52"/>
<path fill-rule="evenodd" clip-rule="evenodd" d="M23.416 93.9314C23.4395 93.9361 23.4489 93.9359 23.4395 93.9265L23.416 93.9314Z" fill="#314E52"/>
<path fill-rule="evenodd" clip-rule="evenodd" d="M12.0811 90.5653C12.0811 90.5653 22.9581 94.8855 23.5819 94.9736L23.611 94.9641C23.5867 94.9298 23.538 94.7483 23.4697 94.4642L21.8228 88.6501C18.5626 89.2037 15.3169 89.8355 12.0811 90.5653Z" fill="#314E52"/>
<path fill-rule="evenodd" clip-rule="evenodd" d="M94.1613 91.3007C94.1613 91.3007 83.2839 95.6211 82.6602 95.7093L98.094 100L97.6309 92.4765L102.041 86.525L95.5453 85.0603C95.0872 87.1421 94.6242 89.2189 94.1613 91.3007Z" fill="#314E52"/>
<path fill-rule="evenodd" clip-rule="evenodd" d="M81.5348 94.4642C81.4666 94.7483 81.4179 94.9298 81.3936 94.9641L81.4227 94.9689C82.0416 94.8856 92.9188 90.5653 92.9188 90.5653C89.6878 89.8355 86.4371 89.2037 83.1818 88.6501L81.5348 94.4642Z" fill="#314E52"/>
<path fill-rule="evenodd" clip-rule="evenodd" d="M25.4872 75.6207C24.5125 75.7579 23.9035 76.625 24.1228 78.1043C24.191 78.5647 24.2545 79.0252 24.3227 79.4807C25.4338 79.3191 26.5398 79.1624 27.646 79.0203C27.5875 78.5599 27.5293 78.0943 27.4708 77.6388C27.2856 76.1546 26.4667 75.4836 25.4872 75.6207Z" fill="#314E52"/>
<path fill-rule="evenodd" clip-rule="evenodd" d="M50.254 73.7499C49.1331 73.7646 48.0414 74.9252 48.0999 77.2176C48.1584 79.5247 49.2598 80.6367 50.3319 80.622C51.4089 80.6073 52.4858 79.4709 52.4907 77.1638C52.4907 74.8763 51.3748 73.7352 50.254 73.7499Z" fill="#314E52"/>
<path fill-rule="evenodd" clip-rule="evenodd" d="M17.1104 65.4526C15.5656 65.58 14.0499 67.3386 14.0548 67.3484C14.0353 67.368 16.7741 68.9842 18.3677 68.7491C19.9369 68.5335 20.4729 66.7018 20.4875 66.7116C20.4729 66.7214 18.6406 65.3351 17.1104 65.4526Z" fill="#314E52"/>
<path fill-rule="evenodd" clip-rule="evenodd" d="M22.0713 64.2334C22.0372 62.7345 20.7166 60.545 20.7361 60.5352C20.7458 60.5401 18.9719 62.0684 18.8744 63.5819C18.7623 65.1053 20.4825 66.7218 20.4874 66.7071C20.502 66.7218 22.0859 65.747 22.0713 64.2334Z" fill="#314E52"/>
<path fill-rule="evenodd" clip-rule="evenodd" d="M9.28918 61.873C9.26969 61.8926 11.672 63.8374 13.2558 63.8178C14.8104 63.8178 15.6438 62.1132 15.6535 62.123C15.6389 62.1279 14.0893 60.5358 12.5786 60.4428C11.0532 60.3595 9.28918 61.873 9.28918 61.873Z" fill="#314E52"/>
<path fill-rule="evenodd" clip-rule="evenodd" d="M17.6128 59.9326C17.8321 58.4729 16.9062 56.1609 16.9257 56.156C16.9354 56.1609 14.9568 57.4102 14.606 58.865C14.2502 60.3345 15.6438 62.1321 15.6535 62.1174C15.6682 62.137 17.3691 61.4021 17.6128 59.9326Z" fill="#314E52"/>
<path fill-rule="evenodd" clip-rule="evenodd" d="M8.95716 54.952C7.47081 54.6532 5.50209 55.8777 5.50209 55.8875C5.4826 55.9022 7.53417 58.1309 9.08387 58.3366C10.6092 58.5472 11.6958 57.0042 11.7055 57.014C11.6909 57.014 10.4289 55.2508 8.95716 54.952Z" fill="#314E52"/>
<path fill-rule="evenodd" clip-rule="evenodd" d="M11.1943 53.6919C10.6144 55.0781 11.6963 57.0179 11.7011 57.0081C11.7109 57.0179 13.4946 56.5379 13.9673 55.1419C14.4205 53.7557 13.8747 51.3701 13.8942 51.3701C13.9039 51.3799 11.7645 52.3204 11.1943 53.6919Z" fill="#314E52"/>
<path fill-rule="evenodd" clip-rule="evenodd" d="M6.24322 49.0719C4.82023 48.5673 2.6906 49.4883 2.6906 49.498C2.6711 49.5078 4.3573 51.9815 5.84852 52.393C7.32025 52.8142 8.6262 51.4573 8.63107 51.472C8.62133 51.472 7.64672 49.5764 6.24322 49.0719Z" fill="#314E52"/>
<path fill-rule="evenodd" clip-rule="evenodd" d="M8.63632 48.1615C7.85172 49.4351 8.62181 51.4826 8.63156 51.4777C8.63643 51.4924 10.4689 51.2719 11.1512 49.9739C11.8091 48.6807 11.6335 46.2756 11.653 46.2756C11.653 46.2756 9.40629 46.8978 8.63632 48.1615Z" fill="#314E52"/>
<path fill-rule="evenodd" clip-rule="evenodd" d="M4.43057 42.9258C3.10017 42.2254 0.858615 42.8278 0.858615 42.8376C0.839122 42.8474 2.14018 45.517 3.55342 46.1293C4.9423 46.7563 6.4383 45.6101 6.4383 45.6248C6.42855 45.6199 5.74636 43.6214 4.43057 42.9258Z" fill="#314E52"/>
<path fill-rule="evenodd" clip-rule="evenodd" d="M9.14752 44.5078C9.99547 43.3322 10.1709 40.9419 10.1903 40.9468C10.1903 40.9468 7.8754 41.2406 6.93486 42.3721C5.97483 43.5085 6.42828 45.6344 6.4429 45.6246C6.4429 45.6344 8.28496 45.6785 9.14752 44.5078Z" fill="#314E52"/>
<path fill-rule="evenodd" clip-rule="evenodd" d="M2.19809 39.644C3.48464 40.4571 5.12212 39.546 5.12699 39.5607C5.11237 39.5558 4.72748 37.4888 3.52379 36.612C2.30547 35.7352 0.00518168 35.9997 0.000308414 36.0095C-0.0191846 36.0144 0.887187 38.8357 2.19809 39.644Z" fill="#314E52"/>
<path fill-rule="evenodd" clip-rule="evenodd" d="M7.96851 38.849C8.9724 37.8155 9.4841 35.4839 9.5036 35.4888C9.5036 35.4986 7.17416 35.4496 6.07768 36.4244C4.96658 37.409 5.11274 39.5641 5.12736 39.5592C5.12736 39.569 6.94025 39.8826 7.96851 38.849Z" fill="#314E52"/>
<path fill-rule="evenodd" clip-rule="evenodd" d="M1.78338 33.0508C2.93834 34.0403 4.69264 33.3741 4.69264 33.3888C4.68289 33.3839 4.59511 31.2825 3.52787 30.2441C2.446 29.1958 0.131097 29.1272 0.131097 29.137C0.101858 29.1419 0.599175 32.0613 1.78338 33.0508Z" fill="#314E52"/>
<path fill-rule="evenodd" clip-rule="evenodd" d="M7.60319 33.1001C8.74354 32.2233 9.58648 29.9945 9.6011 29.9994C9.6011 30.0092 7.30111 29.6174 6.07792 30.4306C4.84011 31.2437 4.67913 33.3939 4.68887 33.3939C4.69375 33.4037 6.44336 33.972 7.60319 33.1001Z" fill="#314E52"/>
<path fill-rule="evenodd" clip-rule="evenodd" d="M5.13662 27.2229C5.122 27.218 5.33633 25.1216 4.4299 23.9313C3.50886 22.7361 1.22807 22.3295 1.2232 22.3393C1.19883 22.3393 1.27703 25.3126 2.30529 26.4637C3.30431 27.6148 5.13662 27.2131 5.13662 27.2229Z" fill="#314E52"/>
<path fill-rule="evenodd" clip-rule="evenodd" d="M8.06003 27.353C9.31246 26.6526 10.4626 24.5561 10.4821 24.5659C10.4821 24.5757 8.25975 23.8555 6.93422 24.4825C5.59408 25.1144 5.12634 27.2256 5.14096 27.2207C5.13608 27.2354 6.78811 28.0535 8.06003 27.353Z" fill="#314E52"/>
<path fill-rule="evenodd" clip-rule="evenodd" d="M6.46209 21.1628C6.44747 21.1579 6.96412 19.1006 6.24288 17.7829C5.50702 16.4604 3.30429 15.7257 3.29941 15.7354C3.27505 15.7354 2.91446 18.7087 3.76729 20.0019C4.59087 21.2852 6.46697 21.1481 6.46209 21.1628Z" fill="#314E52"/>
<path fill-rule="evenodd" clip-rule="evenodd" d="M9.33343 21.7154C10.6736 21.2011 12.121 19.2809 12.1356 19.2858C12.1356 19.2956 10.0401 18.2572 8.63177 18.6931C7.20877 19.1291 6.43888 21.1619 6.45837 21.1619C6.45837 21.1765 7.97379 22.2248 9.33343 21.7154Z" fill="#314E52"/>
<path fill-rule="evenodd" clip-rule="evenodd" d="M8.6602 15.3133C8.65045 15.3036 9.46915 13.3246 8.95258 11.909C8.42627 10.4787 6.35515 9.43046 6.35028 9.44025C6.32591 9.43536 5.51225 12.3548 6.16527 13.7704C6.79392 15.1664 8.66995 15.3036 8.6602 15.3133Z" fill="#314E52"/>
<path fill-rule="evenodd" clip-rule="evenodd" d="M11.4281 16.2785C12.8365 15.9552 14.5667 14.2457 14.5813 14.2555C14.5813 14.2653 12.6563 12.9281 11.1943 13.1632C9.71772 13.3935 8.65057 15.3136 8.66519 15.3136C8.65544 15.3283 10.0051 16.592 11.4281 16.2785Z" fill="#314E52"/>
<path fill-rule="evenodd" clip-rule="evenodd" d="M11.7438 9.77974C11.7341 9.76995 12.8599 7.90865 12.5773 6.40977C12.28 4.90109 10.394 3.55884 10.3842 3.56373C10.3599 3.55884 9.08311 6.37049 9.50709 7.87427C9.91157 9.37315 11.7536 9.76995 11.7438 9.77974Z" fill="#314E52"/>
<path fill-rule="evenodd" clip-rule="evenodd" d="M14.3427 11.1456C15.79 11.0182 17.7831 9.54875 17.7977 9.56345C17.7928 9.57324 16.0969 7.95685 14.6008 7.98624C13.0901 8.01073 11.7257 9.779 11.7404 9.779C11.7404 9.7937 12.8807 11.2534 14.3427 11.1456Z" fill="#314E52"/>
<path fill-rule="evenodd" clip-rule="evenodd" d="M17.6761 4.99274C18.7774 3.74367 20.5903 0.00623607 20.6585 0.00623607C20.6585 -0.0476453 16.5551 1.2699 15.2831 2.69531C13.9722 4.06684 14.3329 6.27611 14.3426 6.26141C14.3524 6.24672 16.5016 6.21731 17.6761 4.99274Z" fill="#314E52"/>
<path fill-rule="evenodd" clip-rule="evenodd" d="M86.6316 68.7491C88.2251 68.9842 90.964 67.368 90.9445 67.3484C90.9493 67.3386 89.4337 65.58 87.8889 65.4526C86.3587 65.3351 84.5263 66.7214 84.5117 66.7116C84.5263 66.7018 85.0624 68.5335 86.6316 68.7491Z" fill="#314E52"/>
<path fill-rule="evenodd" clip-rule="evenodd" d="M84.5168 66.712C84.5265 66.7266 86.2418 65.1102 86.1346 63.5868C86.0371 62.0733 84.2631 60.54 84.2729 60.54C84.2973 60.5449 82.9718 62.7394 82.9377 64.2383C82.9182 65.747 84.5022 66.7217 84.5168 66.712Z" fill="#314E52"/>
<path fill-rule="evenodd" clip-rule="evenodd" d="M95.7103 61.8733C95.7152 61.8635 93.9463 60.3599 92.4209 60.4481C90.9102 60.5411 89.3603 62.1329 89.3457 62.128C89.3554 62.1182 90.1839 63.8228 91.7434 63.8228C93.3272 63.8375 95.7298 61.8928 95.7103 61.8733Z" fill="#314E52"/>
<path fill-rule="evenodd" clip-rule="evenodd" d="M90.3948 58.8695C90.0488 57.4147 88.0751 56.1609 88.0751 56.1609C88.0994 56.1658 87.1687 58.4778 87.388 59.9375C87.6316 61.4021 89.3324 62.1415 89.3422 62.1268C89.3568 62.1366 90.7554 60.339 90.3948 58.8695Z" fill="#314E52"/>
<path fill-rule="evenodd" clip-rule="evenodd" d="M99.4985 55.8862C99.5033 55.8764 97.5297 54.6568 96.0434 54.9507C94.5717 55.2495 93.3144 57.0127 93.2998 57.0127C93.3047 56.998 94.3912 58.546 95.9214 58.3354C97.4711 58.1296 99.5228 55.9009 99.4985 55.8862Z" fill="#314E52"/>
<path fill-rule="evenodd" clip-rule="evenodd" d="M93.805 53.6919C93.2397 52.3204 91.1 51.3799 91.1 51.3701C91.1195 51.375 90.5739 53.7557 91.0272 55.1419C91.4999 56.5379 93.2833 57.0179 93.2931 57.0081C93.3077 57.0228 94.3897 55.0781 93.805 53.6919Z" fill="#314E52"/>
<path fill-rule="evenodd" clip-rule="evenodd" d="M99.1517 52.3975C100.648 51.986 102.329 49.5124 102.31 49.5026C102.31 49.4928 100.18 48.572 98.7617 49.0765C97.3583 49.581 96.3838 51.4766 96.3691 51.4766C96.374 51.462 97.6848 52.8187 99.1517 52.3975Z" fill="#314E52"/>
<path fill-rule="evenodd" clip-rule="evenodd" d="M93.8543 49.9691C94.5365 51.2672 96.3643 51.4876 96.3691 51.473C96.3838 51.4828 97.1489 49.4304 96.3691 48.1568C95.5992 46.893 93.3476 46.2759 93.3525 46.2661C93.3671 46.271 93.1915 48.676 93.8543 49.9691Z" fill="#314E52"/>
<path fill-rule="evenodd" clip-rule="evenodd" d="M101.451 46.1296C102.865 45.5124 104.166 42.8428 104.146 42.8379C104.146 42.8281 101.905 42.2306 100.574 42.9261C99.2583 43.6217 98.581 45.6202 98.5664 45.6251C98.5664 45.6104 100.058 46.7566 101.451 46.1296Z" fill="#314E52"/>
<path fill-rule="evenodd" clip-rule="evenodd" d="M98.0748 42.3721C97.1294 41.2406 94.8145 40.9566 94.8193 40.9468C94.8388 40.9419 95.0143 43.3322 95.8574 44.5078C96.72 45.6834 98.5622 45.6344 98.5671 45.6246C98.5768 45.6295 99.03 43.5085 98.0748 42.3721Z" fill="#314E52"/>
<path fill-rule="evenodd" clip-rule="evenodd" d="M101.481 36.612C100.277 37.4888 99.8925 39.5558 99.8779 39.5607C99.8779 39.546 101.52 40.4571 102.802 39.644C104.113 38.8308 105.019 36.0144 105 36.0095C105 35.9997 102.695 35.7352 101.481 36.612Z" fill="#314E52"/>
<path fill-rule="evenodd" clip-rule="evenodd" d="M98.923 36.4244C97.8314 35.4447 95.4971 35.4986 95.4971 35.4888C95.5166 35.4839 96.0331 37.8155 97.0322 38.849C98.0555 39.8826 99.8684 39.5739 99.8733 39.5592C99.8928 39.5641 100.034 37.409 98.923 36.4244Z" fill="#314E52"/>
<path fill-rule="evenodd" clip-rule="evenodd" d="M100.312 33.3935C100.312 33.3788 102.066 34.045 103.221 33.0555C104.4 32.0661 104.902 29.1468 104.878 29.1419C104.878 29.1321 102.558 29.2006 101.481 30.2488C100.414 31.2873 100.326 33.3886 100.312 33.3935Z" fill="#314E52"/>
<path fill-rule="evenodd" clip-rule="evenodd" d="M98.9229 30.4306C97.6997 29.6174 95.3994 30.0092 95.3994 29.9994C95.4189 29.9945 96.2573 32.2282 97.3976 33.1001C98.5575 33.972 100.307 33.4037 100.312 33.3939C100.326 33.3939 100.166 31.2486 98.9229 30.4306Z" fill="#314E52"/>
<path fill-rule="evenodd" clip-rule="evenodd" d="M100.576 23.9358C99.6692 25.1261 99.8786 27.2227 99.8689 27.2276C99.864 27.2129 101.696 27.6194 102.7 26.4683C103.728 25.3221 103.807 22.3439 103.782 22.3439C103.777 22.3341 101.492 22.7406 100.576 23.9358Z" fill="#314E52"/>
<path fill-rule="evenodd" clip-rule="evenodd" d="M98.0751 24.4825C96.7496 23.8555 94.5225 24.5757 94.5225 24.5659C94.542 24.5561 95.6921 26.6526 96.9445 27.353C98.2164 28.0535 99.8684 27.2354 99.8684 27.2207C99.883 27.2256 99.4152 25.1144 98.0751 24.4825Z" fill="#314E52"/>
<path fill-rule="evenodd" clip-rule="evenodd" d="M98.543 21.1627C98.5381 21.148 100.409 21.2901 101.233 20.0018C102.086 18.7087 101.725 15.7354 101.701 15.7354C101.701 15.7354 99.4933 16.4603 98.7574 17.7829C98.0411 19.1005 98.5527 21.1529 98.543 21.1627Z" fill="#314E52"/>
<path fill-rule="evenodd" clip-rule="evenodd" d="M96.3694 18.6931C94.961 18.2572 92.8652 19.2956 92.8652 19.2858C92.8799 19.276 94.3275 21.1962 95.6725 21.7154C97.0321 22.2248 98.5524 21.1717 98.5475 21.1619C98.5573 21.1619 97.7875 19.134 96.3694 18.6931Z" fill="#314E52"/>
<path fill-rule="evenodd" clip-rule="evenodd" d="M98.8348 13.7657C99.4878 12.3501 98.6738 9.43072 98.6495 9.43561C98.6446 9.42582 96.5736 10.474 96.0424 11.9044C95.5307 13.3249 96.3493 15.3038 96.3396 15.3087C96.3347 15.2989 98.211 15.1666 98.8348 13.7657Z" fill="#314E52"/>
<path fill-rule="evenodd" clip-rule="evenodd" d="M93.806 13.1632C92.344 12.9281 90.4238 14.2653 90.4238 14.2555C90.4384 14.2457 92.1684 15.9552 93.5719 16.2785C94.9949 16.592 96.3448 15.3233 96.3399 15.3086C96.3545 15.3135 95.2875 13.3935 93.806 13.1632Z" fill="#314E52"/>
<path fill-rule="evenodd" clip-rule="evenodd" d="M95.4974 7.87892C95.9263 6.37024 94.6447 3.55859 94.6203 3.56838C94.6203 3.56838 92.7198 4.90559 92.4225 6.41427C92.1399 7.91315 93.2654 9.7746 93.2556 9.7844C93.2508 9.7697 95.093 9.3729 95.4974 7.87892Z" fill="#314E52"/>
<path fill-rule="evenodd" clip-rule="evenodd" d="M90.399 7.98624C88.9078 7.95685 87.207 9.57324 87.2021 9.56345C87.2168 9.54875 89.2149 11.0182 90.6623 11.1456C92.1242 11.2534 93.2647 9.79373 93.2598 9.78394C93.2744 9.77904 91.9097 8.01073 90.399 7.98624Z" fill="#314E52"/>
<path fill-rule="evenodd" clip-rule="evenodd" d="M90.6625 6.25677C90.6723 6.27147 91.0281 4.06235 89.722 2.69082C88.4452 1.26542 84.3467 -0.0522841 84.3467 0.00159722C84.4149 0.00649553 86.2278 3.74393 87.3291 4.9881C88.5036 6.21757 90.6479 6.24698 90.6625 6.25677Z" fill="#314E52"/>
<path fill-rule="evenodd" clip-rule="evenodd" d="M50.3504 82.0886C48.1916 82.1131 46.4765 80.0999 46.379 77.2686C46.2767 74.4423 47.9482 72.3165 50.2386 72.292C52.529 72.2626 54.2444 74.3492 54.2103 77.1804C54.1762 80.0068 52.5093 82.0641 50.3504 82.0886ZM39.4198 82.4315C39.0884 82.456 38.7571 82.4806 38.4258 82.5051C37.646 80.438 36.8517 78.3758 36.0281 76.3185C35.5651 78.4836 35.1216 80.6535 34.6976 82.8235C34.3663 82.8578 34.035 82.887 33.7036 82.9212C32.3683 79.8598 30.9844 76.8083 29.5516 73.7713C30.1364 73.7027 30.7211 73.6392 31.3059 73.5755C32.188 75.6083 33.0456 77.6459 33.8838 79.6885C34.3127 77.5185 34.761 75.3535 35.2289 73.1934C35.5846 73.164 35.9356 73.1346 36.2913 73.1052C37.1149 75.1576 37.9188 77.2197 38.6985 79.2819C39.181 77.1266 39.6878 74.9715 40.219 72.8212C40.8038 72.782 41.3936 72.7523 41.9784 72.718C41.072 75.946 40.219 79.1889 39.4198 82.4315ZM28.2259 83.4944C28.0944 82.4853 27.9676 81.4716 27.836 80.4625C26.7346 80.6046 25.6333 80.7564 24.5368 80.9229C24.6879 81.932 24.8341 82.9362 24.9803 83.9452C24.4345 84.0285 23.8888 84.1116 23.3479 84.1948C23.0458 82.2649 22.7484 80.3349 22.4511 78.405C22.0759 76.044 23.3576 74.4276 25.2923 74.1582C27.2318 73.8888 28.8985 75.0988 29.1763 77.4695C29.4102 79.4093 29.6392 81.3489 29.8732 83.2887C29.3176 83.3523 28.7717 83.4209 28.2259 83.4944ZM17.1296 85.2726C16.54 82.1671 15.9552 79.0566 15.3655 75.9511C15.9357 75.8433 16.5059 75.7355 17.0761 75.6327C17.5537 78.268 18.0263 80.9081 18.499 83.5434C19.615 83.3377 20.7357 83.1467 21.8565 82.9655C21.9345 83.4406 22.0127 83.9206 22.0906 84.3958C20.4386 84.6603 18.7817 84.9591 17.1296 85.2726ZM56.1011 72.4636C57.9189 72.4979 59.7364 72.5516 61.5541 72.6349C61.5346 73.1199 61.5104 73.6 61.486 74.0849C60.2531 74.0261 59.025 73.9819 57.7921 73.9525C57.7726 74.6529 57.7579 75.3583 57.7335 76.0587C58.8495 76.0881 59.9607 76.1275 61.0767 76.1765C61.0524 76.6614 61.0377 77.1413 61.0134 77.6262C59.9071 77.5772 58.8008 77.5381 57.6945 77.5087C57.6555 79.0027 57.6166 80.4967 57.5776 81.9858C57.0318 81.9711 56.4762 81.9564 55.9304 81.9466C55.9889 78.7872 56.0427 75.623 56.1011 72.4636ZM63.1478 72.7132C64.9655 72.8112 66.7784 72.9337 68.5913 73.0807C68.5523 73.5607 68.5133 74.0407 68.4744 74.5256C67.2463 74.4276 66.0181 74.3394 64.7852 74.261C64.7414 74.9615 64.7024 75.662 64.6585 76.3625C65.7745 76.431 66.8857 76.5095 67.9919 76.6025C67.9578 77.0826 67.9188 77.5625 67.8798 78.0474C66.7784 77.9593 65.6722 77.881 64.566 77.8125C64.4734 79.3015 64.3808 80.7953 64.2882 82.2844C63.7375 82.2501 63.1916 82.2208 62.641 82.1915C62.8115 79.0321 62.9772 75.8727 63.1478 72.7132ZM69.2197 81.4569C69.6681 81.4961 70.1118 81.5351 70.5553 81.5792C70.7794 79.2231 70.9987 76.867 71.2179 74.5109C70.755 74.4669 70.2969 74.4228 69.834 74.3836C69.8681 73.9868 69.9069 73.5902 69.941 73.1934C71.4518 73.3256 72.9625 73.4774 74.4684 73.6439C74.4245 74.0407 74.3808 74.4375 74.3369 74.8294C73.8739 74.7755 73.4059 74.7265 72.938 74.6775C72.6944 77.0287 72.4557 79.3848 72.212 81.7409C72.6603 81.785 73.1086 81.8388 73.5618 81.8829C73.5179 82.2797 73.4742 82.6764 73.4303 83.0731C71.9927 82.9115 70.555 82.7694 69.1174 82.642C69.1467 82.2501 69.1856 81.8537 69.2197 81.4569ZM75.0677 78.4983C75.3699 75.814 77.2557 73.8057 79.7411 74.1486C81.1007 74.3396 82.0756 75.0741 82.524 76.2252C82.1682 76.4702 81.8173 76.7104 81.4713 76.9553C81.0717 76.2451 80.5308 75.7502 79.6926 75.6327C78.3573 75.4465 77.0463 76.5438 76.7783 78.704C76.5151 80.8641 77.4752 82.2306 78.7569 82.4118C79.5658 82.5245 80.2042 82.2012 80.7744 81.6575C81.0327 81.9857 81.2908 82.3188 81.5442 82.6519C80.7596 83.6119 79.7024 84.0381 78.4109 83.8618C76.0669 83.5336 74.7656 81.1875 75.0677 78.4983ZM84.3318 74.9959C86.1008 75.2849 87.8698 75.5934 89.634 75.9314C89.5462 76.4065 89.4586 76.8817 89.366 77.3568C88.1818 77.1315 86.9926 76.9161 85.8035 76.7152C85.6866 77.4059 85.5695 78.0966 85.4526 78.7922C86.4906 78.9734 87.5287 79.1595 88.5667 79.3554C88.479 79.8306 88.3913 80.3058 88.2988 80.7809C87.2705 80.5899 86.2421 80.4036 85.2089 80.2272C85.0384 81.2216 84.8727 82.2159 84.7021 83.2151C85.9009 83.4209 87.095 83.6364 88.2889 83.8666C88.2012 84.3417 88.1087 84.8169 88.0209 85.2921C86.2909 84.959 84.5607 84.6553 82.8259 84.3712C83.3278 81.2412 83.8298 78.121 84.3318 74.9959ZM21.4425 18.3616C21.4425 18.3616 21.4717 18.3764 21.535 18.4009C21.5984 18.4303 21.6908 18.4646 21.8078 18.5038C22.0417 18.5821 22.3731 18.6801 22.7971 18.783C23.6401 18.9789 24.8438 19.1895 26.3009 19.3217C27.758 19.4491 29.4735 19.5226 31.3351 19.3658C32.2659 19.2875 33.2356 19.1552 34.2298 18.9152C34.7317 18.7927 35.2093 18.6556 35.7405 18.4547C36.028 18.347 36.2278 18.2589 36.4519 18.1658L37.1149 17.8816C38.7962 17.1763 40.5211 16.6227 42.1488 16.275C43.7765 15.9174 45.3116 15.7607 46.603 15.7362C47.8652 15.7117 48.8934 15.8194 49.5854 15.937V69.0347C35.7843 69.2405 22.0027 70.8666 8.45508 73.9133C9.14708 77.0384 9.84415 80.1686 10.541 83.2938C11.004 85.3755 11.4668 87.4573 11.9298 89.5341C15.1607 88.8092 18.4111 88.1724 21.6665 87.6189C21.7981 87.5944 21.9296 87.5749 22.0612 87.5553C45.7014 83.6072 69.9118 84.2685 93.357 89.5341C94.5169 84.3272 95.6768 79.1202 96.8317 73.9133C82.9917 70.8029 68.9079 69.1767 54.8144 69.0249V15.937C55.5064 15.8194 56.5298 15.7117 57.7969 15.7362C59.0883 15.7558 60.6185 15.9174 62.251 16.275C63.8787 16.6227 65.6088 17.1763 67.2852 17.8816L67.9479 18.1658C68.1672 18.2589 68.3718 18.347 68.6594 18.4547C69.1906 18.6556 69.673 18.7927 70.1701 18.9152C71.1642 19.1552 72.1291 19.2924 73.0648 19.3658C74.9263 19.5226 76.6418 19.454 78.0989 19.3217C79.556 19.1895 80.7597 18.9838 81.6028 18.783C82.0219 18.685 82.3581 18.5821 82.5921 18.5038C82.709 18.4646 82.7969 18.4303 82.8651 18.4009C82.9285 18.3764 82.9576 18.3616 82.9576 18.3616C83.2403 18.2489 83.3719 17.9257 83.2598 17.6465C83.1526 17.3869 82.8749 17.2498 82.6117 17.3184L82.5629 17.333C82.5629 17.333 82.5384 17.3379 82.4945 17.3526C82.4506 17.3673 82.3775 17.382 82.2801 17.4016C82.0851 17.4408 81.7831 17.4946 81.3883 17.5387C80.594 17.6269 79.4343 17.6906 78.0454 17.6465C76.6614 17.6073 75.0386 17.4751 73.3768 17.1323C72.5434 16.9608 71.7052 16.7355 70.9059 16.4367C70.5161 16.2898 70.1018 16.1133 69.7655 15.937C69.6145 15.8635 69.3953 15.7361 69.1906 15.6186L68.5862 15.2562C66.8708 14.257 65.0484 13.3998 63.2599 12.763C61.4714 12.1213 59.7219 11.6951 58.1722 11.4698C56.8711 11.2738 55.7208 11.215 54.8144 11.2248V10.0247H55.5601C56.3155 10.0247 56.9295 9.40765 56.9295 8.64841V8.41327C56.9295 7.64914 56.3155 7.03682 55.5601 7.03682H54.8144V5.36155C54.8144 4.02431 53.7376 2.94678 52.4072 2.94678H51.9977C50.6673 2.94678 49.5905 4.02921 49.5905 5.36155V7.03682H48.8495C48.0942 7.03682 47.4754 7.65404 47.4754 8.41327V8.64841C47.4754 9.40765 48.0893 10.0247 48.8495 10.0247H49.5905V11.2248C48.684 11.2199 47.5338 11.2738 46.2327 11.4698C44.6878 11.6951 42.9333 12.1213 41.1497 12.763C39.3612 13.3998 37.5388 14.257 35.8235 15.2562L35.2143 15.6186C35.0096 15.7361 34.7901 15.8635 34.639 15.937C34.3028 16.1182 33.8937 16.2946 33.499 16.4367C32.6997 16.7355 31.8614 16.9608 31.0281 17.1323C29.3615 17.4751 27.7484 17.6073 26.3595 17.6465C24.9706 17.6906 23.8109 17.622 23.0166 17.5387C22.617 17.4946 22.3146 17.4408 22.1245 17.4016C22.0271 17.382 21.9539 17.3624 21.9101 17.3526C21.8614 17.3379 21.8372 17.333 21.8372 17.333L21.7932 17.3184C21.53 17.2498 21.2523 17.3869 21.1451 17.6465C21.0232 17.9257 21.1599 18.2441 21.4425 18.3616Z" fill="#314E52"/>
<path fill-rule="evenodd" clip-rule="evenodd" d="M37.5828 37.8604H29.3375V26.2366L37.5828 37.8604ZM28.8744 26.2366V37.8604H20.6287L28.8744 26.2366ZM20.049 37.8849H19.0889V40.0303H20.3851L21.5889 43.9489C21.8423 44.7767 22.5344 45.3302 23.3092 45.3302H34.9805C35.7554 45.3302 36.4475 44.7767 36.7009 43.9489L37.9046 40.0303H39.1813V37.8849H38.1676L29.3375 25.4382V24.1304C29.9612 24.0226 30.4338 23.474 30.4338 22.8176C30.4338 22.1612 29.9612 21.6176 29.3375 21.505V19.4377H28.8794V21.505C28.2556 21.6127 27.7827 22.1563 27.7827 22.8176C27.7827 23.474 28.2605 24.0177 28.8794 24.1304V25.4382L20.049 37.8849Z" fill="#314E52"/>
<path fill-rule="evenodd" clip-rule="evenodd" d="M84.3219 37.8604H76.0766V26.2366L84.3219 37.8604ZM75.6135 26.2366V37.8604H67.3678L75.6135 26.2366ZM66.7831 37.8849H65.8232V40.0303H67.1195L68.3182 43.9489C68.5716 44.7767 69.2637 45.3302 70.0386 45.3302H81.7101C82.485 45.3302 83.1768 44.7767 83.4302 43.9489L84.6292 40.0303H85.9058V37.8849H84.8921L76.0617 25.4382V24.1304C76.6855 24.0226 77.1584 23.474 77.1584 22.8176C77.1584 22.1612 76.6806 21.6176 76.0617 21.505V19.4377H75.6037V21.505C74.9799 21.6127 74.5073 22.1563 74.5073 22.8176C74.5073 23.474 74.9799 24.0177 75.6037 24.1304V25.4382L66.7831 37.8849Z" fill="#314E52"/>
</svg>
