<svg width="105" height="100" viewBox="0 0 105 100" fill="none" xmlns="http://www.w3.org/2000/svg">
<path fill-rule="evenodd" clip-rule="evenodd" d="M1.45801 77.9111V92.2216H8.49036V90.036H3.76624V77.9111H1.45801Z" fill="#314E52"/>
<path fill-rule="evenodd" clip-rule="evenodd" d="M12.5631 85.42V83.319C12.5631 81.0639 13.5341 79.9065 14.8524 79.9065C16.1707 79.9065 17.1418 81.0639 17.1418 83.319V85.42H12.5631ZM19.45 92.2202V83.3784C19.45 79.7772 17.4421 77.6711 14.8524 77.6711C12.2627 77.6711 10.2549 79.7772 10.2549 83.3784V92.2202H12.5677V87.6056H17.1466V92.2202H19.45Z" fill="#314E52"/>
<path fill-rule="evenodd" clip-rule="evenodd" d="M28.8516 82.7192L31.4647 92.3111H32.8627L37.1601 77.9111H34.8098L32.1732 87.483L29.56 77.9111H28.1431L25.53 87.483L22.8933 77.9111H20.543L24.8404 92.3111H26.2384L28.8516 82.7192Z" fill="#314E52"/>
<path fill-rule="evenodd" clip-rule="evenodd" d="M45.1826 85.0571C45.1826 81.6049 46.6791 79.8862 48.1804 79.8862C49.6817 79.8862 51.183 81.6049 51.183 85.0571C51.183 88.5342 49.6863 90.2481 48.1804 90.2481C46.6791 90.2481 45.1826 88.5342 45.1826 85.0571ZM53.5287 85.0571C53.5287 80.7903 51.2205 77.676 48.1804 77.676C45.1403 77.676 42.832 80.7853 42.832 85.0571C42.832 89.329 45.1403 92.4583 48.1804 92.4583C51.2205 92.4583 53.5287 89.324 53.5287 85.0571Z" fill="#314E52"/>
<path fill-rule="evenodd" clip-rule="evenodd" d="M63.2786 80.1016V77.9111H56.002V92.2216H58.3148V85.4663H62.8516V83.2755H58.3148V80.1016H63.2786Z" fill="#314E52"/>
<path fill-rule="evenodd" clip-rule="evenodd" d="M72.6796 80.1016V77.9111H65.4033V92.2216H67.7115V85.4663H72.2527V83.2755H67.7115V80.1016H72.6796Z" fill="#314E52"/>
<path fill-rule="evenodd" clip-rule="evenodd" d="M74.4814 90.4186V92.2216H80.5379V90.4186H78.6566V79.7141H80.5379V77.9111H74.4814V79.7141H76.3438V90.4186H74.4814Z" fill="#314E52"/>
<path fill-rule="evenodd" clip-rule="evenodd" d="M87.7902 79.9062C88.9255 79.9062 89.7372 80.5271 90.4034 81.4957L91.6561 80.1645C90.8257 78.5551 89.4087 77.676 87.5837 77.676C84.2622 77.676 82.0713 81.004 82.0713 85.0771C82.0713 89.1503 84.2622 92.4583 87.5837 92.4583C89.4087 92.4583 90.7835 91.5792 91.6561 89.9698L90.4034 88.6634C89.7325 89.6072 88.9208 90.2281 87.7902 90.2281C85.9886 90.2281 84.4265 88.3605 84.4265 85.0771C84.4265 81.7938 85.9886 79.9062 87.7902 79.9062Z" fill="#314E52"/>
<path fill-rule="evenodd" clip-rule="evenodd" d="M100.941 80.1016V77.9111H93.791V92.2216H101.147V90.036H96.0992V85.4663H100.373V83.2755H96.0992V80.1016H100.941Z" fill="#314E52"/>
<path fill-rule="evenodd" clip-rule="evenodd" d="M66.712 62.7839C66.529 62.2127 66.027 61.8253 65.4547 61.8253H64.6618V59.6697H36.9774V61.8253H36.5833C36.0157 61.8253 35.5043 62.2127 35.326 62.7839L33.8528 71.4468H0.00390625V73.7516H104.999V71.4468H68.1898L66.712 62.7839Z" fill="#314E52"/>
<path fill-rule="evenodd" clip-rule="evenodd" d="M36.6447 41.0579C36.8371 41.2665 37.1561 41.2665 37.3532 41.0579L37.9347 40.4418C38.1271 40.2332 38.1271 39.9004 37.9347 39.6918L31.1415 32.4992C30.9444 32.2906 30.6301 32.2906 30.4331 32.4992L29.8515 33.1153C29.6545 33.3239 29.6545 33.6567 29.8515 33.8653L30.2736 34.3122L29.3447 35.6683L29.3306 35.6535C29.1242 35.4349 28.7866 35.4349 28.5801 35.6535L28.4487 35.7926C28.2376 36.0112 28.2376 36.3687 28.4487 36.5873L28.5002 36.647L27.8388 37.3473C27.3649 37.849 27.3649 38.6635 27.8388 39.1652L31.5404 43.0843C32.0142 43.586 32.7834 43.586 33.2573 43.0843L33.919 42.384L34.0691 42.5431C34.2802 42.7667 34.6133 42.7667 34.8245 42.5431L34.9556 42.404C35.101 42.245 35.1386 42.0215 35.0776 41.8228L36.4102 40.8044L36.6447 41.0579Z" fill="#314E52"/>
<path fill-rule="evenodd" clip-rule="evenodd" d="M39.8716 23.2614C39.6746 23.0528 39.3556 23.0528 39.1632 23.2614L38.5814 23.8723C38.3843 24.081 38.3843 24.4138 38.5814 24.6224L45.3746 31.8101C45.5717 32.0187 45.886 32.0187 46.083 31.8101L46.6649 31.1992C46.8572 30.9906 46.8572 30.6577 46.6649 30.4491L46.4304 30.2005L47.3919 28.7898C47.5749 28.8594 47.7908 28.8196 47.9363 28.6607L48.0677 28.5218C48.2788 28.3033 48.2788 27.9455 48.0677 27.7269L47.9222 27.568L48.5837 26.8677C49.0575 26.366 49.0575 25.5513 48.5837 25.0496L44.8821 21.1304C44.4083 20.6287 43.6387 20.6287 43.1649 21.1304L42.5034 21.8308L42.4473 21.7713C42.2409 21.5528 41.9031 21.5528 41.6919 21.7713L41.5605 21.9102C41.3494 22.1287 41.3494 22.4864 41.5605 22.71L41.5745 22.7248L40.2937 23.7035L39.8716 23.2614Z" fill="#314E52"/>
<path fill-rule="evenodd" clip-rule="evenodd" d="M57.4691 54.4949C57.9617 55.0164 58.7593 55.0164 59.2519 54.4949C59.7445 53.9733 59.7445 53.1292 59.2519 52.6076L59.0549 52.3987H59.0454L59.4303 51.9964C59.4162 51.9716 59.3975 51.9518 59.3787 51.927L53.4159 45.6136L57.6755 41.1033L55.1233 38.4062L50.8637 42.9163L46.6507 38.456L44.1031 41.1579L48.3161 45.6185L42.4002 51.8821C42.3814 51.902 42.3674 51.9268 42.3486 51.9467L42.7237 52.3493L44.8865 54.6392C44.9053 54.6193 44.9287 54.6042 44.9475 54.5843L50.8637 48.3258L56.8265 54.6392C56.8453 54.659 56.8688 54.6739 56.8875 54.6937L57.2675 54.2914V54.3014L57.4691 54.4949Z" fill="#314E52"/>
<path fill-rule="evenodd" clip-rule="evenodd" d="M40.9187 39.678L41.9412 40.7558C42.3259 41.1631 42.9407 41.1631 43.3254 40.7558L46.3512 37.5521C46.7359 37.1448 46.7359 36.4889 46.3512 36.0866L45.3333 35.0088C44.9532 34.6065 44.3294 34.6065 43.9494 35.0088L43.677 35.2968L42.5182 34.0699C43.2876 33.5185 44.1088 33.0368 44.9908 32.6543L37.9112 25.1589C36.7289 28.2336 34.632 30.6824 31.9062 32.2123L38.3336 39.0125C38.7605 38.1582 39.2765 37.3683 39.8489 36.6381L41.1343 37.999L40.9327 38.2128C40.5386 38.6151 40.5387 39.2707 40.9187 39.678Z" fill="#314E52"/>
<path fill-rule="evenodd" clip-rule="evenodd" d="M63.1557 39.3353L70.235 31.8396C67.331 30.5879 65.0181 28.3675 63.5732 25.4766L57.1459 32.2768C57.9575 32.7338 58.6988 33.2702 59.3931 33.8812L58.1077 35.2421L57.2114 34.2935L54.8096 36.8365L59.2196 41.5058L61.6263 38.9576L60.6596 37.9343L61.8184 36.7074C62.3392 37.527 62.7944 38.3965 63.1557 39.3353Z" fill="#314E52"/>
<path fill-rule="evenodd" clip-rule="evenodd" d="M61.588 23.756L60.3074 22.7777L60.6966 22.3602L59.81 21.4216L59.3785 21.8785L58.0273 20.4429C57.9334 20.3436 57.7881 20.3436 57.6942 20.4429L52.6085 25.8273C52.5146 25.9267 52.5146 26.0809 52.6085 26.1802L53.9597 27.6106L53.4343 28.1669L54.3162 29.1059L54.5227 28.8873L55.4516 30.2434L54.8606 30.8691L56.146 32.2352L63.6476 24.2975L62.3574 22.9317L61.588 23.756Z" fill="#314E52"/>
<path fill-rule="evenodd" clip-rule="evenodd" d="M67.4294 42.9966L67.9548 42.4402L69.3058 43.8755C69.3996 43.9698 69.545 43.9698 69.6388 43.8755L74.7292 38.4862C74.8183 38.3869 74.8183 38.233 74.7292 38.1336L73.3733 36.6981L73.8049 36.2409L72.9229 35.3071L72.5289 35.7194L71.6 34.3633L72.374 33.5387L71.0886 32.1777L63.5869 40.1155L64.8723 41.4764L65.4588 40.8555L66.7396 41.8342L66.5331 42.0528L67.4294 42.9966Z" fill="#314E52"/>
<path fill-rule="evenodd" clip-rule="evenodd" d="M42.3066 54.2104L42.7476 54.6773C43.1182 55.0697 43.7188 55.0697 44.0894 54.6773L44.5117 54.2301L42.729 52.3425L42.3115 52.7897C41.9361 53.1772 41.936 53.813 42.3066 54.2104Z" fill="#314E52"/>
<path fill-rule="evenodd" clip-rule="evenodd" d="M9.95349 47.0089V45.8862H6.27539V53.2428H10.0569V52.1201H7.46229V49.7705H9.66257V48.643H7.46229V47.0089H9.95349Z" fill="#314E52"/>
<path fill-rule="evenodd" clip-rule="evenodd" d="M12.9846 52.2943C12.4217 52.2943 11.8821 52.1056 11.2253 51.6586L10.8594 52.5278C11.4224 53.0593 12.2012 53.3673 12.9846 53.3673C14.2138 53.3673 15.2553 52.6372 15.2553 51.1917C15.2553 49.9151 14.3171 49.4135 13.2146 48.9118C12.5578 48.6038 12.0887 48.3256 12.0887 47.7643C12.0887 47.203 12.5062 46.8354 13.163 46.8354C13.6509 46.8354 14.1717 47.0688 14.7159 47.496L15.0678 46.6368C14.5377 46.0755 13.8479 45.7676 13.1161 45.7676C11.9385 45.7676 10.9487 46.5623 10.9487 47.7992C10.9487 48.9466 11.6665 49.5526 12.586 49.9847C13.4399 50.3821 14.106 50.7 14.106 51.306C14.1106 51.9964 13.6227 52.2943 12.9846 52.2943Z" fill="#314E52"/>
<path fill-rule="evenodd" clip-rule="evenodd" d="M18.6749 53.2428V47.0089H20.5232V45.8862H15.6348V47.0089H17.488V53.2428H18.6749Z" fill="#314E52"/>
<path fill-rule="evenodd" clip-rule="evenodd" d="M20.5664 52.582C20.5664 53.0092 20.8993 53.3667 21.3075 53.3667C21.7156 53.3667 22.0488 53.0142 22.0488 52.582C22.0488 52.1499 21.7156 51.7971 21.3075 51.7971C20.8993 51.7971 20.5664 52.1549 20.5664 52.582Z" fill="#314E52"/>
<path fill-rule="evenodd" clip-rule="evenodd" d="M81.2827 52.3V53.2289H84.4028V52.3H83.4363V45.748H82.9109L80.8701 47.6356L81.1281 48.1225L82.2446 47.6108V52.3H81.2827Z" fill="#314E52"/>
<path fill-rule="evenodd" clip-rule="evenodd" d="M87.6641 49.4786C86.9979 49.4786 86.4443 48.9568 86.4443 48.1571C86.4443 47.3524 86.9979 46.831 87.6641 46.831C88.3303 46.831 88.884 47.3524 88.884 48.1571C88.884 48.9568 88.335 49.4786 87.6641 49.4786ZM87.3122 53.2289L89.3435 50.0498C89.6673 49.5431 90.0425 48.8774 90.0425 48.1522C90.0425 46.816 88.9682 45.748 87.6687 45.748C86.3551 45.748 85.29 46.816 85.29 48.1522C85.29 49.5878 86.4255 50.6906 87.7907 50.4373L85.975 53.2289H87.3122Z" fill="#314E52"/>
<path fill-rule="evenodd" clip-rule="evenodd" d="M93.3872 49.7418C94.0768 49.7418 94.607 50.2386 94.607 51.0184C94.607 51.7884 94.0768 52.29 93.3872 52.29C92.7069 52.29 92.1673 51.7933 92.1673 51.0184C92.1673 50.2386 92.7116 49.7418 93.3872 49.7418ZM93.3872 46.7516C93.8985 46.7516 94.3066 47.1389 94.3066 47.715C94.3066 48.2763 93.8985 48.6737 93.3872 48.6737C92.8852 48.6737 92.4817 48.2763 92.4817 47.715C92.4817 47.1389 92.8852 46.7516 93.3872 46.7516ZM91.0088 51.0333C91.0088 52.3447 92.0736 53.3481 93.3872 53.3481C94.7102 53.3481 95.7658 52.3447 95.7658 51.0333C95.7658 50.2286 95.3716 49.5183 94.7336 49.1457C95.1605 48.803 95.4093 48.2764 95.4093 47.7002C95.4093 46.5975 94.5225 45.748 93.3872 45.748C92.2612 45.748 91.3745 46.5975 91.3745 47.7002C91.3745 48.2764 91.628 48.8179 92.0502 49.1457C91.4169 49.5232 91.0088 50.2286 91.0088 51.0333Z" fill="#314E52"/>
<path fill-rule="evenodd" clip-rule="evenodd" d="M98.1631 53.2287L100.879 46.2198V45.8669H96.3193V46.9948H99.4205L96.9716 53.2287H98.1631Z" fill="#314E52"/>
<path fill-rule="evenodd" clip-rule="evenodd" d="M24.2823 10.9226C23.5129 11.1561 22.7482 11.3993 21.9835 11.6527C21.3267 9.42735 20.6651 7.19733 20.0083 4.96704C19.6517 5.08625 19.2999 5.20546 18.9434 5.32964C19.7221 7.86292 20.4963 10.3912 21.2751 12.9245C22.3353 12.5619 23.4003 12.2141 24.4652 11.8913C24.4277 11.5585 24.362 11.2306 24.2823 10.9226Z" fill="#314E52"/>
<path fill-rule="evenodd" clip-rule="evenodd" d="M29.0621 10.6331C29.0386 10.3003 28.9919 9.98224 28.9215 9.66931C28.0677 9.87793 27.2183 10.1016 26.3644 10.3351C26.1486 9.46085 25.9328 8.58169 25.717 7.70746C26.341 7.53361 26.9651 7.36951 27.5937 7.21055C27.5234 6.89762 27.453 6.58971 27.3873 6.27677C26.7539 6.43573 26.1206 6.59971 25.492 6.77853C25.3043 6.01358 25.1167 5.24863 24.929 4.48864C25.7688 4.25519 26.6038 4.03653 27.4483 3.83288C27.4248 3.51001 27.3779 3.16742 27.3123 2.86938C26.0784 3.17239 24.8493 3.50021 23.6201 3.85289C24.2816 6.42094 24.9384 8.99379 25.5999 11.5569C26.754 11.2191 27.908 10.9162 29.0621 10.6331Z" fill="#314E52"/>
<path fill-rule="evenodd" clip-rule="evenodd" d="M31.4137 2.82911C31.8922 2.73474 32.5208 2.77968 32.9102 2.94857C32.9336 2.62073 32.9523 2.23332 32.9147 1.92535C32.4362 1.74653 31.7607 1.75623 31.2024 1.87047C29.4384 2.22315 28.4766 3.63879 29.0912 6.51482C29.6964 9.37594 30.9211 10.3001 32.6006 9.95738C33.2058 9.8332 33.8672 9.47056 34.219 9.11788C34.022 7.91085 33.825 6.70379 33.6326 5.49676C32.9617 5.62094 32.2956 5.74513 31.6247 5.88421C31.681 6.19715 31.7703 6.52971 31.8782 6.81284C32.1737 6.75323 32.4693 6.69388 32.7696 6.63427C32.8868 7.31975 33.0041 8.01008 33.1261 8.69556C32.9431 8.84954 32.6989 8.93409 32.4503 8.98873C31.39 9.20232 30.6677 8.58122 30.2174 6.30623C29.7341 3.9021 30.2596 3.06754 31.4137 2.82911Z" fill="#314E52"/>
<path fill-rule="evenodd" clip-rule="evenodd" d="M36.4002 5.82074C36.4846 4.80245 36.5737 3.78422 36.6722 2.76594C36.6863 2.58712 36.677 2.33869 36.6676 2.13503C36.6911 2.13006 36.7143 2.12999 36.7378 2.12503C36.7753 2.32372 36.8458 2.56207 36.9021 2.73592C37.254 3.6946 37.5918 4.64832 37.9295 5.607C37.4182 5.67157 36.9115 5.74623 36.4002 5.82074ZM35.9357 1.16639C35.5463 3.92816 35.3257 6.67497 35.1709 9.2927C35.4055 9.3225 35.8981 9.30273 36.1468 9.26299C36.2031 8.42353 36.2641 7.58901 36.3297 6.75452C36.9631 6.65517 37.6012 6.5658 38.2345 6.48135C38.5066 7.27114 38.774 8.06088 39.0414 8.85067C39.3792 8.80597 39.8155 8.69656 40.0548 8.59722C39.2526 6.1136 38.3518 3.53078 37.2916 0.972656C36.8365 1.03226 36.3861 1.09684 35.9357 1.16639Z" fill="#314E52"/>
<path fill-rule="evenodd" clip-rule="evenodd" d="M44.4509 7.28991C43.6581 7.33959 42.8699 7.39925 42.0817 7.46879C41.8987 5.14412 41.711 2.81962 41.5233 0.48999C41.1574 0.519794 40.7868 0.554545 40.4209 0.594283C40.6649 3.24678 40.8994 5.89419 41.1433 8.54173C42.2412 8.43245 43.3391 8.33799 44.4369 8.27341C44.465 7.94558 44.4697 7.61278 44.4509 7.28991Z" fill="#314E52"/>
<path fill-rule="evenodd" clip-rule="evenodd" d="M48.734 7.28226C48.2508 7.29219 47.8146 7.18293 47.3501 6.91966C47.2891 7.20776 47.2187 7.5503 47.1952 7.89801C47.6597 8.15631 48.2695 8.23586 48.7481 8.2309C49.9303 8.21599 50.8593 7.38655 50.8733 5.95102C50.9015 3.50714 48.1571 3.63132 48.129 2.16102C48.1149 1.45071 48.434 0.958858 49.2268 0.948924C49.6162 0.943956 50.1275 1.02836 50.5028 1.15751C50.5779 0.84954 50.6296 0.43727 50.6437 0.174007C50.2543 0.0547935 49.6631 -0.00467979 49.2549 0.000287434C48.0117 0.0102219 46.9888 0.779878 47.0357 2.27501C47.1108 4.56987 49.8224 4.33166 49.8224 6.03045C49.8224 6.8103 49.3955 7.27233 48.734 7.28226Z" fill="#314E52"/>
<path fill-rule="evenodd" clip-rule="evenodd" d="M56.0159 1.28061C56.0816 0.967678 56.1239 0.624786 56.1474 0.316818C54.8901 0.232375 53.6328 0.177753 52.3708 0.147949C52.3098 2.80542 52.2534 5.47279 52.1924 8.13026C53.3746 8.16006 54.5523 8.20995 55.7299 8.28942C55.7956 7.96159 55.8377 7.64353 55.8565 7.32563C54.9885 7.27099 54.1206 7.2264 53.2433 7.19163C53.2714 6.28759 53.3045 5.38345 53.3326 4.47942C53.9706 4.50425 54.6085 4.53408 55.2465 4.56885C55.2653 4.25095 55.2796 3.92812 55.2984 3.61021C54.6556 3.57048 54.008 3.54065 53.3653 3.52078C53.3887 2.73099 53.4168 1.94125 53.4403 1.15146C54.3035 1.18126 55.1621 1.22101 56.0159 1.28061Z" fill="#314E52"/>
<path fill-rule="evenodd" clip-rule="evenodd" d="M60.4673 2.979C60.3641 4.01715 59.8903 4.44933 59.1349 4.37482C58.891 4.34998 58.647 4.32526 58.403 4.30539C58.4828 3.32188 58.5672 2.3381 58.647 1.35459C58.8534 1.34962 59.0643 1.35976 59.3271 1.3846C60.1809 1.46408 60.5705 1.97562 60.4673 2.979ZM59.3694 0.495387C58.9519 0.455649 58.2529 0.445785 57.6196 0.505391C57.4319 3.13305 57.2443 5.76059 57.0566 8.38826C57.3944 8.41309 57.7274 8.44304 58.0651 8.47284C58.1543 7.38005 58.2433 6.28721 58.3372 5.18945C58.6187 5.21429 58.9002 5.24393 59.177 5.27374C59.4679 5.70588 59.6651 6.23256 59.9419 7.41476C60.0451 7.86181 60.1434 8.30884 60.2419 8.76086C60.5234 8.79563 61.0256 8.80561 61.2977 8.746C61.1663 8.14994 61.0255 7.54879 60.8848 6.95272C60.6643 5.99405 60.453 5.50726 60.1105 5.02543C60.8189 4.82675 61.4523 4.26558 61.5883 3.05358C61.7713 1.4293 60.8801 0.644403 59.3694 0.495387Z" fill="#314E52"/>
<path fill-rule="evenodd" clip-rule="evenodd" d="M64.3945 7.21092C64.249 5.17436 64.0803 3.13771 63.8879 1.09618C63.522 1.04154 63.0293 1.00677 62.7666 1.0316C63.0152 3.78841 63.3201 6.52547 63.6391 9.16307C64.0097 9.22268 64.3803 9.28222 64.751 9.3468C65.8112 6.93272 66.8809 4.42444 67.9036 1.87625C67.6925 1.7769 67.2282 1.65269 66.8857 1.59308C66.1163 3.47069 65.3655 5.36328 64.643 7.25579C64.568 7.44952 64.5023 7.65299 64.46 7.87154C64.4366 7.86658 64.4133 7.86651 64.3899 7.86154C64.4133 7.63305 64.4132 7.41458 64.3945 7.21092Z" fill="#314E52"/>
<path fill-rule="evenodd" clip-rule="evenodd" d="M70.2729 2.29958C69.9116 2.2201 69.5504 2.1458 69.1845 2.07129C68.7059 4.68405 68.2276 7.29683 67.749 9.90959C68.0821 9.97913 68.4199 10.0485 68.7529 10.123C69.2596 7.51523 69.7662 4.90241 70.2729 2.29958Z" fill="#314E52"/>
<path fill-rule="evenodd" clip-rule="evenodd" d="M75.8883 3.98324C75.6162 3.64547 74.9687 3.32255 74.4385 3.18347C72.7871 2.74635 71.4876 3.63043 70.8964 6.51142C70.3006 9.40732 70.9857 10.7436 72.5761 11.1658C73.064 11.2949 73.7207 11.3048 74.218 11.0763C74.265 10.7882 74.2933 10.4009 74.2839 10.0631C73.8101 10.2817 73.2844 10.3362 72.8152 10.212C71.7362 9.92388 71.5487 8.89064 72.0037 6.79944C72.5057 4.51452 73.1906 3.86394 74.2415 4.14211C74.7154 4.26629 75.147 4.52955 75.4613 4.89216C75.6302 4.59413 75.7851 4.28624 75.8883 3.98324Z" fill="#314E52"/>
<path fill-rule="evenodd" clip-rule="evenodd" d="M80.6176 6.18238C80.7583 5.89428 80.8804 5.57623 80.9695 5.28316C79.7544 4.86591 78.5394 4.47866 77.3149 4.11108C76.6299 6.67417 75.9449 9.23228 75.2646 11.7954C76.4094 12.1381 77.554 12.5054 78.6893 12.8929C78.8301 12.5948 78.9427 12.297 79.0413 11.9939C78.2015 11.7059 77.3616 11.4276 76.5171 11.1693C76.7564 10.3 77.0003 9.43085 77.2396 8.56655C77.8588 8.76027 78.4784 8.95882 79.0977 9.16744C79.1868 8.86444 79.2806 8.55649 79.3697 8.24852C78.7457 8.0399 78.1218 7.8365 77.4979 7.64278C77.7043 6.88776 77.9153 6.12762 78.1264 5.3726C78.9568 5.63089 79.7872 5.90421 80.6176 6.18238Z" fill="#314E52"/>
<path fill-rule="evenodd" clip-rule="evenodd" d="M-0.000976562 100H104.994V97.6953H-0.000976562V100Z" fill="#314E52"/>
</svg>
