<svg width="105" height="106" viewBox="0 0 105 106" fill="none" xmlns="http://www.w3.org/2000/svg">
<path fill-rule="evenodd" clip-rule="evenodd" d="M27.9191 29.8619V44.3398H19.0524L27.9191 29.8619ZM37.264 44.3398H28.3976V29.8675L37.264 44.3398ZM87.4277 44.3398H78.5609V29.8619L87.4277 44.3398ZM78.0781 29.8675V44.3398H69.2064L78.0781 29.8675ZM20.0854 51.9042C20.358 52.9339 21.0994 53.6185 21.9364 53.6185H34.4615C35.2937 53.6185 36.0352 52.9284 36.3078 51.9042L37.5989 47.0337H38.9667V44.3675H37.8764L28.4022 28.9045V27.2792C29.0718 27.1456 29.5882 26.472 29.5882 25.6538C29.5882 24.8355 29.0718 24.1564 28.4022 24.0228V21.557C28.8135 21.5403 29.2297 21.5126 29.6554 21.468C30.6836 21.3678 31.7547 21.2008 32.8499 20.8891C33.3999 20.7333 33.9308 20.5608 34.519 20.2992C34.8347 20.1656 35.0596 20.0542 35.2987 19.9317L36.0302 19.5699C37.8858 18.6682 39.7845 17.9669 41.5827 17.516C43.3809 17.0652 45.0693 16.8591 46.4945 16.8313C47.891 16.8035 49.0244 16.9372 49.7848 17.0875V55.5781H55.5478V17.0875C56.3082 16.9372 57.4416 16.8035 58.8381 16.8313C60.2585 16.8591 61.9515 17.0652 63.7449 17.516C65.5432 17.9669 67.4465 18.6626 69.3021 19.5699L70.0339 19.9317C70.2731 20.0486 70.4977 20.1656 70.8133 20.2992C71.4016 20.5552 71.9326 20.7333 72.4874 20.8891C73.5778 21.1953 74.649 21.3678 75.6773 21.468C76.5142 21.5515 77.3129 21.5849 78.0924 21.5849V24.0174C77.4181 24.1454 76.9062 24.8245 76.9062 25.6483C76.9062 26.4666 77.4229 27.1456 78.0924 27.2736V28.8989L68.6136 44.362H67.5756V47.0283H68.9673L70.2537 51.8987C70.5263 52.9285 71.2677 53.613 72.1047 53.613H84.6301C85.4623 53.613 86.2033 52.9229 86.4711 51.8987L87.7625 47.0283H89.1304V44.362H88.0351L78.5609 28.8989V27.2736C79.2305 27.14 79.7423 26.4666 79.7423 25.6483C79.7423 24.8301 79.2305 24.151 78.5609 24.0174V21.5793C79.5127 21.5626 80.3974 21.5014 81.2152 21.4179C82.8221 21.2509 84.1517 20.9838 85.0747 20.7333C85.5434 20.6053 85.9118 20.4828 86.1652 20.3826C86.2944 20.3325 86.3948 20.2881 86.4618 20.2547C86.5335 20.2213 86.5669 20.2045 86.5669 20.2045C86.8777 20.0598 87.0259 19.6479 86.9064 19.2917C86.7868 18.9577 86.4809 18.7851 86.1892 18.8741L86.1413 18.8908C86.1413 18.8908 86.1126 18.8963 86.0648 18.913C86.017 18.9297 85.9357 18.9521 85.8258 18.98C85.6105 19.0301 85.2758 19.1023 84.8406 19.158C83.9654 19.2693 82.6834 19.3528 81.153 19.2971C79.6274 19.2414 77.8388 19.0745 76.0071 18.6348C75.0936 18.4177 74.166 18.1338 73.286 17.7442C72.8508 17.5605 72.4012 17.3323 72.0282 17.1041C71.8656 17.0095 71.6217 16.8481 71.3922 16.6978L70.7225 16.2357C68.8334 14.9611 66.8249 13.8646 64.8545 13.0519C62.8793 12.2337 60.947 11.6882 59.2444 11.3987C57.8049 11.1483 56.5424 11.0759 55.5428 11.087V9.55619H56.3894C57.2072 9.55619 57.8719 8.78262 57.8719 7.82523V7.46341C57.8719 6.50602 57.2024 5.73228 56.3894 5.73228H55.5428V2.51498C55.5428 1.40173 54.7633 0.5 53.8116 0.5H51.5111C50.5546 0.5 49.7799 1.40173 49.7799 2.51498V5.72668H48.9333C48.1108 5.72668 47.4508 6.50041 47.4508 7.4578V7.81962C47.4508 8.77702 48.1108 9.55075 48.9333 9.55075H49.7799V11.0814C48.7803 11.0703 47.513 11.1427 46.0783 11.3931C44.3757 11.6826 42.4389 12.2281 40.4685 13.0463C38.4934 13.859 36.4847 14.9555 34.5908 16.2301L33.9212 16.6922C33.6916 16.8425 33.4525 17.0039 33.2851 17.0985C32.9169 17.3267 32.4626 17.5549 32.0273 17.7386C31.1474 18.1226 30.2194 18.4065 29.306 18.6292C27.4743 19.0689 25.6906 19.236 24.1554 19.2917C22.625 19.3418 21.3432 19.2637 20.4728 19.1524C20.0328 19.0967 19.7028 19.03 19.4876 18.9744C19.3728 18.9465 19.2964 18.9299 19.2485 18.9076C19.1959 18.8909 19.1721 18.8854 19.1721 18.8854L19.1242 18.8685C18.8325 18.7795 18.5263 18.9521 18.4067 19.2861C18.2823 19.6479 18.4308 20.0542 18.7465 20.1989C18.7465 20.1989 18.7751 20.2157 18.8469 20.2491C18.9234 20.2825 19.0238 20.3269 19.1481 20.377C19.4064 20.4772 19.7745 20.6053 20.2384 20.7277C21.1662 20.9782 22.491 21.2453 24.0979 21.4123C25.2409 21.5292 26.5275 21.6072 27.9145 21.5683V24.0118C27.2449 24.1398 26.7332 24.8189 26.7332 25.6427C26.7332 26.4609 27.2449 27.14 27.9145 27.268V28.8933L18.4403 44.3564H17.4072V47.0227H18.794L20.0854 51.9042Z" fill="#314E52"/>
<path fill-rule="evenodd" clip-rule="evenodd" d="M2.05078 67.0664V83.2199H9.2724V80.7483H4.42773V67.0664H2.05078Z" fill="#314E52"/>
<path fill-rule="evenodd" clip-rule="evenodd" d="M13.4526 75.5418V73.1705C13.4526 70.6267 14.4519 69.3189 15.8006 69.3189C17.1541 69.3189 18.1536 70.6267 18.1536 73.1705V75.5418H13.4526ZM20.5306 83.2178V73.2374C20.5306 69.1685 18.4643 66.7974 15.8053 66.7974C13.1414 66.7974 11.085 69.1685 11.085 73.2374V83.2178H13.4572V78.0134H18.1583V83.2178H20.5306Z" fill="#314E52"/>
<path fill-rule="evenodd" clip-rule="evenodd" d="M30.9084 67.0664H29.4498L26.7669 77.8707L24.0695 67.0664H21.6543L26.0637 83.3143H27.4984L30.1863 72.4879L32.8694 83.3143H34.2991L38.7135 67.0664H36.2984L33.5916 77.8707L30.9084 67.0664Z" fill="#314E52"/>
<path fill-rule="evenodd" clip-rule="evenodd" d="M53.113 75.1301C53.113 79.0543 51.5731 80.9912 50.0331 80.9912C48.4931 80.9912 46.9579 79.0543 46.9579 75.1301C46.9579 71.2281 48.4979 69.291 50.0331 69.291C51.5731 69.291 53.113 71.2281 53.113 75.1301ZM44.5381 75.1301C44.5381 79.9504 46.91 83.4849 50.0281 83.4849C53.1463 83.4849 55.5235 79.9504 55.5235 75.1301C55.5235 70.3097 53.1463 66.7974 50.0281 66.7974C46.91 66.7974 44.5381 70.3097 44.5381 75.1301Z" fill="#314E52"/>
<path fill-rule="evenodd" clip-rule="evenodd" d="M65.5291 69.538V67.0664H58.0635V83.2199H60.4358V75.5884H65.0939V73.1225H60.4358V69.538H65.5291Z" fill="#314E52"/>
<path fill-rule="evenodd" clip-rule="evenodd" d="M75.1851 69.538V67.0664H67.7197V83.2199H70.087V75.5884H74.7499V73.1225H70.087V69.538H75.1851Z" fill="#314E52"/>
<path fill-rule="evenodd" clip-rule="evenodd" d="M83.2572 69.098V67.0664H77.04V69.098H78.9532V81.1825H77.04V83.2199H83.2572V81.1825H81.3251V69.098H83.2572Z" fill="#314E52"/>
<path fill-rule="evenodd" clip-rule="evenodd" d="M90.7089 69.3189C91.8758 69.3189 92.7031 70.02 93.3917 71.111L94.6782 69.6083C93.8221 67.7937 92.3684 66.7974 90.4984 66.7974C87.0837 66.7974 84.8408 70.5489 84.8408 75.1522C84.8408 79.7554 87.0885 83.4849 90.4984 83.4849C92.3684 83.4849 93.7838 82.4941 94.6782 80.6739L93.3917 79.1988C92.7031 80.2619 91.8709 80.9688 90.7039 80.9688C88.8531 80.9688 87.2464 78.8595 87.2464 75.1579C87.2559 71.4453 88.8581 69.3189 90.7089 69.3189Z" fill="#314E52"/>
<path fill-rule="evenodd" clip-rule="evenodd" d="M104.21 69.538V67.0664H96.8643V83.2199H104.421V80.7483H99.2362V75.5884H103.627V73.1225H99.2362V69.538H104.21Z" fill="#314E52"/>
<path fill-rule="evenodd" clip-rule="evenodd" d="M6.2643 33.781H4.24143V31.7605H5.95839V30.7975H4.24143V29.3949H6.18315V28.4319H3.31348V34.744H6.2643V33.781Z" fill="#314E52"/>
<path fill-rule="evenodd" clip-rule="evenodd" d="M8.55475 33.9311C8.11476 33.9311 7.68911 33.7697 7.1726 33.38L6.89062 34.1315C7.33061 34.5879 7.93781 34.8495 8.55475 34.8495C9.51125 34.8495 10.3242 34.2262 10.3242 32.9849C10.3242 31.8884 9.59278 31.4598 8.73193 31.0256C8.22021 30.7585 7.85185 30.5247 7.85185 30.0404C7.85185 29.5617 8.18179 29.2444 8.68873 29.2444C9.07611 29.2444 9.48276 29.4447 9.90362 29.8121L10.176 29.0718C9.75989 28.5876 9.22906 28.3259 8.65516 28.3259C7.73692 28.3259 6.96214 29.0049 6.96214 30.0681C6.96214 31.0533 7.52183 31.5711 8.2392 31.9385C8.90875 32.2836 9.4252 32.5563 9.4252 33.0795C9.42998 33.6751 9.05213 33.9311 8.55475 33.9311Z" fill="#314E52"/>
<path fill-rule="evenodd" clip-rule="evenodd" d="M12.0654 34.744H12.9934V29.3949H14.4377V28.4319H10.6211V29.3949H12.0654V34.744Z" fill="#314E52"/>
<path fill-rule="evenodd" clip-rule="evenodd" d="M15.0444 34.8478C15.36 34.8478 15.6182 34.5472 15.6182 34.1743C15.6182 33.8069 15.36 33.5007 15.0444 33.5007C14.7239 33.5007 14.4658 33.8013 14.4658 34.1743C14.4658 34.5472 14.7287 34.8478 15.0444 34.8478Z" fill="#314E52"/>
<path fill-rule="evenodd" clip-rule="evenodd" d="M90.4502 29.9126V33.937H89.6994V34.733H92.1336V33.937H91.3778V28.3096H90.9715L89.3789 29.9293L89.5797 30.3468L90.4502 29.9126Z" fill="#314E52"/>
<path fill-rule="evenodd" clip-rule="evenodd" d="M94.678 29.2391C95.2041 29.2391 95.6299 29.6844 95.6299 30.3747C95.6299 31.0649 95.2041 31.5101 94.678 31.5101C94.1567 31.5101 93.7264 31.0649 93.7264 30.3747C93.7312 29.6844 94.1615 29.2391 94.678 29.2391ZM94.7834 32.3395L93.3677 34.733H94.4104L95.998 32.0056C96.2467 31.5714 96.5386 30.9981 96.5386 30.3747C96.5386 29.228 95.7017 28.3096 94.683 28.3096C93.6595 28.3096 92.8321 29.228 92.8321 30.3747C92.8273 31.6048 93.7121 32.5566 94.7834 32.3395Z" fill="#314E52"/>
<path fill-rule="evenodd" clip-rule="evenodd" d="M99.1495 31.7384C99.6852 31.7384 100.101 32.1669 100.101 32.8349C100.101 33.4972 99.6853 33.9259 99.1449 33.9259C98.6188 33.9259 98.1979 33.4972 98.1979 32.8349C98.1979 32.1669 98.6235 31.7384 99.1495 31.7384ZM99.1495 29.1723C99.5513 29.1723 99.8624 29.5064 99.8624 29.9962C99.8624 30.4805 99.5466 30.8199 99.1449 30.8199C98.7575 30.8199 98.437 30.4805 98.437 29.9962C98.4418 29.5064 98.7621 29.1723 99.1495 29.1723ZM97.2989 32.8461C97.2989 33.9705 98.1261 34.8332 99.1495 34.8332C100.187 34.8332 101.01 33.9705 101.01 32.8461C101.01 32.1559 100.699 31.5491 100.202 31.2262C100.537 30.9312 100.728 30.4748 100.728 29.985C100.728 29.0387 100.039 28.3096 99.1495 28.3096C98.2743 28.3096 97.5809 29.0387 97.5809 29.985C97.5809 30.4748 97.777 30.9423 98.1118 31.2262C97.6097 31.5491 97.2941 32.1559 97.2989 32.8461Z" fill="#314E52"/>
<path fill-rule="evenodd" clip-rule="evenodd" d="M101.952 34.7303H102.88L104.999 28.7133V28.4126H101.44V29.3756H103.865L101.952 34.7303Z" fill="#314E52"/>
<path fill-rule="evenodd" clip-rule="evenodd" d="M99.7189 89.7881H-0.000976562V92.7992H99.7189V89.7881Z" fill="#314E52"/>
<path fill-rule="evenodd" clip-rule="evenodd" d="M99.7189 61.2258H-0.000976562V64.2318H99.7189V61.2258Z" fill="#314E52"/>
<path fill-rule="evenodd" clip-rule="evenodd" d="M24.1409 100.526L22.4526 96.8521H21.0801L23.5142 101.951V105.357H24.7674V101.951L27.1969 96.8521H25.829L24.1409 100.526Z" fill="#314E52"/>
<path fill-rule="evenodd" clip-rule="evenodd" d="M30.2197 104.181C29.4115 104.181 28.5985 103.162 28.5985 101.097C28.5985 99.0431 29.4115 98.0245 30.2197 98.0245C31.0327 98.0245 31.8456 99.0431 31.8456 101.097C31.8456 103.162 31.0327 104.181 30.2197 104.181ZM30.2197 96.7107C28.5745 96.7107 27.3311 98.5588 27.3311 101.097C27.3311 103.635 28.5745 105.5 30.2197 105.5C31.8649 105.5 33.113 103.641 33.113 101.097C33.113 98.5588 31.8649 96.7107 30.2197 96.7107Z" fill="#314E52"/>
<path fill-rule="evenodd" clip-rule="evenodd" d="M34.4521 96.8521V102.106C34.4521 104.249 35.5376 105.496 36.9388 105.496C38.3401 105.496 39.4258 104.249 39.4258 102.106V96.8521H38.1777V102.14C38.1777 103.493 37.6514 104.172 36.9388 104.172C36.2263 104.172 35.7003 103.498 35.7003 102.14V96.8521H34.4521Z" fill="#314E52"/>
<path fill-rule="evenodd" clip-rule="evenodd" d="M43.2133 101.277H42.2521V98.1044H43.2133C44.0168 98.1044 44.629 98.6279 44.629 99.7022C44.629 100.765 44.0168 101.277 43.2133 101.277ZM45.9108 99.691C45.9108 98.138 44.9637 96.8467 43.3233 96.8467H41.0039V105.352H42.2474V102.524H43.2326L45.1264 105.352H46.585L44.4904 102.251C45.4182 101.811 45.9108 100.832 45.9108 99.691Z" fill="#314E52"/>
<path fill-rule="evenodd" clip-rule="evenodd" d="M51.7512 104.258C51.163 104.258 50.5937 104.041 49.9003 103.518L49.5176 104.526C50.1058 105.138 50.9286 105.494 51.7512 105.494C53.0473 105.494 54.1424 104.654 54.1424 102.978C54.1424 101.503 53.1572 100.93 51.9903 100.34C51.3016 99.9837 50.8089 99.6662 50.8089 99.0149C50.8089 98.3637 51.249 97.9465 51.9377 97.9465C52.4542 97.9465 53.0041 98.2134 53.5732 98.7088L53.9413 97.7124C53.3866 97.0611 52.6645 96.7051 51.8945 96.7051C50.6559 96.7051 49.6133 97.6235 49.6133 99.054C49.6133 100.379 50.3689 101.08 51.3349 101.576C52.2341 102.038 52.9372 102.405 52.9372 103.106C52.9372 103.913 52.4207 104.258 51.7512 104.258Z" fill="#314E52"/>
<path fill-rule="evenodd" clip-rule="evenodd" d="M55.3564 96.8521V105.357H59.1584V104.055H56.6096V96.8521H55.3564Z" fill="#314E52"/>
<path fill-rule="evenodd" clip-rule="evenodd" d="M60.9233 101.097C60.9233 99.0431 61.7314 98.0245 62.5445 98.0245C63.3527 98.0245 64.1657 99.0431 64.1657 101.097C64.1657 103.162 63.3527 104.181 62.5445 104.181C61.7314 104.181 60.9233 103.162 60.9233 101.097ZM65.4381 101.097C65.4381 98.5588 64.1896 96.7107 62.5445 96.7107C60.8993 96.7107 59.6465 98.5588 59.6465 101.097C59.6465 103.635 60.8993 105.5 62.5445 105.5C64.1896 105.494 65.4381 103.635 65.4381 101.097Z" fill="#314E52"/>
<path fill-rule="evenodd" clip-rule="evenodd" d="M69.8428 98.0357C70.455 98.0357 71.0337 98.4085 71.3876 98.9818L72.0668 98.1916C71.5933 97.2231 70.7038 96.7107 69.7234 96.7107C67.8296 96.7107 66.5479 98.6869 66.5479 101.108C66.5479 103.53 67.7291 105.494 69.5369 105.494C70.2065 105.494 70.8327 105.227 71.2775 104.754L71.5837 105.35H72.0572V101.002H69.8571V102.16H70.8759V103.663C70.5698 104.047 70.1632 104.237 69.6945 104.237C68.6663 104.237 67.8246 103.073 67.8246 101.097C67.8198 99.16 68.7333 98.0357 69.8428 98.0357Z" fill="#314E52"/>
<path fill-rule="evenodd" clip-rule="evenodd" d="M77.2698 101.314H74.7971V100.062C74.7971 98.7204 75.3233 98.0357 76.0359 98.0357C76.7485 98.0357 77.2744 98.726 77.2744 100.062L77.2698 101.314ZM76.0309 96.7107C74.6297 96.7107 73.5439 97.9576 73.5439 100.101V105.35H74.7924V102.611H77.2648V105.35H78.5179V100.101C78.5227 97.9576 77.437 96.7107 76.0309 96.7107Z" fill="#314E52"/>
<path fill-rule="evenodd" clip-rule="evenodd" d="M83.9458 102.413L80.9089 96.8521H80.1006V105.357H81.1958V99.7965L84.2278 105.357H85.041V96.8521H83.9458V102.413Z" fill="#314E52"/>
</svg>
