<svg width="105" height="100" viewBox="0 0 105 100" fill="none" xmlns="http://www.w3.org/2000/svg">
<path fill-rule="evenodd" clip-rule="evenodd" d="M16.1588 76.3531C17.5386 76.1344 18.0116 74.2902 18.0214 74.2958C18.0068 74.3014 16.3977 72.9111 15.052 73.0288C13.6917 73.1577 12.3605 74.9291 12.3654 74.9404C12.3458 74.9572 14.7545 76.5941 16.1588 76.3531Z" fill="#314E52"/>
<path fill-rule="evenodd" clip-rule="evenodd" d="M19.4153 71.8088C19.3861 70.3009 18.2209 68.0923 18.2404 68.0867C18.2502 68.0923 16.6899 69.634 16.6022 71.1588C16.5047 72.6947 18.0162 74.3146 18.0211 74.3034C18.0308 74.309 19.4251 73.328 19.4153 71.8088Z" fill="#314E52"/>
<path fill-rule="evenodd" clip-rule="evenodd" d="M8.17201 69.4298C8.15251 69.4467 10.2686 71.4029 11.6631 71.3917C13.0331 71.3917 13.7644 69.6764 13.7742 69.682C13.7595 69.6876 12.3993 68.0842 11.0682 67.9946C9.72247 67.9049 8.16713 69.4186 8.17201 69.4298Z" fill="#314E52"/>
<path fill-rule="evenodd" clip-rule="evenodd" d="M15.4906 67.4747C15.6856 66.0061 14.8714 63.6797 14.8909 63.6797C14.8909 63.6797 13.1551 64.941 12.8479 66.4097C12.531 67.8895 13.7647 69.7001 13.7696 69.6833C13.7793 69.6945 15.276 68.9546 15.4906 67.4747Z" fill="#314E52"/>
<path fill-rule="evenodd" clip-rule="evenodd" d="M10.2931 64.5369C10.2785 64.5369 9.17172 62.7656 7.87965 62.4628C6.57295 62.1601 4.83707 63.3936 4.83707 63.4048C4.81757 63.416 6.62176 65.6637 7.99184 65.8655C9.33267 66.0785 10.2882 64.5201 10.2931 64.5369Z" fill="#314E52"/>
<path fill-rule="evenodd" clip-rule="evenodd" d="M12.2873 62.66C12.6822 61.2642 12.2044 58.865 12.2239 58.865C12.2239 58.865 10.3469 59.8179 9.84465 61.2025C9.3327 62.5927 10.2834 64.5492 10.2931 64.5435C10.3029 64.5492 11.8728 64.0671 12.2873 62.66Z" fill="#314E52"/>
<path fill-rule="evenodd" clip-rule="evenodd" d="M5.48479 56.544C4.23173 56.0395 2.35948 56.9643 2.35948 56.9755C2.34486 56.9867 3.82224 59.4757 5.13869 59.8906C6.43076 60.3166 7.58151 58.9487 7.58638 58.9599C7.57663 58.9655 6.72323 57.0542 5.48479 56.544Z" fill="#314E52"/>
<path fill-rule="evenodd" clip-rule="evenodd" d="M9.80587 57.4524C10.3861 56.1519 10.2298 53.7302 10.2493 53.7302C10.2493 53.7302 8.27 54.3638 7.59714 55.6363C6.90966 56.9144 7.58233 58.9771 7.59209 58.9715C7.59209 58.9715 9.20615 58.7529 9.80587 57.4524Z" fill="#314E52"/>
<path fill-rule="evenodd" clip-rule="evenodd" d="M3.12072 53.5826C4.33965 54.2104 5.65608 53.0556 5.66096 53.0725C5.65121 53.0669 5.05161 51.0545 3.89118 50.3538C2.721 49.6531 0.746232 50.2641 0.746232 50.2641C0.731605 50.2754 1.8774 52.9604 3.12072 53.5826Z" fill="#314E52"/>
<path fill-rule="evenodd" clip-rule="evenodd" d="M8.04508 51.9474C8.78619 50.7702 8.94216 48.3655 8.96166 48.3655C8.96166 48.3767 6.92841 48.6625 6.09466 49.8004C5.25116 50.944 5.65102 53.0797 5.66077 53.0741C5.66077 53.0853 7.28446 53.1302 8.04508 51.9474Z" fill="#314E52"/>
<path fill-rule="evenodd" clip-rule="evenodd" d="M3.09649 44.0048C2.02383 43.1191 0.000349069 43.3938 0.000349069 43.3938C-0.0191539 43.3994 0.780449 46.2415 1.93112 47.0544C3.0623 47.8728 4.50559 46.9534 4.50559 46.9702C4.49096 46.9702 4.15453 44.8849 3.09649 44.0048Z" fill="#314E52"/>
<path fill-rule="evenodd" clip-rule="evenodd" d="M7.00197 46.2575C7.88448 45.2204 8.33781 42.8718 8.35244 42.8775C8.35731 42.8887 6.30472 42.8324 5.33932 43.819C4.36417 44.8112 4.49096 46.9806 4.50071 46.975C4.50071 46.975 6.10483 47.2945 7.00197 46.2575Z" fill="#314E52"/>
<path fill-rule="evenodd" clip-rule="evenodd" d="M0.10316 36.481C0.0836571 36.4866 0.522529 39.424 1.56106 40.4218C2.57522 41.4196 4.12095 40.7527 4.12095 40.7639C4.10632 40.7583 4.03319 38.645 3.09217 37.5967C2.14628 36.5429 0.10316 36.481 0.10316 36.481Z" fill="#314E52"/>
<path fill-rule="evenodd" clip-rule="evenodd" d="M5.3395 37.7808C4.25221 38.5992 4.11081 40.7683 4.12057 40.7571C4.12057 40.7739 5.66131 41.3401 6.68521 40.4656C7.68961 39.5855 8.42567 37.3379 8.44517 37.3435C8.44517 37.3604 6.41704 36.968 5.3395 37.7808Z" fill="#314E52"/>
<path fill-rule="evenodd" clip-rule="evenodd" d="M3.8913 31.2383C3.08192 30.033 1.06805 29.6353 1.06805 29.6353C1.04854 29.6353 1.11684 32.6286 2.01885 33.7889C2.90136 34.9437 4.51516 34.54 4.51029 34.5512C4.50054 34.5456 4.69092 32.4379 3.8913 31.2383Z" fill="#314E52"/>
<path fill-rule="evenodd" clip-rule="evenodd" d="M6.08985 31.8007C4.90992 32.4341 4.50018 34.5585 4.50994 34.5529C4.50994 34.5641 5.96309 35.3884 7.07964 34.6877C8.18156 33.9813 9.19577 31.8734 9.2104 31.879C9.21527 31.8902 7.26003 31.1672 6.08985 31.8007Z" fill="#314E52"/>
<path fill-rule="evenodd" clip-rule="evenodd" d="M5.48481 25.0494C4.83633 23.7152 2.90551 22.981 2.89576 22.9866C2.87138 22.9866 2.55955 25.98 3.30554 27.2805C4.03203 28.5754 5.67984 28.4355 5.67497 28.4523C5.67497 28.4523 6.11865 26.3723 5.48481 25.0494Z" fill="#314E52"/>
<path fill-rule="evenodd" clip-rule="evenodd" d="M8.20661 29.014C9.38654 28.4927 10.659 26.5589 10.6736 26.5701C10.6736 26.5813 8.83052 25.5327 7.59208 25.97C6.33901 26.4072 5.66613 28.4536 5.67589 28.4536C5.67589 28.4704 7.01205 29.5242 8.20661 29.014Z" fill="#314E52"/>
<path fill-rule="evenodd" clip-rule="evenodd" d="M7.87367 19.1361C7.41048 17.6955 5.58222 16.6529 5.58222 16.6529C5.55784 16.6472 4.84588 19.5904 5.42122 21.0087C5.97218 22.4213 7.62024 22.5556 7.61536 22.5668C7.60561 22.5556 8.32712 20.5656 7.87367 19.1361Z" fill="#314E52"/>
<path fill-rule="evenodd" clip-rule="evenodd" d="M9.84389 20.3975C8.54694 20.633 7.60566 22.5612 7.62029 22.5612C7.61541 22.5781 8.80033 23.8506 10.0534 23.5367C11.2918 23.2116 12.8132 21.4848 12.8278 21.5016C12.8181 21.5072 11.1311 20.1621 9.84389 20.3975Z" fill="#314E52"/>
<path fill-rule="evenodd" clip-rule="evenodd" d="M11.063 13.6051C10.8045 12.0916 9.13705 10.735 9.13218 10.7462C9.11267 10.735 7.98628 13.5717 8.36171 15.0852C8.71277 16.5875 10.3365 16.991 10.3267 17.0023C10.317 16.9854 11.3116 15.113 11.063 13.6051Z" fill="#314E52"/>
<path fill-rule="evenodd" clip-rule="evenodd" d="M12.8431 15.1915C11.512 15.2139 10.3127 16.9965 10.3273 17.0021C10.3224 17.0134 11.3268 18.4821 12.614 18.37C13.8865 18.2467 15.6465 16.7667 15.6563 16.7835C15.6563 16.7835 14.1596 15.1635 12.8431 15.1915Z" fill="#314E52"/>
<path fill-rule="evenodd" clip-rule="evenodd" d="M13.4429 9.85835C12.2922 11.2373 12.6044 13.4629 12.6141 13.4461C12.6239 13.4292 14.5156 13.4011 15.5493 12.1678C16.5195 10.9121 18.1137 7.15076 18.1722 7.14515C18.1722 7.10031 14.5643 8.4233 13.4429 9.85835Z" fill="#314E52"/>
<path fill-rule="evenodd" clip-rule="evenodd" d="M89.9479 73.0342C88.6022 72.9165 86.9883 74.3067 86.9785 74.3011C86.9883 74.2899 87.4613 76.1398 88.8411 76.3584C90.2454 76.5995 92.6539 74.9625 92.6393 74.9457C92.6393 74.9345 91.3082 73.1575 89.9479 73.0342Z" fill="#314E52"/>
<path fill-rule="evenodd" clip-rule="evenodd" d="M88.3972 71.1531C88.3095 69.6283 86.7492 68.0869 86.759 68.0813C86.7785 68.0869 85.6134 70.2956 85.5841 71.8035C85.5695 73.3226 86.9637 74.3037 86.9783 74.298C86.9832 74.3149 88.4947 72.689 88.3972 71.1531Z" fill="#314E52"/>
<path fill-rule="evenodd" clip-rule="evenodd" d="M93.3367 71.394C94.7312 71.4108 96.8424 69.449 96.8278 69.4322C96.8326 69.421 95.2773 67.9073 93.9316 67.9914C92.6054 68.0867 91.2402 69.6841 91.2256 69.6785C91.2353 69.6729 91.9666 71.394 93.3367 71.394Z" fill="#314E52"/>
<path fill-rule="evenodd" clip-rule="evenodd" d="M92.1519 66.4038C91.8496 64.9408 90.1039 63.6853 90.1137 63.6797C90.1332 63.6853 89.3191 66.0117 89.5093 67.4747C89.7238 68.9546 91.2205 69.6887 91.2303 69.6775C91.2351 69.6943 92.4639 67.8837 92.1519 66.4038Z" fill="#314E52"/>
<path fill-rule="evenodd" clip-rule="evenodd" d="M97.1204 62.4628C95.8234 62.7656 94.7168 64.5369 94.7021 64.5369C94.707 64.5201 95.6674 66.0785 97.0082 65.8655C98.3734 65.6637 100.178 63.416 100.163 63.4048C100.163 63.3936 98.4271 62.1601 97.1204 62.4628Z" fill="#314E52"/>
<path fill-rule="evenodd" clip-rule="evenodd" d="M95.1513 61.1971C94.6491 59.8125 92.7623 58.8708 92.7721 58.8596C92.7867 58.8596 92.3089 61.2589 92.7087 62.6547C93.128 64.0617 94.6931 64.5439 94.7029 64.5327C94.7126 64.5495 95.6633 62.5874 95.1513 61.1971Z" fill="#314E52"/>
<path fill-rule="evenodd" clip-rule="evenodd" d="M99.5095 56.544C98.2759 57.0486 97.418 58.9599 97.4082 58.9599C97.4131 58.9487 98.5638 60.3166 99.8559 59.8906C101.172 59.4701 102.654 56.9867 102.635 56.9755C102.635 56.9643 100.763 56.0395 99.5095 56.544Z" fill="#314E52"/>
<path fill-rule="evenodd" clip-rule="evenodd" d="M97.4031 55.6306C96.7253 54.3581 94.746 53.7361 94.7509 53.7249C94.7655 53.7249 94.6093 56.1521 95.1896 57.447C95.7893 58.7532 97.3984 58.9715 97.4081 58.9603C97.4179 58.9715 98.0954 56.9087 97.4031 55.6306Z" fill="#314E52"/>
<path fill-rule="evenodd" clip-rule="evenodd" d="M101.104 50.3542C99.9482 51.055 99.3486 53.0673 99.334 53.0729C99.334 53.0561 100.65 54.2109 101.874 53.5831C103.118 52.9608 104.263 50.2758 104.244 50.2646C104.244 50.2646 102.279 49.6591 101.104 50.3542Z" fill="#314E52"/>
<path fill-rule="evenodd" clip-rule="evenodd" d="M98.9041 49.8004C98.0752 48.6625 96.0371 48.3767 96.0371 48.3655C96.0566 48.3655 96.2126 50.7702 96.9537 51.9474C97.7143 53.1302 99.3331 53.0853 99.338 53.0741C99.3477 53.0797 99.7476 50.944 98.9041 49.8004Z" fill="#314E52"/>
<path fill-rule="evenodd" clip-rule="evenodd" d="M103.069 47.0544C104.219 46.2415 105.019 43.405 104.999 43.3938C104.999 43.3938 102.971 43.1191 101.898 44.0048C100.84 44.8849 100.504 46.9701 100.494 46.9757C100.494 46.9588 101.937 47.8784 103.069 47.0544Z" fill="#314E52"/>
<path fill-rule="evenodd" clip-rule="evenodd" d="M100.494 46.9697C100.504 46.9753 100.631 44.806 99.6559 43.8138C98.6905 42.8272 96.6377 42.883 96.6377 42.8718C96.6523 42.8662 97.1058 45.2152 97.9932 46.2522C98.8952 47.2949 100.49 46.9809 100.494 46.9697Z" fill="#314E52"/>
<path fill-rule="evenodd" clip-rule="evenodd" d="M103.44 40.4225C104.478 39.4303 104.917 36.4873 104.898 36.4817C104.898 36.4704 102.855 36.5435 101.904 37.5974C100.968 38.6456 100.89 40.759 100.88 40.7646C100.875 40.7478 102.421 41.4147 103.44 40.4225Z" fill="#314E52"/>
<path fill-rule="evenodd" clip-rule="evenodd" d="M98.3148 40.4709C99.3338 41.3454 100.879 40.7792 100.879 40.7624C100.894 40.768 100.748 38.6042 99.6605 37.7857C98.5829 36.9729 96.5596 37.3652 96.5596 37.3539C96.5693 37.3371 97.3104 39.5908 98.3148 40.4709Z" fill="#314E52"/>
<path fill-rule="evenodd" clip-rule="evenodd" d="M102.976 33.7889C103.883 32.6342 103.951 29.6409 103.927 29.6353C103.927 29.6353 101.918 30.033 101.109 31.2383C100.309 32.4379 100.499 34.5456 100.484 34.5512C100.484 34.54 102.093 34.9493 102.976 33.7889Z" fill="#314E52"/>
<path fill-rule="evenodd" clip-rule="evenodd" d="M97.9159 34.6877C99.0373 35.3884 100.49 34.5641 100.485 34.5529C100.5 34.5585 100.091 32.4341 98.9057 31.8007C97.7404 31.1672 95.7852 31.8902 95.7852 31.879C95.7949 31.8734 96.814 33.9813 97.9159 34.6877Z" fill="#314E52"/>
<path fill-rule="evenodd" clip-rule="evenodd" d="M101.69 27.2805C102.44 25.98 102.123 22.9866 102.099 22.9866C102.099 22.9866 100.159 23.7152 99.5101 25.0494C98.8762 26.3723 99.3297 28.4411 99.3199 28.4523C99.315 28.4355 100.963 28.5754 101.69 27.2805Z" fill="#314E52"/>
<path fill-rule="evenodd" clip-rule="evenodd" d="M96.7883 29.0145C97.9829 29.5302 99.3236 28.4708 99.3187 28.454C99.3334 28.454 98.6556 26.4076 97.4026 25.9704C96.1641 25.5332 94.3213 26.5705 94.3213 26.5705C94.3359 26.5593 95.6084 28.4875 96.7883 29.0145Z" fill="#314E52"/>
<path fill-rule="evenodd" clip-rule="evenodd" d="M99.578 21.0087C100.148 19.5904 99.4366 16.6472 99.4122 16.6529C99.4122 16.6529 97.5837 17.7013 97.1205 19.1419C96.667 20.5714 97.3888 22.5612 97.3791 22.5668C97.3742 22.55 99.027 22.4213 99.578 21.0087Z" fill="#314E52"/>
<path fill-rule="evenodd" clip-rule="evenodd" d="M97.384 22.5612C97.3986 22.5612 96.4575 20.633 95.1557 20.3975C93.8685 20.1621 92.1768 21.5016 92.1768 21.5016C92.1914 21.4848 93.7125 23.2116 94.9509 23.5367C96.1991 23.8506 97.384 22.5781 97.384 22.5612Z" fill="#314E52"/>
<path fill-rule="evenodd" clip-rule="evenodd" d="M96.6368 15.0795C97.0123 13.5603 95.8907 10.7295 95.8664 10.7408C95.8566 10.7352 94.194 12.0862 93.9356 13.5997C93.6869 15.1076 94.6768 16.9856 94.6671 16.9968C94.6622 16.9856 96.2809 16.5818 96.6368 15.0795Z" fill="#314E52"/>
<path fill-rule="evenodd" clip-rule="evenodd" d="M94.6672 17.0021C94.6818 16.9965 93.4824 15.2195 92.1513 15.1915C90.8349 15.1635 89.3428 16.7893 89.3379 16.778C89.3525 16.7612 91.1079 18.2465 92.3805 18.3642C93.6725 18.4819 94.6672 17.0021 94.6672 17.0021Z" fill="#314E52"/>
<path fill-rule="evenodd" clip-rule="evenodd" d="M91.5519 9.85885C90.4305 8.4238 86.8223 7.09507 86.8223 7.15113C86.8808 7.15673 88.4801 10.9181 89.4455 12.1738C90.4792 13.407 92.3709 13.4408 92.3807 13.452C92.3904 13.4633 92.7074 11.2435 91.5519 9.85885Z" fill="#314E52"/>
<path fill-rule="evenodd" clip-rule="evenodd" d="M1.10254 99.8364H6.02709V97.8913H2.96517V86.2146H1.10254V99.8364Z" fill="#314E52"/>
<path fill-rule="evenodd" clip-rule="evenodd" d="M9.51293 88.6308L10.4102 95.5202H8.61598L9.51293 88.6308ZM8.37702 97.3644H10.6637L10.9854 99.8364H12.8626L10.9661 86.2146H8.24042L6.34863 99.8364H8.05532L8.37702 97.3644Z" fill="#314E52"/>
<path fill-rule="evenodd" clip-rule="evenodd" d="M17.1821 99.8364L17.8597 92.5771L18.5326 99.8364H21.0047L22.326 86.2146H20.7023L19.7369 97.0335L18.8055 86.2146H17.0113L16.114 96.9552L15.1147 86.2146H13.3057L14.6222 99.8364H17.1821Z" fill="#314E52"/>
<path fill-rule="evenodd" clip-rule="evenodd" d="M26.8621 95.3238L29.217 86.2146H27.4374L26.0185 92.4201L24.5948 86.2146H22.6494L24.9995 95.3238V99.8364H26.8621V95.3238Z" fill="#314E52"/>
<path fill-rule="evenodd" clip-rule="evenodd" d="M35.0375 88.16V86.2146H29.957V99.8364H35.0375V97.8913H31.8194V93.9002H34.3792V91.9547H31.8194V88.16H35.0375Z" fill="#314E52"/>
<path fill-rule="evenodd" clip-rule="evenodd" d="M39.893 90.9069C39.893 91.9944 39.4688 92.3473 38.7764 92.3473H38.05V88.1656H38.9472C39.6055 88.1656 39.893 88.5916 39.893 89.567V90.9069ZM40.0784 99.8365H41.9749C41.7897 99.3263 41.7702 98.8444 41.7702 98.1829V96.0808C41.7702 94.6569 41.4631 93.631 40.5367 93.177C41.3656 92.7285 41.7556 91.8149 41.7556 90.4135V89.3429C41.7556 87.2408 40.9268 86.2092 38.996 86.2092H36.1826V99.831H38.0452V94.2814H38.6886C39.5321 94.2814 39.9076 94.7524 39.9076 96.0137V98.1548C39.9124 99.2704 39.976 99.4889 40.0784 99.8365Z" fill="#314E52"/>
<path fill-rule="evenodd" clip-rule="evenodd" d="M49.4251 96.8597C49.391 97.7174 49.0204 98.0483 48.4597 98.0483C47.8698 98.0483 47.4943 97.6784 47.4943 96.703V95.4361C47.4943 94.1692 47.8649 93.7038 48.7133 93.7038H49.4251V96.8597ZM51.7752 93.7038V91.7587H51.2827V90.2396H49.4204V91.7587H48.6058C47.9135 91.7587 47.4893 91.411 47.4893 90.3179V89.4828C47.4893 88.5074 47.8454 88.16 48.4353 88.16H50.5366V86.2146H48.4011C46.5386 86.2146 45.627 87.4031 45.627 89.5837V89.8358C45.627 91.2933 46.0315 92.2127 46.914 92.6387C45.9974 93.104 45.627 94.1186 45.627 95.4976V96.8768C45.627 98.878 46.3242 99.9934 47.6943 99.9934C48.5232 99.9934 49.0986 99.5618 49.4204 98.7658C49.4545 99.3712 49.5031 99.5617 49.5909 99.8364H51.4874C51.3021 99.3262 51.2877 98.8442 51.2877 98.1828V93.7038H51.7752Z" fill="#314E52"/>
<path fill-rule="evenodd" clip-rule="evenodd" d="M60.1716 88.16V86.2146H55.2471V99.8364H57.1097V94.2139H59.5133V92.2634H57.1097V88.16H60.1716Z" fill="#314E52"/>
<path fill-rule="evenodd" clip-rule="evenodd" d="M64.7748 90.9069C64.7748 91.9944 64.3506 92.3473 63.6583 92.3473H62.9318V88.1656H63.8288C64.487 88.1656 64.7748 88.5916 64.7748 89.567V90.9069ZM64.9599 99.8365H66.8568C66.6715 99.3263 66.652 98.8444 66.652 98.1829V96.0808C66.652 94.6569 66.3446 93.631 65.4182 93.177C66.2471 92.7285 66.6372 91.8149 66.6372 90.4135V89.3429C66.6372 87.2408 65.8084 86.2092 63.8776 86.2092H61.0645V99.831H62.9268V94.2814H63.5705C64.414 94.2814 64.7894 94.7524 64.7894 96.0137V98.1548C64.7894 99.2704 64.8575 99.4889 64.9599 99.8365Z" fill="#314E52"/>
<path fill-rule="evenodd" clip-rule="evenodd" d="M69.7335 99.8364V86.2146H67.876V99.8364H69.7335Z" fill="#314E52"/>
<path fill-rule="evenodd" clip-rule="evenodd" d="M76.1694 88.16V86.2146H71.0889V99.8364H76.1694V97.8913H72.9515V93.9002H75.5063V91.9547H72.9515V88.16H76.1694Z" fill="#314E52"/>
<path fill-rule="evenodd" clip-rule="evenodd" d="M83.2053 86.2146H81.5477V94.3655L79.6363 86.2146H77.3008V99.8364H78.978V89.9707L81.2942 99.8364H83.2053V86.2146Z" fill="#314E52"/>
<path fill-rule="evenodd" clip-rule="evenodd" d="M86.4025 97.8913V88.16H87.4557C88.0456 88.16 88.4017 88.5074 88.4017 89.4828V96.5685C88.4017 97.5383 88.0456 97.8913 87.4557 97.8913H86.4025ZM90.264 96.4731V89.5837C90.264 87.4031 89.3524 86.2146 87.4899 86.2146H84.5449V99.8364H87.4899C89.3524 99.8364 90.264 98.6481 90.264 96.4731Z" fill="#314E52"/>
<path fill-rule="evenodd" clip-rule="evenodd" d="M93.0735 86.2146H91.2793V88.2777H91.9911L91.4986 90.2228H92.2643L93.0735 88.0646V86.2146Z" fill="#314E52"/>
<path fill-rule="evenodd" clip-rule="evenodd" d="M95.97 89.3491C95.97 88.3737 96.3063 88.0038 96.9012 88.0038C97.496 88.0038 97.8324 88.3737 97.8324 89.3491V89.9154H99.5926V89.4894C99.5926 87.3088 98.6613 86.0642 96.8524 86.0642C95.0435 86.0642 94.1122 87.3088 94.1122 89.4894C94.1122 93.3797 97.7496 93.9065 97.7496 96.7093C97.7496 97.6847 97.3791 98.0324 96.7842 98.0324C96.1894 98.0324 95.8188 97.6847 95.8188 96.7093V95.7397H94.0586V96.5749C94.0586 98.7555 95.0046 100 96.833 100C98.6614 100 99.6072 98.7555 99.6072 96.5749C99.6072 92.6789 95.97 92.152 95.97 89.3491Z" fill="#314E52"/>
<path fill-rule="evenodd" clip-rule="evenodd" d="M40.0593 40.1626C39.6254 40.1626 39.2793 39.7588 39.2793 39.2655C39.2793 38.7722 39.6302 38.3688 40.0593 38.3688C40.4884 38.3688 40.8444 38.7666 40.8444 39.2655C40.8444 39.7644 40.4933 40.1626 40.0593 40.1626ZM29.2692 40.1626C28.8353 40.1626 28.4892 39.7588 28.4892 39.2655C28.4892 38.7722 28.8402 38.3688 29.2692 38.3688C29.7032 38.3688 30.0495 38.7666 30.0495 39.2655C30.0495 39.7644 29.7032 40.1626 29.2692 40.1626ZM40.0593 36.76H29.2692C28.0649 36.76 27.0947 37.8811 27.0947 39.2601C27.0947 40.6447 28.0649 41.7601 29.2692 41.7601C30.4735 41.7601 31.444 40.639 31.444 39.2601H37.88C37.88 40.6447 38.8551 41.7601 40.0546 41.7601C41.2589 41.7601 42.2338 40.639 42.2338 39.2601C42.2387 37.8811 41.2636 36.76 40.0593 36.76Z" fill="#314E52"/>
<path fill-rule="evenodd" clip-rule="evenodd" d="M36.3877 66.8798V43.0498H37.2996V66.8798H36.3877ZM31.9119 43.0498H32.8235V66.8798H31.9119V43.0498ZM34.1498 43.0498H35.0617V66.8798H34.1498V43.0498ZM37.4555 39.8884H31.9119C31.6682 40.9423 31.3266 41.5925 30.5368 41.8896V66.874H29.2741V69.335H27.6162V74.3129H41.7218V69.335H40.0642V66.874H38.8012V41.8896C37.8846 41.5365 37.6993 40.9143 37.4555 39.8884Z" fill="#314E52"/>
<path fill-rule="evenodd" clip-rule="evenodd" d="M57.4947 40.1626C57.0608 40.1626 56.71 39.7588 56.71 39.2655C56.71 38.7722 57.0608 38.3688 57.4947 38.3688C57.9287 38.3688 58.2798 38.7666 58.2798 39.2655C58.2798 39.7644 57.9287 40.1626 57.4947 40.1626ZM46.7097 40.1626C46.2758 40.1626 45.9297 39.7588 45.9297 39.2655C45.9297 38.7722 46.2806 38.3688 46.7097 38.3688C47.1388 38.3688 47.4897 38.7666 47.4897 39.2655C47.4897 39.7644 47.1388 40.1626 46.7097 40.1626ZM57.4947 36.76H46.705C45.5006 36.76 44.5254 37.8811 44.5254 39.2601C44.5254 40.6447 45.5006 41.7601 46.705 41.7601C47.9044 41.7601 48.8795 40.639 48.8795 39.2601H55.3155C55.3155 40.6447 56.2905 41.7601 57.49 41.7601C58.6943 41.7601 59.6695 40.639 59.6695 39.2601C59.6744 37.8811 58.699 36.76 57.4947 36.76Z" fill="#314E52"/>
<path fill-rule="evenodd" clip-rule="evenodd" d="M53.8241 66.8798V43.0498H54.736V66.8798H53.8241ZM49.3484 43.0498H50.2602V66.8798H49.3484V43.0498ZM51.5862 43.0498H52.4981V66.8798H51.5862V43.0498ZM54.8919 39.8884H49.3484C49.1046 40.9423 48.7632 41.5925 47.9684 41.8896V66.874H46.7057V69.335H45.0479V74.3129H59.1582V69.335H57.5006V66.874H56.2376V41.8896C55.321 41.5365 55.1406 40.9143 54.8919 39.8884Z" fill="#314E52"/>
<path fill-rule="evenodd" clip-rule="evenodd" d="M74.1609 40.1626C73.7269 40.1626 73.3806 39.7588 73.3806 39.2655C73.3806 38.7722 73.7318 38.3688 74.1609 38.3688C74.5899 38.3688 74.9409 38.7666 74.9409 39.2655C74.9409 39.7644 74.5899 40.1626 74.1609 40.1626ZM63.3708 40.1626C62.9369 40.1626 62.5857 39.7588 62.5857 39.2655C62.5857 38.7722 62.9369 38.3688 63.3708 38.3688C63.7999 38.3688 64.1511 38.7666 64.1511 39.2655C64.1511 39.7644 63.8047 40.1626 63.3708 40.1626ZM74.1609 36.76H63.3759C62.1715 36.76 61.1963 37.8811 61.1963 39.2601C61.1963 40.6447 62.1715 41.7601 63.3759 41.7601C64.5753 41.7601 65.5504 40.639 65.5504 39.2601H71.9864C71.9864 40.6447 72.9614 41.7601 74.1609 41.7601C75.3652 41.7601 76.3404 40.639 76.3404 39.2601C76.3356 37.8811 75.3652 36.76 74.1609 36.76Z" fill="#314E52"/>
<path fill-rule="evenodd" clip-rule="evenodd" d="M70.4892 66.8798V43.0498H71.401V66.8798H70.4892ZM66.0131 43.0498H66.9249V66.8798H66.0131V43.0498ZM68.2513 43.0498H69.1628V66.8798H68.2513V43.0498ZM71.5519 39.8884H66.0083C65.7645 40.9423 65.4233 41.5925 64.6335 41.8896V66.874H63.3705V69.335H61.7129V74.3129H75.8181V69.335H74.1606V66.874H72.8976V41.8896C71.9809 41.5365 71.8005 40.9143 71.5519 39.8884Z" fill="#314E52"/>
<path fill-rule="evenodd" clip-rule="evenodd" d="M24.3945 33.0661H30.538V36.2443H38.7977V33.0661H47.9689V36.2443H56.2333V33.0661H64.6343V36.2443H72.8984V33.0661H80.6022V30.448H24.3945V33.0661Z" fill="#314E52"/>
<path fill-rule="evenodd" clip-rule="evenodd" d="M52.4981 0L19.5479 28.6733H25.2961L52.4981 5.00043L79.7048 28.6733H85.4531L52.4981 0Z" fill="#314E52"/>
<path fill-rule="evenodd" clip-rule="evenodd" d="M30.1533 27.5351H75.1465L52.4989 7.83105L30.1533 27.5351Z" fill="#314E52"/>
<path fill-rule="evenodd" clip-rule="evenodd" d="M82.2642 75.5754H23.5068V80.4804H82.2642V75.5754Z" fill="#314E52"/>
</svg>
