<svg width="105" height="100" viewBox="0 0 105 100" fill="none" xmlns="http://www.w3.org/2000/svg">
<path fill-rule="evenodd" clip-rule="evenodd" d="M67.7471 10.6844C66.4988 10.6844 65.4845 9.4191 65.4845 7.86164C65.4845 6.29846 66.4988 5.03292 67.7471 5.03292C69.0001 5.03292 70.0145 6.29846 70.0145 7.86164C70.0145 9.42483 69.0047 10.6844 67.7471 10.6844ZM36.5244 10.6844C35.2714 10.6844 34.257 9.4191 34.257 7.86164C34.257 6.29846 35.2714 5.03292 36.5244 5.03292C37.7727 5.03292 38.7869 6.29846 38.7869 7.86164C38.7869 9.42483 37.7773 10.6844 36.5244 10.6844ZM67.7471 0H36.5244C33.0455 0 30.2227 3.52138 30.2227 7.86164C30.2227 12.2019 33.0455 15.7233 36.5244 15.7233C40.0033 15.7233 42.8213 12.2019 42.8213 7.86164H61.4502C61.4502 12.2019 64.2682 15.7233 67.7471 15.7233C71.2306 15.7233 74.0485 12.2019 74.0485 7.86164C74.0485 3.52138 71.2306 0 67.7471 0Z" fill="#314E52"/>
<path fill-rule="evenodd" clip-rule="evenodd" d="M57.1213 49.9864V19.7592H59.7604V49.9864H57.1213ZM44.1695 19.7592H46.8085V49.9864H44.1695V19.7592ZM50.6454 19.7592H53.2845V49.9864H50.6454V19.7592ZM60.2148 9.83032H44.1695C43.4535 13.1342 42.4715 15.1784 40.1813 16.1231V49.9864H36.5279V57.7107H31.7227V73.3484H72.5515V57.7107H67.7462V49.9864H64.0928V16.1231C61.4492 15.0123 60.9261 13.054 60.2148 9.83032Z" fill="#314E52"/>
<path fill-rule="evenodd" clip-rule="evenodd" d="M6.17284 31.8927H9.54163V33.1064H7.26057V34.8699H9.27551V36.084H7.26057V38.6206H9.63799V39.8344H6.1776V31.8927H6.17284ZM11.9557 36.3074C11.1159 35.8436 10.4596 35.1907 10.4596 33.9539C10.4596 32.6198 11.3638 31.7665 12.4423 31.7665C13.1078 31.7665 13.7411 32.0986 14.2276 32.7056L13.9018 33.6335C13.4061 33.1697 12.9288 32.9177 12.479 32.9177C11.8778 32.9177 11.4969 33.3127 11.4969 33.9197C11.4969 34.5266 11.9283 34.8244 12.525 35.1565C13.5347 35.7062 14.3928 36.2387 14.3928 37.6186C14.3928 39.1761 13.4382 39.9661 12.3137 39.9661C11.5978 39.9661 10.8817 39.6342 10.3677 39.0617L10.7027 38.1226C11.304 38.6093 11.7997 38.8097 12.3137 38.8097C12.892 38.8097 13.3418 38.489 13.3418 37.7389C13.3464 37.0861 12.736 36.7368 11.9557 36.3074ZM14.7416 31.8927H19.2166V33.1064H17.5274V39.8288H16.4397V33.1064H14.7416V31.8927ZM19.9278 38.2771C20.2996 38.2771 20.6071 38.6548 20.6071 39.1186C20.6071 39.5824 20.2996 39.9661 19.9278 39.9661C19.5561 39.9661 19.2533 39.5824 19.2533 39.1186C19.2533 38.6548 19.5561 38.2771 19.9278 38.2771ZM24.7194 43.1213V28.0564H0L1.14739 35.8436L0 43.1153H24.7194V43.1213Z" fill="#314E52"/>
<path fill-rule="evenodd" clip-rule="evenodd" d="M94.187 34.1275C94.6506 34.1275 95.0271 33.6979 95.0271 33.0909C95.0271 32.4725 94.6552 32.0547 94.187 32.0547C93.7326 32.0547 93.3564 32.4725 93.3564 33.0909C93.3564 33.6979 93.7281 34.1275 94.187 34.1275Z" fill="#314E52"/>
<path fill-rule="evenodd" clip-rule="evenodd" d="M88.9501 32.1384C88.3397 32.1384 87.835 32.694 87.835 33.5643C87.835 34.4347 88.3397 34.9902 88.9501 34.9902C89.5606 34.9902 90.0653 34.4289 90.0653 33.5643C90.0653 32.694 89.5606 32.1384 88.9501 32.1384Z" fill="#314E52"/>
<path fill-rule="evenodd" clip-rule="evenodd" d="M101.043 31.4857L98.5559 39.0437H97.4682L99.7078 32.3217H96.8671V31.1076H101.043V31.4857ZM94.1865 39.1698C92.9841 39.1698 92.0111 38.0874 92.0111 36.6731C92.0111 35.8028 92.3829 35.0413 92.9657 34.6405C92.5756 34.2855 92.3461 33.7016 92.3461 33.0832C92.3461 31.8922 93.1585 30.9758 94.1865 30.9758C95.2284 30.9758 96.0362 31.8922 96.0362 33.0832C96.0362 33.7016 95.8067 34.2741 95.4166 34.6405C95.9994 35.0471 96.362 35.8085 96.362 36.6731C96.362 38.0874 95.3982 39.1698 94.1865 39.1698ZM90.4827 35.6138L88.6241 39.0381H87.4033L89.06 36.0262C87.8116 36.2953 86.7699 35.1102 86.7699 33.5585C86.7699 32.1213 87.7429 30.9646 88.9454 30.9646C90.1387 30.9646 91.1208 32.1156 91.1208 33.5585C91.1254 34.3487 90.781 35.0641 90.4827 35.6138ZM85.9621 39.0381H83.1121V38.0361H83.9886V32.9801L82.9698 33.5299L82.7311 33.0028L84.599 30.9702H85.0763V38.0361H85.9621V39.0381ZM80.2803 27.2598V42.3246H105L103.852 35.0529L105 27.2657H80.2803V27.2598Z" fill="#314E52"/>
<path fill-rule="evenodd" clip-rule="evenodd" d="M94.1865 35.2839C93.5669 35.2839 93.0713 35.8223 93.0713 36.664C93.0713 37.5 93.5669 38.0323 94.1865 38.0323C94.8152 38.0323 95.3019 37.4943 95.3019 36.664C95.3019 35.8166 94.8152 35.2839 94.1865 35.2839Z" fill="#314E52"/>
<path fill-rule="evenodd" clip-rule="evenodd" d="M15.9079 61.6043L14.9395 59.6919L5.95312 66.7578L8.89948 72.5868L10.2766 71.5104L8.29833 67.5937L15.9079 61.6043Z" fill="#314E52"/>
<path fill-rule="evenodd" clip-rule="evenodd" d="M17.587 75.7356L18.8078 74.3956L16.5911 71.2464L18.3627 69.3054L20.8731 72.8726L22.0939 71.5386L18.3856 66.2649L10.4043 75.0083L14.2182 80.4309L15.4393 79.091L12.8232 75.3749L15.3704 72.5864L17.587 75.7356Z" fill="#314E52"/>
<path fill-rule="evenodd" clip-rule="evenodd" d="M23.0668 81.0039L22.1673 82.4242L23.3284 83.5691L22.1673 85.4074C21.5202 85.5333 20.9095 85.31 20.3725 84.7832C19.1976 83.6265 19.1336 81.2559 20.6619 78.8395C22.1719 76.4518 24.0902 76.1141 25.3523 77.3566C26.0545 78.0438 26.4308 79.1487 26.3849 80.2423L27.7709 80.0361C27.982 78.3241 27.3625 76.6979 26.2381 75.5928C24.0764 73.4627 21.0841 74.442 19.2069 77.408C17.3344 80.3741 17.1646 84.1016 19.2299 86.1343C19.9918 86.8844 20.9097 87.2567 21.7863 87.188L21.6715 88.2644L22.2085 88.7914L25.568 83.4719L23.0668 81.0039Z" fill="#314E52"/>
<path fill-rule="evenodd" clip-rule="evenodd" d="M33.0591 86.7486L32.3705 88.4949L29.144 86.5137L29.8326 84.7673C30.5715 82.895 31.6361 82.351 32.5632 82.9179C33.4903 83.4847 33.7934 84.8762 33.0591 86.7486ZM33.2885 81.0684C31.4572 79.9461 29.3552 80.8277 28.1756 83.8223L25.2842 91.1689L26.9137 92.1708L28.4235 88.3345L31.6545 90.3158L30.1446 94.152L31.7738 95.1484L34.6653 87.8019C35.8448 84.8015 35.1197 82.1907 33.2885 81.0684Z" fill="#314E52"/>
<path fill-rule="evenodd" clip-rule="evenodd" d="M39.741 84.4471L37.9969 83.8289L35.1055 96.5805L40.4203 98.4527L40.8654 96.506L37.2946 95.2462L39.741 84.4471Z" fill="#314E52"/>
<path fill-rule="evenodd" clip-rule="evenodd" d="M50.1913 91.9972C49.2045 91.396 48.5023 90.8691 48.5298 89.8556C48.5574 88.8421 49.2137 88.2123 50.2142 88.2581C50.9623 88.2924 51.7472 88.7447 52.555 89.5578L53.1379 88.0292C52.3577 86.9813 51.3204 86.38 50.2098 86.3342C48.4106 86.254 46.8593 87.6166 46.795 89.844C46.7354 91.9111 47.8048 93.0507 49.1817 93.8809C50.4668 94.6539 51.4673 95.2724 51.4398 96.3661C51.4031 97.6144 50.6412 98.1181 49.6728 98.0723C48.8145 98.0322 47.9931 97.6601 47.0155 96.8012L46.4141 98.3473C47.2448 99.3379 48.4243 99.9447 49.6176 99.9962C51.4947 100.076 53.1241 98.8395 53.1976 96.2399C53.2527 93.9381 51.8481 92.9821 50.1913 91.9972Z" fill="#314E52"/>
<path fill-rule="evenodd" clip-rule="evenodd" d="M57.5712 97.393L57.1258 93.196L60.4534 92.6463L60.2422 90.6364L56.9149 91.1921L56.6028 88.2774L60.3753 87.6532L60.1596 85.6433L54.5879 86.5652L55.9877 99.7006L61.7154 98.75L61.4997 96.7405L57.5712 97.393Z" fill="#314E52"/>
<path fill-rule="evenodd" clip-rule="evenodd" d="M66.223 90.6407L64.8919 91.1905L63.6529 86.4951L64.9837 85.9454C66.0852 85.493 67.1361 85.9166 67.5584 87.5027C67.976 89.0831 67.3291 90.1826 66.223 90.6407ZM69.3254 86.7698C68.7196 84.468 66.916 83.0995 64.6487 84.0271L61.4404 85.3439L64.7633 97.924L66.4844 97.2138L65.3784 93.0225L66.737 92.4615L70.4591 95.5705L72.4692 94.7405L68.3707 91.3449C69.4722 90.1826 69.7706 88.4475 69.3254 86.7698Z" fill="#314E52"/>
<path fill-rule="evenodd" clip-rule="evenodd" d="M74.2918 78.4346L75.7879 88.289L69.8582 81.5209L68.1738 82.6948L76.7196 92.0107L77.8348 91.232L75.9622 77.2722L74.2918 78.4346Z" fill="#314E52"/>
<path fill-rule="evenodd" clip-rule="evenodd" d="M84.4713 83.3402L79.4871 75.6274L80.6392 74.465L79.7991 73.1653L76.0908 76.8929L76.9306 78.1926L78.0735 77.0418L83.0578 84.7601L81.9149 85.911L82.755 87.2111L86.4633 83.4835L85.6235 82.1834L84.4713 83.3402Z" fill="#314E52"/>
<path fill-rule="evenodd" clip-rule="evenodd" d="M90.6159 73.3609C90.7811 74.4316 90.6937 75.4105 90.0971 76.235C89.1471 77.5463 87.2976 77.5179 85.4893 75.4794C83.6856 73.441 83.4698 71.1332 84.4198 69.822C85.0164 68.9974 85.7875 68.7972 86.6686 68.906L86.6 67.1652C85.2782 66.7701 84.0434 67.2511 83.0842 68.5796C81.331 70.9959 82.0057 74.649 84.25 77.1856C86.4898 79.7165 89.4638 80.1802 91.217 77.7696C92.1763 76.4412 92.4195 74.901 91.9927 73.2634L90.6159 73.3609Z" fill="#314E52"/>
<path fill-rule="evenodd" clip-rule="evenodd" d="M94.4722 68.7047L91.5945 66.4655L93.3707 62.9099L91.9891 61.839L90.2132 65.395L88.2119 63.8433L90.2269 59.812L88.8453 58.7412L85.876 64.6905L94.8943 71.699L97.9466 65.5722L96.565 64.5018L94.4722 68.7047Z" fill="#314E52"/>
</svg>
