<svg width="688" height="468" viewBox="0 0 688 468" fill="none" xmlns="http://www.w3.org/2000/svg">
<path d="M343.875 167.315C345.398 165.412 344.595 162.25 342.101 160.256L305.34 130.918C302.842 128.926 299.584 128.851 298.07 130.752C296.548 132.653 297.348 135.81 299.849 137.806L336.601 167.14C339.1 169.136 342.359 169.213 343.875 167.315ZM345.999 156.718C346.554 156.02 346.68 155.188 346.269 154.864L309.676 125.65C309.263 125.327 308.479 125.63 307.926 126.328C307.363 127.028 307.245 127.859 307.651 128.183L344.248 157.392C344.656 157.721 345.437 157.413 345.999 156.718ZM403.494 92.5881C405.008 90.6872 404.213 87.5254 401.711 85.5341L364.959 56.1976C362.463 54.2046 359.207 54.1267 357.684 56.0276C356.17 57.9286 356.967 61.0878 359.466 63.0817L396.221 92.4199C398.723 94.4112 401.973 94.4891 403.494 92.5881ZM393.642 97.0117C394.199 96.3122 394.318 95.4781 393.912 95.1567L357.314 65.946C356.908 65.6193 356.126 65.9221 355.563 66.6243C355.007 67.3211 354.883 68.1498 355.294 68.4757L391.896 97.6873C392.304 98.0104 393.085 97.7129 393.642 97.0117ZM366.984 124.604C357.951 135.926 347.403 151.63 347.403 151.63L329.98 137.728L312.567 123.827C312.567 123.827 325.545 110.061 334.582 98.7409C344.711 86.0441 354.165 71.7128 354.165 71.7128L371.583 85.612L388.998 99.513C388.998 99.513 377.11 111.909 366.984 124.604Z" fill="#91762B"/>
<path d="M474.035 202.503C421.28 164.324 376.65 131.606 346.745 109.583L344.438 112.472C372.548 136.749 414.344 173.015 463.269 215.997C471.533 223.251 480.62 228.757 485.473 222.674C490.331 216.594 482.946 208.952 474.035 202.503Z" fill="#91762B"/>
<path d="M370.532 130.734C367.129 134.939 362.913 137.168 361.118 135.713C359.314 134.259 360.605 129.666 364.01 125.461C367.417 121.257 371.63 119.024 373.432 120.482C375.23 121.93 373.938 126.528 370.532 130.734Z" fill="#91762B"/>
<path d="M433.72 181.329C430.597 185.749 427.154 188.683 426.031 187.889C424.903 187.096 426.519 182.865 429.644 178.449C432.766 174.031 436.208 171.094 437.337 171.889C438.459 172.68 436.843 176.908 433.72 181.329Z" fill="#91762B"/>
<path d="M439.872 185.452C436.495 190.226 432.008 192.859 429.854 191.332C427.69 189.809 428.672 184.696 432.049 179.922C435.428 175.157 439.91 172.515 442.068 174.044C444.228 175.563 443.248 180.674 439.872 185.452Z" fill="#91762B"/>
<path d="M310.308 188.699H377.387C380.181 188.699 382.468 190.986 382.468 193.78C382.468 196.575 380.181 198.861 377.387 198.861H310.308C307.514 198.861 305.227 196.575 305.227 193.78C305.227 190.986 307.514 188.699 310.308 188.699Z" fill="#91762B"/>
<path d="M418.155 39.0707C417.884 39.5674 417.721 39.9021 417.525 40.2129C417.288 40.5918 417.089 41.0168 416.55 41.2037C402.59 32.6098 387.494 26.829 371.374 23.6441C371.374 22.8119 371.367 22.2124 371.381 21.6077C371.384 21.4696 371.467 21.3279 371.591 20.9454C388.237 24.1754 403.735 30.0563 418.155 39.0707ZM371.478 9.82369C383.959 12.0346 395.747 15.6701 407.114 20.8188C406.827 21.7936 406.328 22.4232 405.626 23.1164C394.707 18.19 383.301 14.7192 371.478 12.5588C371.478 11.6326 371.478 10.9013 371.478 9.82369ZM428.165 24.1807C410.522 13.2379 391.688 6.0819 371.488 2.69165C371.409 1.70088 371.262 0.895154 371.682 0C392.45 3.44072 411.718 10.7499 429.691 21.9433C429.299 22.5374 429.055 22.9137 428.805 23.2856C428.64 23.5291 428.463 23.7655 428.165 24.1807ZM380.362 304.63C383.112 300.124 385.558 296.139 387.979 292.137C388.272 291.65 388.645 291.321 389.144 291.137C393.194 289.643 397.248 288.16 401.695 286.53C398.852 291.186 396.238 295.469 393.601 299.783C389.347 301.342 385.102 302.894 380.362 304.63ZM394.051 301.155C398.771 302.734 403.447 304.299 408.126 305.863C408.133 306 408.142 306.137 408.15 306.272C403.884 307.842 399.618 309.409 395.464 310.938C390.603 309.301 385.928 307.726 380.863 306.024C385.518 304.306 389.781 302.732 394.051 301.155ZM411.635 293.908C416.749 294.826 421.497 295.677 426.786 296.622C422.293 299.092 418.311 301.28 414.464 303.394C409.45 302.502 404.624 301.641 399.308 300.695C403.75 298.251 407.732 296.059 411.635 293.908ZM398.666 299.317C400.685 294.542 402.478 290.323 404.244 286.09L404.274 286.019C407.445 285.949 410.615 285.963 413.783 286.066C412.839 288.279 411.891 290.493 410.941 292.712C406.965 294.852 403.027 296.971 398.666 299.317ZM452.888 264.267C455.192 260.666 458.273 258.534 462.565 258.323C462.932 258.303 463.291 258.144 463.657 258.067C466.192 257.534 468.727 257.007 471.794 256.366C468.656 260.234 465.865 263.672 462.921 267.305L453.941 269.233C453.139 268.197 452.338 267.16 451.538 266.124C452.02 265.516 452.479 264.909 452.888 264.267ZM447.285 36.7633C447.419 36.7359 447.553 36.7093 447.688 36.6819C450.998 39.7215 454.31 42.7647 457.626 45.807C458.453 50.7821 459.274 55.7094 460.185 61.191C456.445 57.7689 453.133 54.7434 449.756 51.6542C448.935 46.7092 448.11 41.7376 447.285 36.7633ZM459.766 255.096C459.634 255.049 459.502 255 459.369 254.951C459.009 249.916 458.648 244.88 458.298 240.007L464.949 230.121C465.425 230.43 465.906 230.732 466.391 231.024L467.31 243.86C464.751 247.671 462.258 251.384 459.766 255.096ZM473.459 81.521C474.053 76.5875 474.647 71.6495 475.241 66.7133C475.385 66.685 475.527 66.6558 475.67 66.6274C477.993 70.4861 480.316 74.3483 482.658 78.2388C482.042 83.2334 481.43 88.1953 480.754 93.6839C478.132 89.3118 475.815 85.4496 473.459 81.521ZM487.972 110.605C486.001 106.46 484.028 102.315 482.16 98.3881C483.275 93.3298 484.325 88.5751 485.373 83.8178C485.505 83.808 485.638 83.7965 485.77 83.7841C487.718 87.8455 489.667 91.9105 491.646 96.0374C490.531 101.046 489.465 105.834 488.399 110.629C488.257 110.62 488.115 110.614 487.972 110.605ZM496.464 199.521C494.553 200.88 492.79 202.455 491.019 204.018C490.467 203.373 489.89 202.743 489.294 202.126L491.271 192.288C494.969 189.133 498.769 185.89 502.569 182.646C502.344 185.764 501.5 188.617 501.205 191.525C500.847 195.047 499.286 197.511 496.464 199.521ZM471.281 76.491C468.233 72.7899 465.432 69.3891 462.438 65.7536C462.438 60.9077 462.438 55.8599 462.438 50.5475C464.356 52.8752 465.981 55.2393 467.994 57.1942C470.714 59.839 471.582 62.8928 471.325 66.5903C471.109 69.7167 471.281 72.8749 471.281 76.491ZM495.661 148.391C494.768 143.947 493.876 139.503 492.986 135.076C495.231 130.564 497.439 126.122 499.895 121.187C500.913 126.173 501.814 130.586 502.745 135.14C500.467 139.676 498.246 144.1 496.025 148.522C495.904 148.477 495.783 148.434 495.661 148.391ZM460.95 255.892C463.454 252.153 465.958 248.414 468.473 244.658C473.175 243.149 477.844 241.65 482.514 240.15C482.623 240.246 482.732 240.341 482.841 240.437C480.301 244.237 477.761 248.04 475.297 251.727C470.46 253.275 465.804 254.765 461.148 256.257C461.082 256.137 461.017 256.013 460.95 255.892ZM494.258 148.748C494.141 148.805 494.024 148.861 493.907 148.92C490.156 145.713 486.404 142.506 482.631 139.282C481.733 134.783 480.846 130.34 479.959 125.9C480.083 125.838 480.207 125.783 480.33 125.721C484.028 128.877 487.725 132.031 491.574 135.314C492.479 139.844 493.369 144.295 494.258 148.748ZM495.483 167.639C495.259 163.179 495.034 158.717 494.806 154.217C497.669 150.151 500.526 146.089 503.384 142.03C503.512 142.087 503.642 142.138 503.771 142.192C503.99 146.72 504.208 151.248 504.428 155.795C501.564 159.842 498.731 163.847 495.897 167.849C495.759 167.779 495.622 167.709 495.483 167.639ZM492.76 129.433C491.45 125.199 490.141 120.964 488.767 116.518C490.56 111.805 492.33 107.149 494.101 102.489C494.239 102.524 494.378 102.56 494.516 102.595C495.839 106.921 497.164 111.25 498.466 115.508C496.669 120.257 494.924 124.863 493.18 129.469C493.04 129.457 492.9 129.446 492.76 129.433ZM457.168 74.8308C456.385 74.6582 455.509 74.7068 454.914 73.9728C452.221 70.6525 449.519 67.3367 446.82 64.0226C446.926 63.8951 447.032 63.7711 447.137 63.6427C451.875 64.6769 456.612 65.7066 461.466 66.762C464.277 70.2125 467.124 73.7081 469.97 77.2002C465.518 76.645 461.339 75.7561 457.168 74.8308ZM491.32 129.781C491.194 129.874 491.069 129.971 490.944 130.066C486.913 127.275 482.882 124.485 478.871 121.707C477.517 117.268 476.189 112.917 474.709 108.064C479.241 111.217 483.296 114.037 487.424 116.91C488.758 121.317 490.039 125.546 491.32 129.781ZM493.597 186.749C493.822 182.252 494.048 177.755 494.271 173.292C497.561 169.467 500.791 165.712 504.021 161.957C504.147 162.022 504.274 162.086 504.4 162.154C504.165 166.684 503.929 171.218 503.689 175.841C500.485 179.526 497.255 183.241 494.025 186.954C493.883 186.884 493.74 186.817 493.597 186.749ZM472.523 240.329L475.149 234.821C478.321 235.606 481.606 235.723 484.858 234.792C480.746 236.813 476.791 238.76 472.835 240.704C472.731 240.578 472.627 240.452 472.523 240.329ZM473.748 234.43L470.89 240.411L469.214 232.584C470.68 233.317 472.198 233.948 473.748 234.43ZM479.12 93.7742C479.026 93.9071 478.932 94.0443 478.838 94.1771C474.268 92.4559 469.699 90.7346 465.1 89.001C462.959 85.014 460.216 81.3935 458.057 76.9558C462.26 78.538 465.926 80.0884 469.705 81.2598C471.506 81.8194 472.624 82.7482 473.52 84.3331C475.317 87.5179 477.246 90.6319 479.12 93.7742ZM481.672 195.51C480.289 192.302 480.157 188.998 481.45 185.419C482.01 183.868 482.154 182.165 482.522 180.538C482.663 179.915 482.386 179.128 483.282 178.641C485.491 183.121 487.693 187.592 489.875 192.025L488.057 200.892C486.054 198.963 483.877 197.173 481.672 195.51ZM492.917 206.437C494.787 205.28 496.656 204.125 498.524 202.97C498.646 203.06 498.767 203.149 498.89 203.241C497.851 206.014 496.816 208.789 495.776 211.561C495.044 209.761 494.062 208.048 492.917 206.437ZM493.448 167.825C490.268 164.133 487.089 160.439 483.956 156.802C483.819 152.143 483.302 147.622 483.425 142.712C486.972 146.847 490.247 150.662 493.372 154.304C493.52 158.973 494.006 163.322 493.887 167.689C493.741 167.735 493.594 167.781 493.448 167.825ZM483.883 175.736C483.339 174.958 483.272 174.085 483.323 173.152C483.54 169.158 483.714 165.157 483.902 161.157C484.044 161.116 484.186 161.075 484.328 161.031C487.199 165.139 490.073 169.249 492.932 173.339C492.363 177.871 492.614 182.347 491.922 187.197C489.052 183.107 486.465 179.422 483.883 175.736ZM467.402 92.5904C467.63 92.4603 467.742 92.6055 467.839 92.7826C472.3 94.6924 476.575 96.9856 480.929 99.1115C482.877 103.244 484.798 107.317 486.718 111.39C486.596 111.462 486.472 111.528 486.349 111.597C481.928 109.417 477.507 107.233 473.139 105.076C471.211 101.027 469.328 97.0786 467.447 93.1297H467.448C467.34 92.9579 467.264 92.7826 467.402 92.5904ZM408.88 23.4927C408.966 23.3865 409.054 23.2838 409.142 23.1802C414.14 24.387 419.139 25.5929 424.005 26.7688C427.398 30.8257 430.668 34.7366 434.288 39.0645C428.774 37.7479 423.782 36.5561 418.767 35.3591C415.461 31.3924 412.169 27.4426 408.88 23.4927ZM422.433 286.576L416.036 290.927C415.932 290.856 415.825 290.785 415.72 290.714L417.141 286.21C418.906 286.303 420.669 286.425 422.433 286.576ZM447.718 253.433C450.164 249.945 453.073 246.861 455.832 243.33C455.832 248.632 455.832 253.588 455.832 258.425C454.148 260.666 452.386 262.737 450.563 264.863C449.419 263.384 448.274 261.904 447.129 260.426C447.154 259.1 447.164 257.794 447.161 256.487C447.158 255.457 447.043 254.395 447.718 253.433ZM416.914 292.044L424.65 286.784C429.345 287.253 434.038 287.936 438.729 288.854L431.725 293.646C426.788 293.253 421.867 292.866 416.947 292.477C416.936 292.332 416.925 292.187 416.914 292.044ZM459.181 62.2615C453.715 61.8896 448.824 61.5567 443.87 61.2176C440.552 58.1806 437.236 55.1428 433.921 52.1058C433.967 51.9748 434.013 51.8446 434.06 51.7135C439.096 52.0571 444.133 52.3962 448.875 52.7185C452.367 55.952 455.588 58.9341 459.181 62.2615ZM435.312 39.215C433.813 34.4701 432.285 29.6402 430.759 24.812C430.871 24.7509 430.985 24.6889 431.099 24.627C434.864 27.1991 438.629 29.773 442.285 32.2725C443.816 37.1211 445.283 41.7659 446.749 46.4152C446.625 46.5011 446.501 46.5905 446.377 46.6764C442.733 44.2212 439.09 41.7632 435.312 39.215ZM446.108 48.2622C442.835 48.5517 440.064 48.5916 437.37 49.075C432.837 49.8878 428.876 49.075 425.403 45.8822C423.883 44.4868 421.88 43.6864 420.366 42.1236C420.708 41.8536 420.925 41.5339 421.17 41.5145C425.632 41.0939 430.096 40.7078 434.513 40.3218C438.42 42.9966 442.047 45.4793 446.108 48.2622ZM377.587 302.122C379.06 299.593 380.64 297.128 382.173 294.635C382.075 294.506 381.977 294.378 381.879 294.25C369.423 297.844 356.727 299.617 343.792 299.617C330.847 299.614 318.14 297.772 305.214 294.115C306.986 297.012 308.451 299.379 309.891 301.767C311.974 305.228 310.791 308.475 306.962 309.826C304.88 310.56 302.792 311.276 300.706 312.002C314.813 316.464 329.181 318.44 343.816 318.452C358.498 318.465 372.907 316.469 386.987 312.164C384.793 311.242 382.603 310.537 380.43 309.784C377.07 308.616 375.785 305.223 377.587 302.122ZM269.539 39.0707C269.809 39.5674 269.972 39.9021 270.167 40.2129C270.405 40.5918 270.604 41.0168 271.144 41.2037C285.103 32.6098 300.199 26.829 316.319 23.6441C316.319 22.8119 316.326 22.2124 316.311 21.6077C316.309 21.4696 316.226 21.3279 316.102 20.9454C299.456 24.1754 283.958 30.0563 269.539 39.0707ZM316.215 9.82369C303.734 12.0346 291.946 15.6701 280.58 20.8188C280.867 21.7936 281.365 22.4232 282.067 23.1164C292.985 18.19 304.392 14.7192 316.215 12.5588C316.215 11.6326 316.215 10.9013 316.215 9.82369ZM259.529 24.1807C277.172 13.2379 296.005 6.0819 316.204 2.69165C316.283 1.70088 316.431 0.895154 316.011 0C295.244 3.44072 275.975 10.7499 258.002 21.9433C258.395 22.5374 258.638 22.9137 258.889 23.2856C259.054 23.5291 259.231 23.7655 259.529 24.1807ZM307.331 304.63C304.581 300.124 302.134 296.139 299.714 292.137C299.421 291.65 299.048 291.321 298.549 291.137C294.499 289.643 290.445 288.16 285.998 286.53C288.841 291.186 291.455 295.469 294.092 299.783C298.346 301.342 302.591 302.894 307.331 304.63ZM293.641 301.155C288.923 302.734 284.246 304.299 279.568 305.863C279.561 306 279.552 306.137 279.544 306.272C283.809 307.842 288.074 309.409 292.228 310.938C297.09 309.301 301.765 307.726 306.83 306.024C302.175 304.306 297.912 302.732 293.641 301.155ZM276.058 293.908C270.944 294.826 266.196 295.677 260.908 296.622C265.4 299.092 269.383 301.28 273.23 303.394C278.243 302.502 283.069 301.641 288.385 300.695C283.943 298.251 279.961 296.059 276.058 293.908ZM289.027 299.317C287.007 294.542 285.214 290.323 283.448 286.09L283.418 286.019C280.248 285.949 277.079 285.963 273.91 286.066C274.855 288.279 275.803 290.493 276.752 292.712C280.728 294.852 284.666 296.971 289.027 299.317ZM234.806 264.267C232.502 260.666 229.42 258.534 225.129 258.323C224.761 258.303 224.403 258.144 224.036 258.067C221.501 257.534 218.966 257.007 215.899 256.366C219.037 260.234 221.827 263.672 224.773 267.305L233.753 269.233C234.553 268.196 235.354 267.16 236.156 266.123C235.672 265.515 235.215 264.909 234.806 264.267ZM240.408 36.7633C240.275 36.7359 240.14 36.7093 240.006 36.6819C236.695 39.7215 233.384 42.7647 230.068 45.807C229.241 50.7821 228.42 55.7094 227.508 61.191C231.248 57.7689 234.559 54.7434 237.937 51.6542C238.758 46.7092 239.583 41.7376 240.408 36.7633ZM227.927 255.096C228.06 255.049 228.191 255 228.323 254.951C228.685 249.916 229.046 244.88 229.396 240.007C226.789 236.133 224.305 232.439 221.5 228.27C221.101 233.835 220.741 238.878 220.384 243.86C222.942 247.671 225.435 251.384 227.927 255.096ZM214.234 81.521C213.641 76.5875 213.046 71.6495 212.452 66.7133C212.309 66.685 212.166 66.6558 212.024 66.6274C209.7 70.4861 207.377 74.3483 205.035 78.2388C205.651 83.2334 206.262 88.1953 206.94 93.6839C209.561 89.3118 211.879 85.4496 214.234 81.521ZM199.72 110.605C201.693 106.46 203.665 102.315 205.534 98.3881C204.417 93.3298 203.369 88.5751 202.32 83.8178C202.189 83.808 202.056 83.7965 201.924 83.7841C199.975 87.8455 198.026 91.9105 196.047 96.0374C197.162 101.046 198.228 105.834 199.294 110.629C199.437 110.62 199.578 110.614 199.72 110.605ZM191.229 199.521C193.832 201.372 196.158 203.622 198.607 205.697C198.754 205.587 198.901 205.473 199.049 205.363C198.186 201.067 197.323 196.773 196.422 192.288C192.725 189.133 188.924 185.89 185.124 182.646C185.35 185.764 186.193 188.617 186.489 191.525C186.846 195.047 188.407 197.511 191.229 199.521ZM216.413 76.491C219.46 72.7899 222.26 69.3891 225.255 65.7536C225.255 60.9077 225.255 55.8599 225.255 50.5475C223.338 52.8752 221.712 55.2393 219.699 57.1942C216.979 59.839 216.112 62.8928 216.368 66.5903C216.585 69.7167 216.413 72.8749 216.413 76.491ZM192.032 148.391C192.925 143.947 193.818 139.503 194.708 135.076C192.462 130.564 190.254 126.122 187.798 121.187C186.78 126.173 185.879 130.586 184.949 135.14C187.227 139.676 189.447 144.1 191.668 148.522C191.79 148.477 191.911 148.434 192.032 148.391ZM226.743 255.892C224.239 252.153 221.736 248.414 219.22 244.658C214.518 243.149 209.848 241.65 205.18 240.15C205.071 240.246 204.962 240.341 204.853 240.437C207.392 244.237 209.932 248.04 212.397 251.727C217.234 253.275 221.889 254.765 226.545 256.257C226.611 256.137 226.677 256.013 226.743 255.892ZM193.435 148.748C193.552 148.805 193.669 148.861 193.786 148.92C197.538 145.713 201.289 142.506 205.063 139.282C205.961 134.783 206.848 130.34 207.734 125.9C207.61 125.838 207.486 125.783 207.362 125.721C203.666 128.877 199.969 132.031 196.119 135.314C195.215 139.844 194.325 144.295 193.435 148.748ZM192.21 167.639C192.435 163.179 192.66 158.717 192.887 154.217C190.025 150.151 187.167 146.089 184.31 142.03C184.181 142.087 184.052 142.138 183.922 142.192C183.704 146.72 183.485 151.248 183.266 155.795C186.129 159.842 188.962 163.847 191.796 167.849C191.934 167.779 192.072 167.709 192.21 167.639ZM194.933 129.433C196.243 125.199 197.553 120.964 198.927 116.518C197.134 111.805 195.363 107.149 193.592 102.489C193.454 102.524 193.316 102.56 193.177 102.595C191.854 106.921 190.53 111.25 189.227 115.508C191.024 120.257 192.769 124.863 194.514 129.469C194.654 129.457 194.793 129.446 194.933 129.433ZM230.525 74.8308C231.307 74.6582 232.185 74.7068 232.78 73.9728C235.472 70.6525 238.174 67.3367 240.873 64.0226C240.767 63.8951 240.662 63.7711 240.556 63.6427C235.818 64.6769 231.081 65.7066 226.228 66.762C223.416 70.2125 220.57 73.7081 217.723 77.2002C222.175 76.645 226.353 75.7561 230.525 74.8308ZM196.374 129.781C196.499 129.874 196.624 129.971 196.75 130.066C200.781 127.275 204.811 124.485 208.822 121.707C210.177 117.268 211.504 112.917 212.984 108.064C208.452 111.217 204.398 114.037 200.269 116.91C198.935 121.317 197.654 125.546 196.374 129.781ZM194.096 186.749C193.871 182.252 193.645 177.755 193.422 173.292C190.133 169.467 186.903 165.712 183.673 161.957C183.546 162.022 183.42 162.086 183.293 162.154C183.529 166.684 183.764 171.218 184.003 175.841C187.208 179.526 190.439 183.241 193.669 186.954C193.811 186.884 193.953 186.817 194.096 186.749ZM215.171 240.329C213.256 236.314 211.342 232.3 209.381 228.186C204.998 226.038 200.56 223.863 196.123 221.691C196.036 221.835 195.95 221.98 195.863 222.123C197.815 226.2 199.767 230.277 201.648 234.208C206.189 236.44 210.524 238.573 214.858 240.704C214.962 240.578 215.066 240.452 215.171 240.329ZM208.156 222.935C209.685 218.238 211.212 213.542 212.738 208.849C211.186 204.588 209.646 200.363 208.107 196.136C207.954 196.128 207.803 196.121 207.652 196.114C206.133 200.817 204.616 205.519 203.079 210.277C204.628 214.519 206.17 218.741 207.714 222.966C207.861 222.957 208.008 222.947 208.156 222.935ZM220.09 225.063C218.204 221.127 216.215 216.976 214.228 212.826C214.102 212.876 213.975 212.927 213.85 212.978C212.796 217.832 211.742 222.688 210.678 227.593C212.706 231.835 214.636 235.874 216.803 240.411C217.952 235.05 218.989 230.207 220.09 225.063ZM208.572 93.7742C208.667 93.9071 208.761 94.0443 208.856 94.1771C213.425 92.4559 217.994 90.7346 222.594 89.001C224.733 85.014 227.476 81.3935 229.636 76.9558C225.433 78.538 221.768 80.0884 217.988 81.2598C216.187 81.8194 215.07 82.7482 214.174 84.3331C212.376 87.5179 210.448 90.6319 208.572 93.7742ZM200.978 205.37C202.18 202.936 203.168 200.356 204.63 198.093C207.23 194.067 207.885 189.966 206.243 185.419C205.683 183.868 205.539 182.165 205.172 180.538C205.03 179.915 205.307 179.128 204.411 178.641C202.202 183.121 200.001 187.592 197.818 192.025C198.75 196.567 199.661 201.008 200.573 205.455C200.708 205.426 200.843 205.399 200.978 205.37ZM206.089 223.82C206.182 223.718 206.276 223.617 206.37 223.513C204.832 219.266 203.295 215.022 201.747 210.746C197.537 208.143 193.353 205.556 189.169 202.97C189.047 203.06 188.925 203.149 188.804 203.241C190.381 207.454 191.951 211.669 193.543 215.875C193.788 216.523 194.253 217.121 194.916 217.244C195.998 217.447 196.8 218.124 197.683 218.656C200.501 220.352 203.289 222.095 206.089 223.82ZM194.245 167.825C197.425 164.133 200.604 160.439 203.737 156.802C203.874 152.143 204.391 147.622 204.268 142.712C200.721 146.847 197.446 150.662 194.321 154.304C194.173 158.973 193.688 163.322 193.807 167.689C193.953 167.735 194.099 167.781 194.245 167.825ZM203.811 175.736C204.354 174.958 204.421 174.085 204.37 173.152C204.153 169.158 203.98 165.157 203.791 161.157C203.649 161.116 203.507 161.075 203.366 161.031C200.494 165.139 197.621 169.249 194.761 173.339C195.33 177.871 195.08 182.347 195.771 187.197C198.642 183.107 201.229 179.422 203.811 175.736ZM220.291 92.5904C220.062 92.4603 219.952 92.6055 219.854 92.7826C215.394 94.6924 211.118 96.9856 206.764 99.1115C204.816 103.244 202.895 107.317 200.975 111.39C201.098 111.462 201.222 111.528 201.344 111.597C205.766 109.417 210.187 107.233 214.554 105.076C216.483 101.027 218.364 97.0786 220.247 93.1297C220.355 92.9579 220.429 92.7826 220.291 92.5904ZM278.813 23.4927C278.727 23.3865 278.639 23.2838 278.551 23.1802C273.553 24.387 268.554 25.5929 263.689 26.7688C260.296 30.8257 257.026 34.7366 253.405 39.0645C258.92 37.7479 263.912 36.5561 268.927 35.3591C272.233 31.3924 275.524 27.4426 278.813 23.4927ZM265.26 286.576L271.657 290.927C271.762 290.856 271.867 290.785 271.973 290.714L270.552 286.21C268.788 286.303 267.024 286.425 265.26 286.576ZM239.975 253.433C237.53 249.945 234.62 246.861 231.862 243.33C231.862 248.632 231.862 253.588 231.862 258.425C233.545 260.666 235.307 262.737 237.131 264.863C238.275 263.383 239.419 261.904 240.564 260.425C240.539 259.099 240.529 257.793 240.532 256.487C240.535 255.457 240.65 254.395 239.975 253.433ZM270.78 292.044L263.043 286.784C258.348 287.253 253.655 287.936 248.963 288.853L255.969 293.646C260.906 293.253 265.826 292.866 270.746 292.477C270.757 292.332 270.768 292.187 270.78 292.044ZM228.513 62.2615C233.979 61.8896 238.87 61.5567 243.823 61.2176C247.141 58.1806 250.457 55.1428 253.773 52.1058C253.727 51.9748 253.68 51.8446 253.634 51.7135C248.597 52.0571 243.56 52.3962 238.818 52.7185C235.326 55.952 232.105 58.9341 228.513 62.2615ZM252.38 39.215C253.881 34.4701 255.408 29.6402 256.935 24.812C256.821 24.7509 256.708 24.6889 256.595 24.627C252.83 27.1991 249.064 29.773 245.408 32.2725C243.877 37.1211 242.41 41.7659 240.944 46.4152C241.068 46.5011 241.192 46.5905 241.317 46.6764C244.96 44.2212 248.604 41.7632 252.38 39.215ZM241.584 48.2622C244.859 48.5517 247.63 48.5916 250.323 49.075C254.857 49.8878 258.817 49.075 262.291 45.8822C263.81 44.4868 265.814 43.6864 267.328 42.1236C266.985 41.8536 266.768 41.5339 266.524 41.5145C262.061 41.0939 257.596 40.7078 253.181 40.3218C249.273 42.9966 245.647 45.4793 241.584 48.2622Z" fill="#91762B"/>
<path fill-rule="evenodd" clip-rule="evenodd" d="M343.846 27.7788C416.442 27.7788 475.292 86.6296 475.292 159.225C475.292 169.286 474.158 179.082 472.017 188.495C470.019 187.046 468.02 185.598 466.023 184.15C467.656 176.096 468.517 167.761 468.517 159.225C468.517 90.3714 412.7 34.5549 343.846 34.5549C274.992 34.5549 219.176 90.3714 219.176 159.225C219.176 192.201 231.984 222.181 252.89 244.477C251.492 246.289 250.093 248.101 248.693 249.912C226.206 226.327 212.4 194.387 212.4 159.225C212.4 86.6296 271.25 27.7788 343.846 27.7788ZM434.801 244.476C441.67 237.149 447.666 228.992 452.619 220.171C453.933 221.325 455.246 222.478 456.56 223.631C456.978 224 457.403 224.366 457.831 224.732C452.565 233.876 446.23 242.324 438.997 249.91C437.598 248.099 436.199 246.288 434.801 244.476Z" fill="#91762B"/>
<path d="M428.735 267.643C423.096 257.457 417.742 247.685 412.184 237.562C411.958 237.188 411.733 236.815 411.508 236.441C411.143 236.52 410.782 236.597 410.418 236.676C424.797 277.637 414.669 242.063 348.838 280.245C374.37 269.487 401.138 266.606 428.735 267.643Z" fill="#91762B"/>
<path d="M409.387 248.6C407.56 242.581 405.61 236.722 403.678 230.707C401.159 232.589 397.636 232.492 399.069 236.438C399.575 239.592 399.827 242.786 400.55 245.913C400.427 246.118 400.425 246.325 400.549 246.532C400.529 246.671 400.508 246.81 400.488 246.949C400.231 247.585 399.973 248.22 399.715 248.857C380.204 254.361 361.19 262.346 346.088 276.462C366.11 264.054 387.96 257.081 411.376 254.289C410.656 252.325 410.271 250.384 409.387 248.6Z" fill="#91762B"/>
<path d="M360.848 281.052C360.848 281.052 365.277 279.769 365.333 279.756L368.344 278.885L368.334 278.892C435.654 259.249 447.688 292.399 422.832 246.678V246.68L420.509 242.58L422.274 244.87V244.868C431.592 256.982 440.853 268.894 450.224 281.052C421.606 273.593 393.15 274.742 364.551 280.401C364.553 280.39 360.848 281.052 360.848 281.052Z" fill="#91762B"/>
<path d="M258.957 267.643C264.595 257.457 269.95 247.685 275.508 237.562C275.734 237.188 275.959 236.815 276.185 236.441C276.549 236.52 276.911 236.597 277.274 236.676C262.895 277.637 273.023 242.063 338.854 280.245C313.321 269.487 286.554 266.606 258.957 267.643Z" fill="#91762B"/>
<path d="M278.307 248.6C280.134 242.581 282.085 236.722 284.016 230.707C286.535 232.589 290.059 232.492 288.626 236.438C288.119 239.592 287.867 242.786 287.144 245.913C287.267 246.118 287.27 246.325 287.146 246.532C287.165 246.671 287.186 246.81 287.206 246.949C287.463 247.585 287.721 248.22 287.979 248.857C307.49 254.361 326.504 262.346 341.606 276.462C321.584 264.054 299.735 257.081 276.318 254.289C277.038 252.325 277.424 250.384 278.307 248.6Z" fill="#91762B"/>
<path d="M326.846 281.052C326.846 281.052 322.417 279.769 322.363 279.756L319.35 278.885L319.36 278.892C252.04 259.249 240.007 292.399 264.863 246.678V246.68L267.185 242.58L265.42 244.87V244.868C256.103 256.982 246.841 268.894 237.471 281.052C266.088 273.593 294.545 274.742 323.144 280.401C323.142 280.39 326.846 281.052 326.846 281.052Z" fill="#91762B"/>
<path d="M298.451 204.96H389.244C394.648 204.96 399.069 209.381 399.069 214.785C399.069 220.189 394.648 224.609 389.244 224.609H298.451C293.048 224.609 288.627 220.189 288.627 214.785C288.627 209.381 293.048 204.96 298.451 204.96Z" fill="#91762B"/>
<path d="M56.858 393.13L36.011 342.452H28.891L8.29199 392.688C7.80899 394.109 7.24399 395.254 6.63599 396.069C6.02899 396.869 5.29798 397.448 4.48398 397.765C3.68398 398.096 2.99398 398.304 2.42798 398.386C1.86198 398.455 1.062 398.496 0 398.496V400.566H21.62V398.496H20.213C19.882 398.496 19.399 398.455 18.75 398.386C18.102 398.304 17.661 398.18 17.412 398.014C17.177 397.848 16.846 397.613 16.446 397.283C16.046 396.951 15.881 396.551 16.004 396.069C16.128 395.571 16.253 394.965 16.363 394.233L18.102 389.68C18.916 387.721 19.233 386.507 19.082 386.024L19.15 385.734H37.059L37.128 386.024C37.1 387.072 37.335 388.383 37.86 389.929L39.515 394.233C39.805 395.089 39.957 395.779 39.998 396.344C40.039 396.91 39.998 397.324 39.888 397.613C39.763 397.89 39.474 398.096 39.073 398.221C38.673 398.345 38.301 398.414 37.984 398.455C37.666 398.496 37.17 398.496 36.562 398.496V400.566H64.654V398.496C62.584 398.496 61.053 398.221 60.046 397.641C59.038 397.075 58.017 395.571 56.969 393.088L56.858 393.13ZM21.578 379.387L21.661 379.139C22.145 378.573 22.751 377.456 23.483 375.759L28.615 362.762L33.21 375.759C33.9 377.332 34.548 378.463 35.155 379.139L35.238 379.387H21.578ZM145.492 398.538C144.277 398.538 143.353 398.496 142.747 398.455C142.14 398.427 141.408 398.262 140.567 397.931C139.711 397.613 139.063 397.048 138.621 396.234C138.18 395.42 137.891 394.413 137.765 393.157L134.537 350.427C134.496 349.061 134.661 347.916 135.02 347.074C135.392 346.219 136 345.653 136.883 345.377C137.765 345.088 138.539 344.881 139.187 344.798C139.836 344.729 140.76 344.688 141.975 344.688V342.618H119.539L106.128 376.586C105.604 377.925 105.48 379.222 105.756 380.477L105.397 381.333L90.689 342.618H68.503V344.688C69.745 344.688 70.725 344.729 71.414 344.77C72.09 344.798 72.822 345.047 73.636 345.447C74.436 345.86 75.002 346.467 75.333 347.309L71.856 392.757C71.815 393.847 71.608 394.771 71.29 395.544C70.959 396.317 70.6 396.882 70.242 397.241C69.869 397.613 69.303 397.89 68.573 398.096C67.855 398.304 67.248 398.427 66.765 398.455C66.268 398.496 65.55 398.496 64.612 398.496V400.566H86.647V398.496C85.391 398.496 84.425 398.455 83.777 398.386C83.128 398.304 82.356 398.096 81.514 397.779C80.659 397.448 80.051 396.882 79.693 396.027C79.334 395.185 79.21 394.054 79.334 392.674L81.68 361.079L97.795 400.635H104.018L119.829 361.161L121.885 392.674C121.927 393.764 121.844 394.688 121.65 395.461C121.444 396.234 121.154 396.8 120.795 397.172C120.436 397.531 119.871 397.807 119.098 398.014C118.326 398.221 117.732 398.345 117.236 398.386C116.752 398.427 116.021 398.427 115.014 398.427L115.097 400.483H145.657L145.492 398.538ZM179.089 344.688V342.618H148.624V344.688C149.632 344.688 150.363 344.688 150.845 344.729C151.328 344.756 151.936 344.881 152.667 345.088C153.399 345.294 153.964 345.571 154.364 345.971C154.764 346.384 155.096 346.95 155.371 347.722C155.661 348.482 155.812 349.42 155.812 350.51V392.757C155.812 393.847 155.661 394.785 155.371 395.544C155.096 396.317 154.723 396.882 154.323 397.241C153.923 397.613 153.357 397.89 152.625 398.096C151.895 398.304 151.287 398.427 150.804 398.455C150.321 398.496 149.563 398.496 148.541 398.496V400.566H179.007V398.496C177.999 398.496 177.225 398.496 176.743 398.455C176.26 398.427 175.653 398.304 174.923 398.096C174.191 397.89 173.625 397.613 173.225 397.241C172.824 396.882 172.465 396.317 172.176 395.544C171.9 394.785 171.735 393.847 171.735 392.757V350.51C171.735 349.42 171.9 348.482 172.176 347.722C172.465 346.95 172.783 346.384 173.184 345.971C173.584 345.571 174.149 345.294 174.88 345.088C175.612 344.881 176.219 344.756 176.701 344.729C177.184 344.688 177.916 344.688 178.923 344.688H179.089ZM226.993 342.618V344.688C228 344.688 228.732 344.688 229.215 344.729C229.711 344.756 230.304 344.881 231.077 345.088C231.849 345.294 232.416 345.571 232.775 345.971C233.147 346.384 233.464 346.95 233.795 347.722C234.112 348.482 234.277 349.42 234.277 350.51V372.323C234.277 373.413 234.637 374.503 235.368 375.593V376.656L196.584 342.618H182.869V344.688C183.876 344.688 184.608 344.688 185.091 344.729C185.573 344.756 186.18 344.881 186.912 345.088C187.643 345.294 188.208 345.571 188.608 345.971C189.008 346.384 189.34 346.95 189.616 347.722C189.905 348.482 190.057 349.42 190.057 350.51V392.757C190.057 393.847 189.905 394.785 189.616 395.544C189.34 396.317 188.968 396.882 188.568 397.241C188.167 397.613 187.601 397.89 186.871 398.096C186.139 398.304 185.532 398.427 185.049 398.455C184.567 398.496 183.795 398.496 182.787 398.496V400.566H205.193V398.496C204.187 398.496 203.413 398.496 202.931 398.455C202.448 398.427 201.84 398.304 201.109 398.096C200.377 397.89 199.812 397.613 199.412 397.241C199.012 396.882 198.64 396.317 198.363 395.544C198.075 394.785 197.923 393.847 197.923 392.757V364.914L239.728 401.477H242.032V350.496C242.032 349.406 242.197 348.482 242.516 347.709C242.847 346.95 243.205 346.384 243.619 345.971C244.019 345.571 244.584 345.28 245.316 345.088C246.033 344.881 246.64 344.756 247.123 344.729C247.62 344.688 248.337 344.688 249.359 344.688V342.618H226.993ZM342.821 344.688V342.618H313.033V344.688C314.04 344.688 314.772 344.688 315.255 344.729C315.737 344.756 316.344 344.881 317.076 345.088C317.807 345.294 318.373 345.571 318.773 345.971C319.173 346.384 319.504 346.95 319.78 347.709C320.069 348.482 320.236 349.42 320.236 350.51V381.319C320.236 384.769 319.173 387.762 317.035 390.232C314.896 392.701 311.943 393.943 308.189 393.943C300.023 393.943 295.939 389.059 295.939 379.319V350.496C295.939 349.406 296.104 348.482 296.435 347.709C296.752 346.95 297.111 346.384 297.525 345.971C297.925 345.571 298.491 345.294 299.223 345.088C299.94 344.881 300.547 344.77 301.029 344.729C301.525 344.688 302.244 344.688 303.265 344.688V342.618H272.787V344.688C273.808 344.688 274.525 344.688 275.008 344.729C275.504 344.77 276.111 344.881 276.829 345.088C277.56 345.294 278.125 345.571 278.527 345.971C278.94 346.384 279.257 346.95 279.533 347.709C279.823 348.482 279.988 349.406 279.988 350.496V377.497C279.988 393.668 287.177 401.725 301.595 401.725C304.396 401.725 306.976 401.311 309.321 400.553C311.668 399.794 313.516 398.814 314.896 397.655C316.276 396.482 317.324 395.475 318.041 394.592C318.773 393.709 319.297 392.854 319.628 392.095H320.028V400.649H342.532V398.58C341.565 398.58 340.835 398.58 340.352 398.538C339.869 398.51 339.22 398.386 338.448 398.18C337.689 397.972 337.123 397.696 336.751 397.338C336.392 396.965 336.033 396.399 335.701 395.627C335.384 394.868 335.219 393.93 335.219 392.839V350.62C335.219 349.53 335.384 348.606 335.701 347.833C336.033 347.074 336.351 346.508 336.709 346.094C337.081 345.694 337.647 345.404 338.407 345.212C339.18 345.005 339.785 344.881 340.269 344.839C340.752 344.798 341.483 344.798 342.491 344.798L342.821 344.688ZM391.553 384.465C391.264 385.996 390.987 387.169 390.74 387.983C390.505 388.783 390.132 389.598 389.649 390.411C389.167 391.212 388.477 391.777 387.635 392.109C386.78 392.426 385.648 392.592 384.268 392.592H368.637V392.343C369.395 391.584 369.809 390.411 369.809 388.866V350.427C369.809 349.337 369.961 348.399 370.251 347.64C370.527 346.868 370.857 346.301 371.259 345.888C371.659 345.488 372.223 345.212 372.955 345.005C373.685 344.798 374.293 344.674 374.776 344.646C375.259 344.604 375.991 344.604 376.997 344.604V342.535H346.519V344.604C347.527 344.604 348.257 344.604 348.74 344.646C349.237 344.674 349.831 344.798 350.561 345.005C351.293 345.212 351.859 345.488 352.259 345.888C352.673 346.301 352.989 346.868 353.265 347.64C353.556 348.399 353.721 349.337 353.721 350.427V392.674C353.721 393.764 353.556 394.702 353.265 395.461C352.989 396.234 352.632 396.8 352.217 397.159C351.817 397.531 351.252 397.807 350.52 398.014C349.803 398.221 349.196 398.345 348.699 398.372C348.216 398.414 347.457 398.414 346.436 398.414V400.483H391.553L393.292 384.658L391.553 384.465ZM495.103 398.538C493.888 398.538 492.964 398.496 492.356 398.455C491.749 398.427 491.019 398.262 490.177 397.931C489.321 397.613 488.673 397.048 488.232 396.234C487.789 395.42 487.5 394.413 487.376 393.157L484.147 350.427C484.107 349.061 484.271 347.916 484.631 347.074C485.003 346.219 485.609 345.653 486.493 345.377C487.376 345.088 488.149 344.881 488.797 344.798C489.445 344.729 490.371 344.688 491.584 344.688V342.618H469.149L455.739 376.586C455.215 377.925 455.091 379.222 455.365 380.477L455.008 381.333L440.299 342.618H418.113V344.688C419.355 344.688 420.335 344.729 421.025 344.77C421.701 344.798 422.432 345.047 423.245 345.447C424.047 345.86 424.612 346.467 424.943 347.309L421.465 392.757C421.425 393.847 421.217 394.771 420.901 395.544C420.569 396.317 420.211 396.882 419.852 397.241C419.48 397.613 418.913 397.89 418.183 398.096C417.465 398.304 416.859 398.427 416.375 398.455C415.879 398.496 415.161 398.496 414.223 398.496V400.566H436.256V398.496C435.001 398.496 434.036 398.455 433.387 398.386C432.739 398.304 431.965 398.096 431.124 397.779C430.268 397.448 429.661 396.882 429.303 396.027C428.944 395.185 428.82 394.054 428.944 392.674L431.289 361.079L447.405 400.635H453.628L469.44 361.161L471.495 392.674C471.536 393.764 471.453 394.688 471.261 395.461C471.053 396.234 470.764 396.8 470.405 397.172C470.047 397.531 469.48 397.807 468.708 398.014C467.935 398.221 467.343 398.345 466.845 398.386C466.363 398.427 465.632 398.427 464.624 398.427L464.707 400.483H495.268L495.103 398.538ZM565.635 344.688V342.618H535.845V344.688C536.853 344.688 537.584 344.688 538.067 344.729C538.551 344.756 539.157 344.881 539.888 345.088C540.62 345.294 541.185 345.571 541.585 345.971C541.985 346.384 542.316 346.95 542.592 347.709C542.883 348.482 543.048 349.42 543.048 350.51V381.319C543.048 384.769 541.985 387.762 539.847 390.232C537.708 392.701 534.756 393.943 531.003 393.943C522.835 393.943 518.751 389.059 518.751 379.319V350.496C518.751 349.406 518.916 348.482 519.248 347.709C519.565 346.95 519.924 346.384 520.337 345.971C520.737 345.571 521.304 345.294 522.035 345.088C522.752 344.881 523.359 344.77 523.841 344.729C524.339 344.688 525.056 344.688 526.077 344.688V342.618H495.599V344.688C496.62 344.688 497.337 344.688 497.82 344.729C498.317 344.77 498.924 344.881 499.641 345.088C500.373 345.294 500.939 345.571 501.339 345.971C501.753 346.384 502.071 346.95 502.347 347.709C502.636 348.482 502.801 349.406 502.801 350.496V377.497C502.801 393.668 509.989 401.725 524.408 401.725C527.208 401.725 529.789 401.311 532.135 400.553C534.48 399.794 536.329 398.814 537.708 397.655C539.088 396.482 540.137 395.475 540.853 394.592C541.585 393.709 542.111 392.854 542.441 392.095H542.841V400.649H565.344V398.58C564.379 398.58 563.647 398.58 563.165 398.538C562.681 398.51 562.033 398.386 561.261 398.18C560.501 397.972 559.936 397.696 559.563 397.338C559.205 396.965 558.847 396.399 558.515 395.627C558.197 394.868 558.032 393.93 558.032 392.839V350.62C558.032 349.53 558.197 348.606 558.515 347.833C558.847 347.074 559.164 346.508 559.523 346.094C559.895 345.694 560.46 345.404 561.219 345.212C561.992 345.005 562.599 344.881 563.081 344.839C563.565 344.798 564.296 344.798 565.303 344.798L565.635 344.688ZM614.367 384.465C614.077 385.996 613.8 387.169 613.552 387.983C613.317 388.783 612.944 389.598 612.463 390.411C611.98 391.212 611.289 391.777 610.448 392.109C609.592 392.426 608.461 392.592 607.081 392.592H591.449V392.343C592.208 391.584 592.621 390.411 592.621 388.866V350.427C592.621 349.337 592.773 348.399 593.063 347.64C593.34 346.868 593.671 346.301 594.071 345.888C594.471 345.488 595.036 345.212 595.768 345.005C596.499 344.798 597.107 344.674 597.589 344.646C598.072 344.604 598.803 344.604 599.809 344.604V342.535H569.332V344.604C570.339 344.604 571.071 344.604 571.553 344.646C572.049 344.674 572.643 344.798 573.375 345.005C574.105 345.212 574.672 345.488 575.072 345.888C575.485 346.301 575.803 346.868 576.079 347.64C576.368 348.399 576.535 349.337 576.535 350.427V392.674C576.535 393.764 576.368 394.702 576.079 395.461C575.803 396.234 575.444 396.8 575.029 397.159C574.631 397.531 574.064 397.807 573.333 398.014C572.616 398.221 572.008 398.345 571.512 398.372C571.029 398.414 570.271 398.414 569.249 398.414V400.483H614.367L616.104 384.658L614.367 384.465ZM642.872 392.716V350.51C642.872 349.42 643.037 348.482 643.313 347.709C643.603 346.95 643.92 346.384 644.335 345.971C644.735 345.571 645.3 345.294 646.031 345.088C646.749 344.881 647.356 344.756 647.852 344.729C648.336 344.688 649.052 344.688 650.073 344.688V342.618H619.595V344.688C620.603 344.688 621.333 344.688 621.816 344.729C622.3 344.756 622.907 344.881 623.637 345.088C624.356 345.294 624.921 345.571 625.335 345.971C625.735 346.384 626.052 346.95 626.343 347.709C626.617 348.482 626.784 349.42 626.784 350.51V392.716C626.784 393.805 626.617 394.744 626.343 395.517C626.052 396.275 625.695 396.841 625.293 397.213C624.88 397.572 624.313 397.848 623.596 398.055C622.865 398.262 622.259 398.386 621.775 398.427C621.292 398.455 620.52 398.455 619.512 398.455V400.525H649.991V398.455C648.984 398.455 648.211 398.455 647.728 398.427C647.245 398.386 646.639 398.262 645.907 398.055C645.176 397.848 644.609 397.572 644.209 397.213C643.809 396.841 643.437 396.275 643.161 395.517C642.872 394.744 642.707 393.805 642.707 392.716H642.872ZM678.125 393.736L661.225 366.556C660.135 365.176 659.005 364.458 657.825 364.417L657.665 364.252L669.345 352C674.245 347.116 679.575 344.688 685.315 344.688V342.618H658.765V344.688C660.255 344.688 661.305 344.963 661.955 345.529C662.605 346.094 662.435 347.033 661.515 348.288L644.9 366.942V369.164L659.045 392.274C660.825 395.42 661.785 398.18 661.955 400.566H687.695V398.496C683.695 398.496 680.515 396.882 678.125 393.695V393.736Z" fill="black"/>
<path fill-rule="evenodd" clip-rule="evenodd" d="M51.0176 443.32L153.203 439.759V448.921L51.0176 445.361V444.34V443.32ZM534.499 439.759L636.685 443.32V445.361L534.499 448.921V439.759Z" fill="black"/>
<path d="M205.45 456.12C205.074 458.441 204.538 460.075 203.816 461.021C203.086 461.967 201.732 462.439 199.754 462.439H186.9V462.213C187.502 461.622 187.814 460.709 187.814 459.506V427.811C187.814 426.962 187.942 426.242 188.2 425.641C188.448 425.049 188.695 424.608 188.986 424.286C189.264 423.974 189.706 423.759 190.307 423.598C190.899 423.437 191.371 423.34 191.758 423.319C192.134 423.286 192.692 423.286 193.488 423.286V421.868H173.487V423.286C174.283 423.286 174.842 423.319 175.218 423.34C175.604 423.373 176.078 423.47 176.636 423.631C177.206 423.781 177.647 424.007 177.959 424.318C178.28 424.641 178.56 425.082 178.807 425.673C179.066 426.274 179.195 426.994 179.195 427.844V461.118C179.195 461.977 179.066 462.697 178.807 463.299C178.56 463.89 178.28 464.331 177.959 464.654C177.647 464.965 177.206 465.18 176.636 465.342C176.078 465.503 175.604 465.599 175.218 465.621C174.842 465.653 174.251 465.653 173.455 465.653V467.071H205.45L206.804 456.367L205.45 456.12ZM250.514 461.418L234.522 421.417H230.9L215.628 461.096C215.219 462.128 214.779 463.009 214.307 463.675C213.832 464.331 213.263 464.772 212.64 465.029C212.007 465.276 211.468 465.438 211.028 465.503C210.587 465.556 209.964 465.588 209.147 465.588V467.007H224.763V465.588C224.194 465.588 223.752 465.588 223.442 465.556C223.119 465.535 222.711 465.503 222.206 465.438C221.711 465.373 221.324 465.245 221.108 465.062C220.883 464.869 220.668 464.643 220.443 464.363C220.228 464.084 220.131 463.697 220.163 463.235C220.196 462.762 220.324 462.192 220.54 461.526L222.775 455.324C223.344 453.712 223.559 452.734 223.442 452.358L223.495 452.175H238.144L238.208 452.358C238.208 453.433 238.359 454.443 238.714 455.389L241.163 461.526C241.411 462.364 241.54 463.031 241.507 463.568C241.475 464.106 241.411 464.513 241.292 464.772C241.163 465.019 240.884 465.212 240.476 465.342C240.067 465.47 239.714 465.524 239.466 465.556C239.208 465.588 238.831 465.588 238.295 465.588V467.007H256.651V465.588C255.554 465.588 254.738 465.524 254.2 465.438C253.663 465.342 253.06 464.954 252.374 464.331C251.686 463.697 251.051 462.708 250.482 461.386L250.514 461.418ZM224.882 448.435L224.946 448.253C225.419 447.812 225.892 446.931 226.364 445.609L230.804 433.873L235.274 445.609C235.747 446.77 236.252 447.651 236.822 448.253L236.886 448.435H224.882ZM307.798 421.879V423.286C308.399 423.286 308.872 423.319 309.248 423.351C309.624 423.373 310.043 423.47 310.484 423.631C310.926 423.792 311.236 424.039 311.419 424.351C311.612 424.673 311.71 425.103 311.71 425.673C311.71 426.242 311.548 426.962 311.268 427.811L302.359 453.584L290.644 421.879H287.463L275.619 453.648L266.839 427.811C266.582 427.092 266.431 426.457 266.399 425.93C266.367 425.393 266.431 424.953 266.582 424.641C266.743 424.318 266.935 424.071 267.119 423.877C267.312 423.695 267.624 423.566 268.064 423.501C268.504 423.437 268.85 423.405 269.107 423.373C269.354 423.351 269.73 423.351 270.268 423.351V421.933H251.03V423.351C252.255 423.351 253.168 423.405 253.771 423.501C254.372 423.598 255.028 423.974 255.748 424.641C256.479 425.296 257.07 426.274 257.543 427.596L271.998 467.523H274.835L285.668 438.601C286.044 437.603 286.142 436.527 285.916 435.367L286.174 434.668L298.823 467.523H301.66L315.707 427.908C316.804 424.888 318.888 423.373 321.942 423.373V421.965L307.798 421.879ZM371.196 421.159H370.595C370.218 421.653 369.208 421.868 367.575 421.868H341.05V423.286C341.835 423.286 342.404 423.319 342.78 423.351C343.156 423.383 343.63 423.48 344.199 423.631C344.768 423.792 345.208 424.007 345.52 424.329C345.832 424.641 346.123 425.082 346.37 425.683C346.628 426.274 346.746 427.005 346.746 427.855V461.118C346.746 461.977 346.628 462.697 346.37 463.299C346.123 463.89 345.832 464.331 345.52 464.654C345.208 464.965 344.768 465.18 344.199 465.342C343.63 465.503 343.156 465.599 342.78 465.621C342.404 465.653 341.802 465.653 341.018 465.653V467.071H361.674V465.653C360.76 465.653 360.062 465.653 359.62 465.621C359.18 465.599 358.611 465.503 357.944 465.342C357.278 465.18 356.806 464.965 356.515 464.654C356.236 464.331 355.946 463.89 355.699 463.299C355.44 462.697 355.323 461.977 355.323 461.118V447.769C355.323 446.351 355 445.341 354.408 444.749V444.556H361.674C362.75 444.556 363.64 444.653 364.328 444.835C365.027 445.029 365.5 445.308 365.79 445.695C366.07 446.071 366.263 446.447 366.36 446.823C366.446 447.199 366.478 447.705 366.478 448.371H367.768V437.226H366.478C366.478 438.516 366.199 439.451 365.63 440.053C365.059 440.655 363.727 440.966 361.674 440.966H354.408V440.741C355 440.149 355.323 439.236 355.323 438.043V429.047C355.323 427.855 355 426.941 354.408 426.339V426.124H364.211C366.328 426.124 367.639 426.403 368.208 426.973C368.767 427.532 369.058 428.607 369.058 430.208L370.283 430.434L371.196 421.159ZM397.86 423.286V421.868H377.859V423.286C378.655 423.286 379.214 423.319 379.59 423.34C379.978 423.373 380.45 423.47 381.008 423.631C381.578 423.781 382.019 424.007 382.33 424.318C382.652 424.641 382.932 425.082 383.18 425.673C383.438 426.274 383.567 426.994 383.567 427.844V461.129C383.567 461.977 383.438 462.697 383.18 463.299C382.932 463.89 382.652 464.331 382.33 464.654C382.019 464.965 381.578 465.18 381.008 465.342C380.45 465.503 379.978 465.599 379.59 465.621C379.214 465.653 378.623 465.653 377.828 465.653V467.071H397.828V465.653C397.032 465.653 396.474 465.653 396.098 465.621C395.711 465.599 395.238 465.503 394.647 465.342C394.044 465.18 393.604 464.965 393.326 464.654C393.035 464.331 392.755 463.89 392.508 463.299C392.251 462.697 392.122 461.977 392.122 461.129V427.844C392.122 426.994 392.251 426.274 392.508 425.673C392.755 425.082 393.003 424.641 393.292 424.318C393.572 424.007 394.014 423.781 394.615 423.631C395.216 423.47 395.679 423.373 396.066 423.34C396.442 423.319 397.011 423.319 397.796 423.319L397.86 423.286ZM451.748 465.599C451.458 465.621 451.211 465.653 450.984 465.653C449.824 465.653 448.663 465.373 447.492 464.772C446.331 464.18 445.288 463.45 444.407 462.601C443.526 461.751 442.548 460.612 441.484 459.172C440.41 457.721 439.528 456.421 438.808 455.292C438.088 454.153 437.207 452.713 436.132 450.94C435.068 449.177 434.219 447.823 433.618 446.877C433.338 446.34 432.994 445.996 432.618 445.813C432.242 445.62 431.478 445.555 430.383 445.587L430.254 445.276C433.208 444.33 435.659 442.718 437.647 440.483C439.624 438.247 440.603 435.635 440.603 432.637C440.603 428.704 439.023 425.866 435.884 424.168C432.735 422.47 428.748 421.61 423.923 421.61C422.632 421.61 420.247 421.674 416.744 421.771C413.251 421.879 410.951 421.933 409.854 421.933H404.212V423.351C405.007 423.351 405.567 423.383 405.943 423.405C406.33 423.437 406.802 423.534 407.362 423.695C407.931 423.857 408.372 424.071 408.683 424.383C409.006 424.705 409.284 425.146 409.532 425.748C409.79 426.339 409.919 427.07 409.919 427.919V461.246C409.919 462.096 409.79 462.826 409.532 463.417C409.284 464.019 409.006 464.46 408.683 464.772C408.372 465.094 407.931 465.309 407.362 465.47C406.802 465.631 406.33 465.728 405.943 465.749C405.567 465.782 404.975 465.782 404.18 465.782V467.2H423.547V465.782C422.762 465.782 422.16 465.749 421.751 465.696C421.343 465.631 420.839 465.47 420.247 465.223C419.646 464.965 419.204 464.524 418.915 463.858C418.635 463.203 418.474 462.354 418.474 461.279V428.016C418.474 426.812 418.162 425.898 417.56 425.296V425.114C418.668 424.824 420.268 424.705 422.418 424.705C428.491 424.727 431.511 427.941 431.511 434.345C431.511 437.43 430.694 439.827 429.028 441.493C427.362 443.159 424.772 444.481 421.247 445.458V446.812C421.784 446.812 422.827 446.727 424.363 446.566C424.556 446.942 424.836 447.544 425.212 448.36C426.159 450.381 426.922 451.95 427.48 453.089C428.05 454.218 428.77 455.572 429.662 457.152C430.543 458.721 431.328 459.957 432.048 460.806C432.768 461.655 433.65 462.568 434.692 463.546C435.723 464.524 436.83 465.276 437.959 465.782C439.087 466.276 440.41 466.685 441.892 467.018C443.364 467.361 444.978 467.523 446.74 467.523C448.782 467.523 450.458 467.361 451.748 467.082V465.599ZM514.083 465.653C513.138 465.653 512.418 465.621 511.944 465.599C511.471 465.567 510.902 465.438 510.246 465.18C509.58 464.933 509.075 464.492 508.73 463.858C508.387 463.224 508.16 462.439 508.075 461.462L505.55 427.822C505.516 426.747 505.646 425.866 505.926 425.21C506.216 424.544 506.688 424.104 507.376 423.877C508.075 423.663 508.666 423.501 509.171 423.437C509.676 423.383 510.396 423.351 511.342 423.351V421.933H496.768L484.399 452.036C483.99 453.11 483.894 454.185 484.119 455.249L483.862 455.916L470.298 421.933H456.079V423.351C457.047 423.351 457.81 423.383 458.336 423.437C458.874 423.501 459.443 423.695 460.066 424.007C460.7 424.329 461.142 424.802 461.388 425.458L458.691 461.246C458.659 462.042 458.498 462.762 458.25 463.363C457.992 463.955 457.712 464.395 457.423 464.718C457.143 465.029 456.703 465.245 456.132 465.406C455.574 465.567 455.102 465.664 454.726 465.685C454.338 465.718 453.779 465.718 453.048 465.718V467.136H468.762V465.718C467.815 465.718 467.095 465.685 466.59 465.631C466.084 465.567 465.483 465.406 464.828 465.158C464.162 464.9 463.688 464.46 463.408 463.804C463.13 463.138 463.032 462.289 463.13 461.214L465.332 431.691L480.088 467.394H482.732L497.435 431.874L499.478 461.214C499.51 462.096 499.444 462.826 499.284 463.428C499.132 464.019 498.908 464.46 498.628 464.782C498.348 465.094 497.908 465.309 497.306 465.47C496.704 465.631 496.231 465.728 495.855 465.749C495.479 465.782 494.91 465.782 494.126 465.782L494.19 467.2H514.244L514.083 465.653Z" fill="black"/>
</svg>
