<svg width="1033" height="319" viewBox="0 0 1033 319" fill="none" xmlns="http://www.w3.org/2000/svg">
<g clip-path="url(#clip0_3_2)">
<path d="M160.642 167.313C162.165 165.41 161.362 162.248 158.868 160.254L122.107 130.916C119.609 128.924 116.351 128.849 114.837 130.75C113.315 132.651 114.115 135.808 116.616 137.804L153.368 167.138C155.867 169.134 159.126 169.211 160.642 167.313ZM162.766 156.716C163.321 156.018 163.447 155.186 163.036 154.862L126.443 125.648C126.03 125.325 125.246 125.628 124.693 126.326C124.13 127.026 124.012 127.857 124.418 128.181L161.015 157.39C161.423 157.719 162.204 157.411 162.766 156.716ZM220.261 92.5858C221.775 90.6849 220.98 87.5231 218.478 85.5318L181.726 56.1953C179.23 54.2023 175.974 54.1244 174.451 56.0253C172.937 57.9263 173.734 61.0855 176.233 63.0794L212.988 92.4176C215.49 94.4089 218.74 94.4868 220.261 92.5858ZM210.409 97.0094C210.966 96.3099 211.085 95.4758 210.679 95.1544L174.081 65.9437C173.675 65.617 172.893 65.9198 172.33 66.622C171.774 67.3188 171.65 68.1475 172.061 68.4734L208.663 97.685C209.071 98.0081 209.852 97.7106 210.409 97.0094ZM183.751 124.602C174.718 135.924 164.17 151.628 164.17 151.628L146.747 137.726L129.334 123.825C129.334 123.825 142.312 110.059 151.349 98.7386C161.478 86.0418 170.932 71.7105 170.932 71.7105L188.35 85.6097L205.765 99.5107C205.765 99.5107 193.877 111.907 183.751 124.602Z" fill="#91762B"/>
<path d="M290.801 202.501C238.047 164.322 193.417 131.604 163.512 109.581L161.204 112.47C189.314 136.747 231.11 173.013 280.035 215.995C288.299 223.249 297.386 228.755 302.239 222.672C307.097 216.592 299.712 208.95 290.801 202.501Z" fill="#91762B"/>
<path d="M187.298 130.732C183.895 134.937 179.679 137.166 177.884 135.711C176.08 134.257 177.371 129.664 180.776 125.459C184.183 121.255 188.396 119.022 190.198 120.48C191.996 121.928 190.704 126.526 187.298 130.732Z" fill="#91762B"/>
<path d="M250.486 181.327C247.363 185.747 243.92 188.681 242.797 187.887C241.669 187.094 243.285 182.863 246.41 178.447C249.532 174.029 252.974 171.092 254.103 171.887C255.225 172.678 253.609 176.906 250.486 181.327Z" fill="#91762B"/>
<path d="M256.638 185.45C253.261 190.224 248.774 192.857 246.62 191.33C244.456 189.807 245.438 184.694 248.815 179.92C252.194 175.155 256.676 172.513 258.834 174.042C260.994 175.561 260.014 180.672 256.638 185.45Z" fill="#91762B"/>
<path d="M127.074 188.697H194.153C196.947 188.697 199.234 190.984 199.234 193.778C199.234 196.573 196.947 198.859 194.153 198.859H127.074C124.28 198.859 121.993 196.573 121.993 193.778C121.993 190.984 124.28 188.697 127.074 188.697Z" fill="#91762B"/>
<path d="M234.922 39.0684C234.651 39.5651 234.488 39.8998 234.292 40.2106C234.055 40.5895 233.856 41.0145 233.317 41.2014C219.357 32.6075 204.261 26.8267 188.141 23.6418C188.141 22.8096 188.134 22.2101 188.148 21.6054C188.151 21.4673 188.234 21.3256 188.358 20.9431C205.004 24.1731 220.502 30.054 234.922 39.0684ZM188.245 9.82143C200.726 12.0323 212.514 15.6678 223.881 20.8165C223.594 21.7913 223.095 22.4209 222.393 23.1141C211.474 18.1877 200.068 14.7169 188.245 12.5565C188.245 11.6303 188.245 10.899 188.245 9.82143ZM244.932 24.1784C227.289 13.2356 208.455 6.07964 188.255 2.68939C188.176 1.69862 188.029 0.892896 188.449 -0.0022583C209.217 3.43846 228.485 10.7476 246.458 21.941C246.066 22.5351 245.822 22.9114 245.572 23.2833C245.407 23.5268 245.23 23.7632 244.932 24.1784ZM197.129 304.628C199.879 300.122 202.325 296.137 204.746 292.135C205.039 291.648 205.412 291.319 205.911 291.135C209.961 289.641 214.015 288.158 218.462 286.528C215.619 291.184 213.005 295.467 210.368 299.781C206.114 301.34 201.869 302.892 197.129 304.628ZM210.818 301.153C215.538 302.732 220.214 304.297 224.893 305.861C224.9 305.998 224.909 306.135 224.917 306.27C220.651 307.84 216.385 309.407 212.231 310.936C207.37 309.299 202.695 307.724 197.63 306.022C202.285 304.304 206.548 302.73 210.818 301.153ZM228.402 293.906C233.516 294.824 238.264 295.675 243.553 296.62C239.06 299.09 235.078 301.278 231.231 303.392C226.217 302.5 221.391 301.639 216.075 300.693C220.517 298.249 224.499 296.057 228.402 293.906ZM215.433 299.315C217.452 294.54 219.245 290.321 221.011 286.088L221.041 286.017C224.212 285.947 227.382 285.961 230.55 286.064C229.606 288.277 228.658 290.491 227.708 292.71C223.732 294.85 219.794 296.969 215.433 299.315ZM269.655 264.265C271.959 260.664 275.04 258.532 279.332 258.321C279.699 258.301 280.058 258.142 280.424 258.065C282.959 257.532 285.494 257.005 288.561 256.364C285.423 260.232 282.632 263.67 279.688 267.303L270.708 269.231C269.906 268.195 269.105 267.158 268.305 266.122C268.787 265.514 269.246 264.907 269.655 264.265ZM264.052 36.761C264.186 36.7336 264.32 36.707 264.455 36.6796C267.765 39.7192 271.077 42.7624 274.393 45.8047C275.22 50.7798 276.041 55.7071 276.952 61.1887C273.212 57.7666 269.9 54.7411 266.523 51.6519C265.702 46.7069 264.877 41.7353 264.052 36.761ZM276.533 255.094C276.401 255.047 276.269 254.998 276.136 254.949C275.776 249.914 275.415 244.878 275.065 240.005L281.716 230.119C282.192 230.428 282.673 230.73 283.158 231.022L284.077 243.858C281.518 247.669 279.025 251.382 276.533 255.094ZM290.226 81.5187C290.82 76.5852 291.414 71.6472 292.008 66.711C292.152 66.6827 292.294 66.6535 292.437 66.6251C294.76 70.4838 297.083 74.346 299.425 78.2365C298.809 83.2311 298.197 88.193 297.521 93.6816C294.899 89.3095 292.582 85.4473 290.226 81.5187ZM304.739 110.603C302.768 106.458 300.795 102.313 298.927 98.3858C300.042 93.3275 301.092 88.5728 302.14 83.8155C302.272 83.8057 302.405 83.7942 302.537 83.7818C304.485 87.8432 306.434 91.9082 308.413 96.0351C307.298 101.044 306.232 105.832 305.166 110.627C305.024 110.618 304.882 110.612 304.739 110.603ZM313.231 199.519C311.32 200.878 309.557 202.453 307.786 204.016C307.234 203.371 306.657 202.741 306.061 202.124L308.038 192.286C311.736 189.131 315.536 185.888 319.336 182.644C319.111 185.762 318.267 188.615 317.972 191.523C317.614 195.045 316.053 197.509 313.231 199.519ZM288.048 76.4887C285 72.7876 282.199 69.3868 279.205 65.7513C279.205 60.9054 279.205 55.8576 279.205 50.5452C281.123 52.8729 282.748 55.237 284.761 57.1919C287.481 59.8367 288.349 62.8905 288.092 66.588C287.876 69.7144 288.048 72.8726 288.048 76.4887ZM312.428 148.389C311.535 143.945 310.643 139.501 309.753 135.074C311.998 130.562 314.206 126.12 316.662 121.185C317.68 126.171 318.581 130.584 319.512 135.138C317.234 139.674 315.013 144.098 312.792 148.52C312.671 148.475 312.55 148.432 312.428 148.389ZM277.717 255.89C280.221 252.151 282.725 248.412 285.24 244.656C289.942 243.147 294.611 241.648 299.281 240.148C299.39 240.244 299.499 240.339 299.608 240.435C297.068 244.235 294.528 248.038 292.064 251.725C287.227 253.273 282.571 254.763 277.915 256.255C277.849 256.135 277.784 256.011 277.717 255.89ZM311.025 148.746C310.908 148.803 310.791 148.859 310.674 148.918C306.923 145.711 303.171 142.504 299.398 139.28C298.5 134.781 297.613 130.338 296.726 125.898C296.85 125.836 296.974 125.781 297.097 125.719C300.795 128.875 304.492 132.029 308.341 135.312C309.246 139.842 310.136 144.293 311.025 148.746ZM312.25 167.637C312.026 163.177 311.801 158.715 311.573 154.215C314.436 150.149 317.293 146.087 320.151 142.028C320.279 142.085 320.409 142.136 320.538 142.19C320.757 146.718 320.975 151.246 321.195 155.793C318.331 159.84 315.498 163.845 312.664 167.847C312.526 167.777 312.389 167.707 312.25 167.637ZM309.527 129.431C308.217 125.197 306.908 120.962 305.534 116.516C307.327 111.803 309.097 107.147 310.868 102.487C311.006 102.522 311.145 102.558 311.283 102.593C312.606 106.919 313.931 111.248 315.233 115.506C313.436 120.255 311.691 124.861 309.947 129.467C309.807 129.455 309.667 129.444 309.527 129.431ZM273.935 74.8285C273.152 74.6559 272.276 74.7045 271.681 73.9705C268.988 70.6502 266.286 67.3344 263.587 64.0203C263.693 63.8928 263.799 63.7688 263.904 63.6404C268.642 64.6746 273.379 65.7043 278.233 66.7597C281.044 70.2102 283.891 73.7058 286.737 77.1979C282.285 76.6427 278.106 75.7538 273.935 74.8285ZM308.087 129.779C307.961 129.872 307.836 129.969 307.711 130.064C303.68 127.273 299.649 124.483 295.638 121.705C294.284 117.266 292.956 112.915 291.476 108.062C296.008 111.215 300.063 114.035 304.191 116.908C305.525 121.315 306.806 125.544 308.087 129.779ZM310.364 186.747C310.589 182.25 310.815 177.753 311.038 173.29C314.328 169.465 317.558 165.71 320.788 161.955C320.914 162.02 321.041 162.084 321.167 162.152C320.932 166.682 320.696 171.216 320.456 175.839C317.252 179.524 314.022 183.239 310.792 186.952C310.65 186.882 310.507 186.815 310.364 186.747ZM289.29 240.327L291.916 234.819C295.088 235.604 298.373 235.721 301.625 234.79C297.513 236.811 293.558 238.758 289.602 240.702C289.498 240.576 289.394 240.45 289.29 240.327ZM290.515 234.428L287.657 240.409L285.981 232.582C287.447 233.315 288.965 233.946 290.515 234.428ZM295.887 93.7719C295.793 93.9048 295.699 94.042 295.605 94.1748C291.035 92.4536 286.466 90.7323 281.867 88.9987C279.726 85.0117 276.983 81.3912 274.824 76.9535C279.027 78.5357 282.693 80.0861 286.472 81.2575C288.273 81.8171 289.391 82.7459 290.287 84.3308C292.084 87.5156 294.013 90.6296 295.887 93.7719ZM298.439 195.508C297.056 192.3 296.924 188.996 298.217 185.417C298.777 183.866 298.921 182.163 299.289 180.536C299.43 179.913 299.153 179.126 300.049 178.639C302.258 183.119 304.46 187.59 306.642 192.023L304.824 200.89C302.821 198.961 300.644 197.171 298.439 195.508ZM309.684 206.435C311.554 205.278 313.423 204.123 315.291 202.968C315.413 203.058 315.534 203.147 315.657 203.239C314.618 206.012 313.583 208.787 312.543 211.559C311.811 209.759 310.829 208.046 309.684 206.435ZM310.215 167.823C307.035 164.131 303.856 160.437 300.723 156.8C300.586 152.141 300.069 147.62 300.192 142.71C303.739 146.845 307.014 150.66 310.139 154.302C310.287 158.971 310.773 163.32 310.654 167.687C310.508 167.733 310.361 167.779 310.215 167.823ZM300.65 175.734C300.106 174.956 300.039 174.083 300.09 173.15C300.307 169.156 300.481 165.155 300.669 161.155C300.811 161.114 300.953 161.073 301.095 161.029C303.966 165.137 306.84 169.247 309.699 173.337C309.13 177.869 309.381 182.345 308.689 187.195C305.819 183.105 303.232 179.42 300.65 175.734ZM284.169 92.5881C284.397 92.458 284.509 92.6032 284.606 92.7803C289.067 94.6901 293.342 96.9833 297.696 99.1092C299.644 103.242 301.565 107.315 303.485 111.388C303.363 111.46 303.239 111.526 303.116 111.595C298.695 109.415 294.274 107.231 289.906 105.074C287.978 101.025 286.095 97.0763 284.214 93.1274H284.215C284.107 92.9556 284.031 92.7803 284.169 92.5881ZM225.647 23.4904C225.733 23.3842 225.821 23.2815 225.909 23.1779C230.907 24.3847 235.906 25.5906 240.772 26.7665C244.165 30.8234 247.435 34.7343 251.055 39.0622C245.541 37.7456 240.549 36.5538 235.534 35.3568C232.228 31.3901 228.936 27.4403 225.647 23.4904ZM239.2 286.574L232.803 290.925C232.699 290.854 232.592 290.783 232.487 290.712L233.908 286.208C235.673 286.301 237.436 286.423 239.2 286.574ZM264.485 253.431C266.931 249.943 269.84 246.859 272.599 243.328C272.599 248.63 272.599 253.586 272.599 258.423C270.915 260.664 269.153 262.735 267.33 264.861C266.186 263.382 265.041 261.902 263.896 260.424C263.921 259.098 263.931 257.792 263.928 256.485C263.925 255.455 263.81 254.393 264.485 253.431ZM233.681 292.042L241.417 286.782C246.112 287.251 250.805 287.934 255.496 288.852L248.492 293.644C243.555 293.251 238.634 292.864 233.714 292.475C233.703 292.33 233.692 292.185 233.681 292.042ZM275.948 62.2592C270.482 61.8873 265.591 61.5544 260.637 61.2153C257.319 58.1783 254.003 55.1405 250.688 52.1035C250.734 51.9725 250.78 51.8423 250.827 51.7112C255.863 52.0548 260.9 52.3939 265.642 52.7162C269.134 55.9497 272.355 58.9318 275.948 62.2592ZM252.079 39.2127C250.58 34.4678 249.052 29.6379 247.526 24.8097C247.638 24.7486 247.752 24.6866 247.866 24.6247C251.631 27.1968 255.396 29.7707 259.052 32.2702C260.583 37.1188 262.05 41.7636 263.516 46.4129C263.392 46.4988 263.268 46.5882 263.144 46.6741C259.5 44.2189 255.857 41.7609 252.079 39.2127ZM262.875 48.2599C259.602 48.5494 256.831 48.5893 254.137 49.0727C249.604 49.8855 245.643 49.0727 242.17 45.8799C240.65 44.4845 238.647 43.6841 237.133 42.1213C237.475 41.8513 237.692 41.5316 237.937 41.5122C242.399 41.0916 246.863 40.7055 251.28 40.3195C255.187 42.9943 258.814 45.477 262.875 48.2599ZM194.354 302.12C195.827 299.591 197.407 297.126 198.94 294.633C198.842 294.504 198.744 294.376 198.646 294.248C186.19 297.842 173.494 299.615 160.559 299.615C147.614 299.612 134.907 297.77 121.981 294.113C123.753 297.01 125.218 299.377 126.658 301.765C128.741 305.226 127.558 308.473 123.729 309.824C121.647 310.558 119.559 311.274 117.473 312C131.58 316.462 145.948 318.438 160.583 318.45C175.265 318.463 189.674 316.467 203.754 312.162C201.56 311.24 199.37 310.535 197.197 309.782C193.837 308.614 192.552 305.221 194.354 302.12ZM86.3052 39.0684C86.5761 39.5651 86.7382 39.8998 86.9338 40.2106C87.172 40.5895 87.3703 41.0145 87.9104 41.2014C101.87 32.6075 116.966 26.8267 133.086 23.6418C133.086 22.8096 133.093 22.2101 133.078 21.6054C133.076 21.4673 132.993 21.3256 132.869 20.9431C116.223 24.1731 100.725 30.054 86.3052 39.0684ZM132.982 9.82143C120.501 12.0323 108.713 15.6678 97.3463 20.8165C97.6332 21.7913 98.1316 22.4209 98.8338 23.1141C109.752 18.1877 121.159 14.7169 132.982 12.5565C132.982 11.6303 132.982 10.899 132.982 9.82143ZM76.2956 24.1784C93.9383 13.2356 112.772 6.07964 132.971 2.68939C133.05 1.69862 133.198 0.892896 132.778 -0.0022583C112.011 3.43846 92.7421 10.7476 74.7691 21.941C75.1614 22.5351 75.4049 22.9114 75.6554 23.2833C75.8201 23.5268 75.9972 23.7632 76.2956 24.1784ZM124.098 304.628C121.348 300.122 118.901 296.137 116.481 292.135C116.188 291.648 115.815 291.319 115.316 291.135C111.266 289.641 107.212 288.158 102.765 286.528C105.608 291.184 108.222 295.467 110.859 299.781C115.113 301.34 119.358 302.892 124.098 304.628ZM110.408 301.153C105.69 302.732 101.013 304.297 96.3343 305.861C96.3272 305.998 96.3183 306.135 96.3104 306.27C100.576 307.84 104.841 309.407 108.995 310.936C113.857 309.299 118.532 307.724 123.597 306.022C118.942 304.304 114.679 302.73 110.408 301.153ZM92.8245 293.906C87.7103 294.824 82.9627 295.675 77.6742 296.62C82.1668 299.09 86.1494 301.278 89.9965 303.392C95.0097 302.5 99.8361 301.639 105.152 300.693C100.71 298.249 96.7274 296.057 92.8245 293.906ZM105.794 299.315C103.774 294.54 101.981 290.321 100.215 286.088L100.185 286.017C97.0151 285.947 93.8454 285.961 90.6765 286.064C91.6212 288.277 92.5695 290.491 93.5187 292.71C97.4942 294.85 101.433 296.969 105.794 299.315ZM51.5722 264.265C49.2683 260.664 46.1871 258.532 41.8955 258.321C41.528 258.301 41.1694 258.142 40.8029 258.065C38.2679 257.532 35.733 257.005 32.6659 256.364C35.8038 260.232 38.5938 263.67 41.5395 267.303L50.5194 269.231C51.3198 268.194 52.1211 267.158 52.9224 266.121C52.439 265.513 51.9812 264.907 51.5722 264.265ZM57.1751 36.761C57.0414 36.7336 56.9068 36.707 56.7722 36.6796C53.4616 39.7192 50.1502 42.7624 46.8343 45.8047C46.0073 50.7798 45.1866 55.7071 44.2746 61.1887C48.0146 57.7666 51.326 54.7411 54.7039 51.6519C55.5247 46.7069 56.3499 41.7353 57.1751 36.761ZM44.6934 255.094C44.8262 255.047 44.9581 254.998 45.09 254.949C45.4513 249.914 45.8125 244.878 46.1623 240.005C43.5556 236.131 41.0712 232.437 38.2662 228.268C37.8677 233.833 37.5074 238.876 37.1506 243.858C39.7085 247.669 42.2018 251.382 44.6934 255.094ZM31.0005 81.5187C30.4072 76.5852 29.8131 71.6472 29.219 66.711C29.0756 66.6827 28.933 66.6535 28.7905 66.6251C26.4671 70.4838 24.1438 74.346 21.8019 78.2365C22.4173 83.2311 23.0291 88.193 23.7064 93.6816C26.3272 89.3095 28.6453 85.4473 31.0005 81.5187ZM16.4871 110.603C18.4595 106.458 20.4321 102.313 22.3004 98.3858C21.1839 93.3275 20.1356 88.5728 19.087 83.8155C18.9552 83.8057 18.8227 83.7942 18.6903 83.7818C16.7417 87.8432 14.7927 91.9082 12.8137 96.0351C13.9284 101.044 14.9947 105.832 16.0607 110.627C16.2032 110.618 16.3446 110.612 16.4871 110.603ZM7.99582 199.519C10.5984 201.37 12.9251 203.62 15.3734 205.695C15.5208 205.585 15.6681 205.471 15.8161 205.361C14.9529 201.065 14.0899 196.771 13.1889 192.286C9.49128 189.131 5.69091 185.888 1.89062 182.644C2.11676 185.762 2.96003 188.615 3.2554 191.523C3.61231 195.045 5.17356 197.509 7.99582 199.519ZM33.1795 76.4887C36.2271 72.7876 39.0267 69.3868 42.0212 65.7513C42.0212 60.9054 42.0212 55.8576 42.0212 50.5452C40.1043 52.8729 38.4787 55.237 36.4652 57.1919C33.7452 59.8367 32.8784 62.8905 33.1343 66.588C33.3512 69.7144 33.1795 72.8726 33.1795 76.4887ZM8.79888 148.389C9.69156 143.945 10.5846 139.501 11.4742 135.074C9.22884 130.562 7.0208 126.12 4.56448 121.185C3.54661 126.171 2.64597 130.584 1.71557 135.138C3.99312 139.674 6.21392 144.098 8.43507 148.52C8.55611 148.475 8.67749 148.432 8.79888 148.389ZM43.5096 255.89C41.0056 252.151 38.5026 248.412 35.9862 244.656C31.2847 243.147 26.615 241.648 21.9462 240.148C21.8373 240.244 21.7284 240.339 21.6195 240.435C24.1589 244.235 26.6991 248.038 29.1632 251.725C34.0002 253.273 38.6558 254.763 43.3121 256.255C43.3777 256.135 43.4432 256.011 43.5096 255.89ZM10.2017 148.746C10.3186 148.803 10.4358 148.859 10.5528 148.918C14.3044 145.711 18.056 142.504 21.8293 139.28C22.7272 134.781 23.6143 130.338 24.5006 125.898C24.3767 125.836 24.2527 125.781 24.1288 125.719C20.4324 128.875 16.7358 132.029 12.8852 135.312C11.9812 139.842 11.0913 144.293 10.2017 148.746ZM8.97668 167.637C9.20184 163.177 9.42629 158.715 9.65349 154.215C6.79112 150.149 3.93362 146.087 1.07639 142.028C0.947388 142.085 0.818386 142.136 0.688673 142.19C0.470152 146.718 0.251898 151.246 0.0322266 155.793C2.89566 159.84 5.72898 163.845 8.56301 167.847C8.70105 167.777 8.83864 167.707 8.97668 167.637ZM11.7 129.431C13.0095 125.197 14.3193 120.962 15.6933 116.516C13.9004 111.803 12.1295 107.147 10.3591 102.487C10.2208 102.522 10.0827 102.558 9.94408 102.593C8.62039 106.919 7.29643 111.248 5.99354 115.506C7.79102 120.255 9.53591 124.861 11.2804 129.467C11.4205 129.455 11.56 129.444 11.7 129.431ZM47.2912 74.8285C48.0739 74.6559 48.9513 74.7045 49.5463 73.9705C52.2389 70.6502 54.9403 67.3344 57.6399 64.0203C57.5337 63.8928 57.4283 63.7688 57.3229 63.6404C52.5851 64.6746 47.8481 65.7043 42.9943 66.7597C40.1831 70.2102 37.3365 73.7058 34.4899 77.1979C38.9417 76.6427 43.12 75.7538 47.2912 74.8285ZM13.1402 129.779C13.2657 129.872 13.3909 129.969 13.5165 130.064C17.5472 127.273 21.5779 124.483 25.5888 121.705C26.9435 117.266 28.2707 112.915 29.7511 108.062C25.2187 111.215 21.1644 114.035 17.0356 116.908C15.702 121.315 14.4206 125.544 13.1402 129.779ZM10.8623 186.747C10.6372 182.25 10.412 177.753 10.1889 173.29C6.89941 169.465 3.66933 165.71 0.439693 161.955C0.312725 162.02 0.186553 162.084 0.059939 162.152C0.295105 166.682 0.530269 171.216 0.769951 175.839C3.97479 179.524 7.20514 183.239 10.4352 186.952C10.5777 186.882 10.7201 186.815 10.8623 186.747ZM31.9372 240.327C30.023 236.312 28.1087 232.298 26.1475 228.184C21.7647 226.036 17.3268 223.861 12.8894 221.689C12.8026 221.833 12.7165 221.978 12.6301 222.121C14.5818 226.198 16.5332 230.275 18.415 234.206C22.9556 236.438 27.2906 238.571 31.6247 240.702C31.7283 240.576 31.8328 240.45 31.9372 240.327ZM24.923 222.933C26.4512 218.236 27.9785 213.54 29.505 208.847C27.9529 204.586 26.4131 200.361 24.8734 196.134C24.7211 196.126 24.5697 196.119 24.4183 196.112C22.8998 200.815 21.3822 205.517 19.8458 210.275C21.3946 214.517 22.937 218.739 24.4803 222.964C24.6281 222.955 24.7751 222.945 24.923 222.933ZM36.8566 225.061C34.9707 221.125 32.982 216.974 30.9943 212.824C30.8685 212.874 30.7419 212.925 30.6162 212.976C29.5625 217.83 28.5089 222.686 27.4446 227.591C29.4722 231.833 31.4024 235.872 33.5699 240.409C34.7183 235.048 35.7551 230.205 36.8566 225.061ZM25.3391 93.7719C25.4339 93.9048 25.5277 94.042 25.6225 94.1748C30.1921 92.4536 34.7608 90.7323 39.3605 88.9987C41.4997 85.0117 44.2427 81.3912 46.4031 76.9535C42.2001 78.5357 38.5344 80.0861 34.7546 81.2575C32.9537 81.8171 31.8363 82.7459 30.9403 84.3308C29.1429 87.5156 27.2144 90.6296 25.3391 93.7719ZM17.7447 205.368C18.9465 202.934 19.9347 200.354 21.3964 198.091C23.9968 194.065 24.652 189.964 23.0096 185.417C22.45 183.866 22.3057 182.163 21.9382 180.536C21.7966 179.913 22.0737 179.126 21.1777 178.639C18.969 183.119 16.7673 187.59 14.5845 192.023C15.5163 196.565 16.4276 201.006 17.3393 205.453C17.4743 205.424 17.6095 205.397 17.7447 205.368ZM22.8555 223.818C22.9485 223.716 23.0424 223.615 23.1362 223.511C21.5983 219.264 20.0613 215.02 18.5136 210.744C14.304 208.141 10.1197 205.554 5.93546 202.968C5.81371 203.058 5.69197 203.147 5.57022 203.239C7.14777 207.452 8.71725 211.667 10.3093 215.873C10.5545 216.521 11.02 217.119 11.6823 217.242C12.7642 217.445 13.567 218.122 14.45 218.654C17.2674 220.35 20.0561 222.093 22.8555 223.818ZM11.0121 167.823C14.1919 164.131 17.3711 160.437 20.504 156.8C20.6406 152.141 21.1573 147.62 21.0351 142.71C17.4881 146.845 14.213 150.66 11.0879 154.302C10.9398 158.971 10.4542 163.32 10.5732 167.687C10.7194 167.733 10.8658 167.779 11.0121 167.823ZM20.5773 175.734C21.121 174.956 21.1874 174.083 21.137 173.15C20.92 169.156 20.7468 165.155 20.5576 161.155C20.4161 161.114 20.274 161.073 20.1322 161.029C17.2602 165.137 14.3874 169.247 11.5281 173.337C12.0963 177.869 11.8463 182.345 12.5377 187.195C15.4083 183.105 17.9958 179.42 20.5773 175.734ZM37.0576 92.5881C36.8291 92.458 36.7185 92.6032 36.6202 92.7803C32.1604 94.6901 27.8847 96.9833 23.5302 99.1092C21.5823 103.242 19.6621 107.315 17.7419 111.388C17.8647 111.46 17.9882 111.526 18.111 111.595C22.5324 109.415 26.9532 107.231 31.321 105.074C33.2494 101.025 35.1309 97.0763 37.0133 93.1274C37.1213 92.9556 37.1957 92.7803 37.0576 92.5881ZM95.5799 23.4904C95.494 23.3842 95.4055 23.2815 95.3178 23.1779C90.3196 24.3847 85.3206 25.5906 80.4553 26.7665C77.0623 30.8234 73.7925 34.7343 70.1712 39.0622C75.6864 37.7456 80.6784 36.5538 85.6934 35.3568C88.9995 31.3901 92.2906 27.4403 95.5799 23.4904ZM82.0269 286.574L88.4231 290.925C88.5285 290.854 88.6338 290.783 88.7401 290.712L87.319 286.208C85.5544 286.301 83.7906 286.423 82.0269 286.574ZM56.7412 253.431C54.2966 249.943 51.3871 246.859 48.6282 243.328C48.6282 248.63 48.6282 253.586 48.6282 258.423C50.3113 260.664 52.0733 262.735 53.8973 264.861C55.0412 263.381 56.1861 261.902 57.3309 260.423C57.3061 259.097 57.2955 257.791 57.299 256.485C57.3017 255.455 57.4168 254.393 56.7412 253.431ZM87.5465 292.042L79.8098 286.782C75.1144 287.251 70.4217 287.934 65.7299 288.851L72.7353 293.644C77.6724 293.251 82.5926 292.864 87.5129 292.475C87.5235 292.33 87.535 292.185 87.5465 292.042ZM45.2795 62.2592C50.7452 61.8873 55.6362 61.5544 60.5901 61.2153C63.9078 58.1783 67.2236 55.1405 70.5395 52.1035C70.4935 51.9725 70.4465 51.8423 70.4005 51.7112C65.3634 52.0548 60.3271 52.3939 55.5849 52.7162C52.0928 55.9497 48.8717 58.9318 45.2795 62.2592ZM69.1468 39.2127C70.6475 34.4678 72.1749 29.6379 73.7013 24.8097C73.588 24.7486 73.4747 24.6866 73.3613 24.6247C69.5965 27.1968 65.8309 29.7707 62.175 32.2702C60.6441 37.1188 59.177 41.7636 57.7107 46.4129C57.8347 46.4988 57.9587 46.5882 58.0835 46.6741C61.727 44.2189 65.3705 41.7609 69.1468 39.2127ZM58.3509 48.2599C61.6252 48.5494 64.3965 48.5893 67.0899 49.0727C71.6233 49.8855 75.5837 49.0727 79.0572 45.8799C80.5766 44.4845 82.5802 43.6841 84.0943 42.1213C83.7516 41.8513 83.5347 41.5316 83.2904 41.5122C78.8279 41.0916 74.3627 40.7055 69.9472 40.3195C66.0398 42.9943 62.4132 45.477 58.3509 48.2599Z" fill="#91762B"/>
<path fill-rule="evenodd" clip-rule="evenodd" d="M160.613 27.7766C233.209 27.7766 292.059 86.6274 292.059 159.223C292.059 169.284 290.925 179.08 288.784 188.493C286.786 187.044 284.787 185.596 282.79 184.148C284.423 176.094 285.284 167.759 285.284 159.223C285.284 90.3692 229.467 34.5527 160.613 34.5527C91.7592 34.5527 35.9427 90.3692 35.9427 159.223C35.9427 192.199 48.7511 222.179 69.6575 244.475C68.2594 246.287 66.8604 248.099 65.4606 249.91C42.9729 226.325 29.1675 194.385 29.1675 159.223C29.1675 86.6274 88.0174 27.7766 160.613 27.7766ZM251.568 244.474C258.437 237.147 264.433 228.99 269.386 220.169C270.7 221.323 272.013 222.476 273.327 223.629C273.745 223.998 274.17 224.364 274.598 224.73C269.332 233.874 262.997 242.322 255.764 249.908C254.365 248.097 252.966 246.286 251.568 244.474Z" fill="#91762B"/>
<path d="M245.502 267.641C239.863 257.455 234.509 247.683 228.951 237.56C228.725 237.186 228.5 236.813 228.275 236.439C227.91 236.518 227.549 236.595 227.185 236.674C241.564 277.635 231.436 242.061 165.605 280.243C191.137 269.485 217.905 266.604 245.502 267.641Z" fill="#91762B"/>
<path d="M226.153 248.598C224.326 242.579 222.376 236.72 220.444 230.705C217.925 232.587 214.402 232.49 215.835 236.436C216.341 239.59 216.593 242.784 217.316 245.911C217.193 246.116 217.191 246.323 217.315 246.53C217.295 246.669 217.274 246.808 217.254 246.947C216.997 247.583 216.739 248.218 216.481 248.855C196.97 254.359 177.956 262.344 162.854 276.46C182.876 264.052 204.726 257.079 228.142 254.287C227.422 252.323 227.037 250.382 226.153 248.598Z" fill="#91762B"/>
<path d="M177.614 281.05C177.614 281.05 182.043 279.767 182.099 279.754L185.11 278.883L185.1 278.89C252.42 259.247 264.454 292.397 239.598 246.676V246.678L237.275 242.578L239.04 244.868V244.866C248.358 256.98 257.619 268.892 266.99 281.05C238.372 273.591 209.916 274.74 181.317 280.399C181.319 280.388 177.614 281.05 177.614 281.05Z" fill="#91762B"/>
<path d="M75.7246 267.641C81.3629 257.455 86.7179 247.683 92.2757 237.56C92.5014 237.186 92.7263 236.813 92.9521 236.439C93.3169 236.518 93.6781 236.595 94.0412 236.674C79.6629 277.635 89.7903 242.061 155.622 280.243C130.089 269.485 103.322 266.604 75.7246 267.641Z" fill="#91762B"/>
<path d="M95.0726 248.598C96.9001 242.579 98.8507 236.72 100.782 230.705C103.301 232.587 106.825 232.49 105.392 236.436C104.885 239.59 104.633 242.784 103.91 245.911C104.033 246.116 104.036 246.323 103.912 246.53C103.931 246.669 103.952 246.808 103.972 246.947C104.229 247.583 104.487 248.218 104.745 248.855C124.256 254.359 143.27 262.344 158.372 276.46C138.35 264.052 116.501 257.079 93.084 254.287C93.8038 252.323 94.1899 250.382 95.0726 248.598Z" fill="#91762B"/>
<path d="M143.612 281.05C143.612 281.05 139.183 279.767 139.129 279.754L136.116 278.883L136.126 278.89C68.8063 259.247 56.7726 292.397 81.6289 246.676V246.678L83.9513 242.578L82.1858 244.868V244.866C72.8686 256.98 63.6072 268.892 54.2368 281.05C82.8543 273.591 111.311 274.74 139.91 280.399C139.908 280.388 143.612 281.05 143.612 281.05Z" fill="#91762B"/>
<path d="M115.217 204.958H206.01C211.414 204.958 215.835 209.379 215.835 214.783C215.835 220.187 211.414 224.607 206.01 224.607H115.217C109.814 224.607 105.393 220.187 105.393 214.783C105.393 209.379 109.814 204.958 115.217 204.958Z" fill="#91762B"/>
<path d="M402.053 147.365L381.206 96.687H374.086L353.487 146.923C353.004 148.344 352.439 149.489 351.831 150.304C351.224 151.104 350.493 151.683 349.679 152C348.879 152.331 348.189 152.539 347.623 152.621C347.057 152.69 346.257 152.731 345.195 152.731V154.801H366.815V152.731H365.408C365.077 152.731 364.594 152.69 363.945 152.621C363.297 152.539 362.856 152.415 362.607 152.249C362.372 152.083 362.041 151.848 361.641 151.518C361.241 151.186 361.076 150.786 361.199 150.304C361.323 149.806 361.448 149.2 361.558 148.468L363.297 143.915C364.111 141.956 364.428 140.742 364.277 140.259L364.345 139.969H382.254L382.323 140.259C382.295 141.307 382.53 142.618 383.055 144.164L384.71 148.468C385 149.324 385.152 150.014 385.193 150.579C385.234 151.145 385.193 151.559 385.083 151.848C384.958 152.125 384.669 152.331 384.268 152.456C383.868 152.58 383.496 152.649 383.179 152.69C382.861 152.731 382.365 152.731 381.757 152.731V154.801H409.849V152.731C407.779 152.731 406.248 152.456 405.241 151.876C404.233 151.31 403.212 149.806 402.164 147.323L402.053 147.365ZM366.773 133.622L366.856 133.374C367.34 132.808 367.946 131.691 368.678 129.994L373.81 116.997L378.405 129.994C379.095 131.567 379.743 132.698 380.35 133.374L380.433 133.622H366.773ZM490.687 152.773C489.472 152.773 488.548 152.731 487.942 152.69C487.335 152.662 486.603 152.497 485.762 152.166C484.906 151.848 484.258 151.283 483.816 150.469C483.375 149.655 483.086 148.648 482.96 147.392L479.732 104.662C479.691 103.296 479.856 102.151 480.215 101.309C480.587 100.454 481.195 99.8876 482.078 99.612C482.96 99.3225 483.734 99.1157 484.382 99.0329C485.031 98.9636 485.955 98.9225 487.17 98.9225V96.8526H464.734L451.323 130.821C450.799 132.16 450.675 133.457 450.951 134.712L450.592 135.568L435.884 96.8526H413.698V98.9225C414.94 98.9225 415.92 98.9636 416.609 99.0048C417.285 99.0329 418.017 99.2813 418.831 99.6813C419.631 100.095 420.197 100.702 420.528 101.544L417.051 146.992C417.01 148.082 416.803 149.006 416.485 149.779C416.154 150.552 415.795 151.117 415.437 151.476C415.064 151.848 414.498 152.125 413.768 152.331C413.05 152.539 412.443 152.662 411.96 152.69C411.463 152.731 410.745 152.731 409.807 152.731V154.801H431.842V152.731C430.586 152.731 429.62 152.69 428.972 152.621C428.323 152.539 427.551 152.331 426.709 152.014C425.854 151.683 425.246 151.117 424.888 150.262C424.529 149.42 424.405 148.289 424.529 146.909L426.875 115.314L442.99 154.87H449.213L465.024 115.396L467.08 146.909C467.122 147.999 467.039 148.923 466.845 149.696C466.639 150.469 466.349 151.035 465.99 151.407C465.631 151.766 465.066 152.042 464.293 152.249C463.521 152.456 462.927 152.58 462.431 152.621C461.947 152.662 461.216 152.662 460.209 152.662L460.292 154.718H490.852L490.687 152.773ZM524.284 98.9225V96.8526H493.819V98.9225C494.827 98.9225 495.558 98.9225 496.04 98.9636C496.523 98.9912 497.131 99.1157 497.862 99.3225C498.594 99.5292 499.159 99.8053 499.559 100.206C499.959 100.619 500.291 101.185 500.566 101.957C500.856 102.717 501.007 103.655 501.007 104.745V146.992C501.007 148.082 500.856 149.02 500.566 149.779C500.291 150.552 499.918 151.117 499.518 151.476C499.118 151.848 498.552 152.125 497.82 152.331C497.09 152.539 496.482 152.662 495.999 152.69C495.516 152.731 494.758 152.731 493.736 152.731V154.801H524.202V152.731C523.194 152.731 522.42 152.731 521.938 152.69C521.455 152.662 520.848 152.539 520.118 152.331C519.386 152.125 518.82 151.848 518.42 151.476C518.019 151.117 517.66 150.552 517.371 149.779C517.095 149.02 516.93 148.082 516.93 146.992V104.745C516.93 103.655 517.095 102.717 517.371 101.957C517.66 101.185 517.978 100.619 518.379 100.206C518.779 99.8053 519.344 99.5292 520.075 99.3225C520.807 99.1157 521.414 98.9912 521.896 98.9636C522.379 98.9225 523.111 98.9225 524.118 98.9225H524.284ZM572.188 96.8526V98.9225C573.195 98.9225 573.927 98.9225 574.41 98.9636C574.906 98.9912 575.499 99.1157 576.272 99.3225C577.044 99.5292 577.611 99.8053 577.97 100.206C578.342 100.619 578.659 101.185 578.99 101.957C579.307 102.717 579.472 103.655 579.472 104.745V126.558C579.472 127.648 579.832 128.738 580.563 129.828V130.891L541.779 96.8526H528.064V98.9225C529.071 98.9225 529.803 98.9225 530.286 98.9636C530.768 98.9912 531.375 99.1157 532.107 99.3225C532.838 99.5292 533.403 99.8053 533.803 100.206C534.203 100.619 534.535 101.185 534.811 101.957C535.1 102.717 535.252 103.655 535.252 104.745V146.992C535.252 148.082 535.1 149.02 534.811 149.779C534.535 150.552 534.163 151.117 533.763 151.476C533.362 151.848 532.796 152.125 532.066 152.331C531.334 152.539 530.727 152.662 530.244 152.69C529.762 152.731 528.99 152.731 527.982 152.731V154.801H550.388V152.731C549.382 152.731 548.608 152.731 548.126 152.69C547.643 152.662 547.035 152.539 546.304 152.331C545.572 152.125 545.007 151.848 544.607 151.476C544.207 151.117 543.835 150.552 543.558 149.779C543.27 149.02 543.118 148.082 543.118 146.992V119.149L584.923 155.712H587.227V104.731C587.227 103.641 587.392 102.717 587.711 101.944C588.042 101.185 588.4 100.619 588.814 100.206C589.214 99.8053 589.779 99.5152 590.511 99.3225C591.228 99.1157 591.835 98.9912 592.318 98.9636C592.815 98.9225 593.532 98.9225 594.554 98.9225V96.8526H572.188ZM688.016 98.9225V96.8526H658.228V98.9225C659.235 98.9225 659.967 98.9225 660.45 98.9636C660.932 98.9912 661.539 99.1157 662.271 99.3225C663.002 99.5292 663.568 99.8053 663.968 100.206C664.368 100.619 664.699 101.185 664.975 101.944C665.264 102.717 665.431 103.655 665.431 104.745V135.554C665.431 139.004 664.368 141.997 662.23 144.467C660.091 146.936 657.138 148.178 653.384 148.178C645.218 148.178 641.134 143.294 641.134 133.554V104.731C641.134 103.641 641.299 102.717 641.63 101.944C641.947 101.185 642.306 100.619 642.72 100.206C643.12 99.8053 643.686 99.5292 644.418 99.3225C645.135 99.1157 645.742 99.0048 646.224 98.9636C646.72 98.9225 647.439 98.9225 648.46 98.9225V96.8526H617.982V98.9225C619.003 98.9225 619.72 98.9225 620.203 98.9636C620.699 99.0048 621.306 99.1157 622.024 99.3225C622.755 99.5292 623.32 99.8053 623.722 100.206C624.135 100.619 624.452 101.185 624.728 101.944C625.018 102.717 625.183 103.641 625.183 104.731V131.732C625.183 147.903 632.372 155.96 646.79 155.96C649.591 155.96 652.171 155.546 654.516 154.788C656.863 154.029 658.711 153.049 660.091 151.89C661.471 150.717 662.519 149.71 663.236 148.827C663.968 147.944 664.492 147.089 664.823 146.33H665.223V154.884H687.727V152.815C686.76 152.815 686.03 152.815 685.547 152.773C685.064 152.745 684.415 152.621 683.643 152.415C682.884 152.207 682.318 151.931 681.946 151.573C681.587 151.2 681.228 150.634 680.896 149.862C680.579 149.103 680.414 148.165 680.414 147.074V104.855C680.414 103.765 680.579 102.841 680.896 102.068C681.228 101.309 681.546 100.743 681.904 100.329C682.276 99.9292 682.842 99.6392 683.602 99.4464C684.375 99.2396 684.98 99.1157 685.464 99.074C685.947 99.0329 686.678 99.0329 687.686 99.0329L688.016 98.9225ZM736.748 138.7C736.459 140.231 736.182 141.404 735.935 142.218C735.7 143.018 735.327 143.833 734.844 144.646C734.362 145.447 733.672 146.012 732.83 146.344C731.975 146.661 730.843 146.827 729.463 146.827H713.832V146.578C714.59 145.819 715.004 144.646 715.004 143.101V104.662C715.004 103.572 715.156 102.634 715.446 101.875C715.722 101.103 716.052 100.536 716.454 100.123C716.854 99.7225 717.418 99.4464 718.15 99.2396C718.88 99.0329 719.488 98.9084 719.971 98.8808C720.454 98.8392 721.186 98.8392 722.192 98.8392V96.7693H691.714V98.8392C692.722 98.8392 693.452 98.8392 693.935 98.8808C694.432 98.9084 695.026 99.0329 695.756 99.2396C696.488 99.4464 697.054 99.7225 697.454 100.123C697.868 100.536 698.184 101.103 698.46 101.875C698.751 102.634 698.916 103.572 698.916 104.662V146.909C698.916 147.999 698.751 148.937 698.46 149.696C698.184 150.469 697.827 151.035 697.412 151.394C697.012 151.766 696.447 152.042 695.715 152.249C694.998 152.456 694.391 152.58 693.894 152.607C693.411 152.649 692.652 152.649 691.631 152.649V154.718H736.748L738.487 138.893L736.748 138.7ZM840.298 152.773C839.083 152.773 838.159 152.731 837.551 152.69C836.944 152.662 836.214 152.497 835.372 152.166C834.516 151.848 833.868 151.283 833.427 150.469C832.984 149.655 832.695 148.648 832.571 147.392L829.342 104.662C829.302 103.296 829.466 102.151 829.826 101.309C830.198 100.454 830.804 99.8876 831.688 99.612C832.571 99.3225 833.344 99.1157 833.992 99.0329C834.64 98.9636 835.566 98.9225 836.779 98.9225V96.8526H814.344L800.934 130.821C800.41 132.16 800.286 133.457 800.56 134.712L800.203 135.568L785.494 96.8526H763.308V98.9225C764.55 98.9225 765.53 98.9636 766.22 99.0048C766.896 99.0329 767.627 99.2813 768.44 99.6813C769.242 100.095 769.807 100.702 770.138 101.544L766.66 146.992C766.62 148.082 766.412 149.006 766.096 149.779C765.764 150.552 765.406 151.117 765.047 151.476C764.675 151.848 764.108 152.125 763.378 152.331C762.66 152.539 762.054 152.662 761.57 152.69C761.074 152.731 760.356 152.731 759.418 152.731V154.801H781.451V152.731C780.196 152.731 779.231 152.69 778.582 152.621C777.934 152.539 777.16 152.331 776.319 152.014C775.463 151.683 774.856 151.117 774.498 150.262C774.139 149.42 774.015 148.289 774.139 146.909L776.484 115.314L792.6 154.87H798.823L814.635 115.396L816.69 146.909C816.731 147.999 816.648 148.923 816.456 149.696C816.248 150.469 815.959 151.035 815.6 151.407C815.242 151.766 814.675 152.042 813.903 152.249C813.13 152.456 812.538 152.58 812.04 152.621C811.558 152.662 810.827 152.662 809.819 152.662L809.902 154.718H840.463L840.298 152.773ZM910.83 98.9225V96.8526H881.04V98.9225C882.048 98.9225 882.779 98.9225 883.262 98.9636C883.746 98.9912 884.352 99.1157 885.083 99.3225C885.815 99.5292 886.38 99.8053 886.78 100.206C887.18 100.619 887.511 101.185 887.787 101.944C888.078 102.717 888.243 103.655 888.243 104.745V135.554C888.243 139.004 887.18 141.997 885.042 144.467C882.903 146.936 879.951 148.178 876.198 148.178C868.03 148.178 863.946 143.294 863.946 133.554V104.731C863.946 103.641 864.111 102.717 864.443 101.944C864.76 101.185 865.119 100.619 865.532 100.206C865.932 99.8053 866.499 99.5292 867.23 99.3225C867.947 99.1157 868.554 99.0048 869.036 98.9636C869.534 98.9225 870.251 98.9225 871.272 98.9225V96.8526H840.794V98.9225C841.815 98.9225 842.532 98.9225 843.015 98.9636C843.512 99.0048 844.119 99.1157 844.836 99.3225C845.568 99.5292 846.134 99.8053 846.534 100.206C846.948 100.619 847.266 101.185 847.542 101.944C847.831 102.717 847.996 103.641 847.996 104.731V131.732C847.996 147.903 855.184 155.96 869.603 155.96C872.403 155.96 874.984 155.546 877.33 154.788C879.675 154.029 881.524 153.049 882.903 151.89C884.283 150.717 885.332 149.71 886.048 148.827C886.78 147.944 887.306 147.089 887.636 146.33H888.036V154.884H910.539V152.815C909.574 152.815 908.842 152.815 908.36 152.773C907.876 152.745 907.228 152.621 906.456 152.415C905.696 152.207 905.131 151.931 904.758 151.573C904.4 151.2 904.042 150.634 903.71 149.862C903.392 149.103 903.227 148.165 903.227 147.074V104.855C903.227 103.765 903.392 102.841 903.71 102.068C904.042 101.309 904.359 100.743 904.718 100.329C905.09 99.9292 905.655 99.6392 906.414 99.4464C907.187 99.2396 907.794 99.1157 908.276 99.074C908.76 99.0329 909.491 99.0329 910.498 99.0329L910.83 98.9225ZM959.562 138.7C959.272 140.231 958.995 141.404 958.747 142.218C958.512 143.018 958.139 143.833 957.658 144.646C957.175 145.447 956.484 146.012 955.643 146.344C954.787 146.661 953.656 146.827 952.276 146.827H936.644V146.578C937.403 145.819 937.816 144.646 937.816 143.101V104.662C937.816 103.572 937.968 102.634 938.258 101.875C938.535 101.103 938.866 100.536 939.266 100.123C939.666 99.7225 940.231 99.4464 940.963 99.2396C941.694 99.0329 942.302 98.9084 942.784 98.8808C943.267 98.8392 943.998 98.8392 945.004 98.8392V96.7693H914.527V98.8392C915.534 98.8392 916.266 98.8392 916.748 98.8808C917.244 98.9084 917.838 99.0329 918.57 99.2396C919.3 99.4464 919.867 99.7225 920.267 100.123C920.68 100.536 920.998 101.103 921.274 101.875C921.563 102.634 921.73 103.572 921.73 104.662V146.909C921.73 147.999 921.563 148.937 921.274 149.696C920.998 150.469 920.639 151.035 920.224 151.394C919.826 151.766 919.259 152.042 918.528 152.249C917.811 152.456 917.203 152.58 916.707 152.607C916.224 152.649 915.466 152.649 914.444 152.649V154.718H959.562L961.299 138.893L959.562 138.7ZM988.067 146.951V104.745C988.067 103.655 988.232 102.717 988.508 101.944C988.798 101.185 989.115 100.619 989.53 100.206C989.93 99.8053 990.495 99.5292 991.226 99.3225C991.944 99.1157 992.551 98.9912 993.047 98.9636C993.531 98.9225 994.247 98.9225 995.268 98.9225V96.8526H964.79V98.9225C965.798 98.9225 966.528 98.9225 967.011 98.9636C967.495 98.9912 968.102 99.1157 968.832 99.3225C969.551 99.5292 970.116 99.8053 970.53 100.206C970.93 100.619 971.247 101.185 971.538 101.944C971.812 102.717 971.979 103.655 971.979 104.745V146.951C971.979 148.04 971.812 148.979 971.538 149.752C971.247 150.51 970.89 151.076 970.488 151.448C970.075 151.807 969.508 152.083 968.791 152.29C968.06 152.497 967.454 152.621 966.97 152.662C966.487 152.69 965.715 152.69 964.707 152.69V154.76H995.186V152.69C994.179 152.69 993.406 152.69 992.923 152.662C992.44 152.621 991.834 152.497 991.102 152.29C990.371 152.083 989.804 151.807 989.404 151.448C989.004 151.076 988.632 150.51 988.356 149.752C988.067 148.979 987.902 148.04 987.902 146.951H988.067ZM1023.32 147.971L1006.42 120.791C1005.33 119.411 1004.2 118.693 1003.02 118.652L1002.86 118.487L1014.54 106.235C1019.44 101.351 1024.77 98.9225 1030.51 98.9225V96.8526H1003.96V98.9225C1005.45 98.9225 1006.5 99.198 1007.15 99.7636C1007.8 100.329 1007.63 101.268 1006.71 102.523L990.095 121.177V123.399L1004.24 146.509C1006.02 149.655 1006.98 152.415 1007.15 154.801H1032.89V152.731C1028.89 152.731 1025.71 151.117 1023.32 147.93V147.971Z" fill="white"/>
<path fill-rule="evenodd" clip-rule="evenodd" d="M396.211 197.555L498.396 193.994V203.156L396.211 199.596V198.575V197.555ZM879.692 193.994L981.878 197.555V199.596L879.692 203.156V193.994Z" fill="white"/>
<path d="M550.645 210.355C550.269 212.676 549.733 214.31 549.011 215.256C548.281 216.202 546.927 216.674 544.949 216.674H532.095V216.448C532.697 215.857 533.009 214.944 533.009 213.741V182.046C533.009 181.197 533.137 180.477 533.395 179.876C533.643 179.284 533.89 178.843 534.181 178.521C534.459 178.209 534.901 177.994 535.502 177.833C536.094 177.672 536.566 177.575 536.953 177.554C537.329 177.521 537.887 177.521 538.683 177.521V176.103H518.682V177.521C519.478 177.521 520.037 177.554 520.413 177.575C520.799 177.608 521.273 177.705 521.831 177.866C522.401 178.016 522.842 178.242 523.154 178.553C523.475 178.876 523.755 179.317 524.002 179.908C524.261 180.509 524.39 181.229 524.39 182.079V215.353C524.39 216.212 524.261 216.932 524.002 217.534C523.755 218.125 523.475 218.566 523.154 218.889C522.842 219.2 522.401 219.415 521.831 219.577C521.273 219.738 520.799 219.834 520.413 219.856C520.037 219.888 519.446 219.888 518.65 219.888V221.306H550.645L551.999 210.602L550.645 210.355ZM595.709 215.653L579.717 175.652H576.095L560.823 215.331C560.414 216.363 559.974 217.244 559.502 217.91C559.027 218.566 558.458 219.007 557.835 219.264C557.202 219.511 556.663 219.673 556.223 219.738C555.782 219.791 555.159 219.823 554.342 219.823V221.242H569.958V219.823C569.389 219.823 568.947 219.823 568.637 219.791C568.314 219.77 567.906 219.738 567.401 219.673C566.906 219.608 566.519 219.48 566.303 219.297C566.078 219.104 565.863 218.878 565.638 218.598C565.423 218.319 565.326 217.932 565.358 217.47C565.391 216.997 565.519 216.427 565.735 215.761L567.97 209.559C568.539 207.947 568.754 206.969 568.637 206.593L568.69 206.41H583.339L583.403 206.593C583.403 207.668 583.554 208.678 583.909 209.624L586.358 215.761C586.606 216.599 586.735 217.266 586.702 217.803C586.67 218.341 586.606 218.748 586.487 219.007C586.358 219.254 586.079 219.447 585.671 219.577C585.262 219.705 584.909 219.759 584.661 219.791C584.403 219.823 584.026 219.823 583.49 219.823V221.242H601.846V219.823C600.749 219.823 599.933 219.759 599.395 219.673C598.858 219.577 598.255 219.189 597.569 218.566C596.881 217.932 596.246 216.943 595.677 215.621L595.709 215.653ZM570.077 202.67L570.141 202.488C570.614 202.047 571.087 201.166 571.559 199.844L575.999 188.108L580.469 199.844C580.942 201.005 581.447 201.886 582.017 202.488L582.081 202.67H570.077ZM652.993 176.114V177.521C653.594 177.521 654.067 177.554 654.443 177.586C654.819 177.608 655.238 177.705 655.679 177.866C656.121 178.027 656.431 178.274 656.614 178.586C656.807 178.908 656.905 179.338 656.905 179.908C656.905 180.477 656.743 181.197 656.463 182.046L647.554 207.819L635.839 176.114H632.658L620.814 207.883L612.034 182.046C611.777 181.327 611.626 180.692 611.594 180.165C611.562 179.628 611.626 179.188 611.777 178.876C611.938 178.553 612.13 178.306 612.314 178.112C612.507 177.93 612.819 177.801 613.259 177.736C613.699 177.672 614.045 177.64 614.302 177.608C614.549 177.586 614.925 177.586 615.463 177.586V176.168H596.225V177.586C597.45 177.586 598.363 177.64 598.966 177.736C599.567 177.833 600.223 178.209 600.943 178.876C601.674 179.531 602.265 180.509 602.738 181.831L617.193 221.758H620.03L630.863 192.836C631.239 191.838 631.337 190.762 631.111 189.602L631.369 188.903L644.018 221.758H646.855L660.902 182.143C661.999 179.123 664.083 177.608 667.137 177.608V176.2L652.993 176.114ZM716.391 175.394H715.79C715.413 175.888 714.403 176.103 712.77 176.103H686.245V177.521C687.03 177.521 687.599 177.554 687.975 177.586C688.351 177.618 688.825 177.715 689.394 177.866C689.963 178.027 690.403 178.242 690.715 178.564C691.027 178.876 691.318 179.317 691.565 179.918C691.823 180.509 691.941 181.24 691.941 182.09V215.353C691.941 216.212 691.823 216.932 691.565 217.534C691.318 218.125 691.027 218.566 690.715 218.889C690.403 219.2 689.963 219.415 689.394 219.577C688.825 219.738 688.351 219.834 687.975 219.856C687.599 219.888 686.997 219.888 686.213 219.888V221.306H706.869V219.888C705.955 219.888 705.257 219.888 704.815 219.856C704.375 219.834 703.806 219.738 703.139 219.577C702.473 219.415 702.001 219.2 701.71 218.889C701.431 218.566 701.141 218.125 700.894 217.534C700.635 216.932 700.518 216.212 700.518 215.353V202.004C700.518 200.586 700.195 199.576 699.603 198.984V198.791H706.869C707.945 198.791 708.835 198.888 709.523 199.07C710.222 199.264 710.695 199.543 710.985 199.93C711.265 200.306 711.458 200.682 711.555 201.058C711.641 201.434 711.673 201.94 711.673 202.606H712.963V191.461H711.673C711.673 192.751 711.394 193.686 710.825 194.288C710.254 194.89 708.922 195.201 706.869 195.201H699.603V194.976C700.195 194.384 700.518 193.471 700.518 192.278V183.282C700.518 182.09 700.195 181.176 699.603 180.574V180.359H709.406C711.523 180.359 712.834 180.638 713.403 181.208C713.962 181.767 714.253 182.842 714.253 184.443L715.478 184.669L716.391 175.394ZM743.055 177.521V176.103H723.054V177.521C723.85 177.521 724.409 177.554 724.785 177.575C725.173 177.608 725.645 177.705 726.203 177.866C726.773 178.016 727.214 178.242 727.525 178.553C727.847 178.876 728.127 179.317 728.375 179.908C728.633 180.509 728.762 181.229 728.762 182.079V215.364C728.762 216.212 728.633 216.932 728.375 217.534C728.127 218.125 727.847 218.566 727.525 218.889C727.214 219.2 726.773 219.415 726.203 219.577C725.645 219.738 725.173 219.834 724.785 219.856C724.409 219.888 723.818 219.888 723.023 219.888V221.306H743.023V219.888C742.227 219.888 741.669 219.888 741.293 219.856C740.906 219.834 740.433 219.738 739.842 219.577C739.239 219.415 738.799 219.2 738.521 218.889C738.23 218.566 737.95 218.125 737.703 217.534C737.446 216.932 737.317 216.212 737.317 215.364V182.079C737.317 181.229 737.446 180.509 737.703 179.908C737.95 179.317 738.198 178.876 738.487 178.553C738.767 178.242 739.209 178.016 739.81 177.866C740.411 177.705 740.874 177.608 741.261 177.575C741.637 177.554 742.206 177.554 742.991 177.554L743.055 177.521ZM796.943 219.834C796.653 219.856 796.406 219.888 796.179 219.888C795.019 219.888 793.858 219.608 792.687 219.007C791.526 218.415 790.483 217.685 789.602 216.836C788.721 215.986 787.743 214.847 786.679 213.407C785.605 211.956 784.723 210.656 784.003 209.527C783.283 208.388 782.402 206.948 781.327 205.175C780.263 203.412 779.414 202.058 778.813 201.112C778.533 200.575 778.189 200.231 777.813 200.048C777.437 199.855 776.673 199.79 775.578 199.822L775.449 199.511C778.403 198.565 780.854 196.953 782.842 194.718C784.819 192.482 785.798 189.87 785.798 186.872C785.798 182.939 784.218 180.101 781.079 178.403C777.93 176.705 773.943 175.845 769.118 175.845C767.827 175.845 765.442 175.909 761.939 176.006C758.446 176.114 756.146 176.168 755.049 176.168H749.407V177.586C750.202 177.586 750.762 177.618 751.138 177.64C751.525 177.672 751.997 177.769 752.557 177.93C753.126 178.092 753.567 178.306 753.878 178.618C754.201 178.94 754.479 179.381 754.727 179.983C754.985 180.574 755.114 181.305 755.114 182.154V215.481C755.114 216.331 754.985 217.061 754.727 217.652C754.479 218.254 754.201 218.695 753.878 219.007C753.567 219.329 753.126 219.544 752.557 219.705C751.997 219.866 751.525 219.963 751.138 219.984C750.762 220.017 750.17 220.017 749.375 220.017V221.435H768.742V220.017C767.957 220.017 767.355 219.984 766.946 219.931C766.538 219.866 766.034 219.705 765.442 219.458C764.841 219.2 764.399 218.759 764.11 218.093C763.83 217.438 763.669 216.589 763.669 215.514V182.251C763.669 181.047 763.357 180.133 762.755 179.531V179.349C763.863 179.059 765.463 178.94 767.613 178.94C773.686 178.962 776.706 182.176 776.706 188.58C776.706 191.665 775.889 194.062 774.223 195.728C772.557 197.394 769.967 198.716 766.442 199.693V201.047C766.979 201.047 768.022 200.962 769.558 200.801C769.751 201.177 770.031 201.779 770.407 202.595C771.354 204.616 772.117 206.185 772.675 207.324C773.245 208.453 773.965 209.807 774.857 211.387C775.738 212.956 776.523 214.192 777.243 215.041C777.963 215.89 778.845 216.803 779.887 217.781C780.918 218.759 782.025 219.511 783.154 220.017C784.282 220.511 785.605 220.92 787.087 221.253C788.559 221.596 790.173 221.758 791.935 221.758C793.977 221.758 795.653 221.596 796.943 221.317V219.834ZM859.278 219.888C858.333 219.888 857.613 219.856 857.139 219.834C856.666 219.802 856.097 219.673 855.441 219.415C854.775 219.168 854.27 218.727 853.925 218.093C853.582 217.459 853.355 216.674 853.27 215.697L850.745 182.057C850.711 180.982 850.841 180.101 851.121 179.445C851.411 178.779 851.883 178.339 852.571 178.112C853.27 177.898 853.861 177.736 854.366 177.672C854.871 177.618 855.591 177.586 856.537 177.586V176.168H841.963L829.594 206.271C829.185 207.345 829.089 208.42 829.314 209.484L829.057 210.151L815.493 176.168H801.274V177.586C802.242 177.586 803.005 177.618 803.531 177.672C804.069 177.736 804.638 177.93 805.261 178.242C805.895 178.564 806.337 179.037 806.583 179.693L803.886 215.481C803.854 216.277 803.693 216.997 803.445 217.598C803.187 218.19 802.907 218.63 802.618 218.953C802.338 219.264 801.898 219.48 801.327 219.641C800.769 219.802 800.297 219.899 799.921 219.92C799.533 219.953 798.974 219.953 798.243 219.953V221.371H813.957V219.953C813.01 219.953 812.29 219.92 811.785 219.866C811.279 219.802 810.678 219.641 810.023 219.393C809.357 219.135 808.883 218.695 808.603 218.039C808.325 217.373 808.227 216.524 808.325 215.449L810.527 185.926L825.283 221.629H827.927L842.63 186.109L844.673 215.449C844.705 216.331 844.639 217.061 844.479 217.663C844.327 218.254 844.103 218.695 843.823 219.017C843.543 219.329 843.103 219.544 842.501 219.705C841.899 219.866 841.426 219.963 841.05 219.984C840.674 220.017 840.105 220.017 839.321 220.017L839.385 221.435H859.439L859.278 219.888Z" fill="white"/>
</g>
<defs>
<clipPath id="clip0_3_2">
<rect width="1033" height="319" fill="white"/>
</clipPath>
</defs>
</svg>
