<svg width="484" height="480" viewBox="0 0 484 480" fill="none" xmlns="http://www.w3.org/2000/svg">
<g clip-path="url(#clip0_1_60)">
<path d="M241.86 251.959C244.154 249.094 242.944 244.332 239.188 241.328L183.831 197.15C180.07 194.15 175.163 194.036 172.883 196.899C170.591 199.762 171.796 204.516 175.562 207.522L230.907 251.695C234.67 254.702 239.578 254.818 241.86 251.959ZM245.059 236.002C245.894 234.95 246.084 233.698 245.466 233.21L190.36 189.216C189.738 188.73 188.558 189.186 187.724 190.238C186.878 191.291 186.699 192.543 187.311 193.031L242.422 237.016C243.036 237.511 244.212 237.047 245.059 236.002ZM331.639 139.428C333.919 136.566 332.722 131.804 328.955 128.806L273.61 84.6285C269.851 81.6271 264.948 81.5098 262.655 84.3725C260.375 87.2351 261.575 91.9925 265.339 94.9951L320.687 139.175C324.455 142.174 329.35 142.291 331.639 139.428ZM316.803 146.09C317.643 145.036 317.822 143.78 317.21 143.296L262.098 99.3085C261.486 98.8165 260.308 99.2725 259.462 100.33C258.623 101.379 258.436 102.627 259.056 103.118L314.175 147.107C314.788 147.594 315.964 147.146 316.803 146.09ZM276.66 187.642C263.058 204.691 247.172 228.339 247.172 228.339L220.936 207.404L194.714 186.471C194.714 186.471 214.258 165.74 227.866 148.694C243.119 129.574 257.356 107.992 257.356 107.992L283.586 128.923L309.811 149.856C309.811 149.856 291.908 168.524 276.66 187.642Z" fill="#91762B"/>
<path d="M437.865 304.948C358.423 247.455 291.215 198.186 246.182 165.022L242.706 169.371C285.037 205.93 347.977 260.542 421.653 325.268C434.097 336.192 447.782 344.483 455.09 335.323C462.405 326.167 451.285 314.659 437.865 304.948Z" fill="#91762B"/>
<path d="M282.002 196.872C276.877 203.204 270.527 206.561 267.825 204.371C265.109 202.181 267.053 195.264 272.181 188.932C277.31 182.601 283.655 179.239 286.369 181.433C289.075 183.615 287.13 190.539 282.002 196.872Z" fill="#91762B"/>
<path d="M377.155 273.063C372.452 279.719 367.267 284.138 365.576 282.942C363.877 281.747 366.311 275.377 371.018 268.727C375.719 262.074 380.902 257.651 382.602 258.849C384.291 260.039 381.858 266.406 377.155 273.063Z" fill="#91762B"/>
<path d="M386.419 279.271C381.334 286.46 374.576 290.426 371.334 288.126C368.075 285.832 369.554 278.132 374.639 270.944C379.727 263.768 386.476 259.79 389.727 262.092C392.979 264.38 391.503 272.076 386.419 279.271Z" fill="#91762B"/>
<path d="M191.311 284.161H292.324C296.532 284.161 299.976 287.605 299.976 291.813C299.976 296.023 296.532 299.465 292.324 299.465H191.311C187.103 299.465 183.659 296.023 183.659 291.813C183.659 287.605 187.103 284.161 191.311 284.161Z" fill="#91762B"/>
<path d="M353.718 58.836C353.31 59.584 353.064 60.088 352.77 60.556C352.412 61.1266 352.112 61.7666 351.3 62.048C330.279 49.1066 307.546 40.4013 283.271 35.6053C283.271 34.352 283.26 33.4493 283.282 32.5387C283.286 32.3307 283.411 32.1173 283.598 31.5413C308.664 36.4053 332.003 45.2613 353.718 58.836ZM283.427 14.7933C302.223 18.1227 319.974 23.5973 337.091 31.3506C336.659 32.8186 335.908 33.7667 334.851 34.8107C318.408 27.392 301.231 22.1653 283.427 18.912C283.427 17.5173 283.427 16.416 283.427 14.7933ZM368.791 36.4133C342.223 19.9347 313.862 9.15865 283.443 4.05332C283.324 2.56132 283.102 1.348 283.735 0C315.008 5.18133 344.024 16.188 371.09 33.044C370.499 33.9387 370.132 34.5053 369.755 35.0653C369.507 35.432 369.24 35.788 368.791 36.4133ZM296.806 458.739C300.947 451.953 304.631 445.952 308.276 439.925C308.718 439.192 309.279 438.697 310.031 438.42C316.13 436.169 322.234 433.937 328.931 431.483C324.65 438.493 320.714 444.944 316.742 451.44C310.336 453.787 303.944 456.124 296.806 458.739ZM317.42 453.505C324.527 455.884 331.57 458.24 338.615 460.596C338.626 460.801 338.639 461.008 338.651 461.212C332.227 463.576 325.803 465.936 319.548 468.237C312.227 465.772 305.188 463.401 297.56 460.837C304.57 458.251 310.99 455.88 317.42 453.505ZM343.899 442.593C351.6 443.975 358.751 445.256 366.715 446.68C359.95 450.399 353.952 453.695 348.159 456.877C340.61 455.535 333.342 454.237 325.336 452.813C332.026 449.132 338.022 445.832 343.899 442.593ZM324.37 450.737C327.41 443.548 330.11 437.193 332.77 430.82L332.815 430.712C337.59 430.608 342.363 430.628 347.134 430.784C345.712 434.116 344.284 437.449 342.855 440.792C336.867 444.015 330.936 447.205 324.37 450.737ZM406.022 397.957C409.491 392.535 414.131 389.323 420.594 389.005C421.147 388.976 421.687 388.736 422.239 388.62C426.056 387.817 429.874 387.024 434.492 386.059C429.767 391.883 425.564 397.061 421.13 402.532L407.607 405.435C406.4 403.875 405.194 402.313 403.988 400.753C404.715 399.837 405.406 398.923 406.022 397.957ZM397.584 55.3613C397.786 55.32 397.988 55.28 398.191 55.2387C403.176 59.816 408.163 64.3987 413.156 68.98C414.402 76.472 415.638 83.892 417.01 92.1467C411.379 86.9933 406.391 82.4373 401.306 77.7853C400.07 70.3387 398.827 62.852 397.584 55.3613ZM416.379 384.147C416.18 384.075 415.982 384.001 415.782 383.928C415.239 376.345 414.695 368.763 414.168 361.424L424.184 346.536C424.902 347.003 425.626 347.457 426.356 347.896L427.739 367.227C423.886 372.965 420.132 378.556 416.379 384.147ZM436.999 122.761C437.894 115.332 438.788 107.896 439.683 100.463C439.899 100.42 440.114 100.376 440.328 100.333C443.827 106.144 447.326 111.96 450.852 117.819C449.924 125.34 449.003 132.812 447.984 141.077C444.036 134.493 440.547 128.677 436.999 122.761ZM458.855 166.559C455.886 160.317 452.915 154.075 450.102 148.161C451.782 140.544 453.362 133.384 454.94 126.22C455.139 126.205 455.339 126.188 455.538 126.169C458.472 132.285 461.407 138.407 464.387 144.621C462.708 152.164 461.103 159.375 459.498 166.595C459.283 166.581 459.07 166.572 458.855 166.559ZM471.643 300.456C468.764 302.503 466.11 304.875 463.443 307.228C462.611 306.257 461.743 305.308 460.846 304.38L463.822 289.564C469.391 284.813 475.114 279.929 480.836 275.044C480.496 279.74 479.226 284.036 478.782 288.416C478.243 293.719 475.892 297.429 471.643 300.456ZM433.719 115.187C429.13 109.613 424.912 104.492 420.403 99.0173C420.403 91.72 420.403 84.1187 420.403 76.1187C423.291 79.624 425.739 83.184 428.77 86.128C432.866 90.1106 434.172 94.7093 433.786 100.277C433.46 104.985 433.719 109.741 433.719 115.187ZM470.434 223.46C469.088 216.768 467.744 210.076 466.404 203.409C469.786 196.615 473.111 189.925 476.81 182.495C478.342 190.003 479.699 196.648 481.1 203.507C477.67 210.336 474.326 216.999 470.982 223.657C470.799 223.589 470.616 223.525 470.434 223.46ZM418.163 385.345C421.934 379.715 425.703 374.084 429.491 368.428C436.572 366.156 443.603 363.897 450.635 361.639C450.799 361.784 450.963 361.927 451.127 362.072C447.303 367.793 443.478 373.52 439.767 379.073C432.483 381.404 425.472 383.648 418.46 385.895C418.362 385.713 418.263 385.527 418.163 385.345ZM468.32 223.999C468.144 224.084 467.968 224.168 467.792 224.257C462.143 219.428 456.494 214.599 450.811 209.744C449.459 202.968 448.123 196.277 446.788 189.592C446.975 189.499 447.162 189.415 447.347 189.321C452.915 194.075 458.482 198.824 464.279 203.768C465.642 210.589 466.982 217.292 468.32 223.999ZM470.166 252.445C469.827 245.729 469.488 239.011 469.146 232.233C473.456 226.111 477.759 219.993 482.063 213.881C482.256 213.967 482.451 214.044 482.646 214.125C482.975 220.944 483.304 227.763 483.635 234.611C479.323 240.704 475.056 246.736 470.788 252.763C470.58 252.657 470.374 252.551 470.166 252.445ZM466.064 194.912C464.092 188.536 462.12 182.159 460.051 175.463C462.751 168.367 465.418 161.355 468.084 154.337C468.292 154.391 468.5 154.444 468.708 154.497C470.702 161.012 472.696 167.531 474.658 173.943C471.951 181.093 469.323 188.029 466.696 194.965C466.486 194.948 466.275 194.931 466.064 194.912ZM412.467 112.687C411.288 112.427 409.968 112.5 409.072 111.395C405.018 106.395 400.948 101.401 396.884 96.4107C397.043 96.2187 397.203 96.032 397.362 95.8387C404.496 97.396 411.63 98.9466 418.939 100.536C423.172 105.732 427.459 110.996 431.746 116.255C425.042 115.419 418.748 114.08 412.467 112.687ZM463.896 195.436C463.707 195.576 463.518 195.721 463.33 195.865C457.259 191.663 451.19 187.46 445.15 183.277C443.11 176.593 441.111 170.04 438.882 162.732C445.707 167.48 451.812 171.727 458.03 176.053C460.038 182.689 461.967 189.059 463.896 195.436ZM467.326 281.224C467.664 274.451 468.004 267.68 468.34 260.959C473.294 255.199 478.158 249.544 483.022 243.889C483.212 243.987 483.403 244.084 483.594 244.185C483.239 251.008 482.884 257.835 482.523 264.797C477.698 270.347 472.834 275.94 467.97 281.532C467.755 281.427 467.54 281.325 467.326 281.224ZM435.59 361.908L439.544 353.615C444.322 354.796 449.268 354.973 454.164 353.571C447.972 356.615 442.016 359.545 436.06 362.473C435.903 362.284 435.747 362.095 435.59 361.908ZM437.435 353.025L433.131 362.032L430.607 350.245C432.815 351.349 435.1 352.3 437.435 353.025ZM445.524 141.213C445.383 141.413 445.242 141.62 445.099 141.82C438.218 139.228 431.338 136.636 424.411 134.025C421.188 128.021 417.058 122.569 413.806 115.887C420.135 118.269 425.655 120.604 431.347 122.368C434.058 123.211 435.742 124.609 437.091 126.996C439.798 131.792 442.702 136.481 445.524 141.213ZM449.367 294.416C447.284 289.585 447.086 284.611 449.034 279.22C449.876 276.885 450.094 274.32 450.647 271.871C450.86 270.932 450.443 269.747 451.792 269.013C455.118 275.76 458.434 282.492 461.72 289.168L458.982 302.521C455.966 299.616 452.688 296.921 449.367 294.416ZM466.3 310.871C469.118 309.129 471.931 307.389 474.744 305.651C474.928 305.785 475.111 305.92 475.295 306.059C473.731 310.235 472.172 314.413 470.606 318.588C469.504 315.876 468.026 313.297 466.3 310.871ZM467.1 252.725C462.312 247.167 457.524 241.604 452.807 236.127C452.6 229.111 451.822 222.303 452.007 214.908C457.348 221.135 462.28 226.88 466.986 232.365C467.21 239.396 467.94 245.945 467.762 252.521C467.542 252.591 467.32 252.66 467.1 252.725ZM452.696 264.639C451.878 263.468 451.776 262.153 451.854 260.748C452.18 254.733 452.442 248.708 452.726 242.685C452.939 242.623 453.152 242.561 453.367 242.495C457.691 248.681 462.018 254.871 466.323 261.029C465.467 267.855 465.844 274.595 464.803 281.897C460.48 275.739 456.584 270.189 452.696 264.639ZM427.879 139.431C428.222 139.235 428.39 139.453 428.536 139.72C435.254 142.596 441.692 146.049 448.248 149.251C451.182 155.475 454.075 161.608 456.966 167.741C456.782 167.849 456.595 167.949 456.41 168.053C449.752 164.769 443.095 161.481 436.518 158.233C433.614 152.136 430.779 146.189 427.946 140.243C427.783 139.984 427.671 139.72 427.879 139.431ZM339.751 35.3773C339.88 35.2173 340.012 35.0627 340.146 34.9067C347.672 36.724 355.199 38.54 362.527 40.3107C367.636 46.42 372.56 52.3093 378.012 58.8267C369.708 56.844 362.191 55.0493 354.639 53.2467C349.66 47.2733 344.704 41.3253 339.751 35.3773ZM360.16 431.552L350.527 438.104C350.37 437.997 350.21 437.889 350.051 437.783L352.191 431C354.848 431.14 357.504 431.324 360.16 431.552ZM398.236 381.641C401.919 376.389 406.3 371.745 410.455 366.428C410.455 374.412 410.455 381.875 410.455 389.159C407.919 392.535 405.266 395.653 402.52 398.855C400.798 396.627 399.074 394.399 397.35 392.172C397.387 390.176 397.402 388.209 397.398 386.241C397.394 384.689 397.22 383.091 398.236 381.641ZM351.848 439.785L363.499 431.864C370.568 432.571 377.636 433.6 384.7 434.981L374.152 442.197C366.718 441.607 359.308 441.024 351.899 440.437C351.882 440.22 351.866 440.001 351.848 439.785ZM415.498 93.7586C407.267 93.1986 399.902 92.6973 392.442 92.1866C387.446 87.6133 382.452 83.0387 377.459 78.4653C377.528 78.268 377.598 78.072 377.668 77.8747C385.252 78.392 392.838 78.9027 399.979 79.388C405.238 84.2573 410.088 88.748 415.498 93.7586ZM379.555 59.0533C377.296 51.908 374.996 44.6346 372.698 37.364C372.867 37.272 373.039 37.1787 373.21 37.0853C378.879 40.9587 384.55 44.8347 390.055 48.5987C392.36 55.9 394.57 62.8947 396.778 69.896C396.591 70.0253 396.403 70.16 396.216 70.2893C390.73 66.592 385.243 62.8906 379.555 59.0533ZM395.812 72.6773C390.883 73.1133 386.71 73.1733 382.654 73.9013C375.827 75.1253 369.863 73.9013 364.632 69.0933C362.343 66.992 359.327 65.7866 357.047 63.4333C357.563 63.0266 357.89 62.5453 358.258 62.516C364.978 61.8827 371.7 61.3013 378.351 60.72C384.235 64.748 389.696 68.4867 395.812 72.6773ZM292.627 454.963C294.846 451.153 297.224 447.441 299.534 443.687C299.386 443.493 299.238 443.3 299.091 443.108C280.334 448.52 261.214 451.189 241.735 451.189C222.242 451.185 203.107 448.411 183.642 442.904C186.31 447.267 188.516 450.832 190.684 454.427C193.822 459.639 192.039 464.529 186.274 466.563C183.139 467.669 179.994 468.747 176.852 469.84C198.096 476.56 219.732 479.535 241.771 479.553C263.882 479.572 285.579 476.567 306.783 470.084C303.479 468.696 300.18 467.633 296.908 466.5C291.848 464.741 289.914 459.632 292.627 454.963ZM129.918 58.836C130.326 59.584 130.57 60.088 130.864 60.556C131.223 61.1266 131.522 61.7666 132.335 62.048C153.356 49.1066 176.09 40.4013 200.364 35.6053C200.364 34.352 200.375 33.4493 200.352 32.5387C200.35 32.3307 200.224 32.1173 200.038 31.5413C174.971 36.4053 151.632 45.2613 129.918 58.836ZM200.208 14.7933C181.412 18.1227 163.662 23.5973 146.544 31.3506C146.976 32.8186 147.727 33.7667 148.784 34.8107C165.226 27.392 182.404 22.1653 200.208 18.912C200.208 17.5173 200.208 16.416 200.208 14.7933ZM114.844 36.4133C141.412 19.9347 169.774 9.15865 200.191 4.05332C200.31 2.56132 200.534 1.348 199.9 0C168.627 5.18133 139.611 16.188 112.546 33.044C113.136 33.9387 113.503 34.5053 113.88 35.0653C114.128 35.432 114.395 35.788 114.844 36.4133ZM186.83 458.739C182.688 451.953 179.003 445.952 175.359 439.925C174.918 439.192 174.356 438.697 173.604 438.42C167.506 436.169 161.4 433.937 154.704 431.483C158.986 438.493 162.922 444.944 166.894 451.44C173.299 453.787 179.691 456.124 186.83 458.739ZM166.214 453.505C159.108 455.884 152.066 458.24 145.02 460.596C145.01 460.801 144.996 461.008 144.984 461.212C151.408 463.576 157.831 465.936 164.086 468.237C171.408 465.772 178.447 463.401 186.075 460.837C179.064 458.251 172.646 455.88 166.214 453.505ZM139.735 442.593C132.034 443.975 124.884 445.256 116.92 446.68C123.686 450.399 129.683 453.695 135.476 456.877C143.026 455.535 150.294 454.237 158.299 452.813C151.61 449.132 145.612 445.832 139.735 442.593ZM159.266 450.737C156.224 443.548 153.524 437.193 150.864 430.82L150.819 430.712C146.046 430.608 141.272 430.628 136.5 430.784C137.923 434.116 139.351 437.449 140.78 440.792C146.767 444.015 152.699 447.205 159.266 450.737ZM77.614 397.957C74.144 392.535 69.504 389.323 63.042 389.005C62.488 388.976 61.948 388.736 61.396 388.62C57.579 387.817 53.762 387.024 49.143 386.059C53.868 391.883 58.07 397.061 62.506 402.532L76.028 405.435C77.234 403.873 78.44 402.313 79.647 400.752C78.919 399.836 78.23 398.923 77.614 397.957ZM86.051 55.3613C85.85 55.32 85.647 55.28 85.444 55.2387C80.459 59.816 75.472 64.3987 70.479 68.98C69.234 76.472 67.998 83.892 66.624 92.1467C72.256 86.9933 77.243 82.4373 82.33 77.7853C83.566 70.3387 84.808 62.852 86.051 55.3613ZM67.255 384.147C67.455 384.075 67.654 384.001 67.852 383.928C68.396 376.345 68.94 368.763 69.467 361.424C65.542 355.589 61.8 350.028 57.576 343.749C56.976 352.129 56.434 359.724 55.896 367.227C59.748 372.965 63.503 378.556 67.255 384.147ZM46.635 122.761C45.742 115.332 44.847 107.896 43.952 100.463C43.736 100.42 43.522 100.376 43.307 100.333C39.808 106.144 36.31 111.96 32.783 117.819C33.71 125.34 34.631 132.812 35.651 141.077C39.598 134.493 43.088 128.677 46.635 122.761ZM24.78 166.559C27.75 160.317 30.72 154.075 33.534 148.161C31.852 140.544 30.274 133.384 28.695 126.22C28.496 126.205 28.297 126.188 28.097 126.169C25.163 132.285 22.228 138.407 19.248 144.621C20.927 152.164 22.532 159.375 24.137 166.595C24.352 166.581 24.565 166.572 24.78 166.559ZM11.993 300.456C15.912 303.244 19.416 306.632 23.103 309.757C23.324 309.591 23.546 309.42 23.769 309.253C22.469 302.784 21.17 296.319 19.813 289.564C14.245 284.813 8.522 279.929 2.799 275.044C3.139 279.74 4.409 284.036 4.854 288.416C5.392 293.719 7.743 297.429 11.993 300.456ZM49.916 115.187C54.506 109.613 58.722 104.492 63.231 99.0173C63.231 91.72 63.231 84.1187 63.231 76.1187C60.344 79.624 57.896 83.184 54.864 86.128C50.768 90.1106 49.463 94.7093 49.848 100.277C50.175 104.985 49.916 109.741 49.916 115.187ZM13.202 223.46C14.546 216.768 15.891 210.076 17.231 203.409C13.849 196.615 10.524 189.925 6.825 182.495C5.293 190.003 3.936 196.648 2.535 203.507C5.965 210.336 9.309 216.999 12.654 223.657C12.836 223.589 13.019 223.525 13.202 223.46ZM65.472 385.345C61.702 379.715 57.932 374.084 54.143 368.428C47.063 366.156 40.031 363.897 33 361.639C32.836 361.784 32.672 361.927 32.508 362.072C36.332 367.793 40.158 373.52 43.868 379.073C51.152 381.404 58.163 383.648 65.175 385.895C65.274 385.713 65.372 385.527 65.472 385.345ZM15.315 223.999C15.491 224.084 15.667 224.168 15.843 224.257C21.493 219.428 27.142 214.599 32.824 209.744C34.176 202.968 35.512 196.277 36.847 189.592C36.66 189.499 36.474 189.415 36.287 189.321C30.721 194.075 25.154 198.824 19.356 203.768C17.994 210.589 16.654 217.292 15.315 223.999ZM13.47 252.445C13.809 245.729 14.147 239.011 14.489 232.233C10.179 226.111 5.875 219.993 1.573 213.881C1.379 213.967 1.184 214.044 0.988998 214.125C0.659998 220.944 0.331 227.763 0 234.611C4.312 240.704 8.579 246.736 12.847 252.763C13.055 252.657 13.262 252.551 13.47 252.445ZM17.571 194.912C19.543 188.536 21.515 182.159 23.584 175.463C20.884 168.367 18.218 161.355 15.551 154.337C15.343 154.391 15.135 154.444 14.927 154.497C12.933 161.012 10.939 167.531 8.977 173.943C11.684 181.093 14.312 188.029 16.939 194.965C17.15 194.948 17.36 194.931 17.571 194.912ZM71.167 112.687C72.346 112.427 73.667 112.5 74.563 111.395C78.618 106.395 82.686 101.401 86.751 96.4107C86.591 96.2187 86.432 96.032 86.274 95.8387C79.139 97.396 72.006 98.9466 64.696 100.536C60.463 105.732 56.176 110.996 51.89 116.255C58.594 115.419 64.886 114.08 71.167 112.687ZM19.739 195.436C19.929 195.576 20.117 195.721 20.306 195.865C26.376 191.663 32.446 187.46 38.486 183.277C40.526 176.593 42.524 170.04 44.754 162.732C37.928 167.48 31.823 171.727 25.606 176.053C23.597 182.689 21.668 189.059 19.739 195.436ZM16.309 281.224C15.97 274.451 15.631 267.68 15.295 260.959C10.342 255.199 5.477 249.544 0.613998 243.889C0.422998 243.987 0.233 244.084 0.0419998 244.185C0.396 251.008 0.75 257.835 1.111 264.797C5.937 270.347 10.802 275.94 15.666 281.532C15.881 281.427 16.095 281.325 16.309 281.224ZM48.046 361.908C45.163 355.863 42.28 349.817 39.327 343.623C32.727 340.388 26.044 337.113 19.362 333.843C19.231 334.059 19.101 334.277 18.971 334.492C21.91 340.632 24.849 346.772 27.683 352.691C34.52 356.052 41.048 359.264 47.575 362.473C47.731 362.284 47.888 362.095 48.046 361.908ZM37.483 335.716C39.784 328.643 42.084 321.571 44.383 314.504C42.046 308.087 39.727 301.724 37.408 295.359C37.179 295.347 36.951 295.336 36.723 295.325C34.436 302.408 32.151 309.489 29.837 316.653C32.17 323.041 34.492 329.4 36.816 335.763C37.039 335.748 37.26 335.733 37.483 335.716ZM55.454 338.92C52.614 332.992 49.619 326.741 46.626 320.492C46.436 320.568 46.246 320.644 46.056 320.721C44.47 328.031 42.883 335.344 41.28 342.729C44.334 349.117 47.24 355.2 50.504 362.032C52.234 353.959 53.795 346.667 55.454 338.92ZM38.11 141.213C38.252 141.413 38.394 141.62 38.536 141.82C45.418 139.228 52.298 136.636 59.224 134.025C62.446 128.021 66.576 122.569 69.83 115.887C63.5 118.269 57.98 120.604 52.288 122.368C49.576 123.211 47.894 124.609 46.544 126.996C43.838 131.792 40.934 136.481 38.11 141.213ZM26.673 309.264C28.483 305.599 29.971 301.713 32.172 298.305C36.088 292.243 37.075 286.068 34.602 279.22C33.759 276.885 33.542 274.32 32.988 271.871C32.775 270.932 33.192 269.747 31.843 269.013C28.517 275.76 25.201 282.492 21.915 289.168C23.318 296.008 24.69 302.696 26.063 309.392C26.266 309.349 26.47 309.308 26.673 309.264ZM34.37 337.048C34.51 336.895 34.651 336.743 34.792 336.585C32.476 330.191 30.162 323.799 27.831 317.36C21.492 313.44 15.191 309.544 8.89 305.651C8.707 305.785 8.523 305.92 8.34 306.059C10.716 312.403 13.079 318.751 15.477 325.084C15.846 326.06 16.547 326.96 17.544 327.145C19.173 327.451 20.382 328.471 21.712 329.272C25.955 331.825 30.154 334.451 34.37 337.048ZM16.535 252.725C21.323 247.167 26.111 241.604 30.829 236.127C31.034 229.111 31.812 222.303 31.628 214.908C26.287 221.135 21.355 226.88 16.649 232.365C16.426 239.396 15.695 245.945 15.874 252.521C16.094 252.591 16.315 252.66 16.535 252.725ZM30.939 264.639C31.758 263.468 31.858 262.153 31.782 260.748C31.455 254.733 31.194 248.708 30.909 242.685C30.696 242.623 30.482 242.561 30.269 242.495C25.944 248.681 21.618 254.871 17.312 261.029C18.168 267.855 17.791 274.595 18.832 281.897C23.155 275.739 27.051 270.189 30.939 264.639ZM55.756 139.431C55.412 139.235 55.246 139.453 55.098 139.72C48.382 142.596 41.943 146.049 35.386 149.251C32.452 155.475 29.561 161.608 26.669 167.741C26.854 167.849 27.04 167.949 27.225 168.053C33.883 164.769 40.54 161.481 47.118 158.233C50.022 152.136 52.855 146.189 55.69 140.243C55.688 140.243 55.688 140.243 55.688 140.243C55.851 139.984 55.964 139.72 55.756 139.431ZM143.884 35.3773C143.755 35.2173 143.622 35.0627 143.49 34.9067C135.963 36.724 128.435 38.54 121.108 40.3107C115.999 46.42 111.075 52.3093 105.622 58.8267C113.927 56.844 121.444 55.0493 128.996 53.2467C133.975 47.2733 138.931 41.3253 143.884 35.3773ZM123.475 431.552L133.107 438.104C133.266 437.997 133.424 437.889 133.584 437.783L131.444 431C128.787 431.14 126.131 431.324 123.475 431.552ZM85.398 381.641C81.716 376.389 77.335 371.745 73.18 366.428C73.18 374.412 73.18 381.875 73.18 389.159C75.715 392.535 78.368 395.653 81.115 398.855C82.838 396.625 84.562 394.399 86.286 392.171C86.248 390.175 86.232 388.208 86.238 386.241C86.242 384.689 86.415 383.091 85.398 381.641ZM131.787 439.785L120.136 431.864C113.066 432.571 105.999 433.6 98.934 434.98L109.483 442.197C116.918 441.607 124.327 441.024 131.736 440.437C131.752 440.22 131.77 440.001 131.787 439.785ZM68.138 93.7586C76.368 93.1986 83.734 92.6973 91.194 92.1866C96.19 87.6133 101.183 83.0387 106.176 78.4653C106.107 78.268 106.036 78.072 105.967 77.8747C98.382 78.392 90.798 78.9027 83.656 79.388C78.398 84.2573 73.547 88.748 68.138 93.7586ZM104.079 59.0533C106.339 51.908 108.639 44.6346 110.938 37.364C110.767 37.272 110.596 37.1787 110.426 37.0853C104.756 40.9587 99.086 44.8347 93.58 48.5987C91.275 55.9 89.066 62.8947 86.858 69.896C87.044 70.0253 87.231 70.16 87.419 70.2893C92.906 66.592 98.392 62.8906 104.079 59.0533ZM87.822 72.6773C92.752 73.1133 96.926 73.1733 100.982 73.9013C107.808 75.1253 113.772 73.9013 119.003 69.0933C121.291 66.992 124.308 65.7866 126.588 63.4333C126.072 63.0266 125.746 62.5453 125.378 62.516C118.658 61.8827 111.934 61.3013 105.284 60.72C99.4 64.748 93.939 68.4867 87.822 72.6773Z" fill="#91762B"/>
<path fill-rule="evenodd" clip-rule="evenodd" d="M241.818 41.8335C351.139 41.8335 439.76 130.456 439.76 239.777C439.76 254.928 438.052 269.679 434.828 283.853C431.819 281.672 428.81 279.492 425.802 277.311C428.262 265.183 429.558 252.631 429.558 239.777C429.558 136.091 345.503 52.0375 241.818 52.0375C138.131 52.0375 54.078 136.091 54.078 239.777C54.078 289.435 73.366 334.581 104.848 368.156C102.743 370.885 100.636 373.613 98.528 376.341C64.664 340.825 43.875 292.727 43.875 239.777C43.875 130.456 132.496 41.8335 241.818 41.8335ZM378.786 368.155C389.13 357.121 398.159 344.839 405.618 331.555C407.596 333.292 409.574 335.029 411.551 336.765C412.182 337.32 412.82 337.872 413.466 338.423C405.536 352.192 395.996 364.915 385.104 376.339C382.996 373.611 380.89 370.884 378.786 368.155Z" fill="#91762B"/>
<path d="M369.65 403.043C361.158 387.704 353.095 372.988 344.726 357.744C344.386 357.182 344.047 356.619 343.707 356.056C343.158 356.175 342.614 356.291 342.066 356.41C363.719 418.092 348.469 364.523 249.334 422.02C287.782 405.82 328.091 401.482 369.65 403.043Z" fill="#91762B"/>
<path d="M340.512 374.366C337.762 365.302 334.824 356.479 331.916 347.422C328.123 350.255 322.816 350.11 324.975 356.051C325.736 360.8 326.116 365.611 327.206 370.319C327.02 370.628 327.016 370.94 327.203 371.252C327.174 371.462 327.142 371.671 327.112 371.88C326.724 372.838 326.336 373.794 325.948 374.754C296.567 383.042 267.934 395.066 245.192 416.323C275.343 397.638 308.246 387.138 343.508 382.932C342.424 379.975 341.844 377.052 340.512 374.366Z" fill="#91762B"/>
<path d="M267.419 423.234C267.419 423.234 274.088 421.302 274.172 421.282L278.707 419.971L278.692 419.982C380.068 390.402 398.19 440.322 360.759 371.471V371.474L357.262 365.299L359.919 368.749V368.745C373.951 386.987 387.897 404.926 402.008 423.234C358.913 412.002 316.062 413.733 272.995 422.254C272.998 422.238 267.419 423.234 267.419 423.234Z" fill="#91762B"/>
<path d="M113.984 403.043C122.475 387.704 130.539 372.988 138.908 357.744C139.248 357.182 139.587 356.619 139.927 356.056C140.476 356.175 141.02 356.291 141.567 356.41C119.915 418.092 135.166 364.523 234.3 422.02C195.851 405.82 155.543 401.482 113.984 403.043Z" fill="#91762B"/>
<path d="M143.121 374.366C145.873 365.302 148.81 356.479 151.718 347.422C155.511 350.255 160.818 350.11 158.661 356.051C157.897 360.8 157.518 365.611 156.429 370.319C156.614 370.628 156.618 370.94 156.431 371.252C156.461 371.462 156.493 371.671 156.522 371.88C156.909 372.838 157.298 373.794 157.686 374.754C187.067 383.042 215.701 395.066 238.442 416.323C208.291 397.638 175.389 387.138 140.126 382.932C141.21 379.975 141.791 377.052 143.121 374.366Z" fill="#91762B"/>
<path d="M216.215 423.234C216.215 423.234 209.546 421.302 209.463 421.282L204.927 419.971L204.942 419.982C103.566 390.402 85.445 440.322 122.875 371.471V371.474L126.373 365.299L123.714 368.749V368.745C109.683 386.987 95.737 404.926 81.626 423.234C124.721 412.002 167.574 413.733 210.641 422.254C210.637 422.238 216.215 423.234 216.215 423.234Z" fill="#91762B"/>
<path d="M173.455 308.65H310.179C318.317 308.65 324.975 315.307 324.975 323.444C324.975 331.582 318.317 338.239 310.179 338.239H173.455C165.319 338.239 158.662 331.582 158.662 323.444C158.662 315.307 165.319 308.65 173.455 308.65Z" fill="#91762B"/>
</g>
<defs>
<clipPath id="clip0_1_60">
<rect width="484" height="480" fill="white"/>
</clipPath>
</defs>
</svg>
