<svg width="61" height="60" viewBox="0 0 61 60" fill="none" xmlns="http://www.w3.org/2000/svg">
<path d="M21.6365 14.0884C21.4642 14.6189 21.6338 15.1875 22.0686 15.537L25.9399 18.6486L24.6369 23.4414C24.4906 23.9796 24.6876 24.5392 25.1391 24.8676C25.5908 25.1953 26.1836 25.2097 26.6504 24.9043L30.806 22.184L34.9617 24.9044C35.1857 25.051 35.4387 25.1239 35.6913 25.1239C35.965 25.1239 36.2382 25.0382 36.4727 24.8676C36.9244 24.5396 37.1215 23.9796 36.9749 23.4414L35.6719 18.6487L39.543 15.5373C39.9781 15.1878 40.1478 14.6191 39.9753 14.0884C39.8029 13.5575 39.3313 13.1972 38.7741 13.1702L33.8132 12.9283L32.0503 8.28514C31.8523 7.76354 31.3638 7.42639 30.8059 7.42639C30.2479 7.42639 29.7594 7.76342 29.5616 8.28502L27.7985 12.9285L22.8379 13.1702C22.2805 13.1972 21.8089 13.5575 21.6365 14.0884ZM28.2454 14.7838C28.7742 14.758 29.2372 14.4215 29.4248 13.9268L30.8057 10.2899L32.1867 13.9271C32.3746 14.4218 32.8378 14.758 33.366 14.7838L37.2516 14.9733L34.2193 17.4104C33.8067 17.7422 33.6299 18.2865 33.7688 18.797L34.7894 22.5509L31.5344 20.4201C31.313 20.2753 31.0593 20.2029 30.8056 20.2029C30.5519 20.2029 30.298 20.2754 30.0765 20.4202L26.8217 22.5509L27.8423 18.7972C27.9813 18.2864 27.8045 17.7419 27.3917 17.4104L24.3595 14.9734L28.2454 14.7838ZM29.8682 4.37788V0.937498C29.8682 0.419765 30.288 0 30.8057 0C31.3235 0 31.7432 0.419765 31.7432 0.937498V4.37788C31.7432 4.89562 31.3235 5.31538 30.8057 5.31538C30.288 5.31538 29.8682 4.89562 29.8682 4.37788ZM35.5775 9.93232C35.2311 9.5476 35.2621 8.95475 35.6469 8.60834L39.4806 5.15624C39.8655 4.80972 40.4582 4.84077 40.8047 5.22562C41.1511 5.61034 41.1201 6.20319 40.7354 6.5496L36.9015 10.0017C36.7223 10.1631 36.498 10.2425 36.2744 10.2425C36.0181 10.2425 35.7626 10.138 35.5775 9.93232ZM20.8067 5.22562C21.1531 4.84077 21.7459 4.80972 22.1308 5.15624L25.9647 8.60834C26.3495 8.95475 26.3805 9.5476 26.0341 9.93232C25.8489 10.1379 25.5935 10.2425 25.3371 10.2425C25.1136 10.2425 24.8893 10.1631 24.71 10.0017L20.8761 6.5496C20.4913 6.20319 20.4603 5.61034 20.8067 5.22562ZM42.8331 15.537L46.7044 18.6486L45.4014 23.4414C45.2552 23.9796 45.4522 24.5392 45.9037 24.8676C46.355 25.1953 46.9479 25.2096 47.4149 24.9043L51.5705 22.184L55.7262 24.9044C55.9503 25.051 56.2033 25.1239 56.4558 25.1239C56.7296 25.1239 57.0027 25.0382 57.2372 24.8676C57.6887 24.5398 57.8858 23.98 57.7395 23.4414L56.4365 18.6487L60.3075 15.5373C60.7425 15.1879 60.9122 14.6192 60.7397 14.0884C60.5673 13.5575 60.0958 13.1972 59.5386 13.1702L54.5778 12.9283L52.8149 8.28514C52.617 7.76354 52.1284 7.42639 51.5705 7.42639C51.0125 7.42639 50.5239 7.76342 50.326 8.28502L48.5631 12.9283L43.6026 13.1701C43.045 13.197 42.5734 13.5575 42.4011 14.0884C42.2286 14.6191 42.3983 15.1878 42.8331 15.537ZM49.0098 14.7838C49.5387 14.758 50.0018 14.4215 50.1896 13.9267L51.5704 10.2897L52.9511 13.9265C53.1389 14.4215 53.6021 14.758 54.1307 14.7836L58.0163 14.9731L54.9843 17.41C54.5714 17.7417 54.3945 18.2861 54.5335 18.7968L55.554 22.5508L52.2991 20.42C52.0776 20.2752 51.8239 20.2027 51.5701 20.2027C51.3163 20.2027 51.0625 20.2753 50.8411 20.4201L47.5864 22.5508L48.6069 18.7971C48.7458 18.2865 48.5691 17.7422 48.1564 17.4103L45.1241 14.9731L49.0098 14.7838ZM1.30384 15.537L5.17512 18.6486L3.87211 23.4414C3.72586 23.9796 3.92286 24.5392 4.37438 24.8676C4.82602 25.1953 5.41887 25.2097 5.88563 24.9043L10.0412 22.184L14.1969 24.9044C14.421 25.051 14.674 25.1239 14.9265 25.1239C15.2003 25.1239 15.4734 25.0382 15.7079 24.8676C16.1594 24.5398 16.3565 23.98 16.2102 23.4414L14.9072 18.6487L18.7782 15.5373C19.213 15.1882 19.3828 14.6196 19.2104 14.0878C19.0377 13.5573 18.5661 13.197 18.0094 13.1701L13.0485 12.9282L11.2856 8.28514C11.0877 7.76354 10.5991 7.42639 10.0412 7.42639C9.48316 7.42639 8.99461 7.76342 8.79668 8.28502L7.03383 12.9283L2.07329 13.1701C1.51583 13.197 1.04427 13.5575 0.872003 14.0878C0.699151 14.6188 0.868721 15.1877 1.30384 15.537ZM7.48054 14.7838C8.00941 14.758 8.47254 14.4215 8.66027 13.9267L10.0411 10.2897L11.4218 13.9265C11.6096 14.4215 12.0728 14.758 12.6014 14.7836L16.487 14.9731L13.455 17.41C13.0421 17.7417 12.8652 18.2861 13.0042 18.7968L14.0248 22.5508L10.7698 20.42C10.5483 20.2752 10.2946 20.2027 10.0409 20.2027C9.78703 20.2027 9.5332 20.2753 9.31183 20.4201L6.05707 22.5508L7.07765 18.7971C7.21652 18.2865 7.0398 17.7422 6.62707 17.4103L3.59485 14.9731L7.48054 14.7838ZM60.6581 49.7967C59.9985 47.6665 58.6474 45.7538 56.8537 44.4106C55.9949 43.7676 55.0597 43.2667 54.0733 42.9121C55.441 41.8387 56.3222 40.1723 56.3222 38.3028C56.3222 35.0724 53.694 32.4444 50.4638 32.4444C47.2334 32.4444 44.6052 35.0724 44.6052 38.3028C44.6052 40.17 45.4844 41.8348 46.8494 42.9084C45.02 43.5613 43.3993 44.7086 42.1581 46.2545C41.5781 45.443 40.9089 44.6893 40.1567 44.009C38.641 42.6382 36.8622 41.6316 34.9465 41.0366C36.978 39.6899 38.321 37.384 38.321 34.7695C38.321 30.6257 34.9496 27.2545 30.8059 27.2545C26.6621 27.2545 23.2907 30.6257 23.2907 34.7695C23.2907 37.384 24.6336 39.6899 26.665 41.0366C24.7493 41.6315 22.9705 42.6382 21.4548 44.009C20.7026 44.6893 20.0334 45.443 19.4535 46.2544C18.2124 44.7084 16.5917 43.5611 14.7622 42.908C16.1271 41.8344 17.0063 40.1697 17.0063 38.3024C17.0063 35.072 14.3782 32.444 11.1479 32.444C7.91754 32.444 5.28938 35.072 5.28938 38.3024C5.28938 40.1718 6.17063 41.8383 7.5382 42.9118C6.55172 43.2664 5.61656 43.7672 4.7577 44.4102C2.96391 45.7533 1.61286 47.6662 0.953213 49.7963C0.648409 50.7802 0.817276 51.7787 1.42864 52.6082C2.03989 53.4374 2.94387 53.894 3.97395 53.894H16.934V55.5859C16.934 58.0199 18.9142 60 21.3481 60H40.2633C42.6972 60 44.6774 58.0199 44.6775 55.5859V53.8944H57.6375C58.6677 53.8944 59.5717 53.4378 60.1828 52.6087C60.7941 51.7792 60.9629 50.7805 60.6581 49.7967ZM50.4638 34.3194C52.6602 34.3194 54.4472 36.1063 54.4472 38.3028C54.4472 40.4993 52.6602 42.2863 50.4638 42.2863C48.2672 42.2863 46.4802 40.4993 46.4802 38.3028C46.4802 36.1063 48.2672 34.3194 50.4638 34.3194ZM25.1657 34.7695C25.1657 31.6595 27.6959 29.1295 30.8059 29.1295C33.9158 29.1295 36.446 31.6595 36.446 34.7695C36.446 37.8784 33.9174 40.4078 30.8089 40.4095C30.8078 40.4095 30.8067 40.4095 30.8057 40.4095C30.8048 40.4095 30.8037 40.4095 30.8027 40.4095C27.6942 40.4077 25.1657 37.8783 25.1657 34.7695ZM11.1479 34.3189C13.3444 34.3189 15.1314 36.1059 15.1314 38.3023C15.1314 40.4989 13.3444 42.2859 11.1479 42.2859C8.95136 42.2859 7.16437 40.4989 7.16437 38.3023C7.16437 36.1059 8.95136 34.3189 11.1479 34.3189ZM17.0558 52.0188H3.97407C3.54258 52.0188 3.19407 51.8428 2.93801 51.4955C2.68184 51.1481 2.6168 50.7631 2.74442 50.3509C3.89098 46.6484 7.2682 44.1609 11.1479 44.1609C14.0826 44.1609 16.756 45.5788 18.4003 47.9792C17.7503 49.242 17.295 50.6031 17.0558 52.0188ZM42.8025 55.5858C42.8024 56.9858 41.6634 58.1249 40.2633 58.1249H21.3481C19.9481 58.1249 18.809 56.9858 18.809 55.5858V53.0073C19.4878 46.8915 24.6351 42.286 30.8027 42.2845C30.8037 42.2845 30.8048 42.2846 30.8059 42.2846C30.8069 42.2846 30.808 42.2845 30.8089 42.2845C36.9763 42.2861 42.1236 46.8915 42.8025 53.0073V55.5858ZM58.6736 51.4961C58.4175 51.8433 58.0691 52.0193 57.6375 52.0193H44.5559C44.3166 50.6035 43.8613 49.2423 43.2114 47.9794C44.8558 45.5792 47.5291 44.1613 50.4637 44.1613C54.3434 44.1613 57.7206 46.649 58.8672 50.3515C58.9948 50.7634 58.9296 51.1485 58.6736 51.4961Z" fill="white"/>
</svg>
