<svg width="61" height="60" viewBox="0 0 61 60" fill="none" xmlns="http://www.w3.org/2000/svg">
<path d="M33.783 30.8384C33.8564 30.7699 33.9324 30.7099 34.0107 30.6548L38.5147 39.5573C38.62 39.7642 38.8318 39.8928 39.0608 39.8928C39.0816 39.8928 39.1024 39.8916 39.1245 39.8891C39.3767 39.8634 39.5874 39.6834 39.6523 39.4385L41.0336 34.2843L46.1877 35.6656C46.4326 35.7305 46.6935 35.6387 46.8416 35.433C46.991 35.2272 46.9972 34.9517 46.8588 34.7386L41.4009 26.386C41.5748 26.2611 41.7708 26.1619 41.9924 26.0945L43.0296 25.7761C44.6166 25.29 45.5705 23.6405 45.202 22.0229L44.957 20.9477C44.8064 20.2852 44.9705 19.6729 45.4334 19.1758L46.1718 18.3823C47.3021 17.1675 47.3045 15.2633 46.1755 14.0461L45.426 13.2379C44.9644 12.7395 44.8003 12.1272 44.9534 11.466L45.1958 10.4092C45.5681 8.79154 44.6166 7.14207 43.0308 6.65225L41.9777 6.32651C41.3287 6.12569 40.8805 5.6775 40.6821 5.02849L40.3637 3.99129C39.8776 2.40426 38.2293 1.45033 36.6105 1.82015L35.5353 2.06506C34.8728 2.21568 34.2606 2.05159 33.7634 1.58871L32.9699 0.849078C31.7551 -0.281187 29.8509 -0.283636 28.6337 0.845404L27.8255 1.59483C27.3283 2.05649 26.7148 2.22058 26.0536 2.06751L24.9968 1.82382C23.3792 1.45278 21.7297 2.40304 21.2399 3.98884L20.9141 5.04196C20.7133 5.69097 20.2651 6.13916 19.6161 6.33753L18.5789 6.65592C16.9919 7.14207 16.0379 8.79154 16.4065 10.4092L16.6514 11.4843C16.8021 12.1468 16.638 12.7591 16.1751 13.2563L15.4355 14.0498C14.3052 15.2645 14.3027 17.1687 15.4318 18.3859L16.1812 19.1941C16.6429 19.6925 16.807 20.3048 16.6539 20.9673L16.4114 22.0241C16.0392 23.6417 16.9906 25.2912 18.5752 25.781L19.6283 26.1068C19.8439 26.1729 20.0349 26.2696 20.2051 26.3896L14.7485 34.7399C14.6101 34.9529 14.6162 35.2285 14.7656 35.4342C14.915 35.6399 15.1746 35.7318 15.4195 35.6669L20.5737 34.2856L21.955 39.4397C22.0211 39.6846 22.2305 39.8646 22.4828 39.8904C22.5036 39.8928 22.5256 39.894 22.5465 39.894C22.7754 39.894 22.9873 39.7654 23.0926 39.5585L27.599 30.6523C27.6822 30.7099 27.7631 30.7748 27.8414 30.847L28.6349 31.5854C29.2436 32.1512 30.0236 32.4353 30.8049 32.434C31.5837 32.434 32.3625 32.1524 32.9711 31.5891L33.783 30.8384ZM40.7605 32.9422C40.4335 32.8541 40.098 33.0488 40.0111 33.3757L38.8857 37.5747L35.2133 30.3156C35.3259 30.3229 35.441 30.3388 35.5574 30.3658L36.6141 30.6094C38.2306 30.9817 39.8813 30.0302 40.3711 28.4444L40.6638 27.4954L44.9595 34.0688L40.7605 32.9422ZM22.7277 37.5747L21.6023 33.3757C21.5154 33.0488 21.1786 32.8565 20.8529 32.9422L16.6539 34.0676L20.9533 27.4881L21.246 28.442C21.7321 30.029 23.3816 30.9829 24.9992 30.6143L26.0744 30.3694C26.1834 30.3449 26.2924 30.329 26.3977 30.3217L22.7277 37.5747ZM32.1421 30.6903C31.3804 31.3956 30.233 31.3956 29.4725 30.6878L28.679 29.9494C28.0717 29.3837 27.332 29.0898 26.5446 29.0898C26.3009 29.0898 26.0524 29.1179 25.8013 29.1755L24.7262 29.4204C23.7135 29.6506 22.7203 29.0763 22.4154 28.0832L22.097 27.046C21.7787 26.0063 21.0305 25.2569 19.992 24.9361L18.9389 24.6104C17.947 24.3042 17.3739 23.3099 17.6066 22.2972L17.8491 21.2404C18.0927 20.1811 17.8197 19.1586 17.08 18.3602L16.3306 17.552C15.624 16.7903 15.6253 15.6429 16.3331 14.8825L17.0727 14.089C17.8136 13.293 18.0879 12.2705 17.8466 11.2113L17.6017 10.1361C17.3715 9.1234 17.9458 8.13028 18.9389 7.82537L19.9761 7.50699C21.0158 7.1886 21.7652 6.4404 22.086 5.40197L22.4118 4.34886C22.7179 3.35697 23.7122 2.78387 24.7249 3.01654L25.7817 3.26023C26.8422 3.50391 27.8647 3.23084 28.6619 2.49121L29.4701 1.74178C30.2318 1.03521 31.3792 1.03643 32.1396 1.74423L32.9331 2.48386C33.7291 3.22471 34.7504 3.49902 35.8108 3.25778L36.886 3.01287C37.8987 2.78143 38.8918 3.35697 39.1967 4.35008L39.5151 5.38728C39.8335 6.42693 40.5817 7.17636 41.6201 7.49719L42.6732 7.82292C43.6651 8.12906 44.2382 9.1234 44.0056 10.1361L43.7631 11.1929C43.5194 12.2521 43.7925 13.2759 44.5321 14.0731L45.2815 14.8813C45.9881 15.6429 45.9869 16.7903 45.2791 17.5496L44.5407 18.3431C43.7998 19.139 43.5243 20.1615 43.7668 21.2208L44.0117 22.2959C44.2419 23.3086 43.6676 24.3018 42.6745 24.6067L41.6373 24.9251C40.5976 25.2434 39.8482 25.9916 39.5274 27.0301L39.2016 28.0832C38.8955 29.0751 37.9012 29.6482 36.8885 29.4155L35.8317 29.1718C34.7724 28.9281 33.7499 29.2012 32.9515 29.9408L32.1421 30.6903ZM41.1719 16.216C41.1719 10.4998 36.5223 5.85016 30.8061 5.85016C25.0899 5.85016 20.4402 10.4998 20.4402 16.216C20.4402 21.9322 25.0899 26.5819 30.8061 26.5819C36.5223 26.5819 41.1719 21.9322 41.1719 16.216ZM30.8061 25.3573C25.7658 25.3573 21.6648 21.2563 21.6648 16.216C21.6648 11.1758 25.7658 7.07472 30.8061 7.07472C35.8464 7.07472 39.9474 11.1758 39.9474 16.216C39.9474 21.2563 35.8464 25.3573 30.8061 25.3573ZM37.9514 13.8294C37.8289 13.4534 37.4824 13.2012 37.0868 13.2012H37.0856L32.9442 13.2097L31.6706 9.26667C31.5494 8.89073 31.2016 8.63725 30.8061 8.63725C30.4106 8.63725 30.0628 8.89073 29.9415 9.26667L28.6692 13.2085L24.5266 13.1999H24.5253C24.131 13.1999 23.7833 13.4522 23.6608 13.8281C23.5383 14.2053 23.6718 14.6131 23.9927 14.8457L27.3479 17.274L26.0609 21.211C25.9385 21.5869 26.0707 21.9959 26.3916 22.2286C26.552 22.3449 26.7393 22.4025 26.9267 22.4025C27.114 22.4025 27.3014 22.3437 27.4606 22.2274L30.8061 19.7868L34.1528 22.2274C34.4724 22.46 34.9022 22.46 35.2218 22.2274C35.5427 21.9947 35.6749 21.5857 35.5525 21.2098L34.2654 17.2728L37.6207 14.8445C37.9403 14.6143 38.0738 14.2053 37.9514 13.8294ZM33.3605 16.4169C33.0397 16.6495 32.9062 17.0585 33.0299 17.4357L34.0854 20.6624L31.3424 18.6615C31.182 18.5451 30.9947 18.4864 30.8073 18.4864C30.62 18.4864 30.4314 18.5451 30.271 18.6615L27.5279 20.6624L28.5835 17.4357C28.7072 17.0585 28.5737 16.6495 28.2529 16.4169L25.5025 14.4269L28.897 14.4331H28.8982C29.2938 14.4331 29.6415 14.1808 29.7628 13.8036L30.8061 10.5733L31.8494 13.8036C31.9706 14.1808 32.3184 14.4331 32.7152 14.4331H32.7164L36.1109 14.4269L33.3605 16.4169ZM27.272 53.7217V49.6623C27.272 44.2951 23.5665 42.8562 20.7268 42.2562L15.0154 38.9585C13.8374 38.2776 12.3545 38.585 11.5316 39.6197L7.25176 32.2075C5.25451 28.7493 2.82132 29.3653 1.86739 29.7914C1.40328 29.9984 1.04816 30.3927 0.89142 30.8727C0.735901 31.3528 0.792231 31.8805 1.04571 32.3214L7.86159 44.1273C8.94287 45.9997 10.318 47.3761 12.1916 48.4573L14.5268 49.8056C15.6694 50.4644 16.3233 51.5996 16.3233 52.9184V53.7242C15.4404 53.8576 14.762 54.6193 14.762 55.5377V58.1632C14.762 59.1759 15.5861 60 16.5988 60H26.9965C28.0092 60 28.8333 59.1759 28.8333 58.1632V55.5377C28.8333 54.6156 28.1537 53.8552 27.272 53.7217ZM15.1391 48.7427L12.8039 47.3944C11.125 46.4246 9.8919 45.1914 8.92205 43.5126L2.10618 31.7066C2.02413 31.5646 2.00576 31.4017 2.05597 31.2487C2.10618 31.0956 2.21516 30.9744 2.36578 30.907C3.35278 30.4662 4.81857 30.4405 6.1913 32.8173L10.9524 41.0647C10.8617 42.0848 11.3552 43.1146 12.2994 43.6595L16.6649 46.1797C16.9576 46.3487 17.3323 46.2482 17.5013 45.9556C17.6703 45.6629 17.5699 45.2882 17.2772 45.1192L12.9117 42.5991C12.2002 42.1876 11.9553 41.2741 12.3655 40.5626C12.777 39.8512 13.6905 39.6063 14.4019 40.0165L20.199 43.3632C20.2553 43.3963 20.3178 43.4195 20.3814 43.433C23.0191 43.9767 26.0462 45.1768 26.0462 49.6611V53.6984H17.5478V52.9159C17.5478 51.1477 16.6698 49.6268 15.1391 48.7427ZM27.6088 58.1595C27.6088 58.4975 27.3345 58.7718 26.9965 58.7718H16.5988C16.2608 58.7718 15.9865 58.4975 15.9865 58.1595V55.534C15.9865 55.1961 16.2608 54.9218 16.5988 54.9218H26.9965C27.3345 54.9218 27.6088 55.1961 27.6088 55.534V58.1595ZM60.7207 30.8715C60.5652 30.3915 60.2089 29.9972 59.7448 29.7902C58.7908 29.3641 56.3564 28.7481 54.3604 32.2063L50.0806 39.6185C49.2589 38.5825 47.776 38.2764 46.5967 38.9572L40.8854 42.255C38.0457 42.855 34.3401 44.2939 34.3401 49.6611V53.7205C33.4572 53.854 32.7788 54.6156 32.7788 55.534V58.1595C32.7788 59.1722 33.603 59.9963 34.6157 59.9963H45.0134C46.0261 59.9963 46.8502 59.1722 46.8502 58.1595V55.534C46.8502 54.6144 46.1706 53.854 45.2889 53.7205V52.9147C45.2889 51.5959 45.944 50.4619 47.0853 49.8019L49.4205 48.4537C51.2929 47.3724 52.6693 45.9972 53.7506 44.1236L60.5665 32.3177C60.8199 31.8805 60.8763 31.3528 60.7207 30.8715ZM45.6256 55.5353V58.1607C45.6256 58.4987 45.3513 58.773 45.0134 58.773H34.6157C34.2777 58.773 34.0034 58.4987 34.0034 58.1607V55.5353C34.0034 55.1973 34.2777 54.923 34.6157 54.923H45.0134C45.3513 54.923 45.6256 55.1973 45.6256 55.5353ZM59.5048 31.7079L52.6889 43.5138C51.719 45.1927 50.4859 46.4258 48.807 47.3957L46.4718 48.7439C44.9411 49.628 44.0631 51.1489 44.0631 52.9172V53.6997H35.5647V49.6623C35.5647 45.178 38.5918 43.9791 41.2295 43.4342C41.2932 43.4207 41.3556 43.3975 41.412 43.3644L47.209 40.0177C47.9205 39.6063 48.834 39.8512 49.2454 40.5639C49.4438 40.9067 49.4952 41.3084 49.3924 41.6941C49.2883 42.0799 49.0434 42.4019 48.7005 42.6003L44.335 45.1204C44.0423 45.2894 43.9419 45.6641 44.1109 45.9568C44.2799 46.2495 44.6546 46.3499 44.9472 46.1809L49.3128 43.6608C49.9385 43.2995 50.3867 42.713 50.5753 42.0113C50.6598 41.6978 50.6867 41.3794 50.6598 41.0659L55.4209 32.8185C56.7936 30.4417 58.2582 30.4674 59.2464 30.9082C59.397 30.9756 59.506 31.0968 59.5562 31.2499C59.6052 31.403 59.588 31.5658 59.5048 31.7079Z" fill="white"/>
</svg>
