<svg width="61" height="60" viewBox="0 0 61 60" fill="none" xmlns="http://www.w3.org/2000/svg">
<path d="M43.3748 39.5298H31.5066C31.1253 39.5298 30.8158 39.2203 30.8158 38.839V34.013C30.8158 33.6316 31.1253 33.3221 31.5066 33.3221H43.3748C43.7561 33.3221 44.0656 33.6316 44.0656 34.013V38.839C44.0656 39.2203 43.7561 39.5298 43.3748 39.5298ZM32.1974 38.1482H42.684V34.7038H32.1974V38.1482Z" fill="white"/>
<path d="M34.8971 34.7038C34.5158 34.7038 34.2063 34.3943 34.2063 34.013V6.15932C34.2063 5.77799 34.5158 5.46851 34.8971 5.46851C35.2785 5.46851 35.588 5.77799 35.588 6.15932V34.013C35.588 34.3943 35.2785 34.7038 34.8971 34.7038Z" fill="white"/>
<path d="M39.9843 34.7038C39.603 34.7038 39.2935 34.3943 39.2935 34.013V6.15932C39.2935 5.77799 39.603 5.46851 39.9843 5.46851C40.3656 5.46851 40.6751 5.77799 40.6751 6.15932V34.013C40.6751 34.3943 40.3656 34.7038 39.9843 34.7038Z" fill="white"/>
<path d="M37.4407 8.03279C35.226 8.03279 33.4243 6.23115 33.4243 4.0164C33.4243 1.80164 35.226 0 37.4407 0C39.6555 0 41.4571 1.80164 41.4571 4.0164C41.4571 6.23115 39.6555 8.03279 37.4407 8.03279ZM37.4407 1.38163C35.9872 1.38163 34.8059 2.5643 34.8059 4.0164C34.8059 5.46987 35.9886 6.65116 37.4407 6.65116C38.8928 6.65116 40.0755 5.46849 40.0755 4.0164C40.0755 2.5643 38.8942 1.38163 37.4407 1.38163Z" fill="white"/>
<path d="M34.4246 6.10955H17.9266C17.5453 6.10955 17.2358 5.80007 17.2358 5.41874V2.61403C17.2358 2.2327 17.5453 1.92322 17.9266 1.92322H34.4246C34.8059 1.92322 35.1154 2.2327 35.1154 2.61403C35.1154 2.99536 34.8059 3.30485 34.4246 3.30485H18.6174V4.72654H34.4246C34.8059 4.72654 35.1154 5.03603 35.1154 5.41736C35.1154 5.79869 34.8059 6.10955 34.4246 6.10955Z" fill="white"/>
<path d="M56.9548 6.10955H40.4568C40.0755 6.10955 39.766 5.80007 39.766 5.41874C39.766 5.03741 40.0755 4.72792 40.4568 4.72792H56.264V3.30485H40.4568C40.0755 3.30485 39.766 2.99536 39.766 2.61403C39.766 2.2327 40.0755 1.92322 40.4568 1.92322H56.9548C57.3362 1.92322 57.6457 2.2327 57.6457 2.61403V5.41736C57.6457 5.80007 57.3362 6.10955 56.9548 6.10955Z" fill="white"/>
<path d="M23.8082 30.2964C18.7542 30.2964 14.6411 26.6806 14.6411 22.2373C14.6411 21.856 14.9506 21.5465 15.3319 21.5465H32.2831C32.6644 21.5465 32.9739 21.856 32.9739 22.2373C32.9739 26.6806 28.8622 30.2964 23.8082 30.2964ZM16.0642 22.9268C16.469 26.2855 19.7876 28.9134 23.8082 28.9134C27.8287 28.9134 31.1474 26.2855 31.5522 22.9268H16.0642Z" fill="white"/>
<path d="M29.6939 22.9267C29.4079 22.9267 29.1413 22.7485 29.0418 22.4639L23.8082 7.50912L18.5732 22.4639C18.4475 22.8245 18.0537 23.0138 17.6931 22.888C17.3325 22.7623 17.1432 22.3685 17.2689 22.0079L23.1547 5.19075C23.2514 4.91304 23.5125 4.72791 23.8068 4.72791C24.1011 4.72791 24.3622 4.91304 24.4589 5.19075L30.3447 22.0079C30.4704 22.3685 30.2811 22.7623 29.9205 22.888C29.8473 22.9143 29.7699 22.9267 29.6939 22.9267Z" fill="white"/>
<path d="M51.0732 30.2964C46.0192 30.2964 41.9061 26.6806 41.9061 22.2373C41.9061 21.856 42.2156 21.5465 42.597 21.5465H59.5482C59.9295 21.5465 60.239 21.856 60.239 22.2373C60.2404 26.6806 56.1286 30.2964 51.0732 30.2964ZM43.3306 22.9268C43.7354 26.2855 47.0541 28.9134 51.0746 28.9134C55.0952 28.9134 58.4138 26.2855 58.8187 22.9268H43.3306Z" fill="white"/>
<path d="M56.9604 22.9267C56.6744 22.9267 56.4077 22.7485 56.3082 22.4639L51.0732 7.50912L45.8396 22.4639C45.7139 22.8245 45.3188 23.0138 44.9595 22.888C44.5989 22.7623 44.4097 22.3685 44.5354 22.0079L50.4211 5.19075C50.5178 4.91304 50.779 4.72791 51.0732 4.72791C51.3675 4.72791 51.6287 4.91304 51.7254 5.19075L57.6111 22.0079C57.7368 22.3685 57.5476 22.7623 57.187 22.888C57.1123 22.9143 57.035 22.9267 56.9604 22.9267Z" fill="white"/>
<path d="M30.0863 59.9999C27.4474 59.9999 25.1415 58.6459 19.4768 55.319C18.5469 54.7732 17.5231 54.1722 16.3902 53.5132C16.1857 53.3944 15.9785 53.2686 15.7699 53.1415C14.4849 52.3595 13.2719 51.6204 11.9566 52.144C11.6029 52.2849 11.2008 52.1122 11.0599 51.7571C10.919 51.4021 11.0917 51.0014 11.4467 50.8591C13.4031 50.0798 15.1136 51.123 16.4897 51.9602C16.69 52.0818 16.8876 52.2034 17.0852 52.3181C18.2209 52.9785 19.246 53.5795 20.1773 54.1266C24.7435 56.8084 27.0357 58.1541 29.0017 58.5133C30.9167 58.8629 32.7197 58.2784 36.3105 57.1151C38.5736 56.3815 41.3908 55.4682 45.3616 54.4043L56.6799 51.3717C57.6305 51.1174 58.4277 50.5026 58.9237 49.6433C59.4197 48.7839 59.5537 47.7863 59.2981 46.8358C59.0439 45.8852 58.429 45.088 57.5697 44.592C56.7103 44.096 55.7128 43.9634 54.7622 44.2176L39.3004 48.3611C39.2216 48.8778 39.0462 49.3807 38.7767 49.8464C37.5982 51.8884 34.9773 52.5903 32.9352 51.4117L23.7985 46.1367C23.4683 45.946 23.355 45.5232 23.5457 45.193C23.7363 44.8628 24.1591 44.7495 24.4893 44.9402L33.626 50.2152C35.0077 51.0124 36.7817 50.5385 37.5803 49.1555C37.8165 48.7466 37.9464 48.2948 37.9643 47.8333C37.9643 47.8112 37.9643 47.7877 37.9657 47.7656C37.9699 47.4976 37.9367 47.2268 37.8649 46.9601C37.6645 46.2113 37.1865 45.5868 36.5205 45.2013L27.3838 39.9263C26.0602 39.1622 24.8679 38.4078 23.7142 37.6797C18.2209 34.2063 14.5913 31.9114 7.47871 35.2674C7.1333 35.4304 6.72158 35.2826 6.55854 34.9372C6.39551 34.5918 6.54335 34.1801 6.88875 34.017C14.688 30.3378 18.9973 33.0623 24.452 36.5109C25.5932 37.2335 26.7745 37.9795 28.0733 38.7298L37.21 44.0048C38.1951 44.5741 38.9011 45.4956 39.1981 46.6023C39.2285 46.7128 39.2534 46.8247 39.2741 46.9366L54.403 42.8829C55.71 42.5334 57.0792 42.7144 58.2591 43.3955C59.439 44.0767 60.2804 45.1709 60.6313 46.4779C61.3567 49.1859 59.7443 51.9796 57.035 52.7063L45.7167 55.739C41.7804 56.7932 38.9826 57.7009 36.7347 58.429C33.6854 59.4183 31.8133 59.9999 30.0863 59.9999Z" fill="white"/>
<path d="M8.72908 56.8015C8.04932 56.8015 7.37785 56.6233 6.77131 56.2724C5.86358 55.7474 5.21422 54.9046 4.9448 53.896L0.133968 35.9458C-0.13545 34.9386 0.00409445 33.8831 0.529113 32.974C1.05413 32.0649 1.89693 31.4155 2.90552 31.1461L6.02385 30.3116C6.2007 30.2646 6.38998 30.2895 6.54749 30.3806C6.70638 30.4718 6.82243 30.6224 6.86941 30.8007L13.3506 54.9861C13.3976 55.1629 13.3727 55.3522 13.2815 55.5097C13.1904 55.6672 13.0384 55.7847 12.8615 55.8316L9.7432 56.6675C9.40884 56.7573 9.06758 56.8015 8.72908 56.8015ZM5.71299 31.8244L3.26198 32.4807C2.61123 32.6548 2.06549 33.0762 1.7256 33.6648C1.38572 34.2534 1.29454 34.9373 1.46862 35.588L6.27807 53.5381C6.45216 54.1889 6.87355 54.7346 7.46213 55.0759C8.0507 55.4158 8.73461 55.5069 9.38535 55.3329L11.8364 54.6766L5.71299 31.8244Z" fill="white"/>
</svg>
