<svg width="61" height="60" viewBox="0 0 61 60" fill="none" xmlns="http://www.w3.org/2000/svg">
<path d="M22.8067 0C16.1913 0 10.805 5.38823 10.805 12.0037C10.805 12.3867 10.8226 12.765 10.848 13.1482C10.8593 14.5583 13.0091 14.4215 12.8421 13.0212C12.8193 12.6679 12.8049 12.3298 12.8049 12.0037C12.8049 6.46912 17.2721 2.00185 22.8067 2.00185C28.3414 2.00185 32.8007 6.46908 32.8007 12.0037C32.8007 13.2399 32.6318 14.5905 32.3144 15.988C32.0978 16.0107 31.8788 16.0503 31.6679 16.1169C31.2912 14.8869 30.1449 13.9959 28.8008 13.9959C27.1215 13.9959 25.8047 12.6791 25.8047 10.9998C25.8127 10.4387 25.3541 9.98171 24.793 9.98802C24.2406 9.99558 23.7985 10.4473 23.8048 10.9998C23.8048 12.679 22.486 13.9959 20.8068 13.9959H16.8049C15.4608 13.9959 14.3223 14.9104 13.9455 16.1404C13.3599 15.956 12.7355 15.937 12.1702 16.0855C10.9507 16.406 9.85797 17.4861 9.80888 18.982C9.80888 21.871 11.9103 23.7546 14.3069 23.9702C14.8127 25.4238 15.6839 26.6852 16.8049 27.6928V29.9995C16.8029 29.9995 16.8009 29.9995 16.7989 29.9995C16.5354 30.0016 16.2835 30.1075 16.0977 30.2942L14.0958 32.2961C13.8353 32.5569 13.7393 32.9395 13.8458 33.2922L20.2656 54.1474L12.8946 44.7666L13.7755 41.2414C13.8603 40.9005 13.7603 40.5403 13.5118 40.2921L10.9064 37.6867L11.8692 33.5793C12.0164 32.9521 11.5408 32.3514 10.8966 32.3508C10.8156 32.3508 10.735 32.3621 10.6564 32.381C4.98546 33.7828 0.805124 38.9001 0.805084 45.0001V58.9999C0.805144 59.5521 1.25282 59.9998 1.80507 59.9999H38.8046C40.1569 60.0188 40.1569 57.9807 38.8046 57.9999H24.8634L34.5917 45.6171C34.7823 45.3745 34.85 45.0573 34.7753 44.7579L33.9121 41.3068L36.5117 38.7071C36.7478 38.4709 36.8503 38.1324 36.7851 37.8048L36.2167 34.9357C37.9093 35.6578 39.4266 36.8331 40.5702 38.338C41.3787 39.3916 42.9623 38.1883 42.1639 37.1271C40.4142 34.8244 38.0438 33.2016 35.1347 32.4826C34.4226 32.3065 33.7694 32.9314 33.914 33.6506L34.7187 37.672L32.0977 40.293C31.8492 40.5413 31.7491 40.9015 31.834 41.2423L32.7148 44.7675L25.3419 54.1522L31.7617 33.2931C31.8678 32.9401 31.7707 32.5573 31.5098 32.2971L29.5098 30.2952C29.3218 30.107 29.0667 30.0019 28.8008 30.0022V27.6976C29.9231 26.6895 30.7951 25.4346 31.3008 23.9789C33.731 23.796 35.8066 21.8714 35.8066 18.9828C35.7688 17.8308 35.1103 16.9346 34.2558 16.4322C34.5992 14.9217 34.8027 13.423 34.8027 12.0045C34.8027 5.38904 29.4223 0 22.8067 0ZM24.8048 14.0018C25.7171 15.226 27.1624 15.9958 28.8008 15.9959C29.3722 15.9959 29.8047 16.4305 29.8047 17.0018V21.0016C29.8047 24.8969 26.702 27.9996 22.8067 27.9996C18.9115 27.9996 15.801 24.8969 15.801 21.0016V17.0018C15.801 16.4305 16.2336 15.9959 16.8049 15.9959H20.8068C22.4456 15.9958 23.8925 15.2266 24.8048 14.0018ZM13.801 18.3357V21.0016C13.801 21.2885 13.8177 21.5713 13.844 21.8512C12.7272 21.5205 11.8167 20.5768 11.8167 19.0154C11.8167 17.9765 13.3649 17.6726 13.801 18.3357ZM33.7988 19.0232C33.7988 20.5082 32.8797 21.5238 31.7617 21.8533C31.7881 21.5729 31.8047 21.2892 31.8047 21.0018V18.3397C32.2644 17.6615 33.7988 17.9825 33.7988 19.0232ZM26.8086 29.0563V31.359L22.8067 34.6949L18.8068 31.361V29.0583C20.0118 29.6589 21.369 29.9996 22.8067 29.9996C24.2461 29.9996 25.6034 29.658 26.8086 29.0563ZM16.8654 32.3551L21.1681 35.939L17.549 38.523L15.9357 33.277L16.8654 32.3551ZM28.7422 32.3551L29.6719 33.277L28.0586 38.5211L24.4395 35.9371L28.7422 32.3551ZM9.512 34.8628L8.83232 37.771C8.75303 38.1077 8.85353 38.4617 9.09795 38.7065L11.6975 41.3062L10.8343 44.7573C10.7596 45.0566 10.8273 45.3738 11.0178 45.6166L20.7462 57.9992H9.80888V51.0012C9.82018 50.4343 9.35632 49.9711 8.78936 49.9817C8.23685 49.9931 7.7966 50.4488 7.80695 51.0012V57.9992H2.80507V44.9994C2.80507 40.4598 5.62313 36.5517 9.512 34.8628ZM54.3376 42.8334L50.8884 50.595C50.8332 50.7231 50.8064 50.8619 50.8083 51.0014C50.8083 51.0014 50.7932 52.2061 51.4118 53.4446C52.0311 54.6831 53.3274 55.9973 55.8043 55.9973C58.2812 55.9973 59.5757 54.6831 60.1949 53.4446C60.8143 52.2061 60.8003 51.0014 60.8003 51.0014C60.8023 50.8619 60.7739 50.7231 60.7203 50.595L57.2691 42.8276C57.8286 42.701 58.8497 42.3429 59.5093 41.7065C60.4016 40.8458 59.1249 39.3434 58.1012 40.2885C57.7327 40.6287 56.732 40.9975 55.8024 40.9975C53.2774 40.9597 52.1753 39.2654 48.8044 39.0445V36.9976C48.8123 36.445 48.3705 35.9919 47.8181 35.9859V35.9821C47.8102 35.982 47.8064 35.9784 47.8026 35.9784C47.2501 35.9859 46.8101 36.4376 46.8163 36.99V39.0369C43.4454 39.258 42.3433 40.9534 39.8183 40.99C38.8886 40.99 37.8882 40.6215 37.5195 40.281C36.4958 39.3359 35.219 40.8381 36.1113 41.6989C36.771 42.3353 37.7921 42.6934 38.3516 42.82L34.9004 50.5875C34.8452 50.7156 34.8188 50.8544 34.8203 50.9937C34.8203 50.9937 34.8052 52.1985 35.4258 53.437C36.045 54.6755 37.3394 55.9898 39.8164 55.9898C42.2933 55.9898 43.5896 54.6755 44.2089 53.437C44.8281 52.1985 44.8124 50.9937 44.8124 50.9937C44.8144 50.8543 44.7859 50.7156 44.7323 50.5875L41.2831 42.8259C43.3279 42.5013 44.5289 40.9951 47.8026 40.9938C51.0889 40.9976 52.2893 42.5082 54.3376 42.8334ZM22.8048 37.2299L24.3712 38.3491L23.2716 40.0033H22.3419L21.2384 38.3491L22.8048 37.2299ZM19.6115 39.5111L20.754 41.226L19.9181 46.2279L18.1701 40.5404L19.6115 39.5111ZM26.002 39.5132L27.4375 40.5386L25.6895 46.2182L24.8575 41.2299L26.002 39.5132ZM22.6505 42.0034H22.9591L24.3731 50.4955L22.8009 55.6009L21.2345 50.5071L22.6505 42.0034ZM47.8142 42.976C47.3141 42.976 46.8162 43.3093 46.8162 43.976V57.9914H42.7655C41.4154 58.0833 41.5073 60.0245 42.8124 59.9914H47.8025V59.9989H52.8083C54.1133 60.033 54.2053 58.0907 52.8552 57.9989H48.8044V43.9836C48.8044 43.3221 48.3142 42.9908 47.8181 42.9855V42.9741L47.8142 42.976ZM39.8163 44.4526L42.2733 49.9876H37.3612L39.8163 44.4526ZM55.8043 44.4602L58.2594 49.9952H53.3473L55.8043 44.4602ZM36.996 51.9894H42.6385C42.6385 51.9894 42.2859 53.9892 39.8182 53.9892C37.3504 53.9892 36.996 51.9894 36.996 51.9894ZM52.9821 51.9969H58.6246C58.6246 51.9969 58.2701 53.9969 55.8024 53.9969C53.3346 53.9969 52.9821 51.9969 52.9821 51.9969Z" fill="white"/>
</svg>
