<svg width="63" height="62" viewBox="0 0 63 62" fill="none" xmlns="http://www.w3.org/2000/svg">
<path d="M17.8506 25.0583C12.6883 24.5713 11.2273 24.5713 6.06494 25.0583V12.4934C11.2273 13.0778 12.6883 13.0778 17.8506 12.4934V25.0583Z" stroke="white" stroke-width="2" stroke-miterlimit="10" stroke-linecap="round" stroke-linejoin="round"/>
<path d="M3.53246 27.5908C4.9935 27.5908 6.06492 26.422 6.06492 25.0583V12.5908C6.06492 11.1298 4.8961 10.0583 3.53246 10.0583C2.07143 10.0583 1 11.2272 1 12.5908V25.0583C1 26.422 2.16883 27.5908 3.53246 27.5908Z" stroke="white" stroke-width="2" stroke-miterlimit="10" stroke-linecap="round" stroke-linejoin="round"/>
<path d="M20.4805 27.5908C21.9416 27.5908 23.013 26.422 23.013 25.0583V12.5908C23.013 11.1298 21.8442 10.0583 20.4805 10.0583C19.0195 10.0583 17.9481 11.2272 17.9481 12.5908V25.0583C17.8507 26.422 19.0195 27.5908 20.4805 27.5908Z" stroke="white" stroke-width="2" stroke-miterlimit="10" stroke-linecap="round" stroke-linejoin="round"/>
<path d="M9.57129 25.0581V50.9671C9.57129 52.3308 10.6427 53.4022 12.0063 53.4022C13.37 53.4022 14.4414 52.3308 14.4414 50.9671V25.0581" stroke="white" stroke-width="2" stroke-miterlimit="10" stroke-linecap="round" stroke-linejoin="round"/>
<path d="M26.4224 52.0388H44.1496C46.6821 52.0388 48.6301 54.0843 48.6301 56.5193C48.6301 59.0518 46.5847 60.9998 44.1496 60.9998H24.3769C21.5523 60.9998 19.312 58.7596 19.312 55.9349V46.9739" stroke="white" stroke-width="2" stroke-miterlimit="10" stroke-linecap="round" stroke-linejoin="round"/>
<path d="M61.3904 60.9999V40.448C61.3904 37.2337 59.2475 34.3116 56.1306 33.3376L46.6826 29.7337V25.3506" stroke="white" stroke-width="2" stroke-miterlimit="10" stroke-linecap="round" stroke-linejoin="round"/>
<path d="M51.1629 11.6169V18.8246C51.1629 21.4545 49.5071 23.7922 46.9746 24.6688L43.8577 25.7402C41.7149 26.5194 39.2798 26.5194 37.137 25.7402L34.1175 24.6688C31.585 23.7922 29.9292 21.4545 29.9292 18.8246V11.6169C29.9292 5.77272 34.7019 1 40.5461 1C46.4876 1 51.1629 5.77272 51.1629 11.6169Z" stroke="white" stroke-width="2" stroke-miterlimit="10" stroke-linecap="round" stroke-linejoin="round"/>
<path d="M45.4162 2.16895L30.3188 9.86373" stroke="white" stroke-width="2" stroke-miterlimit="10" stroke-linecap="round" stroke-linejoin="round"/>
<path d="M39.8643 9.96095L49.1175 5.18823" stroke="white" stroke-width="2" stroke-miterlimit="10" stroke-linecap="round" stroke-linejoin="round"/>
<path d="M29.9292 9.96118H51.2603V14.4417H29.9292V9.96118Z" stroke="white" stroke-width="2" stroke-miterlimit="10" stroke-linecap="round" stroke-linejoin="round"/>
<path d="M24.1821 33.7271V60.9998H40.5457L29.9289 31.9739" stroke="white" stroke-width="2" stroke-miterlimit="10" stroke-linecap="round" stroke-linejoin="round"/>
<path d="M53.3047 47.4609V60.9999" stroke="white" stroke-width="2" stroke-miterlimit="10" stroke-linecap="round" stroke-linejoin="round"/>
<path d="M19.312 46.9741V40.4481C19.312 37.2339 21.4549 34.3118 24.5717 33.3378L34.0198 29.7339V24.6689" stroke="white" stroke-width="2" stroke-miterlimit="10" stroke-linecap="round" stroke-linejoin="round"/>
<path d="M44.8306 39.6689H52.428" stroke="white" stroke-width="2" stroke-miterlimit="10" stroke-linecap="round" stroke-linejoin="round"/>
</svg>
