<svg width="60" height="60" viewBox="0 0 60 60" fill="none" xmlns="http://www.w3.org/2000/svg">
<path d="M55.5319 9.21236H41.5787V5.2343C41.5787 3.84607 41.108 2.51471 40.2701 1.53309C39.4321 0.551469 38.2956 0 37.1106 0H22.8894C21.7044 0 20.5679 0.551469 19.7299 1.53309C18.892 2.51471 18.4213 3.84607 18.4213 5.2343V9.21236H4.46808C3.28308 9.21236 2.1466 9.76383 1.30867 10.7455C0.470743 11.7271 0 13.0584 0 14.4467V54.7657C0 56.1539 0.470743 57.4853 1.30867 58.4669C2.1466 59.4485 3.28308 60 4.46808 60H55.5319C56.7169 60 57.8534 59.4485 58.6913 58.4669C59.5293 57.4853 60 56.1539 60 54.7657V14.4467C60 13.0584 59.5293 11.7271 58.6913 10.7455C57.8534 9.76383 56.7169 9.21236 55.5319 9.21236ZM20.9745 5.2343C20.9745 4.63934 21.1762 4.06876 21.5353 3.64806C21.8944 3.22737 22.3815 2.99103 22.8894 2.99103H37.1106C37.6185 2.99103 38.1056 3.22737 38.4647 3.64806C38.8238 4.06876 39.0255 4.63934 39.0255 5.2343V9.21236H20.9745V5.2343ZM2.55319 14.4467C2.55319 13.8517 2.75494 13.2811 3.11405 12.8604C3.47316 12.4397 3.96022 12.2034 4.46808 12.2034H55.5319C56.0398 12.2034 56.5268 12.4397 56.8859 12.8604C57.2451 13.2811 57.4468 13.8517 57.4468 14.4467V23.9731C57.4434 26.5738 56.56 29.0668 54.9903 30.9058C53.4205 32.7448 51.2923 33.7797 49.0723 33.7836H35.2404V29.1625C35.2404 28.7659 35.1059 28.3855 34.8665 28.105C34.6271 27.8246 34.3024 27.667 33.9638 27.667H26.0362C25.6976 27.667 25.3729 27.8246 25.1335 28.105C24.8941 28.3855 24.7596 28.7659 24.7596 29.1625V33.7836H10.9277C8.70765 33.7797 6.57953 32.7448 5.00975 30.9058C3.43996 29.0668 2.55657 26.5738 2.55319 23.9731V14.4467ZM32.6872 30.658V39.9003H27.3128V30.658H32.6872ZM57.4468 54.7657C57.4468 55.3607 57.2451 55.9312 56.8859 56.3519C56.5268 56.7726 56.0398 57.009 55.5319 57.009H4.46808C3.96022 57.009 3.47316 56.7726 3.11405 56.3519C2.75494 55.9312 2.55319 55.3607 2.55319 54.7657V32.1834C3.57689 33.6205 4.85756 34.7766 6.30465 35.5699C7.75175 36.3633 9.32994 36.7745 10.9277 36.7747H24.7596V41.3958C24.7596 41.7924 24.8941 42.1728 25.1335 42.4533C25.3729 42.7338 25.6976 42.8913 26.0362 42.8913H33.9638C34.3024 42.8913 34.6271 42.7338 34.8665 42.4533C35.1059 42.1728 35.2404 41.7924 35.2404 41.3958V36.7747H49.0723C50.6701 36.7745 52.2483 36.3633 53.6953 35.5699C55.1424 34.7766 56.4231 33.6205 57.4468 32.1834V54.7657Z" fill="white"/>
</svg>
