<svg width="60" height="60" viewBox="0 0 60 60" fill="none" xmlns="http://www.w3.org/2000/svg">
<path d="M60 40.8946V40.7975C60 40.4552 59.7672 40.1564 59.4349 40.073C56.1037 39.2403 53.7759 36.2639 53.7759 32.8369V28.8075C53.7759 24.3647 50.1622 20.751 45.7195 20.751C41.2768 20.751 37.6631 24.3647 37.6631 28.8075V32.8369C37.6631 34.805 36.8938 36.6548 35.527 38.0452C34.3481 35.9041 32.0701 34.449 29.4573 34.449C25.6407 34.449 22.5349 37.5548 22.5349 41.3714V43.0108C22.5349 43.3942 22.5672 43.7701 22.6282 44.1373C22.2809 43.978 21.9162 43.8473 21.539 43.749L17.156 42.6062V41.517C19.9456 40.068 21.8564 37.1539 21.8564 33.7992V29.4436C21.8564 24.6498 17.9564 20.7498 13.1627 20.7498C8.36888 20.7498 4.46888 24.6498 4.46888 29.4436V33.7992C4.46888 37.1539 6.37967 40.068 9.1693 41.517V42.6062L4.78631 43.749C1.92324 44.4959 0 46.9842 0 49.9419V59.2531C0 59.6651 0.334855 60 0.746888 60H18.4668H40.449H58.1353C58.5473 60 58.8822 59.6651 58.8822 59.2531V49.9419C58.8822 48.1929 58.2087 46.6071 57.0672 45.4494C58.8124 44.6602 60 42.9087 60 40.8946ZM43.2199 41.3888C44.0079 41.6465 44.8469 41.7884 45.7195 41.7884C46.5921 41.7884 47.4311 41.6477 48.2191 41.3888V43.1041C48.2191 44.4822 47.0975 45.6037 45.7195 45.6037C44.3415 45.6037 43.2199 44.4822 43.2199 43.1041V41.3888ZM45.7195 40.2934C42.1008 40.2934 39.1568 37.3494 39.1568 33.7307V32.034C39.5664 32.1261 39.9859 32.1747 40.4116 32.1747H40.7539C42.8353 32.1747 44.7112 31.0606 45.7195 29.2817C46.7278 31.0606 48.6037 32.1747 50.6851 32.1747H51.0274C51.4544 32.1747 51.8739 32.1261 52.2822 32.034V33.7307C52.2822 37.3494 49.3382 40.2934 45.7195 40.2934ZM45.7195 22.2448C49.3382 22.2448 52.2822 25.1888 52.2822 28.8075V30.4892C51.8776 30.6162 51.4568 30.6822 51.0274 30.6822H50.6851C48.9834 30.6822 47.41 29.6166 46.7701 28.0295C46.5959 27.5988 46.1838 27.3212 45.7195 27.3212C45.2552 27.3212 44.8432 27.5988 44.6689 28.0295C44.029 29.6154 42.4556 30.6822 40.7539 30.6822H40.4116C39.9809 30.6822 39.5614 30.6174 39.1568 30.4892V28.8075C39.1568 25.1888 42.1008 22.2448 45.7195 22.2448ZM38.2544 36.7531C38.9365 38.4324 40.1689 39.8303 41.7261 40.7228V42.6062L37.3432 43.749C36.9797 43.8436 36.6286 43.968 36.2913 44.1199C36.3498 43.7589 36.3809 43.388 36.3809 43.0108V41.3714C36.3809 40.734 36.2925 40.1178 36.1307 39.5328C37.027 38.7411 37.744 37.7963 38.2544 36.7531ZM26.9378 49.4577C27.7195 49.7639 28.5685 49.9344 29.4573 49.9344C30.3461 49.9344 31.1963 49.7639 31.978 49.4577V50.7187C31.978 52.1079 30.8477 53.2382 29.4585 53.2382C28.0693 53.2382 26.939 52.1079 26.939 50.7187V49.4577H26.9378ZM29.4573 48.4407C26.4635 48.4407 24.0286 46.0058 24.0286 43.012V42.8203C24.9112 42.0149 26.8506 41.2593 29.4573 41.2593C32.0639 41.2593 34.0033 42.0162 34.8859 42.8203V43.012C34.8871 46.0046 32.451 48.4407 29.4573 48.4407ZM29.4573 35.9427C32.3216 35.9427 34.673 38.1722 34.871 40.9855C33.4967 40.2137 31.566 39.7631 29.4573 39.7631C27.3485 39.7631 25.4178 40.2124 24.0436 40.9855C24.2427 38.1722 26.5942 35.9427 29.4573 35.9427ZM13.1627 22.2448C17.1324 22.2448 20.3627 25.4751 20.3627 29.4448V31.0307C19.9021 31.073 19.4365 31.0967 18.9722 31.0967C16.0842 31.0967 13.3307 30.2689 11.2183 28.7676C10.8921 28.5361 10.4415 28.6021 10.1963 28.917C9.23154 30.1544 7.67427 30.9324 5.9639 31.0556V29.4448C5.96266 25.4739 9.1917 22.2448 13.1627 22.2448ZM5.96266 33.8004V32.5519C7.88216 32.4398 9.66722 31.6481 10.9145 30.3622C13.19 31.8025 16.0232 32.5905 18.971 32.5905C19.4353 32.5905 19.8996 32.5681 20.3614 32.5295V33.8004C20.3614 37.7701 17.1311 41.0004 13.1614 41.0004C9.1917 41.0004 5.96266 37.7701 5.96266 33.8004ZM13.1627 42.4929C14.0315 42.4929 14.8705 42.3635 15.6622 42.1245V43.1029C15.6622 44.4809 14.5407 45.6025 13.1627 45.6025C11.7846 45.6025 10.6631 44.4809 10.6631 43.1029V42.1245C11.4548 42.3635 12.2938 42.4929 13.1627 42.4929ZM1.49378 49.9419C1.49378 47.6751 2.96764 45.7668 5.16224 45.1954L9.3 44.1174C9.74938 45.8303 11.3104 47.0975 13.1627 47.0975C15.0149 47.0975 16.5759 45.8303 17.0253 44.1174L21.1631 45.1954C22.0954 45.4382 22.9183 45.9311 23.5519 46.6195C24.0398 47.4162 24.6859 48.1058 25.444 48.6473V49.9021L22.8112 50.5058C19.8137 51.1929 17.7199 53.8207 17.7199 56.8967V58.5062H7.05436V53.9166C7.05436 53.5046 6.7195 53.1697 6.30747 53.1697C5.89544 53.1697 5.56058 53.5046 5.56058 53.9166V58.5062H1.49378V49.9419ZM39.7021 58.5062H19.2137V56.8954C19.2137 54.5203 20.8307 52.4913 23.1448 51.961L25.5062 51.4195C25.8386 53.2992 27.483 54.7319 29.4573 54.7319C31.4315 54.7319 33.0759 53.2992 33.4083 51.4195L35.7697 51.961C38.0838 52.4913 39.7008 54.5203 39.7008 56.8954V58.5062H39.7021ZM57.3884 58.5062H53.3216V53.9166C53.3216 53.5046 52.9867 53.1697 52.5747 53.1697C52.1627 53.1697 51.8278 53.5046 51.8278 53.9166V58.5062H41.1959V56.8954C41.1959 53.8195 39.1021 51.1917 36.1046 50.5046L33.4718 49.9008V48.6461C34.2598 48.0834 34.9257 47.3589 35.4212 46.5224C36.0411 45.8851 36.8328 45.4257 37.7191 45.1942L41.8568 44.1162C42.3062 45.829 43.8672 47.0963 45.7195 47.0963C47.5718 47.0963 49.1328 45.829 49.5822 44.1162L53.7199 45.1942C55.9145 45.7656 57.3884 47.6739 57.3884 49.9407V58.5062ZM55.6046 44.3465C55.139 44.0913 54.6349 43.8896 54.0971 43.749L49.7141 42.6062V40.7228C51.2714 39.8303 52.5037 38.4324 53.1859 36.7544C54.2303 38.8992 56.1137 40.5859 58.4776 41.3515C58.2809 42.8639 57.1232 44.0826 55.6046 44.3465ZM20.2967 14.1759C22.9568 14.1759 25.1539 12.0162 25.2012 9.35851C25.2075 9.1805 25.1502 9.00249 25.0332 8.85934L21.8763 5.00913H27.4444C27.6983 5.87925 28.3855 6.56515 29.2544 6.81909V20.0091H26.8905C26.4784 20.0091 26.1436 20.344 26.1436 20.756C26.1436 21.1681 26.4784 21.5029 26.8905 21.5029H33.1108C33.5228 21.5029 33.8577 21.1681 33.8577 20.756C33.8577 20.344 33.5228 20.0091 33.1108 20.0091H30.7469V6.81909C31.617 6.56515 32.3029 5.87801 32.5568 5.00913H38.1249L34.9668 8.85934C34.8498 9.00249 34.7925 9.1805 34.7988 9.35851C34.8461 12.0162 37.0419 14.1759 39.7033 14.1759C42.3647 14.1759 44.5606 12.0162 44.6079 9.35851C44.6141 9.1805 44.5568 9.00249 44.4398 8.85934L40.2809 3.78921C40.139 3.61618 39.9274 3.51535 39.7033 3.51535H32.5568C32.3029 2.64523 31.6158 1.95934 30.7469 1.70539V0.746888C30.7469 0.334855 30.412 0 30 0C29.588 0 29.2531 0.334855 29.2531 0.746888V1.70539C28.383 1.95934 27.6971 2.64647 27.4432 3.51535H20.2967C20.0726 3.51535 19.861 3.61618 19.7191 3.78921L15.5602 8.85934C15.4432 9.00249 15.3859 9.1805 15.3921 9.35851C15.4394 12.0162 17.6365 14.1759 20.2967 14.1759ZM39.7033 12.6822C38.11 12.6822 36.7568 11.568 36.3909 10.0793H43.017C42.6498 11.5693 41.2967 12.6822 39.7033 12.6822ZM42.2838 8.58548H37.1241L39.7046 5.43983L42.2838 8.58548ZM30 3.08963C30.6461 3.08963 31.1726 3.61494 31.1726 4.26224C31.1726 4.90954 30.6473 5.43485 30 5.43485C29.3527 5.43485 28.8274 4.90954 28.8274 4.26224C28.8274 3.61494 29.3539 3.08963 30 3.08963ZM20.2967 12.6822C18.7033 12.6822 17.3502 11.568 16.9842 10.0793H23.6104C23.2432 11.5693 21.89 12.6822 20.2967 12.6822ZM20.2967 5.43983L22.8772 8.58548H17.7174L20.2967 5.43983Z" fill="white"/>
</svg>
