<svg width="60" height="60" viewBox="0 0 60 60" fill="none" xmlns="http://www.w3.org/2000/svg">
<path d="M59.8726 31.3553C59.6247 30.6467 59.0597 30.1389 58.3639 29.9609L51.3395 17.3027C52.1362 16.8485 52.6748 15.9917 52.6748 15.011C52.6748 13.5573 51.492 12.3744 50.0382 12.3744C48.8993 12.3744 47.927 13.1004 47.5591 14.1138C44.9106 13.9916 43.0381 13.2096 41.0674 12.3837C39.0317 11.5305 36.9299 10.6527 33.9611 10.5183C33.5658 8.69469 31.9404 7.32401 30.0002 7.32401C28.06 7.32401 26.4345 8.69457 26.0391 10.5182C23.6929 10.6244 21.8874 11.1944 20.2295 11.8506C20.1759 11.4093 20.1461 10.9567 20.1461 10.49C20.1461 6.57638 22.6086 3.41457 26.5725 2.23877C27.6483 1.91956 28.8014 1.75785 30.0001 1.75785C32.5366 1.75785 34.5431 2.17912 35.7797 2.53231C35.9164 2.57145 36.0605 2.57684 36.1997 2.54789C37.336 2.31224 39.0421 2.2342 40.7169 3.20095C42.2665 4.09564 43.4197 5.50979 44.052 7.29038C44.1482 7.56165 44.1223 7.84805 43.9787 8.09659C43.8352 8.34513 43.6004 8.51071 43.3171 8.56297C41.4593 8.90561 39.6578 8.61418 38.1082 7.7195C36.9086 7.02683 36.018 5.98204 35.4611 4.61405C35.3547 4.35262 35.1291 4.15809 34.8548 4.09142C33.7749 3.82869 32.0559 3.51547 30.0001 3.51547C26.7137 3.51547 23.8424 5.21648 22.685 7.84875C22.4896 8.2931 22.6915 8.81164 23.1359 9.0071C23.5801 9.20232 24.0989 9.00065 24.2942 8.55618C25.171 6.56174 27.4108 5.27308 30.0001 5.27308C31.6338 5.27308 33.0335 5.48882 34.0197 5.70267C34.7312 7.21807 35.8335 8.43571 37.2293 9.24158C38.6287 10.0495 40.187 10.461 41.8116 10.4609C42.4123 10.4609 43.0221 10.4046 43.636 10.2914C44.422 10.1465 45.1017 9.66671 45.5009 8.97534C45.9001 8.28396 45.9758 7.45537 45.7084 6.70224C44.9345 4.5223 43.5124 2.78507 41.5957 1.67864C39.5463 0.495447 37.4888 0.522867 36.0573 0.784769C34.7015 0.413888 32.6047 0 30.0001 0C28.6321 0 27.3107 0.186203 26.0726 0.553569C21.3328 1.95964 18.3884 5.76701 18.3884 10.49C18.3884 11.2 18.4434 11.8844 18.5489 12.5442C16.7152 13.3087 14.9171 13.9994 12.4411 14.1137C12.0732 13.1003 11.1008 12.3743 9.96203 12.3743C8.50827 12.3743 7.32543 13.5572 7.32543 15.0109C7.32543 15.9916 7.86412 16.8483 8.6606 17.3025L5.668 22.6953C5.43247 23.1197 5.58562 23.6548 6.00994 23.8902C6.14505 23.9652 6.2913 24.0007 6.43566 24.0007C6.74467 24.0007 7.04431 23.8374 7.20485 23.5482L9.96203 18.5798L16.2384 29.8901H3.68551L5.44688 26.716C5.68242 26.2916 5.52926 25.7565 5.10494 25.5211C4.68051 25.2857 4.14545 25.4386 3.91004 25.8631L1.63611 29.9608C0.940404 30.1388 0.375468 30.6466 0.12751 31.3552C-0.186772 32.2531 0.0913011 33.2172 0.836111 33.8112C2.81731 35.3916 6.22895 36.3352 9.96191 36.3352C13.6949 36.3352 17.1065 35.3916 19.0877 33.8112C19.8324 33.2172 20.1106 32.2531 19.7963 31.3552C19.5484 30.6466 18.9834 30.1388 18.2876 29.9608L11.2632 17.3025C11.8147 16.9881 12.242 16.4809 12.453 15.8729C15.1354 15.76 17.1105 15.0403 18.9635 14.2748C20.1078 17.7854 22.9503 20.4375 27.3634 22.0915V29.1438C26.533 29.4242 25.7755 29.7359 25.1075 30.0748C24.6746 30.2944 24.5018 30.8235 24.7214 31.2563C24.8763 31.5616 25.1853 31.7376 25.5058 31.7376C25.6396 31.7376 25.7754 31.7069 25.9028 31.6424C26.3442 31.4184 26.8335 31.2067 27.3634 31.0085V33.2764C25.5157 33.9498 24.3166 34.8432 24.3166 36.7071C24.3166 38.8437 26.3372 39.727 29.4198 40.8305C29.5501 40.877 29.6864 40.9251 29.8276 40.9745C32.2342 41.8203 34.3943 42.741 34.3943 44.6919C34.3943 45.9569 33.6407 46.6779 32.6366 47.2338V45.3523C32.6366 44.7072 32.2972 44.1871 31.6283 43.806C31.1754 43.5482 30.5542 43.3293 29.6943 43.0262C29.4924 42.955 29.2766 42.8789 29.0461 42.7964C24.2092 41.0651 22.3246 39.3578 22.3246 36.7072C22.3246 35.4508 22.6907 34.4001 23.4438 33.4956C23.7544 33.1225 23.7038 32.5683 23.3308 32.2578C22.9574 31.9475 22.4034 31.9979 22.093 32.371C21.0804 33.5875 20.567 35.0464 20.567 36.7073C20.567 40.6451 23.7094 42.6162 27.3636 44.0443V46.7324C26.1359 47.3041 23.8295 48.5364 23.8295 51.2368C23.8295 53.5802 25.6061 54.6967 27.3636 55.3745V57.3609C27.3636 58.8147 28.5464 59.9975 30.0002 59.9975C31.4399 59.9975 32.613 58.8374 32.6357 57.4031C33.4456 57.9258 33.7867 58.4988 34.2163 59.4733C34.3576 59.7941 34.6746 59.9977 35.02 59.9977C35.0477 59.9977 35.0758 59.9964 35.1037 59.9937C35.4809 59.9577 35.7925 59.6842 35.8771 59.3151C36.6422 55.9755 35.4938 53.4009 32.6369 51.9533V49.1977C33.9678 48.5954 36.1524 47.409 36.1524 44.6921C36.1524 42.3587 34.4167 41.0373 32.6369 40.1948V33.6271C37.1489 32.2903 40.1181 30.3678 40.1181 25.7081C40.1181 23.5877 39.3826 21.8694 37.8696 20.4546C36.6888 19.3504 35.0154 18.4323 32.7859 17.6671C33.1621 17.1143 33.365 16.4625 33.365 15.7791C33.365 15.2023 33.2201 14.648 32.949 14.1567C33.4451 13.6305 33.7908 12.9823 33.9511 12.2778C36.5706 12.4083 38.4311 13.1848 40.3882 14.0049C42.436 14.8632 44.5502 15.7469 47.5474 15.8732C47.7585 16.4811 48.1858 16.9884 48.7372 17.3028L41.7128 29.961C41.0171 30.139 40.4521 30.6468 40.2041 31.3554C39.8898 32.2534 40.1679 33.2174 40.9127 33.8114C42.923 35.4153 46.3369 36.3382 50.0052 36.3382C50.7665 36.3382 51.5391 36.2985 52.312 36.2167C52.7947 36.1656 53.1446 35.7331 53.0936 35.2504C53.0427 34.7677 52.6102 34.4174 52.1274 34.4688C48.1288 34.8911 44.0622 34.0752 42.0088 32.4372C41.7823 32.2565 41.8315 32.0265 41.8633 31.9361C41.9009 31.8287 42.0034 31.6487 42.2682 31.6482H42.2686H57.8085H57.8088C58.0737 31.6488 58.1762 31.8288 58.2138 31.9361C58.2456 32.0265 58.2947 32.2565 58.0681 32.4373C57.3615 33.0011 56.4234 33.4703 55.2796 33.8323C54.8168 33.9786 54.5603 34.4726 54.7068 34.9353C54.8533 35.3979 55.3466 35.6548 55.8098 35.5081C57.1599 35.0808 58.2885 34.5101 59.1643 33.8114C59.9087 33.2173 60.1868 32.2532 59.8726 31.3553ZM9.96191 14.1321C10.4466 14.1321 10.8408 14.5263 10.8408 15.0109C10.8408 15.4956 10.4466 15.8898 9.96191 15.8898C9.47725 15.8898 9.08305 15.4956 9.08305 15.0109C9.08305 14.5263 9.47725 14.1321 9.96191 14.1321ZM17.9916 32.4371C16.3114 33.7774 13.3097 34.5775 9.96191 34.5775C6.61413 34.5775 3.61228 33.7774 1.93223 32.4371C1.70572 32.2564 1.75494 32.0264 1.78669 31.936C1.82431 31.8286 1.92684 31.6486 2.19168 31.6481H2.19203H17.7319H17.7323C17.9971 31.6487 18.0996 31.8287 18.1372 31.936C18.1689 32.0264 18.2181 32.2564 17.9916 32.4371ZM30.8789 45.4085V51.2472C30.1159 50.9776 29.3359 50.701 29.1212 50.5242V44.6879C29.8808 44.9556 30.6617 45.2313 30.8789 45.4085ZM30.8789 57.3608C30.8789 57.8455 30.4847 58.2397 30.0001 58.2397C29.5154 58.2397 29.1212 57.8455 29.1212 57.3608V55.9577C29.4532 56.0593 29.7671 56.1567 30.0411 56.2547C30.3462 56.364 30.6236 56.467 30.8789 56.5661V57.3608ZM34.2655 56.4421C33.4798 55.7457 32.3902 55.2288 30.6333 54.5998C30.2887 54.4764 29.9148 54.3621 29.519 54.2411C27.2168 53.537 25.587 52.9095 25.587 51.2365C25.587 49.9984 26.3739 49.2647 27.3634 48.7049V50.576C27.3634 51.8695 28.4772 52.2629 30.3223 52.9146C30.5139 52.9822 30.7181 53.0543 30.9353 53.1321C32.8559 53.8197 33.9598 54.9116 34.2655 56.4421ZM30.0001 9.08174C31.266 9.08174 32.2958 10.1115 32.2958 11.3775C32.2958 12.064 31.9892 12.7078 31.4668 13.1423H28.5328C28.0106 12.7079 27.7044 12.065 27.7044 11.3775C27.7044 10.1115 28.7342 9.08174 30.0001 9.08174ZM28.4735 16.2757C28.3206 15.8081 28.3876 15.3049 28.6539 14.9H31.3456C31.7527 15.5228 31.6829 16.3685 31.1363 16.915C31.0758 16.9755 31.0265 17.043 30.9873 17.1143C30.0458 16.8531 29.2098 16.5754 28.4735 16.2757ZM27.0515 14.1571C26.8424 14.5349 26.7089 14.9457 26.6572 15.3684C25.3765 14.573 24.5847 13.6349 24.1957 12.4888C24.7735 12.3831 25.3881 12.3105 26.0492 12.2775C26.2093 12.9827 26.5549 13.6311 27.0515 14.1571ZM26.0745 36.7072C26.0745 36.2361 26.0755 35.7518 27.3635 35.1713V38.0944C26.4164 37.608 26.0745 37.201 26.0745 36.7072ZM30.4106 39.3163C30.2728 39.2679 30.1396 39.2211 30.0124 39.1755C29.6917 39.0607 29.396 38.952 29.1213 38.8476V29.7923C29.1213 29.7895 29.1213 29.7867 29.1213 29.7839V22.6729C29.2407 22.7076 29.3586 22.7433 29.48 22.7768C30.0011 22.9205 30.4654 23.063 30.8791 23.2035V39.4822C30.7171 39.4242 30.5601 39.3689 30.4106 39.3163ZM32.6367 23.9276C34.2581 24.7647 34.2587 25.4639 34.2587 25.8251C34.2587 26.3007 34.2586 26.8782 32.6367 27.569V23.9276ZM38.3601 25.708C38.3601 28.8363 36.8897 30.4472 32.6367 31.789V29.4545C35.0333 28.5934 36.0164 27.5314 36.0164 25.8252C36.0164 23.1278 33.0994 21.9516 29.9471 21.0823C27.0969 20.2964 24.8228 19.1347 23.188 17.6292C21.946 16.4855 21.0824 15.1354 20.6004 13.5958C21.2146 13.3472 21.8335 13.1126 22.4839 12.9115C23.5861 16.4417 27.1633 17.8835 30.5702 18.8231C33.4151 19.6075 35.41 20.561 36.6688 21.7382C37.8227 22.8173 38.3601 24.0786 38.3601 25.708ZM56.3146 29.8903H43.7618L50.0382 18.5798L56.3146 29.8903ZM50.0382 14.1321C50.5229 14.1321 50.9171 14.5263 50.9171 15.0109C50.9171 15.4956 50.5229 15.8898 50.0382 15.8898C49.5536 15.8898 49.1594 15.4956 49.1594 15.0109C49.1594 14.5263 49.5536 14.1321 50.0382 14.1321Z" fill="white"/>
<path d="M40.5092 7.01859C40.7486 7.01859 40.9872 6.92133 41.1607 6.72985C41.4866 6.37022 41.4593 5.81442 41.0997 5.48842L39.9974 4.48956C39.638 4.16391 39.0819 4.19075 38.7559 4.55061C38.43 4.91025 38.4573 5.46604 38.817 5.79204L39.9193 6.7909C40.0876 6.94347 40.2986 7.01859 40.5092 7.01859Z" fill="white"/>
</svg>
