<svg width="60" height="60" viewBox="0 0 60 60" fill="none" xmlns="http://www.w3.org/2000/svg">
<path d="M32.2737 53.5571H31.6385C31.8639 53.1174 31.9921 52.6199 31.9921 52.0927C31.9921 50.3163 30.547 48.8712 28.7706 48.8712H6.72476C4.94836 48.8712 3.50325 50.3163 3.50325 52.0927C3.50325 52.6199 3.63129 53.1174 3.85679 53.5571H3.22151C1.44511 53.5571 0 55.0022 0 56.7786C0 58.555 1.44511 60.0001 3.22151 60.0001H32.2737C34.0501 60.0001 35.4952 58.555 35.4952 56.7786C35.4952 55.0022 34.0501 53.5571 32.2737 53.5571ZM32.2737 58.2429H3.22151C2.41403 58.2429 1.75719 57.586 1.75719 56.7786C1.75719 55.9711 2.41403 55.3142 3.22151 55.3142H8.63154C9.76751 55.3142 9.76751 53.5571 8.63154 53.5571H6.72476C5.91727 53.5571 5.26044 52.9002 5.26044 52.0927C5.26044 51.2852 5.91727 50.6284 6.72476 50.6284H28.7706C29.578 50.6284 30.2349 51.2852 30.2349 52.0927C30.2349 52.9002 29.578 53.5571 28.7706 53.5571H13.3159C12.1799 53.5571 12.1799 55.3142 13.3159 55.3142H32.2737C33.0812 55.3142 33.738 55.9711 33.738 56.7786C33.738 57.586 33.0812 58.2429 32.2737 58.2429Z" fill="white"/>
<path d="M58.8776 37.7794L43.1241 22.0258C44.1029 20.39 43.799 18.2438 42.4237 16.9305L44.2732 15.081C46.9161 17.9905 51.4934 13.8525 48.6426 11.0015L42.6815 5.04078C41.8783 4.23751 40.6357 5.48007 41.4391 6.28323L47.3999 12.2441C48.5366 13.3807 46.7739 15.0967 45.6605 13.9835L35.5552 3.8781C34.4185 2.74144 36.1812 1.02548 37.2946 2.13872L38.2415 3.08561C39.0447 3.88888 40.2873 2.64631 39.4839 1.84316L38.5371 0.896272C35.7094 -1.93151 31.5264 2.59922 34.4577 5.2657L21.0484 18.6747C18.4054 15.7691 13.8251 19.9005 16.679 22.7542L26.7844 32.8596C29.6086 35.6836 33.8002 31.1574 30.8637 28.4902L32.7132 26.6407C34.0263 28.0169 36.1751 28.325 37.8098 27.3424L53.5622 43.0948C56.9917 46.5245 62.3073 41.2089 58.8776 37.7794ZM29.7663 31.6171C29.2867 32.0968 28.5065 32.0967 28.0269 31.6171L17.9216 21.5116C16.7988 20.3891 18.5395 18.651 19.661 19.7722L29.7663 29.8777C30.241 30.3523 30.2408 31.1426 29.7663 31.6171ZM29.6214 27.2478L22.291 19.9172L35.7001 6.50814L43.0305 13.8385L29.6214 27.2478ZM37.3612 25.4786C36.4097 26.4302 34.8788 26.3267 33.9593 25.4017L41.1845 18.1765C42.1066 19.1012 42.2236 20.6161 41.2615 21.5784L37.3612 25.4786ZM57.6351 41.8522C56.863 42.6243 55.5768 42.6243 54.8047 41.8522L39.1387 26.1862L41.969 23.3558L57.6351 39.0219C58.4072 39.794 58.4072 41.0801 57.6351 41.8522Z" fill="white"/>
<path d="M6.27147 41.8248L11.367 45.2724C12.2801 45.8902 13.29 44.4518 12.3517 43.817L7.2562 40.3694C6.31529 39.7328 5.33056 41.1882 6.27147 41.8248Z" fill="white"/>
<path d="M23.8756 45.4234C24.045 45.4234 24.2163 45.3745 24.3671 45.2724L29.4626 41.8248C30.4035 41.1882 29.4187 39.7328 28.4779 40.3694L23.3824 43.817C22.6556 44.3087 23.061 45.4234 23.8756 45.4234Z" fill="white"/>
<path d="M18.7455 40.73V34.8722C18.7455 33.7363 16.9883 33.7363 16.9883 34.8722V40.73C16.9883 41.8661 18.7455 41.8661 18.7455 40.73Z" fill="white"/>
</svg>
