<svg width="200" height="152" viewBox="0 0 200 152" fill="none" xmlns="http://www.w3.org/2000/svg">
<path d="M11.038 0.340974L14.2942 5.52645C15.1016 6.8122 15.5006 8.1345 15.4913 9.49333C15.4807 11.631 14.4443 13.3473 12.3822 14.6421C10.7811 15.6475 9.14583 15.9387 7.4764 15.5156C5.77961 15.0759 4.41327 14.0312 3.3774 12.3815L0.121239 7.19604L0.594299 6.89899L1.50831 8.35456L11.479 2.0936L10.565 0.638027L11.038 0.340974ZM13.8211 5.8235L12.7015 4.04043L2.7308 10.3014L3.86188 12.1027C5.3164 14.2843 7.72602 14.3779 11.0908 12.3835C12.049 11.7817 12.8046 11.1804 13.3575 10.5796C14.7253 9.0949 14.8799 7.50954 13.8211 5.8235ZM18.5525 19.4029C18.398 19.1789 18.2144 19.001 18.0018 18.8692C17.0672 18.2958 15.8289 18.5058 14.287 19.4992L15.337 21.0979C15.6548 21.6094 15.9426 21.9764 16.2004 22.1988C16.6634 22.5929 17.1838 22.5907 17.7616 22.1924C17.9975 22.0298 18.2071 21.8417 18.3905 21.6283C19.0188 20.8994 19.0728 20.1576 18.5525 19.4029ZM15.1635 26.4104C14.9496 26.4535 14.7277 26.4847 14.4975 26.5042C13.1359 26.5731 11.9957 25.9413 11.0771 24.6088C10.5324 23.8187 10.2333 22.9811 10.1797 22.096C10.0751 20.4807 10.807 19.1323 12.3753 18.0511C13.2833 17.4251 14.2297 17.0945 15.2144 17.0593C16.759 17.0034 18.015 17.6771 18.9825 19.0804C19.4946 19.8233 19.8007 20.5952 19.9006 21.3962C20.0504 22.5977 19.6831 23.5033 18.7987 24.113C18.4567 24.3488 18.1087 24.4495 17.7546 24.4153C17.0536 24.3071 16.164 23.433 15.0856 21.7931L13.7917 19.8407C13.78 19.8488 13.7682 19.8569 13.7564 19.8651C11.4386 21.55 10.7878 23.1294 11.804 24.6034C11.9341 24.7921 12.0878 24.9645 12.265 25.1207C13.0146 25.8043 13.9304 26.0601 15.0124 25.8883L15.1635 26.4104ZM19.5258 35.9052L21.1192 34.4133C21.0447 34.4334 20.9702 34.4535 20.8958 34.4736C19.3434 34.8153 18.12 34.3906 17.2256 33.1994C16.7526 32.5694 16.5159 31.8606 16.5155 31.0728C16.5118 29.6606 17.2087 28.4299 18.6061 27.3807C19.5797 26.6497 20.6093 26.2438 21.6949 26.163C23.1902 26.0792 24.385 26.6328 25.2794 27.824C25.9588 28.7289 26.2228 29.6769 26.0715 30.6681L30.109 27.6367L28.8964 26.0217L29.3259 25.6992L31.7768 28.9635L21.069 37.0302L21.7011 37.872C21.7527 37.9407 21.7943 38.008 21.8258 38.0739C21.9147 38.24 21.8274 38.4219 21.564 38.6197L19.5258 35.9052ZM20.1796 29.047C19.6298 29.4598 19.176 29.8812 18.8182 30.311C17.9021 31.4287 17.7623 32.4113 18.3987 33.2589C18.6824 33.6369 19.0621 33.8802 19.5377 33.9888C20.6464 34.2489 21.9453 33.8199 23.4343 32.7019C24.0299 32.2548 24.4994 31.7947 24.8429 31.3219C25.5929 30.2931 25.6626 29.3721 25.052 28.5589C24.8198 28.2497 24.5247 28.0235 24.1665 27.8805C23.1007 27.4628 21.7717 27.8517 20.1796 29.047ZM26.2598 43.7035C26.3225 43.7817 26.3707 43.8532 26.4044 43.918C26.4986 44.0812 26.4228 44.2614 26.177 44.4586L22.9904 40.4872L23.4093 40.1511C23.6334 40.4304 23.8249 40.6348 23.9839 40.7643C24.3713 41.0411 24.8164 40.9778 25.3191 40.5744L30.6812 36.2718L29.7266 35.082L30.1455 34.7459L32.3909 37.5443L25.6547 42.9495L26.2598 43.7035ZM34.8848 35.8462C34.7172 35.9806 34.5339 36.0726 34.3349 36.1221C33.8027 36.237 33.3573 36.071 32.9988 35.6241C32.8733 35.4677 32.7858 35.29 32.7363 35.091C32.6013 34.5566 32.7572 34.1101 33.2041 33.7516C33.3716 33.6171 33.565 33.5263 33.7841 33.479C34.3164 33.3641 34.7528 33.5189 35.0934 33.9434C35.2279 34.111 35.3187 34.3043 35.366 34.5235C35.4697 35.0647 35.3093 35.5056 34.8848 35.8462ZM31.2905 43.5542C32.1624 42.8108 33.0957 42.3822 34.0902 42.2682C35.6287 42.0858 36.9602 42.654 38.0846 43.9728C38.6793 44.6704 39.0572 45.4116 39.2183 46.1966C39.4069 47.1463 39.2451 47.8395 38.7328 48.2763C38.6674 48.332 38.5873 48.3815 38.4924 48.4248C38.0366 48.6628 37.6143 48.5429 37.2256 48.0649C37.0786 47.8704 36.9874 47.6752 36.9522 47.4793C36.9234 47.2027 37.1108 46.8265 37.5144 46.3506C37.6811 46.1708 37.7933 46.0375 37.851 45.9507C38.2175 45.4312 38.1684 44.899 37.7037 44.354C36.6242 43.1099 35.0007 43.4024 32.8334 45.2314C32.2013 45.7704 31.7113 46.3105 31.3634 46.8518C30.5959 48.0709 30.6071 49.1437 31.3969 50.0701C31.5456 50.2445 31.7107 50.4049 31.892 50.5514C32.7602 51.2606 33.7399 51.4604 34.8313 51.151L35.063 51.6876C34.7395 51.7939 34.4046 51.8536 34.0581 51.8667C32.8152 51.9101 31.7105 51.365 30.744 50.2315C30.1028 49.4795 29.7057 48.6605 29.5527 47.7746C29.2834 46.1784 29.8627 44.7716 31.2905 43.5542ZM39.8716 60.4762C39.1565 59.6745 39.1964 58.7639 39.9912 57.7443C39.7025 57.8533 39.3906 57.9157 39.0554 57.9315C38.0612 57.9488 37.1964 57.5562 36.461 56.7535C36.1611 56.4261 35.9382 56.0768 35.7922 55.7054C35.4097 54.7155 35.6409 53.8335 36.4858 53.0595C36.6442 52.9144 36.8119 52.7899 36.9887 52.6861C38.3501 51.9245 40.2076 52.7965 42.5614 55.3021L43.5753 54.3733C44.6534 53.3661 44.8111 52.4252 44.0485 51.5504C43.855 51.3392 43.6536 51.1935 43.4442 51.1134C43.1442 51.0192 42.7201 51.0969 42.1719 51.3466C42.0372 51.4117 41.9338 51.4579 41.8617 51.4851C41.3971 51.6777 41.0148 51.6103 40.7148 51.2829C40.6374 51.1984 40.5706 51.1043 40.5143 51.0004C40.3191 50.5965 40.3905 50.2398 40.7284 49.9301C40.9079 49.7657 41.1407 49.6593 41.4267 49.6109C42.3549 49.4792 43.4044 50.0523 44.5752 51.3301C46.1804 53.1035 46.1795 54.7457 44.5725 56.2569L41.2458 59.3046C40.738 59.7893 40.5897 60.168 40.8008 60.4408C41.1113 60.7586 41.6753 60.6109 42.4928 59.9979L42.8543 60.4242C42.6018 60.6362 42.3562 60.8029 42.1178 60.9242C41.2976 61.3648 40.5489 61.2155 39.8716 60.4762ZM37.7056 56.808C37.8507 56.9664 38.0376 57.0962 38.2664 57.1975C39.0221 57.5347 39.8518 57.4544 40.7555 56.9566L42.1337 55.694C41.5523 55.0806 41.0351 54.622 40.582 54.3183C39.6953 53.7321 38.8929 53.768 38.1747 54.4259C38.0269 54.5614 37.8993 54.6977 37.7919 54.8349C37.2022 55.5695 37.1734 56.2271 37.7056 56.808ZM48.7354 57.0993L49.1189 56.7232L50.1719 57.797L51.6291 56.3679L53.3954 57.5245L51.6161 59.2695L53.7973 61.4936L53.4139 61.8697L51.2326 59.6456L46.5696 64.2187C45.8127 64.9811 45.6797 65.6331 46.1708 66.1747C46.6824 66.6759 47.5036 66.5928 48.6344 65.9252L48.9638 66.4145C48.7701 66.5443 48.5715 66.6589 48.368 66.7582C47.2282 67.3143 46.2321 67.1577 45.3796 66.2885C45.2994 66.2067 45.2193 66.1148 45.1392 66.0127C44.1484 64.7978 44.3227 63.5335 45.6623 62.2197L49.7884 58.173L48.7354 57.0993ZM58.4155 66.3076C58.2191 66.1193 58.0034 65.982 57.7686 65.8959C56.7375 65.5227 55.567 65.9781 54.2571 67.2621L55.6079 68.6161C56.0224 69.0531 56.3783 69.3545 56.6756 69.5204C57.2086 69.8129 57.7179 69.7059 58.2035 69.1992C58.4017 68.9923 58.5691 68.7659 58.7057 68.5199C59.1741 67.6793 59.0773 66.9418 58.4155 66.3076ZM56.5094 73.8545C56.3086 73.9398 56.0975 74.0152 55.876 74.0807C54.5563 74.4228 53.3121 74.0339 52.1436 72.9141C51.4508 72.2501 50.9889 71.49 50.758 70.6339C50.3297 69.0728 50.7746 67.6046 52.0927 66.2293C52.8558 65.433 53.716 64.9184 54.6734 64.6853C56.175 64.3191 57.5411 64.7256 58.7717 65.9049C59.4231 66.5293 59.8785 67.2236 60.1379 67.988C60.527 69.1346 60.3499 70.0956 59.6066 70.8712C59.3192 71.1711 58.9986 71.34 58.6449 71.3779C57.9365 71.4132 56.8889 70.7365 55.5019 69.3478L53.8409 67.6964C53.831 67.7068 53.8211 67.7171 53.8112 67.7274C51.8808 69.8452 51.562 71.5234 52.8546 72.7622C53.02 72.9208 53.2053 73.0586 53.4104 73.1758C54.2825 73.6942 55.231 73.7601 56.2561 73.3737L56.5094 73.8545ZM62.6874 82.2851L63.9503 80.5048C63.8813 80.5393 63.8124 80.5739 63.7434 80.6085C62.2907 81.2537 61.007 81.0822 59.8925 80.0939C59.3031 79.5712 58.9295 78.924 58.7716 78.1522C58.4856 76.7692 58.9224 75.424 60.0817 74.1166C60.8895 73.2057 61.8171 72.6022 62.8647 72.306C64.313 71.9248 65.5944 72.2284 66.7089 73.2167C67.5555 73.9674 68.0038 74.8435 68.0537 75.845L71.4035 72.0675L69.8925 70.7276L70.2489 70.3257L73.303 73.034L64.4243 83.0788L65.212 83.7772C65.2763 83.8343 65.3305 83.8919 65.3745 83.9501C65.4948 84.0951 65.4457 84.2908 65.2271 84.5373L62.6874 82.2851ZM61.9567 75.4347C61.5005 75.9491 61.1401 76.4526 60.8755 76.9454C60.2014 78.2237 60.2608 79.2144 61.0538 79.9176C61.4075 80.2312 61.8281 80.3937 62.3158 80.405C63.4542 80.4381 64.641 79.7582 65.8764 78.365C66.3706 77.8078 66.7387 77.2632 66.9807 76.7312C67.5098 75.5732 67.3939 74.6569 66.6331 73.9822C66.3437 73.7256 66.0093 73.563 65.6298 73.4945C64.502 73.2984 63.2776 73.9451 61.9567 75.4347ZM84.9428 88.9904L84.5535 88.6859L84.9901 87.5C85.0053 87.4573 85.0249 87.409 85.0489 87.3551C85.5575 86.0073 85.3662 84.9848 84.4749 84.2877L82.0718 82.4083L78.7629 86.6391L82.1645 89.2995L81.7806 89.7902L78.379 87.1299L74.8187 91.6823L77.2218 93.5617C77.3572 93.6676 77.4958 93.7578 77.6375 93.8323C78.4316 94.2352 79.3736 94.0536 80.4635 93.2878L81.5094 92.5783L81.8986 92.8827L79.3823 95.9606L71.3099 89.6472L71.654 89.2072L73.0079 90.2661L80.261 80.9921L78.9071 79.9333L79.2512 79.4932L87.3236 85.8066L84.9428 88.9904ZM81.3534 97.499C81.4121 97.4177 81.4724 97.3464 81.5343 97.2852C81.6414 97.1858 81.7904 97.1874 81.9814 97.29C82.3516 97.4867 82.7677 97.5222 83.2296 97.3963L87.0941 96.265L87.2458 91.1009L86.4272 90.5097L86.7416 90.0743L90.4516 92.7534L90.1371 93.1888L89.0572 92.409L88.9355 96.1372L92.593 94.9623L91.4086 94.107L91.7231 93.6716L94.3183 95.5457C94.2596 95.627 94.1993 95.6983 94.1373 95.7596C94.0186 95.8505 93.868 95.8389 93.6855 95.7248C93.292 95.5113 92.8659 95.4774 92.4072 95.6232L88.9123 96.7565L88.7394 102.17L89.0877 102.422C89.1458 102.464 89.1997 102.511 89.2493 102.565C89.4067 102.714 89.3932 102.916 89.2087 103.172L85.6381 100.593L85.9526 100.158L86.9802 100.9L87.101 96.8794L83.0612 98.0698L84.3327 98.988L84.0183 99.4234L81.3534 97.499ZM91.6587 109.121L92.7854 109.871C92.8689 109.927 92.9365 109.98 92.9881 110.032C93.1273 110.159 93.1095 110.354 92.9349 110.616L88.4459 107.628L88.7435 107.181C89.0535 107.387 89.3078 107.522 89.5065 107.586C89.8998 107.692 90.2711 107.484 90.6203 106.959L96.6915 97.8378L95.4932 97.0402L95.7908 96.5931L98.5987 98.462L97.4501 100.382C97.7717 100.131 98.1151 99.9382 98.4805 99.8028C99.5965 99.3928 100.685 99.541 101.746 100.247C102.462 100.723 102.927 101.343 103.142 102.105C103.484 103.349 103.184 104.68 102.239 106.098C101.445 107.291 100.463 108.056 99.2912 108.395C98.0203 108.753 96.8304 108.563 95.7216 107.825C94.8194 107.19 94.2785 106.4 94.0991 105.455L91.6587 109.121ZM100.501 100.528C100.108 100.266 99.6526 100.161 99.1363 100.213C97.9883 100.361 96.9144 101.186 95.9144 102.689C95.4303 103.416 95.115 104.109 94.9685 104.769C94.735 105.87 95.0116 106.682 95.7986 107.205C96.037 107.364 96.2953 107.467 96.5734 107.515C97.7534 107.732 98.9624 106.911 100.2 105.051C100.415 104.729 100.599 104.413 100.754 104.103C101.635 102.418 101.55 101.227 100.501 100.528ZM110.519 106.483C110.287 106.341 110.047 106.254 109.799 106.22C108.712 106.077 107.666 106.773 106.663 108.309L108.273 109.341C108.772 109.679 109.184 109.897 109.51 109.995C110.094 110.166 110.568 109.952 110.933 109.353C111.082 109.108 111.197 108.851 111.278 108.581C111.555 107.66 111.302 106.96 110.519 106.483ZM110.279 114.263C110.101 114.39 109.911 114.509 109.709 114.62C108.494 115.238 107.195 115.126 105.813 114.283C104.994 113.783 104.379 113.14 103.97 112.354C103.216 110.921 103.335 109.392 104.327 107.765C104.901 106.824 105.631 106.136 106.516 105.703C107.904 105.023 109.325 105.126 110.78 106.013C111.551 106.483 112.145 107.063 112.562 107.754C113.189 108.79 113.222 109.767 112.663 110.684C112.447 111.039 112.17 111.273 111.833 111.386C111.148 111.572 109.98 111.137 108.327 110.078L106.35 108.823C106.342 108.835 106.335 108.847 106.327 108.859C104.897 111.342 104.946 113.05 106.475 113.982C106.671 114.101 106.881 114.196 107.107 114.266C108.07 114.585 109.01 114.446 109.928 113.848L110.279 114.263ZM116.221 119.515C116.308 119.564 116.379 119.613 116.435 119.66C116.583 119.776 116.58 119.972 116.426 120.247L111.519 117.487L111.783 117.019C112.107 117.201 112.365 117.313 112.555 117.355C112.973 117.458 113.34 117.229 113.656 116.668L117.027 110.676L115.754 109.959L116.017 109.491L118.957 111.145L118.029 113.014C118.389 112.724 118.791 112.506 119.234 112.361C120.185 112.074 121.034 112.141 121.783 112.562C121.921 112.639 122.051 112.729 122.174 112.831C122.677 113.311 122.763 113.844 122.433 114.431C122.37 114.543 122.288 114.645 122.187 114.737C121.805 115.064 121.396 115.105 120.959 114.859C120.859 114.803 120.773 114.738 120.699 114.664C120.529 114.47 120.444 114.126 120.442 113.632C120.436 113.234 120.345 112.986 120.17 112.888C120.001 112.809 119.767 112.801 119.469 112.863C118.478 113.078 117.617 113.834 116.887 115.132L114.854 118.746L116.221 119.515ZM124.56 124.043C124.649 124.09 124.721 124.136 124.778 124.183C124.93 124.295 124.932 124.49 124.785 124.769L120.28 122.396L120.53 121.92C120.847 122.087 121.104 122.199 121.302 122.254C121.767 122.354 122.15 122.118 122.451 121.548L125.655 115.465L124.305 114.754L124.556 114.279L127.73 115.952L123.705 123.593L124.56 124.043ZM129.341 113.401C129.241 113.591 129.11 113.748 128.947 113.873C128.504 114.19 128.03 114.215 127.523 113.948C127.345 113.855 127.194 113.727 127.07 113.564C126.733 113.127 126.698 112.656 126.965 112.149C127.065 111.959 127.206 111.798 127.389 111.668C127.831 111.35 128.293 111.319 128.775 111.572C128.965 111.672 129.125 111.813 129.256 111.996C129.566 112.451 129.595 112.919 129.341 113.401ZM135.179 120.013C134.935 119.894 134.688 119.829 134.438 119.818C133.342 119.776 132.366 120.566 131.509 122.188L133.208 123.067C133.736 123.357 134.166 123.536 134.5 123.603C135.097 123.72 135.549 123.463 135.858 122.832C135.983 122.575 136.074 122.308 136.129 122.032C136.32 121.089 136.003 120.416 135.179 120.013ZM135.661 127.782C135.496 127.925 135.317 128.061 135.126 128.191C133.973 128.918 132.67 128.926 131.216 128.215C130.354 127.794 129.683 127.21 129.202 126.465C128.319 125.108 128.296 123.574 129.133 121.863C129.617 120.872 130.28 120.12 131.121 119.607C132.44 118.801 133.865 118.773 135.396 119.521C136.207 119.918 136.852 120.441 137.332 121.09C138.051 122.063 138.175 123.033 137.703 123.998C137.521 124.371 137.267 124.629 136.941 124.773C136.277 125.022 135.073 124.697 133.329 123.796L131.245 122.729C131.238 122.741 131.232 122.754 131.226 122.767C130.032 125.372 130.239 127.068 131.847 127.854C132.053 127.955 132.271 128.03 132.502 128.079C133.491 128.307 134.414 128.081 135.273 127.401L135.661 127.782ZM141.345 132.113C141.436 132.154 141.512 132.195 141.572 132.237C141.731 132.338 141.747 132.533 141.62 132.821L137.176 130.866L137.392 130.374C137.72 130.518 137.987 130.605 138.194 130.633C138.62 130.695 138.963 130.432 139.222 129.842L141.991 123.549L140.654 122.961L140.871 122.469L143.978 123.836L143.297 125.649C143.561 125.405 143.855 125.198 144.181 125.029C145.176 124.544 146.159 124.514 147.13 124.941C147.588 125.143 147.962 125.433 148.25 125.81C148.995 126.748 149.059 127.918 148.441 129.321L146.261 134.277L147.106 134.649C147.198 134.689 147.274 134.73 147.334 134.772C147.493 134.873 147.509 135.068 147.382 135.357L142.898 133.384L143.114 132.892C143.442 133.036 143.709 133.123 143.916 133.151C144.283 133.171 144.593 132.893 144.847 132.316L146.646 128.226C146.773 127.938 146.862 127.648 146.912 127.357C147.035 126.472 146.703 125.857 145.917 125.511C145.628 125.384 145.312 125.339 144.967 125.375C144.03 125.479 143.281 126.041 142.722 127.063L140.617 131.793L141.345 132.113ZM151.387 132.138C151.808 131.072 152.431 130.255 153.255 129.688C154.528 128.805 155.971 128.682 157.583 129.319C158.435 129.655 159.117 130.133 159.627 130.75C160.24 131.5 160.422 132.188 160.175 132.815C160.143 132.894 160.096 132.976 160.032 133.058C159.741 133.483 159.312 133.575 158.745 133.335C158.523 133.232 158.351 133.103 158.228 132.946C158.073 132.716 158.062 132.296 158.195 131.686C158.258 131.449 158.294 131.279 158.305 131.175C158.384 130.544 158.091 130.097 157.425 129.834C155.888 129.242 154.592 130.262 153.536 132.895C153.231 133.667 153.052 134.374 152.999 135.015C152.893 136.452 153.406 137.394 154.539 137.841C154.752 137.926 154.973 137.99 155.202 138.034C156.301 138.253 157.26 137.969 158.079 137.184L158.535 137.549C158.299 137.795 158.032 138.005 157.732 138.179C156.655 138.801 155.423 138.838 154.038 138.29C153.119 137.927 152.384 137.39 151.833 136.68C150.846 135.397 150.697 133.883 151.387 132.138ZM167.135 133.47C166.878 133.379 166.625 133.342 166.376 133.36C165.283 133.444 164.403 134.34 163.736 136.049L165.524 136.728C166.081 136.956 166.53 137.085 166.869 137.114C167.475 137.162 167.895 136.855 168.13 136.193C168.226 135.923 168.285 135.648 168.309 135.368C168.39 134.409 167.999 133.776 167.135 133.47ZM168.498 141.133C168.35 141.294 168.189 141.449 168.014 141.6C166.951 142.454 165.657 142.611 164.132 142.07C163.227 141.749 162.494 141.246 161.932 140.561C160.9 139.314 160.702 137.792 161.338 135.997C161.707 134.957 162.28 134.135 163.057 133.529C164.275 132.578 165.688 132.387 167.294 132.956C168.145 133.258 168.845 133.704 169.396 134.294C170.222 135.18 170.455 136.128 170.096 137.141C169.957 137.532 169.734 137.818 169.428 137.998C168.796 138.321 167.563 138.135 165.728 137.439L163.535 136.616C163.53 136.629 163.526 136.643 163.521 136.656C162.631 139.38 163.03 141.041 164.718 141.64C164.934 141.716 165.159 141.766 165.394 141.788C166.402 141.902 167.294 141.573 168.07 140.799L168.498 141.133ZM179.287 141.984C179.154 142.437 179.054 142.856 178.986 143.239C178.615 145.22 179.117 146.411 180.492 146.814C182.053 147.241 183.254 146.07 184.094 143.302C184.251 142.766 184.367 142.27 184.441 141.814C184.706 140.041 184.186 138.963 182.88 138.581C181.391 138.264 180.193 139.398 179.287 141.984ZM183.093 138.083C184.11 138.381 184.932 138.913 185.558 139.678C186.518 140.885 186.755 142.32 186.268 143.983C185.906 145.22 185.22 146.161 184.21 146.806C183.019 147.561 181.708 147.73 180.279 147.311C179.234 147.005 178.402 146.433 177.782 145.595C176.857 144.369 176.638 142.924 177.125 141.261C177.476 140.065 178.136 139.162 179.106 138.55C180.293 137.808 181.622 137.653 183.093 138.083ZM192.736 149.99C192.819 150.012 192.894 150.039 192.959 150.071C193.129 150.159 193.176 150.349 193.1 150.64L187.569 149.202L187.704 148.682C188.051 148.772 188.333 148.824 188.552 148.836C189.07 148.837 189.41 148.526 189.572 147.902L191.296 141.269L189.737 140.864L189.877 140.323L191.437 140.729L191.518 140.417C191.803 139.322 192.255 138.463 192.876 137.84C193.833 136.89 195.033 136.602 196.474 136.977C197.07 137.132 197.572 137.366 197.979 137.679C198.603 138.182 198.843 138.71 198.699 139.265C198.677 139.348 198.64 139.434 198.587 139.524C198.358 139.894 197.994 140.014 197.495 139.884C197.287 139.83 197.114 139.696 196.977 139.483C196.916 139.378 196.823 139.021 196.701 138.412C196.571 137.831 196.312 137.49 195.923 137.389C195.702 137.331 195.493 137.336 195.298 137.404C194.66 137.638 194.049 138.877 193.465 141.123L193.433 141.248L195.803 141.864L195.663 142.405L193.292 141.788L191.26 149.607L192.736 149.99Z" fill="white"/>
</svg>
