<svg width="368" height="190" viewBox="0 0 368 190" fill="none" xmlns="http://www.w3.org/2000/svg">
<path d="M6.86921 14.2972L6.67003 10.6581L8.99985 10.5541L9.19776 14.1698C9.2554 15.2229 9.53378 16.0918 10.0329 16.7765C10.5324 17.4689 11.221 17.9711 12.0988 18.283C12.9769 18.6027 14.0089 18.73 15.1946 18.6651L16.119 18.6145C17.0395 18.5642 17.8489 18.4142 18.5473 18.1648C19.246 17.9231 19.8261 17.5862 20.2876 17.1541C20.7495 16.7297 21.0892 16.2182 21.3068 15.6195C21.5248 15.0286 21.6131 14.3548 21.5717 13.5981L21.3629 9.78349L23.7032 9.6554L23.912 13.47C23.9739 14.6011 23.8393 15.6452 23.5083 16.6022C23.1851 17.5588 22.6872 18.3959 22.0144 19.1134C21.3421 19.8387 20.5207 20.4118 19.55 20.8327C18.5794 21.2535 17.4817 21.4975 16.257 21.5645L15.356 21.6139C14.1313 21.6809 13.0135 21.5582 12.0027 21.2458C10.992 20.9334 10.1129 20.4534 9.36541 19.8057C8.62577 19.1577 8.03878 18.3683 7.60444 17.4375C7.17834 16.5141 6.93326 15.4673 6.86921 14.2972ZM23.7961 11.3521L6.75905 12.2846L6.59829 9.3476L23.6353 8.41507L23.7961 11.3521ZM8.21368 31.7077C8.07966 30.7799 8.10926 29.9191 8.30249 29.1255C8.50456 28.3386 8.84212 27.6425 9.31516 27.0375C9.78933 26.4401 10.3775 25.9486 11.0795 25.5631C11.7816 25.1775 12.5618 24.9227 13.4201 24.7987L13.884 24.7317C14.866 24.5899 15.7759 24.6045 16.6136 24.7755C17.4514 24.9466 18.1894 25.2465 18.8275 25.6753C19.4734 26.103 19.9974 26.643 20.3995 27.2954C20.8015 27.9477 21.0612 28.6798 21.1785 29.4917C21.308 30.3887 21.2706 31.1953 21.0662 31.9115C20.8618 32.6278 20.517 33.246 20.0316 33.766C19.5552 34.2926 18.9575 34.7184 18.2388 35.0432C17.5211 35.3758 16.71 35.6074 15.8053 35.7381L14.6107 35.9106L13.2102 26.2144L15.2167 25.9246L16.2185 32.8604L16.4389 32.8286C16.9392 32.7405 17.3964 32.5719 17.8103 32.3226C18.2254 32.0811 18.5414 31.7552 18.7584 31.345C18.9754 30.9348 19.0393 30.4204 18.9499 29.8018C18.8829 29.3378 18.7226 28.9387 18.4691 28.6043C18.2244 28.2765 17.8992 28.0196 17.4934 27.8335C17.0877 27.6474 16.6124 27.5266 16.0676 27.4711C15.5317 27.4223 14.939 27.4447 14.2894 27.5385L13.8255 27.6055C13.2765 27.6848 12.7768 27.832 12.3264 28.047C11.8848 28.2687 11.5112 28.5516 11.2057 28.8957C10.9002 29.2397 10.6771 29.6351 10.5363 30.0816C10.4033 30.5271 10.3754 31.0166 10.4524 31.5501C10.5496 32.2228 10.7715 32.8025 11.118 33.2892C11.4646 33.776 11.9133 34.1769 12.464 34.492L11.2501 36.1711C10.8167 35.9574 10.387 35.6603 9.96102 35.2798C9.5428 34.8981 9.17633 34.4104 8.86163 33.8164C8.54805 33.2303 8.33207 32.5273 8.21368 31.7077ZM14.0972 47.2272L29.0826 43.7879L29.717 46.552L12.1731 50.5785L11.599 48.0771L14.0972 47.2272ZM15.7354 38.3867L15.9752 38.3317C16.9118 38.1167 17.79 38.0314 18.6097 38.0757C19.4371 38.1183 20.1768 38.2852 20.8287 38.5764C21.4883 38.8659 22.0356 39.2773 22.4707 39.8107C22.9133 40.3423 23.2211 40.9851 23.3942 41.7389C23.5654 42.4851 23.571 43.1732 23.411 43.8031C23.251 44.433 22.9461 45.0079 22.4963 45.528C22.0542 46.0463 21.4871 46.5091 20.7951 46.9164C20.1106 47.3219 19.3267 47.6782 18.4433 47.9852L17.678 48.1608C16.772 48.2645 15.9264 48.2823 15.1413 48.214C14.3561 48.1457 13.6516 47.9748 13.0277 47.7011C12.4038 47.4275 11.8816 47.0384 11.4612 46.5337C11.0425 46.0366 10.7467 45.4112 10.5737 44.6573C10.4024 43.9111 10.4038 43.2014 10.578 42.5282C10.7538 41.8626 11.0755 41.2558 11.5428 40.7076C12.0102 40.1595 12.5992 39.6877 13.31 39.2921C14.0284 38.8947 14.8368 38.593 15.7354 38.3867ZM16.607 41.0843L16.3671 41.1394C15.8036 41.2687 15.2896 41.4388 14.825 41.6496C14.3621 41.8681 13.9695 42.1305 13.6471 42.437C13.3322 42.7417 13.1084 43.0937 12.9756 43.4929C12.8522 43.8979 12.8472 44.3479 12.9608 44.8429C13.1041 45.4673 13.3592 45.9498 13.7259 46.2904C14.0926 46.6311 14.5345 46.8623 15.0514 46.9842C15.5777 47.1119 16.1398 47.1512 16.7377 47.1021L18.805 46.6277C19.2438 46.4789 19.6408 46.2876 19.9959 46.0537C20.3528 45.8276 20.6488 45.5632 20.884 45.2608C21.1268 44.9566 21.2879 44.611 21.3674 44.224C21.4563 43.8429 21.4466 43.4163 21.3382 42.9442C21.2229 42.4417 21.0184 42.0397 20.7248 41.7384C20.4312 41.437 20.0717 41.215 19.6461 41.0722C19.2223 40.937 18.7507 40.8729 18.2313 40.8799C17.7119 40.8869 17.1705 40.955 16.607 41.0843ZM26.2595 54.1132L14.1065 57.7298L13.2976 55.0117L25.4506 51.395L26.2595 54.1132ZM28.587 50.2661C28.9988 50.1435 29.3796 50.1769 29.7294 50.3662C30.0889 50.5608 30.3411 50.9015 30.4859 51.3882C30.6286 51.8674 30.6026 52.2868 30.408 52.6463C30.2208 53.0036 29.9214 53.2435 29.5095 53.3661C29.1052 53.4864 28.727 53.4482 28.375 53.2513C28.023 53.0545 27.7756 52.7165 27.633 52.2372C27.4882 51.7505 27.5093 51.3285 27.6964 50.9712C27.8858 50.6214 28.1826 50.3864 28.587 50.2661ZM19.1497 66.2235C19.3075 66.6566 19.5337 67.0148 19.8282 67.2983C20.1328 67.5865 20.478 67.7808 20.8638 67.8813C21.2524 67.9892 21.6525 67.9806 22.0643 67.8555L22.975 70.3549C22.1989 70.6211 21.415 70.6489 20.6233 70.4386C19.8315 70.2282 19.116 69.8278 18.4769 69.2375C17.8451 68.6446 17.3687 67.9077 17.0477 67.0269C16.716 66.1167 16.5813 65.2677 16.6435 64.4801C16.7131 63.6897 16.9415 62.9704 17.3289 62.322C17.7162 61.6737 18.2281 61.1046 18.8646 60.6149C19.5037 60.1326 20.2343 59.7417 21.0564 59.4421L21.4418 59.3017C22.2639 59.0021 23.0748 58.8313 23.8744 58.7894C24.684 58.7522 25.4456 58.8571 26.1593 59.1043C26.873 59.3514 27.507 59.7565 28.0614 60.3194C28.6231 60.8797 29.0685 61.6113 29.3975 62.5142C29.7452 63.4684 29.8593 64.3748 29.7397 65.2332C29.6275 66.089 29.3086 66.8454 28.7831 67.5026C28.2676 68.1644 27.5684 68.6644 26.6856 69.0028L25.7748 66.5034C26.2072 66.3209 26.5635 66.0663 26.8436 65.7398C27.1337 65.4178 27.321 65.0419 27.4055 64.612C27.4927 64.1895 27.448 63.7359 27.2714 63.2515C27.0762 62.7156 26.8042 62.3117 26.4556 62.0396C26.1144 61.7648 25.7205 61.5965 25.2739 61.5348C24.8346 61.4703 24.3678 61.4783 23.8732 61.5587C23.3887 61.6438 22.9005 61.776 22.4087 61.9552L22.0234 62.0956C21.5316 62.2748 21.0691 62.4891 20.6361 62.7383C20.2031 62.9876 19.8392 63.2782 19.5444 63.6101C19.2596 63.9467 19.0713 64.3313 18.9795 64.7638C18.895 65.1938 18.9517 65.6803 19.1497 66.2235ZM25.6597 80.5764L31.1588 78.0614C31.5708 77.8729 31.892 77.6359 32.1221 77.3502C32.3523 77.0645 32.4792 76.7316 32.5029 76.3513C32.5298 75.9782 32.4393 75.5643 32.2313 75.1096C32.0396 74.6904 31.8028 74.3606 31.521 74.12C31.2392 73.8795 30.9385 73.7293 30.619 73.6692C30.2994 73.6092 29.9869 73.649 29.6814 73.7888L28.5116 71.2311C28.9663 71.0231 29.4572 70.9318 29.9842 70.9571C30.5112 70.9823 31.0375 71.1282 31.5632 71.3947C32.0888 71.6611 32.5808 72.0418 33.039 72.5366C33.4973 73.0315 33.8922 73.6412 34.2236 74.3659C34.62 75.2327 34.8253 76.0666 34.8395 76.8677C34.8569 77.6758 34.6585 78.4066 34.2443 79.06C33.8404 79.7172 33.198 80.2472 32.317 80.6502L27.191 82.9946C26.6652 83.2351 26.209 83.4867 25.8223 83.7494C25.446 84.016 25.1376 84.2903 24.8971 84.5721L24.7265 84.6501L23.5226 82.0178C23.7445 81.7703 24.0523 81.5135 24.4461 81.2475C24.8502 80.9854 25.2548 80.7617 25.6597 80.5764ZM30.5301 78.8L28.9519 79.5475L28.1087 77.7039C27.891 77.2278 27.6531 76.8298 27.395 76.5097C27.144 76.1863 26.8781 75.9429 26.5971 75.7793C26.3161 75.6157 26.0272 75.5288 25.7304 75.5185C25.4336 75.5082 25.1324 75.5729 24.8269 75.7126C24.5214 75.8524 24.2733 76.0518 24.0825 76.3108C23.8988 76.5667 23.7977 76.862 23.7791 77.197C23.7637 77.5391 23.8454 77.9055 24.0241 78.2963C24.2646 78.822 24.5807 79.2315 24.9726 79.5248C25.3748 79.8219 25.7842 80.0127 26.2008 80.097C26.6245 80.1782 26.9817 80.1609 27.2723 80.0451L26.5122 81.3979C26.1819 81.4458 25.8027 81.4432 25.3746 81.3899C24.9464 81.3365 24.5032 81.2128 24.045 81.0186C23.5971 80.8282 23.1717 80.546 22.7686 80.172C22.3688 79.805 22.0325 79.3231 21.7595 78.7263C21.4151 77.9732 21.2572 77.2336 21.2859 76.5074C21.3217 75.778 21.519 75.1294 21.8778 74.5615C22.2438 73.9904 22.7535 73.5553 23.4072 73.2564C24.0182 72.9769 24.6101 72.8437 25.183 72.8566C25.7662 72.8733 26.3201 73.0324 26.8445 73.3337C27.3722 73.6422 27.8672 74.0859 28.3295 74.6648C28.799 75.2404 29.2254 75.9474 29.6089 76.7858L30.5301 78.8ZM40.3577 87.2203L38.5449 88.2042L35.1351 81.9214L36.9478 80.9376L40.3577 87.2203ZM40.661 81.269L42.0082 83.7512L31.2142 89.6094C30.8709 89.7958 30.6326 89.9873 30.4994 90.184C30.3768 90.3839 30.333 90.5899 30.3681 90.802C30.4032 91.014 30.486 91.2402 30.6164 91.4806C30.7096 91.6522 30.8093 91.8114 30.9156 91.9582C31.0219 92.1049 31.1115 92.2208 31.1842 92.3057L29.2947 93.3446C29.1211 93.1721 28.9357 92.9616 28.7386 92.713C28.5452 92.4713 28.3535 92.1754 28.1634 91.8252C27.8541 91.2553 27.6798 90.6966 27.6404 90.1491C27.6079 89.5978 27.7546 89.0737 28.0805 88.5769C28.4064 88.08 28.9504 87.6247 29.7126 87.2111L40.661 81.269ZM33.8109 101.251C33.3101 100.458 32.986 99.6603 32.8387 98.857C32.7022 98.056 32.7265 97.2828 32.9116 96.5374C33.1009 95.7986 33.4374 95.11 33.9211 94.4715C34.4049 93.8331 35.0133 93.2823 35.7463 92.819L36.1426 92.5686C36.9813 92.0385 37.818 91.6807 38.6527 91.4952C39.4873 91.3096 40.2834 91.2825 41.041 91.4137C41.8052 91.5407 42.5039 91.82 43.1371 92.2516C43.7703 92.6832 44.306 93.2457 44.7442 93.9392C45.2284 94.7053 45.5232 95.457 45.6288 96.1943C45.7343 96.9317 45.6716 97.6367 45.4406 98.3095C45.2204 98.9847 44.8484 99.6172 44.3246 100.207C43.8051 100.803 43.1589 101.346 42.3863 101.834L41.3659 102.479L36.1321 94.1971L37.8459 93.1141L41.5897 99.038L41.7779 98.9191C42.1988 98.6346 42.5474 98.2941 42.8237 97.8977C43.1041 97.5079 43.2598 97.0815 43.2906 96.6184C43.3214 96.1553 43.1699 95.6596 42.836 95.1313C42.5855 94.735 42.2764 94.436 41.9085 94.2341C41.5514 94.0346 41.1497 93.9327 40.7033 93.9283C40.2569 93.9239 39.7737 94.0075 39.2537 94.179C38.7444 94.353 38.2124 94.6153 37.6576 94.9659L37.2614 95.2163C36.7925 95.5126 36.3963 95.8508 36.0727 96.2309C35.7599 96.6134 35.5342 97.0241 35.3957 97.4628C35.2571 97.9016 35.2146 98.3536 35.2683 98.8187C35.3286 99.2797 35.5027 99.738 35.7907 100.194C36.1538 100.768 36.5928 101.207 37.1078 101.51C37.6227 101.813 38.1959 101.996 38.8272 102.059L38.4039 104.087C37.921 104.069 37.4074 103.973 36.8633 103.799C36.3258 103.622 35.7922 103.326 35.2627 102.912C34.7372 102.505 34.2533 101.951 33.8109 101.251ZM45.5096 113.025L57.7943 103.78L59.4996 106.046L45.1175 116.869L43.5742 114.819L45.5096 113.025ZM43.4045 104.284L43.6011 104.136C44.3689 103.558 45.1361 103.122 45.9028 102.829C46.6758 102.531 47.4193 102.382 48.1333 102.382C48.8537 102.378 49.5211 102.531 50.1357 102.841C50.7565 103.146 51.2994 103.608 51.7645 104.226C52.2249 104.837 52.5103 105.463 52.6208 106.104C52.7312 106.744 52.687 107.394 52.488 108.052C52.2954 108.705 51.966 109.359 51.4999 110.013C51.04 110.662 50.4692 111.307 49.7875 111.947L49.1601 112.419C48.3749 112.883 47.6099 113.243 46.865 113.501C46.1201 113.758 45.4071 113.889 44.7258 113.893C44.0446 113.898 43.4092 113.755 42.8197 113.465C42.2348 113.182 41.7098 112.731 41.2448 112.113C40.7844 111.502 40.4966 110.853 40.3814 110.167C40.2709 109.488 40.3174 108.802 40.5209 108.111C40.7245 107.42 41.0703 106.75 41.5582 106.099C42.0525 105.443 42.6679 104.838 43.4045 104.284ZM45.2994 106.393L45.1027 106.541C44.6408 106.888 44.2406 107.253 43.9022 107.635C43.5685 108.023 43.3168 108.422 43.1471 108.834C42.9838 109.24 42.9227 109.653 42.964 110.071C43.0163 110.492 43.1951 110.905 43.5005 111.31C43.8857 111.822 44.3151 112.159 44.7889 112.321C45.2626 112.482 45.7603 112.514 46.282 112.414C46.8146 112.317 47.344 112.124 47.8701 111.835L49.5649 110.56C49.905 110.245 50.1896 109.909 50.4187 109.55C50.6524 109.199 50.8151 108.837 50.9067 108.465C51.0045 108.088 51.0109 107.707 50.9259 107.321C50.8518 106.936 50.6692 106.551 50.3779 106.164C50.0678 105.752 49.7174 105.468 49.3265 105.312C48.9356 105.157 48.5168 105.1 48.0699 105.143C47.6278 105.193 47.171 105.326 46.6995 105.544C46.228 105.762 45.7613 106.045 45.2994 106.393ZM62.3877 132.457L60.7167 134.084L54.3981 127.592L56.0692 125.966L62.3877 132.457ZM67.2049 116.287L54.9785 128.189L52.9268 126.081L65.1532 114.18L67.2049 116.287ZM67.012 126.304L65.3661 127.906L59.8731 122.263L61.519 120.661L67.012 126.304ZM72.9022 122.14L71.2228 123.775L64.9451 117.326L66.6245 115.691L72.9022 122.14ZM73.2452 128.418L72.2945 133.174L76.916 131.626L79.2544 133.67L72.2653 135.826L71.0253 143.317L68.687 141.274L69.6297 136.277L64.8044 137.881L62.4572 135.83L69.7064 133.589L70.9157 126.382L73.2452 128.418ZM81.9001 138.807L72.8952 150.949L70.6267 149.267L81.0836 135.166L83.1732 136.716L81.9001 138.807ZM86.2814 146.768L86.1348 146.966C85.5857 147.706 84.9882 148.328 84.3425 148.832C83.7077 149.334 83.0464 149.694 82.3585 149.914C81.6815 150.131 81.0029 150.187 80.3226 150.082C79.6424 149.976 78.9822 149.686 78.3421 149.211C77.7083 148.741 77.2391 148.213 76.9343 147.627C76.6405 147.04 76.491 146.409 76.4858 145.734C76.4806 145.059 76.594 144.355 76.826 143.622C77.0689 142.888 77.4102 142.139 77.8499 141.376L78.4153 140.614C79.0507 139.927 79.6913 139.352 80.3373 138.888C80.9895 138.428 81.6416 138.099 82.2937 137.902C82.9458 137.705 83.5955 137.662 84.243 137.772C84.8905 137.883 85.528 138.171 86.1555 138.636C86.7956 139.111 87.2704 139.657 87.58 140.276C87.8942 140.888 88.0509 141.549 88.0501 142.259C88.0539 142.962 87.9031 143.696 87.5979 144.462C87.2973 145.221 86.8585 145.99 86.2814 146.768ZM83.8663 145.284L84.0129 145.086C84.3619 144.615 84.6415 144.147 84.8514 143.68C85.0661 143.207 85.1933 142.747 85.2331 142.3C85.2728 141.853 85.2081 141.435 85.0388 141.047C84.8805 140.657 84.5973 140.311 84.1894 140.008C83.7878 139.711 83.3915 139.524 83.0005 139.448C82.6141 139.365 82.2352 139.371 81.8638 139.465C81.4925 139.56 81.1348 139.727 80.7907 139.968C80.4514 140.203 80.1224 140.489 79.8039 140.827L78.4497 142.653C78.1899 143.16 78.0114 143.67 77.9142 144.181C77.817 144.693 77.8509 145.185 78.0159 145.657C78.1919 146.128 78.5434 146.559 79.0706 146.95C79.4784 147.253 79.8919 147.423 80.3108 147.461C80.7298 147.5 81.1443 147.433 81.5543 147.26C81.9752 147.086 82.3809 146.828 82.7712 146.485C83.1616 146.142 83.5266 145.742 83.8663 145.284ZM90.2066 157.294C89.4106 156.799 88.7713 156.222 88.2888 155.563C87.817 154.901 87.5021 154.195 87.344 153.443C87.1926 152.696 87.1955 151.929 87.3529 151.144C87.5102 150.359 87.8179 149.598 88.276 148.861L88.5236 148.463C89.0477 147.621 89.645 146.934 90.3155 146.404C90.986 145.873 91.6908 145.502 92.4299 145.29C93.173 145.072 93.9236 145.019 94.6816 145.131C95.4396 145.244 96.1668 145.517 96.8634 145.95C97.6329 146.429 98.2257 146.977 98.6419 147.595C99.0581 148.213 99.3087 148.875 99.3938 149.581C99.4897 150.285 99.4304 151.016 99.2158 151.775C99.0079 152.538 98.6626 153.308 98.1797 154.084L97.5421 155.109L89.2236 149.934L90.2944 148.212L96.2448 151.914L96.3624 151.725C96.6174 151.286 96.7829 150.827 96.8589 150.35C96.9416 149.877 96.8959 149.425 96.7219 148.995C96.5479 148.565 96.1956 148.185 95.6649 147.855C95.2669 147.607 94.8583 147.472 94.4393 147.451C94.031 147.427 93.6249 147.51 93.2212 147.701C92.8175 147.891 92.4189 148.177 92.0255 148.558C91.6429 148.936 91.2783 149.404 90.9316 149.961L90.684 150.359C90.391 150.83 90.1817 151.307 90.056 151.79C89.941 152.271 89.9168 152.739 89.9831 153.194C90.0495 153.65 90.2082 154.075 90.4591 154.47C90.7141 154.859 91.0705 155.196 91.5282 155.48C92.1054 155.839 92.6917 156.043 93.2872 156.092C93.8827 156.14 94.4784 156.055 95.0742 155.837L95.5765 157.847C95.1339 158.041 94.6298 158.178 94.0644 158.259C93.5031 158.333 92.8939 158.299 92.2369 158.157C91.5866 158.019 90.9098 157.732 90.2066 157.294ZM105.087 153.863L100.286 162.936L97.7898 161.615L103.72 150.408L106.102 151.669L105.087 153.863ZM109.683 153.47L108.435 155.78C108.298 155.672 108.143 155.563 107.971 155.454C107.805 155.349 107.636 155.251 107.464 155.16C107.035 154.933 106.626 154.796 106.236 154.749C105.849 154.694 105.485 154.723 105.144 154.834C104.813 154.941 104.504 155.123 104.219 155.379C103.933 155.634 103.676 155.953 103.447 156.336L102.856 156.076C103.228 155.371 103.643 154.755 104.099 154.228C104.555 153.7 105.041 153.281 105.559 152.972C106.083 152.666 106.623 152.497 107.18 152.464C107.743 152.435 108.304 152.569 108.864 152.864C109.016 152.945 109.171 153.045 109.329 153.164C109.494 153.286 109.612 153.388 109.683 153.47ZM114.713 156.002L109.317 167.476L106.75 166.269L112.147 154.795L114.713 156.002ZM113.394 151.704C113.577 151.315 113.855 151.053 114.229 150.919C114.614 150.78 115.036 150.819 115.495 151.035C115.948 151.248 116.243 151.546 116.382 151.931C116.524 152.309 116.503 152.692 116.321 153.081C116.141 153.462 115.861 153.719 115.479 153.85C115.098 153.982 114.681 153.941 114.229 153.728C113.769 153.512 113.468 153.215 113.327 152.838C113.192 152.464 113.214 152.086 113.394 151.704ZM118.569 171.591C117.697 171.247 116.964 170.794 116.371 170.232C115.788 169.666 115.352 169.028 115.061 168.317C114.778 167.609 114.643 166.854 114.657 166.053C114.671 165.252 114.837 164.449 115.155 163.642L115.328 163.206C115.692 162.283 116.156 161.501 116.72 160.858C117.285 160.216 117.911 159.724 118.6 159.383C119.292 159.035 120.021 158.848 120.787 158.822C121.553 158.797 122.317 158.935 123.08 159.236C123.923 159.569 124.605 160.002 125.125 160.535C125.646 161.068 126.011 161.674 126.222 162.354C126.442 163.029 126.515 163.759 126.441 164.544C126.373 165.332 126.172 166.151 125.836 167.001L125.393 168.124L116.28 164.527L117.025 162.641L123.543 165.214L123.625 165.007C123.797 164.529 123.877 164.049 123.866 163.565C123.863 163.085 123.736 162.649 123.488 162.257C123.24 161.865 122.825 161.554 122.243 161.325C121.807 161.153 121.381 161.094 120.965 161.148C120.559 161.198 120.175 161.352 119.812 161.612C119.449 161.872 119.108 162.225 118.789 162.67C118.481 163.111 118.206 163.637 117.965 164.247L117.793 164.683C117.59 165.199 117.469 165.706 117.432 166.204C117.406 166.697 117.466 167.162 117.613 167.598C117.76 168.034 117.992 168.424 118.31 168.768C118.631 169.104 119.042 169.372 119.543 169.57C120.176 169.819 120.789 169.914 121.383 169.855C121.978 169.796 122.549 169.605 123.096 169.284L123.951 171.171C123.55 171.441 123.079 171.666 122.537 171.847C121.998 172.021 121.393 172.097 120.721 172.075C120.057 172.057 119.339 171.895 118.569 171.591ZM132.376 165.733L129.479 175.275L126.776 174.454L130.46 162.322L133.006 163.095L132.376 165.733ZM130.975 168.614L130.104 168.337C130.372 167.479 130.731 166.727 131.181 166.08C131.638 165.435 132.154 164.918 132.729 164.529C133.312 164.143 133.941 163.901 134.615 163.804C135.292 163.699 135.993 163.757 136.718 163.977C137.301 164.154 137.803 164.396 138.224 164.704C138.655 165.006 138.984 165.388 139.212 165.849C139.447 166.312 139.566 166.858 139.571 167.489C139.578 168.111 139.455 168.837 139.203 169.667L136.823 177.505L134.11 176.681L136.493 168.832C136.67 168.249 136.724 167.763 136.654 167.374C136.594 166.981 136.425 166.664 136.147 166.424C135.878 166.179 135.508 165.985 135.037 165.842C134.574 165.702 134.129 165.673 133.704 165.756C133.279 165.839 132.888 166.01 132.532 166.27C132.183 166.531 131.874 166.862 131.606 167.262C131.337 167.662 131.127 168.113 130.975 168.614ZM146.474 177.778C146.925 177.876 147.348 177.876 147.745 177.779C148.152 177.675 148.5 177.487 148.792 177.215C149.09 176.944 149.297 176.601 149.411 176.186L152.01 176.752C151.821 177.55 151.426 178.228 150.825 178.784C150.224 179.341 149.503 179.732 148.663 179.957C147.824 180.174 146.946 180.183 146.03 179.984C145.084 179.778 144.294 179.438 143.662 178.965C143.031 178.484 142.545 177.907 142.204 177.233C141.862 176.559 141.655 175.822 141.581 175.022C141.515 174.225 141.575 173.398 141.761 172.543L141.848 172.142C142.034 171.287 142.323 170.511 142.715 169.812C143.116 169.108 143.611 168.52 144.202 168.049C144.792 167.578 145.473 167.258 146.245 167.09C147.019 166.915 147.875 166.929 148.814 167.134C149.807 167.35 150.634 167.737 151.295 168.297C151.959 168.849 152.428 169.523 152.703 170.318C152.987 171.108 153.036 171.966 152.85 172.893L150.251 172.327C150.327 171.864 150.303 171.427 150.176 171.016C150.059 170.599 149.841 170.24 149.523 169.938C149.213 169.639 148.805 169.434 148.301 169.325C147.744 169.204 147.257 169.218 146.841 169.367C146.427 169.509 146.074 169.752 145.783 170.096C145.494 170.433 145.251 170.832 145.055 171.293C144.868 171.748 144.719 172.231 144.608 172.743L144.52 173.143C144.409 173.655 144.343 174.16 144.322 174.659C144.302 175.159 144.353 175.622 144.476 176.048C144.608 176.469 144.833 176.833 145.15 177.142C145.468 177.443 145.909 177.655 146.474 177.778ZM160.17 182.479C159.24 182.354 158.421 182.09 157.71 181.687C157.008 181.277 156.431 180.762 155.978 180.142C155.534 179.523 155.222 178.822 155.043 178.042C154.864 177.261 154.832 176.441 154.948 175.581L155.01 175.117C155.142 174.133 155.405 173.262 155.799 172.503C156.192 171.744 156.683 171.116 157.27 170.62C157.858 170.115 158.52 169.759 159.258 169.551C159.995 169.342 160.77 169.293 161.583 169.402C162.482 169.523 163.247 169.779 163.88 170.172C164.513 170.564 165.014 171.065 165.381 171.674C165.757 172.276 166.004 172.968 166.119 173.748C166.243 174.529 166.244 175.373 166.122 176.279L165.962 177.475L156.252 176.17L156.522 174.161L163.467 175.094L163.497 174.874C163.549 174.368 163.512 173.882 163.385 173.416C163.267 172.951 163.04 172.558 162.704 172.237C162.369 171.916 161.892 171.714 161.272 171.63C160.808 171.568 160.38 171.613 159.989 171.765C159.607 171.911 159.271 172.154 158.981 172.493C158.691 172.833 158.445 173.257 158.242 173.766C158.049 174.268 157.908 174.844 157.821 175.494L157.758 175.959C157.684 176.509 157.689 177.03 157.773 177.522C157.865 178.007 158.035 178.444 158.283 178.832C158.53 179.22 158.85 179.542 159.241 179.8C159.633 180.05 160.096 180.21 160.63 180.282C161.304 180.373 161.922 180.318 162.485 180.117C163.048 179.917 163.556 179.595 164.01 179.152L165.293 180.779C164.969 181.137 164.566 181.469 164.083 181.775C163.602 182.073 163.032 182.292 162.375 182.432C161.725 182.573 160.99 182.589 160.17 182.479ZM175.762 177.566L175.764 177.296C175.773 176.382 175.913 175.536 176.186 174.757C176.458 173.97 176.847 173.29 177.353 172.717C177.866 172.135 178.487 171.688 179.216 171.374C179.953 171.053 180.783 170.896 181.705 170.904C182.635 170.913 183.461 171.084 184.185 171.419C184.916 171.746 185.533 172.204 186.036 172.795C186.538 173.377 186.919 174.064 187.177 174.856C187.436 175.639 187.561 176.488 187.553 177.402L187.551 177.672C187.542 178.586 187.402 179.432 187.129 180.211C186.857 180.99 186.464 181.67 185.951 182.251C185.438 182.825 184.817 183.272 184.087 183.594C183.358 183.908 182.532 184.061 181.61 184.052C180.681 184.044 179.85 183.876 179.119 183.549C178.395 183.215 177.782 182.756 177.279 182.173C176.777 181.583 176.396 180.896 176.138 180.112C175.879 179.329 175.754 178.48 175.762 177.566ZM178.589 177.322L178.586 177.591C178.581 178.162 178.635 178.701 178.747 179.21C178.86 179.719 179.04 180.166 179.286 180.551C179.533 180.936 179.85 181.24 180.239 181.462C180.628 181.684 181.091 181.798 181.63 181.802C182.154 181.807 182.608 181.702 182.993 181.487C183.385 181.271 183.708 180.973 183.962 180.593C184.215 180.212 184.403 179.769 184.524 179.262C184.654 178.755 184.721 178.217 184.726 177.646L184.729 177.377C184.734 176.814 184.676 176.283 184.556 175.782C184.443 175.273 184.26 174.822 184.005 174.429C183.759 174.036 183.441 173.729 183.053 173.506C182.672 173.276 182.216 173.159 181.685 173.154C181.153 173.149 180.692 173.258 180.299 173.482C179.914 173.697 179.595 173.999 179.341 174.387C179.088 174.775 178.9 175.223 178.779 175.73C178.657 176.229 178.594 176.759 178.589 177.322ZM195.109 183.594L192.289 183.753L191.503 169.877C191.449 168.933 191.58 168.132 191.895 167.472C192.217 166.805 192.7 166.288 193.345 165.923C193.989 165.55 194.763 165.338 195.668 165.287C195.949 165.271 196.227 165.274 196.502 165.298C196.777 165.314 197.045 165.349 197.306 165.405L197.359 167.585C197.201 167.555 197.028 167.537 196.84 167.532C196.659 167.527 196.464 167.53 196.253 167.542C195.824 167.566 195.459 167.669 195.156 167.851C194.86 168.024 194.64 168.267 194.493 168.581C194.354 168.894 194.297 169.273 194.323 169.717L195.109 183.594ZM197.001 170.786L197.117 172.846L189.746 173.263L189.63 171.204L197.001 170.786Z" fill="white"/>
</svg>
