<svg width="367" height="190" viewBox="0 0 367 190" fill="none" xmlns="http://www.w3.org/2000/svg">
<path d="M210.098 164.105L215.562 171.328L217.87 162.57L221.066 161.939L217.521 173.628L218.738 179.79L215.83 180.365L214.613 174.203L206.89 164.738L210.098 164.105ZM231.985 176.821C231.084 177.078 230.227 177.164 229.414 177.078C228.607 176.983 227.872 176.741 227.21 176.353C226.554 175.963 225.989 175.446 225.513 174.802C225.037 174.157 224.68 173.418 224.443 172.584L224.314 172.133C224.043 171.179 223.936 170.275 223.993 169.422C224.051 168.569 224.249 167.798 224.589 167.108C224.927 166.411 225.392 165.82 225.985 165.334C226.578 164.848 227.268 164.493 228.057 164.269C228.929 164.02 229.733 163.95 230.47 164.057C231.208 164.163 231.866 164.423 232.446 164.834C233.032 165.236 233.534 165.771 233.952 166.44C234.377 167.107 234.715 167.88 234.965 168.759L235.296 169.92L225.874 172.603L225.318 170.653L232.058 168.734L231.997 168.52C231.843 168.036 231.615 167.605 231.313 167.228C231.018 166.849 230.653 166.58 230.217 166.419C229.782 166.259 229.263 166.265 228.662 166.436C228.211 166.564 227.837 166.776 227.54 167.072C227.248 167.358 227.036 167.715 226.906 168.142C226.776 168.569 226.72 169.056 226.738 169.603C226.761 170.141 226.862 170.726 227.042 171.357L227.17 171.808C227.322 172.341 227.535 172.817 227.808 173.234C228.087 173.642 228.417 173.975 228.799 174.232C229.18 174.488 229.602 174.657 230.063 174.737C230.523 174.809 231.011 174.771 231.53 174.624C232.184 174.437 232.729 174.14 233.165 173.732C233.601 173.323 233.938 172.825 234.177 172.237L236.003 173.216C235.849 173.674 235.612 174.139 235.292 174.612C234.969 175.078 234.535 175.506 233.988 175.897C233.449 176.286 232.782 176.594 231.985 176.821ZM246.067 169.21L243.947 163.547C243.788 163.123 243.574 162.786 243.305 162.536C243.037 162.286 242.713 162.136 242.336 162.086C241.966 162.032 241.546 162.093 241.078 162.269C240.646 162.43 240.301 162.643 240.041 162.907C239.781 163.171 239.61 163.461 239.527 163.775C239.445 164.09 239.462 164.404 239.58 164.719L236.946 165.705C236.771 165.237 236.715 164.741 236.777 164.217C236.84 163.693 237.022 163.178 237.325 162.673C237.628 162.167 238.043 161.703 238.569 161.281C239.095 160.859 239.731 160.508 240.477 160.229C241.37 159.895 242.216 159.749 243.016 159.791C243.823 159.831 244.538 160.081 245.161 160.54C245.788 160.989 246.271 161.667 246.611 162.575L248.587 167.854C248.79 168.395 249.009 168.868 249.243 169.272C249.483 169.666 249.734 169.993 249.999 170.253L250.064 170.429L247.354 171.444C247.122 171.205 246.888 170.88 246.65 170.468C246.418 170.046 246.223 169.627 246.067 169.21ZM244.639 164.226L245.273 165.853L243.374 166.564C242.884 166.748 242.47 166.957 242.133 167.192C241.793 167.419 241.531 167.667 241.348 167.936C241.165 168.205 241.058 168.487 241.027 168.782C240.995 169.078 241.039 169.383 241.156 169.697C241.274 170.012 241.455 170.273 241.7 170.482C241.943 170.683 242.23 170.805 242.563 170.847C242.903 170.887 243.274 170.831 243.677 170.681C244.218 170.478 244.649 170.191 244.969 169.821C245.294 169.441 245.513 169.046 245.627 168.637C245.738 168.22 245.746 167.862 245.651 167.564L246.946 168.418C246.971 168.751 246.941 169.129 246.858 169.552C246.775 169.975 246.62 170.409 246.394 170.852C246.172 171.285 245.861 171.69 245.459 172.065C245.065 172.438 244.56 172.74 243.946 172.97C243.17 173.26 242.421 173.365 241.699 173.285C240.974 173.198 240.341 172.956 239.8 172.558C239.256 172.152 238.858 171.613 238.606 170.94C238.37 170.311 238.279 169.711 238.333 169.14C238.39 168.56 238.588 168.018 238.926 167.517C239.271 167.012 239.748 166.55 240.359 166.129C240.966 165.702 241.701 165.326 242.565 165.003L244.639 164.226ZM252.018 158.448L256.267 167.793L253.696 168.962L248.448 157.419L250.902 156.304L252.018 158.448ZM254.516 154.57L255.582 156.969C255.412 157.012 255.232 157.068 255.04 157.138C254.856 157.205 254.675 157.279 254.497 157.359C254.056 157.56 253.698 157.8 253.422 158.08C253.143 158.353 252.942 158.659 252.822 158.997C252.705 159.325 252.66 159.68 252.688 160.062C252.716 160.444 252.811 160.842 252.974 161.257L252.407 161.567C252.077 160.841 251.842 160.137 251.703 159.454C251.564 158.77 251.53 158.129 251.601 157.53C251.679 156.929 251.876 156.397 252.19 155.937C252.511 155.473 252.96 155.111 253.536 154.849C253.692 154.777 253.866 154.716 254.057 154.663C254.255 154.608 254.408 154.577 254.516 154.57ZM267.314 158.38C267.181 158.133 266.999 157.942 266.768 157.809C266.533 157.669 266.196 157.611 265.756 157.635C265.323 157.655 264.733 157.777 263.984 158.002C263.322 158.19 262.695 158.327 262.104 158.414C261.515 158.491 260.975 158.493 260.484 158.421C259.992 158.348 259.554 158.184 259.169 157.93C258.784 157.676 258.466 157.315 258.214 156.847C257.97 156.393 257.838 155.909 257.82 155.396C257.801 154.883 257.894 154.371 258.099 153.862C258.304 153.352 258.623 152.866 259.057 152.402C259.498 151.935 260.048 151.523 260.709 151.168C261.645 150.665 262.531 150.392 263.369 150.35C264.21 150.297 264.953 150.442 265.6 150.787C266.242 151.124 266.743 151.627 267.102 152.294L264.615 153.632C264.456 153.336 264.232 153.101 263.944 152.928C263.658 152.744 263.325 152.653 262.944 152.654C262.56 152.648 262.144 152.765 261.697 153.005C261.27 153.235 260.953 153.494 260.744 153.783C260.54 154.062 260.426 154.345 260.403 154.632C260.387 154.916 260.447 155.185 260.584 155.44C260.684 155.625 260.809 155.775 260.959 155.89C261.112 155.994 261.308 156.061 261.547 156.093C261.782 156.117 262.075 156.101 262.427 156.046C262.785 155.986 263.217 155.882 263.723 155.734C264.672 155.454 265.529 155.291 266.293 155.244C267.06 155.186 267.728 155.289 268.295 155.551C268.858 155.807 269.319 156.269 269.678 156.936C269.944 157.432 270.082 157.943 270.091 158.471C270.102 158.988 269.99 159.505 269.754 160.022C269.514 160.533 269.16 161.02 268.691 161.485C268.229 161.946 267.655 162.362 266.966 162.732C265.955 163.276 265.002 163.558 264.108 163.577C263.21 163.59 262.427 163.412 261.759 163.044C261.094 162.665 260.597 162.17 260.268 161.557L262.672 160.264C262.948 160.71 263.273 161.01 263.648 161.163C264.026 161.306 264.421 161.346 264.832 161.285C265.245 161.214 265.638 161.078 266.01 160.878C266.457 160.638 266.8 160.377 267.04 160.098C267.276 159.811 267.418 159.522 267.465 159.23C267.509 158.932 267.459 158.649 267.314 158.38ZM276.456 142.028L283.558 152.532L281.209 154.121L274.106 143.617L276.456 142.028ZM272.087 140.965C271.846 140.609 271.764 140.236 271.839 139.845C271.917 139.444 272.166 139.101 272.586 138.816C273.001 138.536 273.408 138.435 273.81 138.513C274.207 138.584 274.526 138.797 274.766 139.153C275.003 139.503 275.08 139.875 274.998 140.27C274.916 140.665 274.668 141.002 274.254 141.282C273.833 141.567 273.424 141.673 273.027 141.602C272.637 141.527 272.323 141.314 272.087 140.965ZM283.38 140.314L289.476 148.207L287.24 149.934L279.49 139.898L281.596 138.272L283.38 140.314ZM284.915 143.127L284.185 143.676C283.642 142.96 283.237 142.232 282.97 141.49C282.709 140.744 282.588 140.023 282.604 139.329C282.627 138.63 282.795 137.978 283.106 137.372C283.413 136.76 283.867 136.222 284.467 135.759C284.949 135.386 285.437 135.118 285.932 134.953C286.428 134.777 286.93 134.73 287.437 134.812C287.951 134.889 288.466 135.109 288.982 135.47C289.493 135.825 290.014 136.346 290.544 137.033L295.551 143.516L293.306 145.249L288.292 138.757C287.92 138.274 287.555 137.949 287.198 137.781C286.842 137.601 286.486 137.556 286.129 137.643C285.774 137.72 285.402 137.909 285.012 138.21C284.629 138.506 284.348 138.851 284.169 139.246C283.99 139.641 283.903 140.059 283.908 140.499C283.919 140.935 284.009 141.378 284.18 141.829C284.35 142.28 284.595 142.712 284.915 143.127ZM295.107 121.182L306.912 133.501L304.789 135.536L292.983 123.217L295.107 121.182ZM304.848 121.307L312.209 128.036L310.304 130.12L300.945 121.565L302.74 119.602L304.848 121.307ZM306.844 123.814L306.218 124.481C305.561 123.869 305.037 123.22 304.646 122.536C304.261 121.845 304.018 121.157 303.915 120.47C303.817 119.778 303.87 119.106 304.073 118.455C304.271 117.8 304.625 117.192 305.136 116.633C305.547 116.183 305.982 115.834 306.441 115.587C306.9 115.329 307.386 115.196 307.9 115.19C308.419 115.177 308.964 115.305 309.535 115.573C310.099 115.835 310.702 116.258 311.342 116.843L317.388 122.37L315.475 124.463L309.42 118.929C308.97 118.518 308.555 118.26 308.174 118.155C307.793 118.04 307.434 118.056 307.098 118.204C306.761 118.34 306.427 118.59 306.095 118.954C305.768 119.311 305.55 119.7 305.442 120.119C305.334 120.539 305.32 120.965 305.4 121.399C305.485 121.826 305.651 122.247 305.896 122.662C306.142 123.077 306.457 123.461 306.844 123.814ZM322.861 111.38L310.694 101.98L312.428 99.7359L326.672 110.741L325.103 112.772L322.861 111.38ZM314.989 115.723L314.794 115.573C314.033 114.985 313.41 114.361 312.924 113.699C312.432 113.033 312.092 112.355 311.903 111.666C311.709 110.973 311.679 110.289 311.816 109.614C311.946 108.935 312.247 108.289 312.72 107.677C313.188 107.071 313.716 106.63 314.305 106.354C314.893 106.078 315.531 105.949 316.218 105.967C316.899 105.979 317.617 106.124 318.371 106.401C319.119 106.672 319.891 107.052 320.689 107.54L321.31 108.02C321.965 108.655 322.516 109.297 322.961 109.947C323.407 110.597 323.721 111.25 323.906 111.906C324.09 112.562 324.121 113.213 323.997 113.858C323.879 114.497 323.583 115.122 323.11 115.734C322.642 116.34 322.093 116.789 321.462 117.082C320.836 117.368 320.163 117.505 319.443 117.491C318.722 117.478 317.984 117.322 317.227 117.024C316.464 116.72 315.718 116.287 314.989 115.723ZM316.52 113.338L316.715 113.489C317.173 113.842 317.63 114.131 318.088 114.357C318.551 114.576 319.003 114.713 319.444 114.768C319.879 114.818 320.293 114.767 320.686 114.617C321.078 114.455 321.429 114.173 321.739 113.771C322.131 113.264 322.342 112.761 322.372 112.262C322.403 111.762 322.301 111.274 322.068 110.797C321.832 110.309 321.506 109.85 321.089 109.419L319.41 108.122C319.017 107.877 318.617 107.692 318.211 107.566C317.81 107.433 317.418 107.372 317.035 107.382C316.646 107.388 316.276 107.482 315.927 107.666C315.576 107.84 315.252 108.118 314.956 108.501C314.641 108.909 314.46 109.322 314.413 109.74C314.367 110.158 314.423 110.577 314.583 110.997C314.747 111.41 314.997 111.815 315.332 112.212C315.667 112.609 316.063 112.985 316.52 113.338ZM330.879 99.1666L322.735 93.913L324.272 91.5299L334.927 98.4035L333.479 100.649L330.879 99.1666ZM328.879 97.4024L329.374 96.5921C330.09 97.0537 330.698 97.5581 331.201 98.1053C331.697 98.6483 332.062 99.2279 332.296 99.8441C332.525 100.456 332.598 101.099 332.517 101.772C332.43 102.44 332.155 103.133 331.694 103.848C331.359 104.367 330.977 104.794 330.546 105.13C330.116 105.466 329.641 105.69 329.123 105.801C328.609 105.907 328.044 105.882 327.428 105.726C326.812 105.571 326.153 105.267 325.451 104.813L318.568 100.373L320.099 97.9997L327.002 102.453C327.389 102.703 327.744 102.866 328.065 102.944C328.381 103.017 328.668 103.026 328.927 102.97C329.186 102.914 329.417 102.802 329.618 102.634C329.819 102.467 329.996 102.265 330.148 102.028C330.584 101.352 330.796 100.736 330.784 100.179C330.768 99.6114 330.587 99.0995 330.24 98.6431C329.897 98.1802 329.444 97.7667 328.879 97.4024ZM337.513 86.8145C337.265 86.6815 337.008 86.6234 336.742 86.6401C336.469 86.6531 336.156 86.7908 335.802 87.0532C335.452 87.3087 335.027 87.7368 334.528 88.3374C334.079 88.8592 333.632 89.3198 333.187 89.7194C332.739 90.1083 332.29 90.4081 331.84 90.6187C331.39 90.8294 330.934 90.935 330.473 90.9356C330.011 90.9361 329.547 90.8108 329.079 90.5595C328.624 90.3156 328.248 89.9849 327.949 89.5672C327.65 89.1496 327.445 88.6718 327.335 88.1338C327.225 87.5958 327.222 87.0138 327.328 86.3877C327.437 85.7547 327.669 85.1078 328.024 84.447C328.527 83.5109 329.115 82.794 329.79 82.2963C330.462 81.788 331.163 81.499 331.892 81.4293C332.614 81.3559 333.309 81.4984 333.977 81.8568L332.641 84.3452C332.345 84.1863 332.029 84.1142 331.693 84.1289C331.354 84.133 331.025 84.2406 330.708 84.4516C330.384 84.6589 330.102 84.9862 329.862 85.4336C329.633 85.8604 329.511 86.2519 329.497 86.608C329.48 86.9535 329.542 87.2524 329.681 87.5046C329.824 87.75 330.023 87.941 330.278 88.0777C330.464 88.1775 330.651 88.2336 330.839 88.2461C331.024 88.2479 331.225 88.1961 331.441 88.0905C331.651 87.9813 331.887 87.8064 332.149 87.5658C332.415 87.3184 332.718 86.9934 333.058 86.5908C333.695 85.8333 334.319 85.224 334.93 84.7629C335.538 84.2912 336.151 84.0084 336.769 83.9145C337.38 83.8169 338.019 83.9473 338.687 84.3058C339.183 84.5718 339.58 84.9224 339.878 85.3575C340.173 85.782 340.365 86.2752 340.454 86.837C340.536 87.3951 340.509 87.9973 340.375 88.6436C340.245 89.2829 339.995 89.9468 339.625 90.6351C339.082 91.6469 338.443 92.4078 337.708 92.9178C336.966 93.4241 336.215 93.7081 335.455 93.7699C334.692 93.8211 334.004 93.6823 333.391 93.3534L334.683 90.9477C335.159 91.1677 335.595 91.2381 335.992 91.1588C336.387 91.0688 336.738 90.885 337.047 90.6074C337.352 90.3192 337.605 89.9892 337.804 89.6175C338.044 89.1701 338.187 88.7635 338.233 88.3978C338.271 88.0285 338.23 87.7092 338.108 87.44C337.98 87.1671 337.782 86.9586 337.513 86.8145ZM334.483 71.9689L336.359 72.8241L333.395 79.3291L331.518 78.4739L334.483 71.9689ZM329.548 75.3093L330.719 72.7393L341.894 77.8318C342.25 77.9938 342.546 78.0687 342.784 78.0567C343.017 78.0343 343.208 77.9452 343.356 77.7895C343.504 77.6338 343.635 77.4316 343.748 77.1828C343.829 77.005 343.897 76.8296 343.95 76.6563C344.003 76.4831 344.042 76.3419 344.066 76.2326L346.033 77.116C345.999 77.3585 345.943 77.6332 345.863 77.9403C345.786 78.2402 345.666 78.5714 345.5 78.934C345.231 79.5241 344.89 79.9996 344.477 80.3607C344.056 80.7185 343.549 80.9168 342.956 80.9557C342.364 80.9946 341.672 80.8343 340.883 80.4747L329.548 75.3093ZM338.925 67.5179L348.483 71.263L347.453 73.8926L335.647 69.2668L336.63 66.7573L338.925 67.5179ZM338.016 62.9958L340.452 63.9752C340.36 64.1238 340.27 64.2899 340.181 64.4733C340.095 64.6494 340.017 64.8284 339.945 65.0103C339.769 65.4613 339.679 65.8834 339.676 66.2766C339.666 66.6669 339.735 67.0255 339.884 67.3523C340.028 67.669 340.243 67.9547 340.53 68.2095C340.816 68.4643 341.162 68.6838 341.568 68.8681L341.376 69.4853C340.634 69.1946 339.976 68.8525 339.4 68.459C338.824 68.0656 338.353 67.6293 337.987 67.1503C337.624 66.6639 337.394 66.1462 337.299 65.597C337.207 65.0406 337.276 64.4677 337.507 63.8785C337.569 63.7185 337.651 63.5533 337.751 63.3828C337.854 63.2051 337.943 63.0761 338.016 62.9958ZM350.863 60.511L341.154 53.7861L342.076 50.9065L354.443 60.2049C354.705 60.4118 354.982 60.6605 355.275 60.951C355.567 61.2415 355.824 61.5819 356.043 61.9721C356.273 62.3572 356.416 62.7928 356.474 63.2788C356.539 63.7673 356.475 64.3128 356.282 64.9155C356.206 65.1536 356.11 65.3771 355.994 65.5861C355.888 65.7899 355.781 65.9815 355.675 66.1606L353.617 65.5145C353.649 65.4425 353.685 65.3556 353.726 65.2538C353.769 65.1446 353.801 65.0565 353.822 64.9895C353.965 64.5431 354.029 64.1532 354.012 63.8198C354.003 63.4888 353.91 63.1922 353.731 62.93C353.555 62.6604 353.287 62.3943 352.928 62.1317L350.863 60.511ZM339.511 58.9201L349.469 58.9452L352.458 59.3726L352.341 61.3901L338.582 61.822L339.511 58.9201Z" fill="white"/>
</svg>
