<svg width="155" height="102" viewBox="0 0 155 102" fill="none" xmlns="http://www.w3.org/2000/svg">
<path d="M13.6457 98.6331L8.09517 100.461L7.92046 99.9303L9.59378 99.3793L8.12216 94.9102L2.13617 89.4397L1.07503 89.7891L0.90032 89.2585L5.96112 87.592L6.13583 88.1226L4.58494 88.6333L9.64938 93.4347L10.6865 86.6241L9.05396 87.1617L8.87924 86.6311L12.4912 85.4417C12.5136 85.5097 12.5292 85.58 12.538 85.6525C12.5688 85.8836 12.4346 86.0484 12.1353 86.147C11.6909 86.3084 11.3931 86.6176 11.2419 87.0745L10.2656 94.0009L11.7977 98.6535L12.92 98.2839C13.1875 98.226 13.4294 98.3424 13.6457 98.6331ZM19.7374 87.0582C19.4823 87.1529 19.2647 87.2871 19.0847 87.4608C18.2992 88.2259 18.1984 89.4778 18.7824 91.2165L20.5901 90.5917C21.164 90.4093 21.5905 90.2205 21.8695 90.0253C22.3652 89.6734 22.491 89.1684 22.2469 88.5104C22.1473 88.2418 22.0165 87.9924 21.8547 87.7622C21.3026 86.974 20.5968 86.7394 19.7374 87.0582ZM25.6971 92.0654C25.6862 92.2833 25.662 92.5062 25.6243 92.7341C25.3564 94.0709 24.4638 95.0208 22.9464 95.5838C22.0467 95.9176 21.1613 96.0017 20.2901 95.836C18.6986 95.5405 17.5715 94.4997 16.9089 92.7137C16.5252 91.6797 16.4374 90.6811 16.6452 89.7179C16.9707 88.207 17.9324 87.155 19.5304 86.5622C20.3764 86.2483 21.1999 86.1413 22.0008 86.2414C23.2023 86.3914 23.9898 86.97 24.3635 87.9771C24.508 88.3666 24.5201 88.7287 24.4 89.0636C24.1227 89.7164 23.0568 90.3639 21.2022 91.0062L18.9917 91.7805C18.9967 91.794 19.0016 91.8074 19.0066 91.8208C20.0702 94.4816 21.4413 95.5006 23.1199 94.8778C23.3347 94.7981 23.5396 94.6915 23.7345 94.5581C24.5814 93.9994 25.0545 93.1746 25.1538 92.0837L25.6971 92.0654ZM36.2778 90.2889C35.2805 90.6883 34.4378 90.3408 33.7498 89.2464C33.754 89.5549 33.7065 89.8694 33.6072 90.19C33.285 91.1307 32.6214 91.8102 31.6164 92.2284C31.2064 92.3989 30.802 92.4896 30.4032 92.5004C29.3422 92.523 28.5916 92.0054 28.1514 90.9474C28.0689 90.7491 28.0089 90.5491 27.9716 90.3474C27.719 88.8082 29.1713 87.3584 32.3285 85.9983L31.8003 84.7288C31.2204 83.3722 30.3893 82.9035 29.3072 83.3227C29.0427 83.4328 28.8372 83.5726 28.6905 83.7422C28.4998 83.9922 28.4285 84.4174 28.4767 85.0179C28.492 85.1667 28.5003 85.2796 28.5013 85.3567C28.5242 85.8591 28.3307 86.1956 27.9207 86.3662C27.8149 86.4102 27.7036 86.441 27.5868 86.4586C27.1406 86.5046 26.8295 86.3161 26.6534 85.8929C26.5599 85.6681 26.539 85.413 26.591 85.1277C26.7831 84.21 27.6793 83.4183 29.2794 82.7526C31.4933 81.8469 33.0371 82.4069 33.9109 84.4323L35.644 88.5979C35.9269 89.2404 36.2325 89.5088 36.5609 89.4032C36.9653 89.2194 37.0185 88.6388 36.7204 87.6614L37.2444 87.4666C37.3577 87.7763 37.4308 88.0639 37.4637 88.3294C37.5988 89.2506 37.2035 89.9037 36.2778 90.2889ZM32.0913 91.0767C32.2896 90.9942 32.4753 90.8626 32.6484 90.682C33.2227 90.0862 33.4297 89.2788 33.2694 88.2595L32.5513 86.5338C31.7766 86.8717 31.1694 87.2019 30.7296 87.5245C29.8765 88.1587 29.6371 88.9254 30.0112 89.8246C30.0882 90.0097 30.173 90.1761 30.2655 90.3238C30.7553 91.1284 31.3639 91.3793 32.0913 91.0767ZM44.278 85.9467C44.3693 85.9052 44.4504 85.8761 44.5216 85.8595C44.7029 85.8085 44.8588 85.9265 44.9892 86.2133L39.8652 88.5432L39.6428 88.0543C39.9818 87.9001 40.2242 87.7584 40.37 87.6292C40.7007 87.353 40.7327 86.9215 40.4659 86.3348L37.6202 80.0763L36.2903 80.681L36.068 80.1921L39.1385 78.796L40.0989 80.6486C40.0775 80.1863 40.1391 79.7335 40.2837 79.2901C40.6131 78.3536 41.1689 77.7075 41.9512 77.3518C42.0947 77.2866 42.244 77.2344 42.3993 77.1953C43.0832 77.0731 43.5645 77.3185 43.8432 77.9313C43.8965 78.0486 43.9303 78.1748 43.9446 78.31C43.9837 78.8114 43.7752 79.1658 43.3188 79.3733C43.2145 79.4208 43.1108 79.4522 43.0077 79.4676C42.7504 79.4902 42.4221 79.3562 42.0226 79.0659C41.6978 78.836 41.4441 78.7625 41.2615 78.8455C41.098 78.9356 40.9534 79.1193 40.8278 79.3967C40.4154 80.3238 40.5174 81.4653 41.134 82.8212L42.8503 86.5959L44.278 85.9467ZM51.9925 82.4759C52.8651 82.0432 53.2865 81.4906 53.2567 80.8179C53.251 80.6129 53.2036 80.4206 53.1145 80.2409C52.8282 79.6635 52.179 79.3699 51.167 79.3601C50.9556 79.353 50.6161 79.3615 50.1484 79.3856C48.9184 79.4519 48.0443 79.3817 47.5261 79.175C46.9632 78.9426 46.545 78.5505 46.2714 77.9987C45.7942 77.0363 45.9894 76.1081 46.8571 75.2143C47.2492 74.812 47.7275 74.4709 48.2922 74.191C49.2161 73.7329 50.0622 73.5371 50.8307 73.6037C50.6461 73.2316 50.6374 72.9721 50.8044 72.8254C50.8622 72.7807 50.9296 72.7393 51.0066 72.7011L52.1996 75.1071L51.6607 75.3744C51.024 74.2193 50.0801 73.9439 48.829 74.5483C47.9308 74.9936 47.5094 75.5463 47.5648 76.2063C47.5835 76.3729 47.631 76.5332 47.7073 76.6871C47.9809 77.2389 48.6077 77.5196 49.5877 77.5293C49.7927 77.5236 50.1195 77.5055 50.568 77.4749C51.8109 77.4022 52.6914 77.4692 53.2095 77.6759C53.8108 77.9213 54.2546 78.3327 54.541 78.9102C55.0627 79.9624 54.864 80.9482 53.945 81.8675C53.5722 82.2442 53.11 82.5693 52.5582 82.8429C51.5381 83.3327 50.5638 83.5441 49.6352 83.4769C49.8006 83.8106 49.8127 84.0444 49.6713 84.1784C49.6007 84.2294 49.514 84.2804 49.4114 84.3313L47.9607 81.4056L48.5574 81.1097C49.3911 82.7267 50.5361 83.1821 51.9925 82.4759ZM66.6165 74.6155C66.7042 74.5669 66.7828 74.5315 66.8524 74.5093C67.0291 74.444 67.1939 74.5492 67.3467 74.8247L62.8938 77.2942L62.6333 76.8245C62.9465 76.6508 63.1803 76.4966 63.3348 76.3617C63.6731 76.0267 63.686 75.5774 63.3734 75.0137L60.0391 69.0014L58.7051 69.7412L58.4446 69.2715L61.5823 67.5314L65.771 75.0844L66.6165 74.6155ZM60.3303 64.7864C60.4344 64.9743 60.4941 65.1705 60.5093 65.375C60.5325 65.9189 60.2936 66.3299 59.7926 66.6077C59.6172 66.705 59.4273 66.7612 59.2228 66.7763C58.6732 66.819 58.2595 66.5899 57.9817 66.0888C57.8775 65.901 57.8206 65.695 57.811 65.471C57.7878 64.9271 58.0142 64.5231 58.4901 64.2591C58.678 64.1549 58.884 64.0981 59.1079 64.0885C59.6588 64.0778 60.0663 64.3104 60.3303 64.7864ZM72.8769 70.9555C72.9629 70.9039 73.0403 70.8658 73.1091 70.8413C73.2835 70.7701 73.4517 70.8696 73.6138 71.1399L69.4496 73.6369L69.1734 73.1763C69.4805 72.9921 69.7053 72.8239 69.8478 72.6717C70.1451 72.3598 70.128 71.9275 69.7965 71.3747L66.2609 65.4785L65.0079 66.2299L64.7317 65.7692L67.643 64.0235L68.7295 65.6265C68.6829 65.2704 68.6842 64.9105 68.7334 64.547C68.913 63.4539 69.4573 62.6349 70.3663 62.0898C70.7963 61.832 71.2483 61.6946 71.7223 61.6775C72.9186 61.6115 73.9108 62.2356 74.699 63.55L77.4833 68.1932L78.2756 67.7181C78.3616 67.6666 78.439 67.6285 78.5078 67.604C78.6822 67.5328 78.8504 67.6323 79.0125 67.9025L74.8114 70.4217L74.5352 69.961C74.8423 69.7769 75.0671 69.6087 75.2096 69.4564C75.4381 69.1691 75.3903 68.7552 75.0662 68.2147L72.7681 64.3822C72.606 64.112 72.4206 63.8724 72.2119 63.6636C71.5611 63.0518 70.8672 62.9669 70.1302 63.4088C69.8599 63.5709 69.64 63.8029 69.4705 64.105C69.0134 64.9302 69.0402 65.8661 69.5508 66.9127L72.1952 71.3643L72.8769 70.9555ZM90.5026 60.4416L85.7442 63.6452L85.4323 63.1818L86.858 62.2219L80.2828 52.4556L78.8571 53.4155L78.5451 52.9522L83.3035 49.7486L83.6155 50.2119L82.1898 51.1718L88.7649 60.9381L89.7273 60.2902C89.7867 60.2502 89.8501 60.2161 89.9175 60.188C90.1316 60.0957 90.3267 60.1802 90.5026 60.4416ZM95.8041 56.0268C95.8854 55.968 95.9592 55.9235 96.0256 55.8931C96.1932 55.8071 96.3694 55.8918 96.5541 56.1471L92.6202 58.9932L92.3054 58.558C92.5955 58.3481 92.805 58.1612 92.9339 57.9973C93.2033 57.661 93.149 57.2317 92.7712 56.7095L88.7414 51.1394L87.5578 51.9957L87.2429 51.5606L89.9932 49.5709L91.2136 51.0745C91.1365 50.7236 91.1069 50.365 91.1247 49.9986C91.2095 48.8941 91.6813 48.0313 92.5401 47.41C92.9462 47.1162 93.3847 46.9404 93.8556 46.8826C95.0417 46.7139 96.084 47.2504 96.9823 48.492L100.156 52.8785L100.904 52.337C100.985 52.2782 101.059 52.2336 101.126 52.2033C101.293 52.1173 101.47 52.202 101.654 52.4573L97.6855 55.3286L97.3707 54.8934C97.6608 54.6835 97.8703 54.4966 97.9992 54.3326C98.2021 54.0267 98.1189 53.6184 97.7495 53.1079L95.1301 49.4873C94.9454 49.232 94.7401 49.0093 94.5142 48.8192C93.8132 48.2656 93.1145 48.2407 92.4183 48.7445C92.163 48.9292 91.9639 49.1793 91.8209 49.4948C91.4365 50.3563 91.5437 51.2864 92.1425 52.2852L95.1601 56.4927L95.8041 56.0268ZM109.464 46.3553L107.93 44.8031C107.952 44.877 107.974 44.9509 107.996 45.0248C108.38 46.5674 107.989 47.8019 106.822 48.7284C106.205 49.2183 105.503 49.4742 104.716 49.4961C103.304 49.5381 102.055 48.875 100.968 47.5067C100.211 46.5534 99.7772 45.5352 99.6668 44.4522C99.5423 42.9598 100.063 41.7503 101.23 40.8238C102.116 40.1201 103.056 39.8303 104.051 39.9546L100.911 36.0011L99.3296 37.2572L98.9955 36.8366L102.192 34.2978L110.547 44.7821L111.371 44.1273C111.439 44.0739 111.505 44.0305 111.57 43.9972C111.733 43.9038 111.918 43.9861 112.123 44.244L109.464 46.3553ZM102.591 45.8884C103.019 46.4268 103.452 46.8689 103.892 47.2149C105.034 48.1003 106.02 48.2133 106.85 47.5541C107.22 47.2601 107.453 46.8739 107.548 46.3956C107.778 45.2802 107.314 43.9935 106.156 42.5355C105.693 41.9523 105.22 41.4954 104.738 41.1649C103.689 40.4432 102.767 40.3986 101.97 41.0311C101.668 41.2716 101.45 41.5728 101.316 41.9348C100.928 43.0116 101.353 44.3295 102.591 45.8884ZM121.537 35.5109C121.613 35.4454 121.683 35.3947 121.746 35.3588C121.906 35.2589 122.089 35.3283 122.294 35.5669L119.756 37.7555L118.323 36.3241C118.422 36.6361 118.485 36.9606 118.51 37.2977C118.599 38.4315 118.22 39.3632 117.374 40.0927C115.825 41.4099 114.263 41.1674 112.691 39.3652L109.267 35.3949L108.145 36.3629L107.794 35.9561L110.479 33.6413L114.477 38.2788C114.608 38.4306 114.75 38.5731 114.902 38.7063C115.753 39.4293 116.568 39.4542 117.35 38.7808C117.61 38.5563 117.799 38.2606 117.918 37.8936C118.209 36.9808 117.973 36.0494 117.211 35.0993L113.97 31.3405L112.864 32.2945L112.513 31.8877L115.198 29.5729L120.837 36.1141L121.537 35.5109ZM126.451 31.2887C127.164 30.6244 127.409 29.9742 127.188 29.3382C127.124 29.1434 127.023 28.9727 126.887 28.8261C126.447 28.3547 125.741 28.2592 124.769 28.5394C124.564 28.5931 124.241 28.6984 123.8 28.8553C122.64 29.2709 121.783 29.4538 121.227 29.404C120.621 29.3424 120.108 29.0863 119.688 28.6359C118.955 27.8503 118.877 26.9051 119.453 25.8003C119.713 25.3027 120.074 24.839 120.535 24.4092C121.289 23.7058 122.044 23.2761 122.799 23.12C122.516 22.8163 122.433 22.5702 122.551 22.3817C122.594 22.3224 122.646 22.2635 122.709 22.2048L124.541 24.1688L124.101 24.5791C123.16 23.6545 122.177 23.6608 121.151 24.5979C120.418 25.2817 120.173 25.9318 120.415 26.5483C120.48 26.7026 120.571 26.8426 120.689 26.9683C121.109 27.4187 121.79 27.5083 122.731 27.2371C122.926 27.173 123.234 27.0621 123.655 26.9045C124.825 26.4791 125.688 26.2913 126.244 26.3411C126.89 26.4042 127.433 26.6714 127.873 27.1427C128.674 28.0017 128.765 29.0031 128.148 30.1469C127.899 30.6145 127.549 31.0584 127.098 31.4784C126.261 32.2397 125.388 32.721 124.479 32.9224C124.733 33.1948 124.811 33.4154 124.714 33.5843C124.661 33.6534 124.593 33.727 124.509 33.8051L122.282 31.4169L122.769 30.9627C124.03 32.2734 125.258 32.3821 126.451 31.2887ZM125.298 21.1019L124.921 20.7195L125.992 19.6633L124.558 18.2104L125.71 16.4407L127.46 18.2148L129.678 16.0269L130.055 16.4092L127.837 18.5971L132.424 23.2464C133.189 24.0011 133.841 24.1321 134.381 23.6394C134.881 23.1263 134.796 22.3053 134.125 21.1766L134.613 20.8457C134.743 21.039 134.858 21.2372 134.958 21.4405C135.518 22.5786 135.364 23.5752 134.498 24.4302C134.416 24.5107 134.324 24.5911 134.223 24.6714C133.011 25.6659 131.746 25.4954 130.428 24.1597L126.369 20.0456L125.298 21.1019ZM140.716 16.9522C140.785 16.8795 140.849 16.8221 140.909 16.7801C141.058 16.6648 141.247 16.7157 141.475 16.9328L137.598 21.0132L137.209 20.6432C137.465 20.3733 137.637 20.1511 137.723 19.9766C137.926 19.5966 137.794 19.1846 137.327 18.7406L132.343 14.0048L131.337 15.0638L130.948 14.6938L133.271 12.2487L134.856 13.6064C134.663 13.1858 134.55 12.7429 134.518 12.2777C134.473 11.286 134.746 10.4787 135.338 9.8557C135.446 9.74149 135.565 9.63715 135.694 9.54267C136.283 9.17308 136.821 9.22014 137.309 9.68385C137.402 9.77265 137.481 9.87702 137.545 9.99697C137.769 10.4471 137.709 10.8539 137.363 11.2173C137.284 11.3004 137.2 11.3684 137.11 11.4213C136.88 11.5387 136.525 11.5376 136.046 11.4181C135.659 11.3267 135.396 11.3536 135.258 11.499C135.14 11.6438 135.075 11.8684 135.063 12.1726C135.028 13.1866 135.55 14.2067 136.63 15.2328L139.636 18.0891L140.716 16.9522ZM148.281 14.614C148.405 14.475 148.497 14.3175 148.558 14.1415C148.812 13.4472 148.514 12.2217 147.662 10.4649L138.427 7.58746L137.77 8.32525L137.353 7.9536L140.369 4.56939L140.786 4.94104L139.857 5.98357L146.573 8.1994L143.444 1.9578L142.387 3.14468L141.97 2.77303L144.171 0.303032C144.257 0.379269 144.321 0.446558 144.365 0.504899C144.476 0.660862 144.431 0.851116 144.231 1.07566C144.164 1.15051 144.107 1.22478 144.061 1.29846C143.969 1.46605 144.02 1.73196 144.213 2.09619L148.098 9.84641C148.465 10.576 148.741 11.2449 148.929 11.8529C149.412 13.3772 149.268 14.5725 148.496 15.4386C148.229 15.7379 147.932 15.963 147.606 16.1136C146.992 16.3721 146.498 16.3346 146.124 16.001C146.07 15.9534 146.022 15.9004 145.978 15.8421C145.733 15.4706 145.768 15.1085 146.083 14.7556C146.216 14.6059 146.368 14.511 146.538 14.4707C146.718 14.4198 147.041 14.4875 147.508 14.6736C147.861 14.8156 148.119 14.7958 148.281 14.614Z" fill="white"/>
</svg>
